ISO-10303-21;
HEADER;
FILE_DESCRIPTION (( 'STEP AP214' ),
    '1' );
FILE_NAME ('ELP_Camera.STEP',
    '2026-09-07T18:23:35',
    ( '' ),
    ( '' ),
    'SwSTEP 2.0',
    'SolidWorks 2026',
    '' );
FILE_SCHEMA (( 'AUTOMOTIVE_DESIGN' ));
ENDSEC;

DATA;
#1 = AXIS2_PLACEMENT_3D ( 'NONE', #291, #342, #34 ) ;
#2 = LINE ( 'NONE', #351, #349 ) ;
#3 = EDGE_LOOP ( 'NONE', ( #120, #294 ) ) ;
#4 = DIRECTION ( 'NONE',  ( 0.000000000000000000, 0.000000000000000000, 1.000000000000000000 ) ) ;
#5 = EDGE_CURVE ( 'NONE', #202, #586, #296, .T. ) ;
#6 = EDGE_LOOP ( 'NONE', ( #518, #37, #219, #161 ) ) ;
#7 = CARTESIAN_POINT ( 'NONE',  ( -20.00000000000000000, 41.00000000000000000, 0.000000000000000000 ) ) ;
#8 = CARTESIAN_POINT ( 'NONE',  ( 0.000000000000000000, 0.000000000000000000, -22.50000000000000355 ) ) ;
#9 = VERTEX_POINT ( 'NONE', #305 ) ;
#10 = CIRCLE ( 'NONE', #116, 1.999999999999998224 ) ;
#11 = DIRECTION ( 'NONE',  ( 0.000000000000000000, 1.000000000000000000, 0.000000000000000000 ) ) ;
#12 = DIRECTION ( 'NONE',  ( 0.000000000000000000, 1.000000000000000000, 0.000000000000000000 ) ) ;
#13 = AXIS2_PLACEMENT_3D ( 'NONE', #376, #70, #519 ) ;
#14 = ORIENTED_EDGE ( 'NONE', *, *, #30, .T. ) ;
#15 = CARTESIAN_POINT ( 'NONE',  ( 20.00000000000000000, 0.000000000000000000, -34.00000000000000000 ) ) ;
#16 = CYLINDRICAL_SURFACE ( 'NONE', #621, 2.499999999999998668 ) ;
#17 = ORIENTED_EDGE ( 'NONE', *, *, #541, .F. ) ;
#18 = CARTESIAN_POINT ( 'NONE',  ( -12.00000000000000000, -6.000000000000000000, -14.00000000000000000 ) ) ;
#19 = ADVANCED_FACE ( 'NONE', ( #52 ), #359, .F. ) ;
#20 = DIRECTION ( 'NONE',  ( 0.000000000000000000, -0.000000000000000000, -1.000000000000000000 ) ) ;
#21 = ORIENTED_EDGE ( 'NONE', *, *, #503, .F. ) ;
#22 = CARTESIAN_POINT ( 'NONE',  ( 0.000000000000000000, 20.00000000000000000, 10.99999999999999822 ) ) ;
#23 = COLOUR_RGB ( '',0.7921568627450980005, 0.8196078431372548767, 0.9333333333333333481 ) ;
#24 = FACE_BOUND ( 'NONE', #142, .T. ) ;
#25 = ORIENTED_EDGE ( 'NONE', *, *, #301, .T. ) ;
#26 = DIRECTION ( 'NONE',  ( 0.000000000000000000, 0.000000000000000000, 1.000000000000000000 ) ) ;
#27 = AXIS2_PLACEMENT_3D ( 'NONE', #145, #159, #90 ) ;
#28 = CIRCLE ( 'NONE', #479, 7.500000000000000000 ) ;
#29 = CARTESIAN_POINT ( 'NONE',  ( 20.00000000000000000, 0.000000000000000000, 0.000000000000000000 ) ) ;
#30 = EDGE_CURVE ( 'NONE', #513, #286, #2, .T. ) ;
#31 = ORIENTED_EDGE ( 'NONE', *, *, #404, .F. ) ;
#32 = CARTESIAN_POINT ( 'NONE',  ( -6.000000000000002665, 0.000000000000000000, -20.00000000000000000 ) ) ;
#33 = VERTEX_POINT ( 'NONE', #446 ) ;
#34 = DIRECTION ( 'NONE',  ( 1.000000000000000000, 0.000000000000000000, 0.000000000000000000 ) ) ;
#35 = VECTOR ( 'NONE', #615, 1000.000000000000000 ) ;
#36 = DIRECTION ( 'NONE',  ( 0.000000000000000000, 0.000000000000000000, 1.000000000000000000 ) ) ;
#37 = ORIENTED_EDGE ( 'NONE', *, *, #311, .F. ) ;
#38 = DIRECTION ( 'NONE',  ( -1.000000000000000000, -0.000000000000000000, -0.000000000000000000 ) ) ;
#39 = ORIENTED_EDGE ( 'NONE', *, *, #49, .F. ) ;
#40 = CARTESIAN_POINT ( 'NONE',  ( -12.00000000000000000, -6.000000000000000000, -14.00000000000000000 ) ) ;
#41 = EDGE_CURVE ( 'NONE', #544, #229, #250, .T. ) ;
#42 = CARTESIAN_POINT ( 'NONE',  ( -7.500000000000000000, 20.00000000000000000, 10.99999999999999822 ) ) ;
#43 = CARTESIAN_POINT ( 'NONE',  ( 0.000000000000000000, 20.00000000000000000, 10.99999999999999822 ) ) ;
#44 = DIRECTION ( 'NONE',  ( 0.000000000000000000, 0.000000000000000000, 1.000000000000000000 ) ) ;
#45 = PRODUCT ( 'ELP_Camera', 'ELP_Camera', '', ( #533 ) ) ;
#46 = DIRECTION ( 'NONE',  ( 0.000000000000000000, 0.000000000000000000, 1.000000000000000000 ) ) ;
#47 = PLANE ( 'NONE',  #508 ) ;
#48 = CIRCLE ( 'NONE', #419, 7.500000000000000000 ) ;
#49 = EDGE_CURVE ( 'NONE', #132, #513, #89, .T. ) ;
#50 = EDGE_CURVE ( 'NONE', #316, #229, #498, .T. ) ;
#51 = CARTESIAN_POINT ( 'NONE',  ( 0.000000000000000000, -6.000000000000000000, 0.000000000000000000 ) ) ;
#52 = FACE_OUTER_BOUND ( 'NONE', #172, .T. ) ;
#53 = AXIS2_PLACEMENT_3D ( 'NONE', #106, #62, #262 ) ;
#54 = ORIENTED_EDGE ( 'NONE', *, *, #190, .F. ) ;
#55 = DIRECTION ( 'NONE',  ( 0.000000000000000000, 1.000000000000000000, 0.000000000000000000 ) ) ;
#56 = ORIENTED_EDGE ( 'NONE', *, *, #83, .T. ) ;
#57 = AXIS2_PLACEMENT_3D ( 'NONE', #449, #647, #403 ) ;
#58 = DIRECTION ( 'NONE',  ( 0.000000000000000000, 1.000000000000000000, 0.000000000000000000 ) ) ;
#59 = CYLINDRICAL_SURFACE ( 'NONE', #314, 2.000000000000001776 ) ;
#60 = ADVANCED_FACE ( 'NONE', ( #453, #408, #501, #543 ), #47, .T. ) ;
#61 = ORIENTED_EDGE ( 'NONE', *, *, #135, .T. ) ;
#62 = DIRECTION ( 'NONE',  ( 0.000000000000000000, 0.000000000000000000, 1.000000000000000000 ) ) ;
#63 = EDGE_CURVE ( 'NONE', #263, #80, #28, .T. ) ;
#64 = EDGE_LOOP ( 'NONE', ( #277, #623, #490, #105 ) ) ;
#65 = CIRCLE ( 'NONE', #307, 2.000000000000001776 ) ;
#66 = CARTESIAN_POINT ( 'NONE',  ( 0.000000000000000000, 0.000000000000000000, 0.000000000000000000 ) ) ;
#67 = FACE_OUTER_BOUND ( 'NONE', #299, .T. ) ;
#68 = VECTOR ( 'NONE', #188, 1000.000000000000000 ) ;
#69 = ORIENTED_EDGE ( 'NONE', *, *, #643, .F. ) ;
#70 = DIRECTION ( 'NONE',  ( 1.000000000000000000, -0.000000000000000000, 0.000000000000000000 ) ) ;
#71 = EDGE_CURVE ( 'NONE', #80, #263, #48, .T. ) ;
#72 = PLANE ( 'NONE',  #53 ) ;
#73 = VERTEX_POINT ( 'NONE', #309 ) ;
#74 = CARTESIAN_POINT ( 'NONE',  ( 12.00000000000000000, -6.000000000000000000, -14.00000000000000000 ) ) ;
#75 = FACE_OUTER_BOUND ( 'NONE', #147, .T. ) ;
#76 = ORIENTED_EDGE ( 'NONE', *, *, #643, .T. ) ;
#77 = LINE ( 'NONE', #515, #252 ) ;
#78 = EDGE_CURVE ( 'NONE', #163, #73, #552, .T. ) ;
#79 = SURFACE_SIDE_STYLE ('',( #531 ) ) ;
#80 = VERTEX_POINT ( 'NONE', #355 ) ;
#81 = ORIENTED_EDGE ( 'NONE', *, *, #632, .F. ) ;
#82 = EDGE_LOOP ( 'NONE', ( #409, #639, #457, #557 ) ) ;
#83 = EDGE_CURVE ( 'NONE', #229, #316, #551, .T. ) ;
#84 = AXIS2_PLACEMENT_3D ( 'NONE', #389, #222, #293 ) ;
#85 =( LENGTH_UNIT ( ) NAMED_UNIT ( * ) SI_UNIT ( .MILLI., .METRE. ) );
#86 = EDGE_LOOP ( 'NONE', ( #611, #500, #454, #56 ) ) ;
#87 = VECTOR ( 'NONE', #590, 1000.000000000000000 ) ;
#88 = CARTESIAN_POINT ( 'NONE',  ( 0.000000000000000000, 0.000000000000000000, 0.000000000000000000 ) ) ;
#89 = LINE ( 'NONE', #241, #254 ) ;
#90 = DIRECTION ( 'NONE',  ( 0.000000000000000000, 0.000000000000000000, 1.000000000000000000 ) ) ;
#91 = DIRECTION ( 'NONE',  ( 0.000000000000000000, 0.000000000000000000, 1.000000000000000000 ) ) ;
#92 = CARTESIAN_POINT ( 'NONE',  ( -12.00000000000000000, -6.000000000000000000, -14.00000000000000000 ) ) ;
#93 = DIRECTION ( 'NONE',  ( -0.000000000000000000, -0.000000000000000000, 1.000000000000000000 ) ) ;
#94 = EDGE_CURVE ( 'NONE', #382, #356, #540, .T. ) ;
#95 = EDGE_LOOP ( 'NONE', ( #635, #17, #434, #442 ) ) ;
#96 = VECTOR ( 'NONE', #429, 1000.000000000000000 ) ;
#97 = CYLINDRICAL_SURFACE ( 'NONE', #455, 7.500000000000000000 ) ;
#98 = DIRECTION ( 'NONE',  ( 0.000000000000000000, 0.000000000000000000, 1.000000000000000000 ) ) ;
#99 = EDGE_LOOP ( 'NONE', ( #391, #166, #530, #478 ) ) ;
#100 = PRODUCT_DEFINITION_SHAPE ( 'NONE', 'NONE',  #585 ) ;
#101 = CARTESIAN_POINT ( 'NONE',  ( -6.000000000000002665, 0.000000000000000000, -18.00000000000000000 ) ) ;
#102 = ORIENTED_EDGE ( 'NONE', *, *, #275, .T. ) ;
#103 = FACE_OUTER_BOUND ( 'NONE', #127, .T. ) ;
#104 = VECTOR ( 'NONE', #416, 1000.000000000000000 ) ;
#105 = ORIENTED_EDGE ( 'NONE', *, *, #632, .T. ) ;
#106 = CARTESIAN_POINT ( 'NONE',  ( -12.00000000000000000, -6.000000000000000000, -14.00000000000000000 ) ) ;
#107 = ORIENTED_EDGE ( 'NONE', *, *, #247, .F. ) ;
#108 = PLANE ( 'NONE',  #626 ) ;
#109 = DIRECTION ( 'NONE',  ( 1.000000000000000000, 0.000000000000000000, 0.000000000000000000 ) ) ;
#110 = VERTEX_POINT ( 'NONE', #152 ) ;
#111 = DIRECTION ( 'NONE',  ( 0.000000000000000000, 1.000000000000000000, 0.000000000000000000 ) ) ;
#112 = PLANE ( 'NONE',  #484 ) ;
#113 = ADVANCED_FACE ( 'NONE', ( #601 ), #444, .T. ) ;
#114 = VERTEX_POINT ( 'NONE', #312 ) ;
#115 = EDGE_CURVE ( 'NONE', #360, #263, #298, .T. ) ;
#116 = AXIS2_PLACEMENT_3D ( 'NONE', #430, #474, #218 ) ;
#117 = DIRECTION ( 'NONE',  ( -1.000000000000000000, 0.000000000000000000, 0.000000000000000000 ) ) ;
#118 = DIRECTION ( 'NONE',  ( 0.000000000000000000, 1.000000000000000000, 0.000000000000000000 ) ) ;
#119 = AXIS2_PLACEMENT_3D ( 'NONE', #7, #640, #493 ) ;
#120 = ORIENTED_EDGE ( 'NONE', *, *, #63, .F. ) ;
#121 = LINE ( 'NONE', #226, #96 ) ;
#122 = CARTESIAN_POINT ( 'NONE',  ( 3.061616997868384620E-16, -6.000000000000000000, -27.50000000000000000 ) ) ;
#123 = ORIENTED_EDGE ( 'NONE', *, *, #49, .T. ) ;
#124 = FACE_OUTER_BOUND ( 'NONE', #614, .T. ) ;
#125 = ADVANCED_FACE ( 'NONE', ( #189 ), #399, .F. ) ;
#126 = DIRECTION ( 'NONE',  ( 0.000000000000000000, -1.000000000000000000, 0.000000000000000000 ) ) ;
#127 = EDGE_LOOP ( 'NONE', ( #54, #471, #510, #497 ) ) ;
#128 = PLANE ( 'NONE',  #136 ) ;
#129 = EDGE_LOOP ( 'NONE', ( #213, #440 ) ) ;
#130 = VECTOR ( 'NONE', #599, 1000.000000000000000 ) ;
#131 =( NAMED_UNIT ( * ) SI_UNIT ( $, .STERADIAN. ) SOLID_ANGLE_UNIT ( ) );
#132 = VERTEX_POINT ( 'NONE', #193 ) ;
#133 = CARTESIAN_POINT ( 'NONE',  ( 0.000000000000000000, 41.00000000000000000, 0.000000000000000000 ) ) ;
#134 = EDGE_LOOP ( 'NONE', ( #31, #107, #596, #69 ) ) ;
#135 = EDGE_CURVE ( 'NONE', #586, #202, #230, .T. ) ;
#136 = AXIS2_PLACEMENT_3D ( 'NONE', #636, #581, #427 ) ;
#137 = LINE ( 'NONE', #600, #558 ) ;
#138 = CARTESIAN_POINT ( 'NONE',  ( 0.000000000000000000, 20.00000000000000000, 0.000000000000000000 ) ) ;
#139 = APPLICATION_PROTOCOL_DEFINITION ( 'draft international standard', 'automotive_design', 1998, #269 ) ;
#140 = FACE_OUTER_BOUND ( 'NONE', #95, .T. ) ;
#141 = LINE ( 'NONE', #203, #149 ) ;
#142 = EDGE_LOOP ( 'NONE', ( #537, #505, #235, #337 ) ) ;
#143 = EDGE_CURVE ( 'NONE', #534, #73, #377, .T. ) ;
#144 = ADVANCED_FACE ( 'NONE', ( #613 ), #618, .T. ) ;
#145 = CARTESIAN_POINT ( 'NONE',  ( 0.000000000000000000, -6.000000000000000000, -25.00000000000000000 ) ) ;
#146 = DIRECTION ( 'NONE',  ( 1.000000000000000000, 0.000000000000000000, 0.000000000000000000 ) ) ;
#147 = EDGE_LOOP ( 'NONE', ( #631, #526 ) ) ;
#148 = CARTESIAN_POINT ( 'NONE',  ( -20.00000000000000000, 0.000000000000000000, 0.000000000000000000 ) ) ;
#149 = VECTOR ( 'NONE', #319, 1000.000000000000000 ) ;
#150 = DIRECTION ( 'NONE',  ( 0.000000000000000000, -0.000000000000000000, -1.000000000000000000 ) ) ;
#151 = VECTOR ( 'NONE', #38, 1000.000000000000000 ) ;
#152 = CARTESIAN_POINT ( 'NONE',  ( 20.00000000000000000, 0.000000000000000000, 0.000000000000000000 ) ) ;
#153 = EDGE_CURVE ( 'NONE', #563, #202, #200, .T. ) ;
#154 = CARTESIAN_POINT ( 'NONE',  ( 0.000000000000000000, 0.000000000000000000, -25.00000000000000000 ) ) ;
#155 = EDGE_LOOP ( 'NONE', ( #364, #282, #158, #339 ) ) ;
#156 = PRODUCT_RELATED_PRODUCT_CATEGORY ( 'part', '', ( #45 ) ) ;
#157 = DIRECTION ( 'NONE',  ( 0.000000000000000000, 0.000000000000000000, 1.000000000000000000 ) ) ;
#158 = ORIENTED_EDGE ( 'NONE', *, *, #143, .T. ) ;
#159 = DIRECTION ( 'NONE',  ( 0.000000000000000000, 1.000000000000000000, 0.000000000000000000 ) ) ;
#160 = DIRECTION ( 'NONE',  ( -0.000000000000000000, -0.000000000000000000, -1.000000000000000000 ) ) ;
#161 = ORIENTED_EDGE ( 'NONE', *, *, #231, .T. ) ;
#162 = DIRECTION ( 'NONE',  ( 0.000000000000000000, 0.000000000000000000, 1.000000000000000000 ) ) ;
#163 = VERTEX_POINT ( 'NONE', #569 ) ;
#164 = CARTESIAN_POINT ( 'NONE',  ( 7.500000000000000000, 20.00000000000000000, 10.99999999999999822 ) ) ;
#165 = DIRECTION ( 'NONE',  ( -1.000000000000000000, 0.000000000000000000, 0.000000000000000000 ) ) ;
#166 = ORIENTED_EDGE ( 'NONE', *, *, #561, .T. ) ;
#167 = VECTOR ( 'NONE', #642, 1000.000000000000000 ) ;
#168 = CARTESIAN_POINT ( 'NONE',  ( 5.999999999999997335, 0.000000000000000000, -19.99999999999999645 ) ) ;
#169 = DIRECTION ( 'NONE',  ( 0.000000000000000000, 1.000000000000000000, 0.000000000000000000 ) ) ;
#170 = AXIS2_PLACEMENT_3D ( 'NONE', #66, #418, #511 ) ;
#171 = EDGE_CURVE ( 'NONE', #563, #332, #436, .T. ) ;
#172 = EDGE_LOOP ( 'NONE', ( #609, #464, #61, #468 ) ) ;
#173 = CARTESIAN_POINT ( 'NONE',  ( -12.00000000000000000, -6.000000000000000000, -28.99999999999999645 ) ) ;
#174 = CARTESIAN_POINT ( 'NONE',  ( -20.00000000000000000, 41.00000000000000000, -34.00000000000000000 ) ) ;
#175 = ORIENTED_EDGE ( 'NONE', *, *, #541, .T. ) ;
#176 = CARTESIAN_POINT ( 'NONE',  ( 3.061616997868384620E-16, 0.000000000000000000, -27.50000000000000000 ) ) ;
#177 = PLANE ( 'NONE',  #502 ) ;
#178 = ORIENTED_EDGE ( 'NONE', *, *, #247, .T. ) ;
#179 = VERTEX_POINT ( 'NONE', #521 ) ;
#180 =( GEOMETRIC_REPRESENTATION_CONTEXT ( 3 ) GLOBAL_UNCERTAINTY_ASSIGNED_CONTEXT ( ( #354 ) ) GLOBAL_UNIT_ASSIGNED_CONTEXT ( ( #209, #372, #242 ) ) REPRESENTATION_CONTEXT ( 'NONE', 'WORKASPACE' ) );
#181 = EDGE_CURVE ( 'NONE', #114, #316, #367, .T. ) ;
#182 = FILL_AREA_STYLE_COLOUR ( '', #23 ) ;
#183 = ORIENTED_EDGE ( 'NONE', *, *, #576, .F. ) ;
#184 = SHAPE_DEFINITION_REPRESENTATION ( #100, #232 ) ;
#185 = DIRECTION ( 'NONE',  ( 0.000000000000000000, 0.000000000000000000, 1.000000000000000000 ) ) ;
#186 = ORIENTED_EDGE ( 'NONE', *, *, #358, .T. ) ;
#187 = PRESENTATION_LAYER_ASSIGNMENT (  '', '', ( #397 ) ) ;
#188 = DIRECTION ( 'NONE',  ( 0.000000000000000000, 1.000000000000000000, 0.000000000000000000 ) ) ;
#189 = FACE_OUTER_BOUND ( 'NONE', #155, .T. ) ;
#190 = EDGE_CURVE ( 'NONE', #114, #544, #602, .T. ) ;
#191 = VECTOR ( 'NONE', #274, 1000.000000000000000 ) ;
#192 = FACE_OUTER_BOUND ( 'NONE', #64, .T. ) ;
#193 = CARTESIAN_POINT ( 'NONE',  ( -20.00000000000000000, 41.00000000000000000, -34.00000000000000000 ) ) ;
#194 = CARTESIAN_POINT ( 'NONE',  ( 12.00000000000000000, 0.000000000000000000, -28.99999999999999645 ) ) ;
#195 = DIRECTION ( 'NONE',  ( 0.000000000000000000, 0.000000000000000000, 1.000000000000000000 ) ) ;
#196 = ADVANCED_FACE ( 'NONE', ( #331 ), #72, .T. ) ;
#197 = VECTOR ( 'NONE', #517, 1000.000000000000000 ) ;
#198 = DIRECTION ( 'NONE',  ( 0.000000000000000000, 1.000000000000000000, 0.000000000000000000 ) ) ;
#199 = VECTOR ( 'NONE', #472, 1000.000000000000000 ) ;
#200 = LINE ( 'NONE', #206, #303 ) ;
#201 = EDGE_CURVE ( 'NONE', #578, #356, #141, .T. ) ;
#202 = VERTEX_POINT ( 'NONE', #8 ) ;
#203 = CARTESIAN_POINT ( 'NONE',  ( -12.00000000000000000, -6.000000000000000000, -28.99999999999999645 ) ) ;
#204 = EDGE_LOOP ( 'NONE', ( #238, #344, #76, #532 ) ) ;
#205 = LINE ( 'NONE', #415, #361 ) ;
#206 = CARTESIAN_POINT ( 'NONE',  ( 0.000000000000000000, -6.000000000000000000, -22.50000000000000355 ) ) ;
#207 = ORIENTED_EDGE ( 'NONE', *, *, #271, .T. ) ;
#208 = ADVANCED_FACE ( 'NONE', ( #412 ), #112, .F. ) ;
#209 =( LENGTH_UNIT ( ) NAMED_UNIT ( * ) SI_UNIT ( .MILLI., .METRE. ) );
#210 = EDGE_CURVE ( 'NONE', #360, #33, #249, .T. ) ;
#211 = PRODUCT_DEFINITION_CONTEXT ( 'detailed design', #287, 'design' ) ;
#212 = LINE ( 'NONE', #504, #278 ) ;
#213 = ORIENTED_EDGE ( 'NONE', *, *, #171, .T. ) ;
#214 = CARTESIAN_POINT ( 'NONE',  ( 20.00000000000000000, 41.00000000000000000, 0.000000000000000000 ) ) ;
#215 = CARTESIAN_POINT ( 'NONE',  ( 0.000000000000000000, -6.000000000000000000, -25.00000000000000000 ) ) ;
#216 = EDGE_LOOP ( 'NONE', ( #102, #21, #183, #175 ) ) ;
#217 = CARTESIAN_POINT ( 'NONE',  ( -6.000000000000002665, -6.000000000000000000, -18.00000000000000000 ) ) ;
#218 = DIRECTION ( 'NONE',  ( 0.000000000000000000, 0.000000000000000000, 1.000000000000000000 ) ) ;
#219 = ORIENTED_EDGE ( 'NONE', *, *, #528, .T. ) ;
#220 = VECTOR ( 'NONE', #246, 1000.000000000000000 ) ;
#221 = CYLINDRICAL_SURFACE ( 'NONE', #572, 2.000000000000001776 ) ;
#222 = DIRECTION ( 'NONE',  ( 0.000000000000000000, -1.000000000000000000, 0.000000000000000000 ) ) ;
#223 = VECTOR ( 'NONE', #564, 1000.000000000000000 ) ;
#224 = ORIENTED_EDGE ( 'NONE', *, *, #190, .T. ) ;
#225 = ADVANCED_FACE ( 'NONE', ( #103 ), #59, .F. ) ;
#226 = CARTESIAN_POINT ( 'NONE',  ( -12.00000000000000000, -6.000000000000000000, -14.00000000000000000 ) ) ;
#227 = DIRECTION ( 'NONE',  ( -1.000000000000000000, -0.000000000000000000, -0.000000000000000000 ) ) ;
#228 = EDGE_LOOP ( 'NONE', ( #616, #401, #566, #329 ) ) ;
#229 = VERTEX_POINT ( 'NONE', #512 ) ;
#230 = CIRCLE ( 'NONE', #345, 2.499999999999998668 ) ;
#231 = EDGE_CURVE ( 'NONE', #310, #382, #456, .T. ) ;
#232 = ADVANCED_BREP_SHAPE_REPRESENTATION ( 'ELP_Camera', ( #325, #1 ), #180 ) ;
#233 = EDGE_CURVE ( 'NONE', #513, #424, #212, .T. ) ;
#234 = CARTESIAN_POINT ( 'NONE',  ( -7.500000000000000000, 20.00000000000000000, 0.000000000000000000 ) ) ;
#235 = ORIENTED_EDGE ( 'NONE', *, *, #487, .T. ) ;
#236 = AXIS2_PLACEMENT_3D ( 'NONE', #620, #11, #26 ) ;
#237 = DIRECTION ( 'NONE',  ( 1.000000000000000000, 0.000000000000000000, 0.000000000000000000 ) ) ;
#238 = ORIENTED_EDGE ( 'NONE', *, *, #487, .F. ) ;
#239 = DIRECTION ( 'NONE',  ( -0.000000000000000000, -0.000000000000000000, 1.000000000000000000 ) ) ;
#240 = EDGE_CURVE ( 'NONE', #341, #534, #459, .T. ) ;
#241 = CARTESIAN_POINT ( 'NONE',  ( -20.00000000000000000, 41.00000000000000000, 0.000000000000000000 ) ) ;
#242 =( NAMED_UNIT ( * ) SI_UNIT ( $, .STERADIAN. ) SOLID_ANGLE_UNIT ( ) );
#243 = DIRECTION ( 'NONE',  ( -0.000000000000000000, -0.000000000000000000, -1.000000000000000000 ) ) ;
#244 = DIRECTION ( 'NONE',  ( 0.000000000000000000, 1.000000000000000000, 0.000000000000000000 ) ) ;
#245 = FACE_OUTER_BOUND ( 'NONE', #216, .T. ) ;
#246 = DIRECTION ( 'NONE',  ( -1.000000000000000000, -0.000000000000000000, -0.000000000000000000 ) ) ;
#247 = EDGE_CURVE ( 'NONE', #310, #578, #253, .T. ) ;
#248 = CARTESIAN_POINT ( 'NONE',  ( 12.00000000000000000, -6.000000000000000000, -14.00000000000000000 ) ) ;
#249 = CIRCLE ( 'NONE', #555, 7.500000000000000000 ) ;
#250 = LINE ( 'NONE', #450, #130 ) ;
#251 = ORIENTED_EDGE ( 'NONE', *, *, #380, .F. ) ;
#252 = VECTOR ( 'NONE', #384, 1000.000000000000000 ) ;
#253 = LINE ( 'NONE', #374, #197 ) ;
#254 = VECTOR ( 'NONE', #93, 1000.000000000000000 ) ;
#255 = VERTEX_POINT ( 'NONE', #607 ) ;
#256 = CARTESIAN_POINT ( 'NONE',  ( -7.500000000000000000, 20.00000000000000000, 10.99999999999999822 ) ) ;
#257 = DIRECTION ( 'NONE',  ( 0.000000000000000000, 0.000000000000000000, 1.000000000000000000 ) ) ;
#258 = ADVANCED_FACE ( 'NONE', ( #67 ), #16, .F. ) ;
#259 = ORIENTED_EDGE ( 'NONE', *, *, #210, .T. ) ;
#260 = LINE ( 'NONE', #74, #604 ) ;
#261 = AXIS2_PLACEMENT_3D ( 'NONE', #338, #36, #573 ) ;
#262 = DIRECTION ( 'NONE',  ( 1.000000000000000000, 0.000000000000000000, -0.000000000000000000 ) ) ;
#263 = VERTEX_POINT ( 'NONE', #234 ) ;
#264 = CARTESIAN_POINT ( 'NONE',  ( -20.00000000000000000, 41.00000000000000000, 0.000000000000000000 ) ) ;
#265 = CIRCLE ( 'NONE', #27, 2.499999999999998668 ) ;
#266 = DIRECTION ( 'NONE',  ( -0.000000000000000000, -1.000000000000000000, -0.000000000000000000 ) ) ;
#267 = ORIENTED_EDGE ( 'NONE', *, *, #94, .F. ) ;
#268 = AXIS2_PLACEMENT_3D ( 'NONE', #101, #492, #44 ) ;
#269 = APPLICATION_CONTEXT ( 'automotive_design' ) ;
#270 = LINE ( 'NONE', #335, #199 ) ;
#271 = EDGE_CURVE ( 'NONE', #341, #163, #10, .T. ) ;
#272 = DIRECTION ( 'NONE',  ( 0.000000000000000000, 0.000000000000000000, 1.000000000000000000 ) ) ;
#273 = ORIENTED_EDGE ( 'NONE', *, *, #388, .T. ) ;
#274 = DIRECTION ( 'NONE',  ( -0.000000000000000000, -1.000000000000000000, -0.000000000000000000 ) ) ;
#275 = EDGE_CURVE ( 'NONE', #110, #548, #627, .T. ) ;
#276 = PLANE ( 'NONE',  #633 ) ;
#277 = ORIENTED_EDGE ( 'NONE', *, *, #240, .F. ) ;
#278 = VECTOR ( 'NONE', #266, 1000.000000000000000 ) ;
#279 = FACE_OUTER_BOUND ( 'NONE', #82, .T. ) ;
#280 = SURFACE_STYLE_USAGE ( .BOTH. , #79 ) ;
#281 = CIRCLE ( 'NONE', #477, 1.999999999999998224 ) ;
#282 = ORIENTED_EDGE ( 'NONE', *, *, #240, .T. ) ;
#283 = UNCERTAINTY_MEASURE_WITH_UNIT (LENGTH_MEASURE( 1.000000000000000082E-05 ), #85, 'distance_accuracy_value', 'NONE');
#284 = LINE ( 'NONE', #174, #462 ) ;
#285 = ADVANCED_FACE ( 'NONE', ( #630 ), #128, .T. ) ;
#286 = VERTEX_POINT ( 'NONE', #336 ) ;
#287 = APPLICATION_CONTEXT ( 'automotive_design' ) ;
#288 = ADVANCED_FACE ( 'NONE', ( #622 ), #177, .F. ) ;
#289 = FACE_OUTER_BOUND ( 'NONE', #379, .T. ) ;
#290 = ORIENTED_EDGE ( 'NONE', *, *, #171, .F. ) ;
#291 = CARTESIAN_POINT ( 'NONE',  ( 0.000000000000000000, 0.000000000000000000, 0.000000000000000000 ) ) ;
#292 = AXIS2_PLACEMENT_3D ( 'NONE', #363, #55, #162 ) ;
#293 = DIRECTION ( 'NONE',  ( 0.000000000000000000, -0.000000000000000000, -1.000000000000000000 ) ) ;
#294 = ORIENTED_EDGE ( 'NONE', *, *, #71, .F. ) ;
#295 = VECTOR ( 'NONE', #239, 1000.000000000000000 ) ;
#296 = CIRCLE ( 'NONE', #57, 2.499999999999998668 ) ;
#297 = CARTESIAN_POINT ( 'NONE',  ( -6.000000000000002665, -6.000000000000000000, -18.00000000000000000 ) ) ;
#298 = LINE ( 'NONE', #42, #167 ) ;
#299 = EDGE_LOOP ( 'NONE', ( #251, #290, #417, #649 ) ) ;
#300 = DIRECTION ( 'NONE',  ( 0.000000000000000000, -1.000000000000000000, 0.000000000000000000 ) ) ;
#301 = EDGE_CURVE ( 'NONE', #255, #132, #284, .T. ) ;
#302 = CARTESIAN_POINT ( 'NONE',  ( 0.000000000000000000, -6.000000000000000000, -25.00000000000000000 ) ) ;
#303 = VECTOR ( 'NONE', #378, 1000.000000000000000 ) ;
#304 = CARTESIAN_POINT ( 'NONE',  ( 12.00000000000000000, 0.000000000000000000, -14.00000000000000000 ) ) ;
#305 = CARTESIAN_POINT ( 'NONE',  ( -20.00000000000000000, 0.000000000000000000, -34.00000000000000000 ) ) ;
#306 = ADVANCED_FACE ( 'NONE', ( #340, #24 ), #584, .T. ) ;
#307 = AXIS2_PLACEMENT_3D ( 'NONE', #297, #58, #185 ) ;
#308 = DIRECTION ( 'NONE',  ( -1.000000000000000000, 0.000000000000000000, 0.000000000000000000 ) ) ;
#309 = CARTESIAN_POINT ( 'NONE',  ( 5.999999999999997335, 0.000000000000000000, -16.00000000000000000 ) ) ;
#310 = VERTEX_POINT ( 'NONE', #480 ) ;
#311 = EDGE_CURVE ( 'NONE', #179, #386, #343, .T. ) ;
#312 = CARTESIAN_POINT ( 'NONE',  ( -6.000000000000002665, -6.000000000000000000, -20.00000000000000000 ) ) ;
#313 = ORIENTED_EDGE ( 'NONE', *, *, #452, .F. ) ;
#314 = AXIS2_PLACEMENT_3D ( 'NONE', #322, #411, #257 ) ;
#315 = CARTESIAN_POINT ( 'NONE',  ( 5.999999999999997335, 0.000000000000000000, -18.00000000000000000 ) ) ;
#316 = VERTEX_POINT ( 'NONE', #32 ) ;
#317 = VECTOR ( 'NONE', #495, 1000.000000000000000 ) ;
#318 = EDGE_CURVE ( 'NONE', #356, #334, #385, .T. ) ;
#319 = DIRECTION ( 'NONE',  ( 0.000000000000000000, 1.000000000000000000, 0.000000000000000000 ) ) ;
#320 = ORIENTED_EDGE ( 'NONE', *, *, #301, .F. ) ;
#321 = DIRECTION ( 'NONE',  ( 0.000000000000000000, 0.000000000000000000, 1.000000000000000000 ) ) ;
#322 = CARTESIAN_POINT ( 'NONE',  ( -6.000000000000002665, -6.000000000000000000, -18.00000000000000000 ) ) ;
#323 = EDGE_LOOP ( 'NONE', ( #267, #393, #178, #413 ) ) ;
#324 = PLANE ( 'NONE',  #594 ) ;
#325 = MANIFOLD_SOLID_BREP ( 'Boss-Extrude3', #466 ) ;
#326 = VECTOR ( 'NONE', #12, 1000.000000000000000 ) ;
#327 = CARTESIAN_POINT ( 'NONE',  ( 0.000000000000000000, 20.00000000000000000, 10.99999999999999822 ) ) ;
#328 = ADVANCED_FACE ( 'NONE', ( #289 ), #587, .T. ) ;
#329 = ORIENTED_EDGE ( 'NONE', *, *, #63, .T. ) ;
#330 = LINE ( 'NONE', #387, #539 ) ;
#331 = FACE_OUTER_BOUND ( 'NONE', #204, .T. ) ;
#332 = VERTEX_POINT ( 'NONE', #122 ) ;
#333 = CARTESIAN_POINT ( 'NONE',  ( -12.00000000000000000, 0.000000000000000000, -14.00000000000000000 ) ) ;
#334 = VERTEX_POINT ( 'NONE', #333 ) ;
#335 = CARTESIAN_POINT ( 'NONE',  ( -20.00000000000000000, 0.000000000000000000, 0.000000000000000000 ) ) ;
#336 = CARTESIAN_POINT ( 'NONE',  ( 20.00000000000000000, 41.00000000000000000, 0.000000000000000000 ) ) ;
#337 = ORIENTED_EDGE ( 'NONE', *, *, #606, .T. ) ;
#338 = CARTESIAN_POINT ( 'NONE',  ( 0.000000000000000000, 20.00000000000000000, 10.99999999999999822 ) ) ;
#339 = ORIENTED_EDGE ( 'NONE', *, *, #78, .F. ) ;
#340 = FACE_OUTER_BOUND ( 'NONE', #588, .T. ) ;
#341 = VERTEX_POINT ( 'NONE', #525 ) ;
#342 = DIRECTION ( 'NONE',  ( 0.000000000000000000, 0.000000000000000000, 1.000000000000000000 ) ) ;
#343 = LINE ( 'NONE', #433, #641 ) ;
#344 = ORIENTED_EDGE ( 'NONE', *, *, #365, .F. ) ;
#345 = AXIS2_PLACEMENT_3D ( 'NONE', #154, #610, #4 ) ;
#346 = CARTESIAN_POINT ( 'NONE',  ( 5.999999999999997335, -6.000000000000000000, -18.00000000000000000 ) ) ;
#347 = DIRECTION ( 'NONE',  ( 0.000000000000000000, 1.000000000000000000, 0.000000000000000000 ) ) ;
#348 = ADVANCED_FACE ( 'NONE', ( #75 ), #276, .T. ) ;
#349 = VECTOR ( 'NONE', #648, 1000.000000000000000 ) ;
#350 = PLANE ( 'NONE',  #119 ) ;
#351 = CARTESIAN_POINT ( 'NONE',  ( -20.00000000000000000, 41.00000000000000000, 0.000000000000000000 ) ) ;
#352 = ORIENTED_EDGE ( 'NONE', *, *, #414, .T. ) ;
#353 = LINE ( 'NONE', #40, #295 ) ;
#354 = UNCERTAINTY_MEASURE_WITH_UNIT (LENGTH_MEASURE( 1.000000000000000082E-05 ), #209, 'distance_accuracy_value', 'NONE');
#355 = CARTESIAN_POINT ( 'NONE',  ( 7.500000000000000000, 20.00000000000000000, 0.000000000000000000 ) ) ;
#356 = VERTEX_POINT ( 'NONE', #542 ) ;
#357 = DIRECTION ( 'NONE',  ( 0.000000000000000000, 1.000000000000000000, 0.000000000000000000 ) ) ;
#358 = EDGE_CURVE ( 'NONE', #544, #114, #65, .T. ) ;
#359 = CYLINDRICAL_SURFACE ( 'NONE', #383, 2.499999999999998668 ) ;
#360 = VERTEX_POINT ( 'NONE', #256 ) ;
#361 = VECTOR ( 'NONE', #237, 1000.000000000000000 ) ;
#362 = DIRECTION ( 'NONE',  ( 0.000000000000000000, 0.000000000000000000, -1.000000000000000000 ) ) ;
#363 = CARTESIAN_POINT ( 'NONE',  ( -6.000000000000002665, -6.000000000000000000, -18.00000000000000000 ) ) ;
#364 = ORIENTED_EDGE ( 'NONE', *, *, #271, .F. ) ;
#365 = EDGE_CURVE ( 'NONE', #460, #334, #458, .T. ) ;
#366 = AXIS2_PLACEMENT_3D ( 'NONE', #315, #118, #553 ) ;
#367 = LINE ( 'NONE', #556, #104 ) ;
#368 = EDGE_LOOP ( 'NONE', ( #123, #14, #431, #25 ) ) ;
#369 = FACE_OUTER_BOUND ( 'NONE', #228, .T. ) ;
#370 = CARTESIAN_POINT ( 'NONE',  ( -20.00000000000000000, 41.00000000000000000, -34.00000000000000000 ) ) ;
#371 = ORIENTED_EDGE ( 'NONE', *, *, #143, .F. ) ;
#372 =( NAMED_UNIT ( * ) PLANE_ANGLE_UNIT ( ) SI_UNIT ( $, .RADIAN. ) );
#373 = ADVANCED_FACE ( 'NONE', ( #549 ), #108, .T. ) ;
#374 = CARTESIAN_POINT ( 'NONE',  ( -12.00000000000000000, -6.000000000000000000, -28.99999999999999645 ) ) ;
#375 = ORIENTED_EDGE ( 'NONE', *, *, #452, .T. ) ;
#376 = CARTESIAN_POINT ( 'NONE',  ( -20.00000000000000000, 41.00000000000000000, 0.000000000000000000 ) ) ;
#377 = CIRCLE ( 'NONE', #366, 1.999999999999998224 ) ;
#378 = DIRECTION ( 'NONE',  ( 0.000000000000000000, 1.000000000000000000, 0.000000000000000000 ) ) ;
#379 = EDGE_LOOP ( 'NONE', ( #259, #475 ) ) ;
#380 = EDGE_CURVE ( 'NONE', #332, #586, #402, .T. ) ;
#381 = FACE_OUTER_BOUND ( 'NONE', #86, .T. ) ;
#382 = VERTEX_POINT ( 'NONE', #194 ) ;
#383 = AXIS2_PLACEMENT_3D ( 'NONE', #302, #198, #195 ) ;
#384 = DIRECTION ( 'NONE',  ( 0.000000000000000000, 0.000000000000000000, -1.000000000000000000 ) ) ;
#385 = LINE ( 'NONE', #536, #451 ) ;
#386 = VERTEX_POINT ( 'NONE', #304 ) ;
#387 = CARTESIAN_POINT ( 'NONE',  ( 12.00000000000000000, 0.000000000000000000, -14.00000000000000000 ) ) ;
#388 = EDGE_CURVE ( 'NONE', #9, #424, #598, .T. ) ;
#389 = CARTESIAN_POINT ( 'NONE',  ( 0.000000000000000000, 0.000000000000000000, 0.000000000000000000 ) ) ;
#390 = ORIENTED_EDGE ( 'NONE', *, *, #514, .T. ) ;
#391 = ORIENTED_EDGE ( 'NONE', *, *, #560, .F. ) ;
#392 = VECTOR ( 'NONE', #407, 1000.000000000000000 ) ;
#393 = ORIENTED_EDGE ( 'NONE', *, *, #231, .F. ) ;
#394 = DIRECTION ( 'NONE',  ( -1.000000000000000000, 0.000000000000000000, 0.000000000000000000 ) ) ;
#395 = DIRECTION ( 'NONE',  ( 0.000000000000000000, -1.000000000000000000, 0.000000000000000000 ) ) ;
#396 = EDGE_CURVE ( 'NONE', #332, #563, #265, .T. ) ;
#397 = STYLED_ITEM ( 'NONE', ( #483 ), #325 ) ;
#398 = DIRECTION ( 'NONE',  ( 0.000000000000000000, -1.000000000000000000, 0.000000000000000000 ) ) ;
#399 = CYLINDRICAL_SURFACE ( 'NONE', #568, 1.999999999999998224 ) ;
#400 = VECTOR ( 'NONE', #469, 1000.000000000000000 ) ;
#401 = ORIENTED_EDGE ( 'NONE', *, *, #210, .F. ) ;
#402 = LINE ( 'NONE', #491, #68 ) ;
#403 = DIRECTION ( 'NONE',  ( 0.000000000000000000, 0.000000000000000000, 1.000000000000000000 ) ) ;
#404 = EDGE_CURVE ( 'NONE', #578, #460, #353, .T. ) ;
#405 = ADVANCED_FACE ( 'NONE', ( #593, #140 ), #350, .F. ) ;
#406 = CARTESIAN_POINT ( 'NONE',  ( -20.00000000000000000, 0.000000000000000000, 0.000000000000000000 ) ) ;
#407 = DIRECTION ( 'NONE',  ( 0.000000000000000000, 1.000000000000000000, 0.000000000000000000 ) ) ;
#408 = FACE_BOUND ( 'NONE', #637, .T. ) ;
#409 = ORIENTED_EDGE ( 'NONE', *, *, #318, .F. ) ;
#410 = AXIS2_PLACEMENT_3D ( 'NONE', #646, #308, #507 ) ;
#411 = DIRECTION ( 'NONE',  ( 0.000000000000000000, 1.000000000000000000, 0.000000000000000000 ) ) ;
#412 = FACE_OUTER_BOUND ( 'NONE', #574, .T. ) ;
#413 = ORIENTED_EDGE ( 'NONE', *, *, #201, .T. ) ;
#414 = EDGE_CURVE ( 'NONE', #132, #9, #137, .T. ) ;
#415 = CARTESIAN_POINT ( 'NONE',  ( -12.00000000000000000, 0.000000000000000000, -14.00000000000000000 ) ) ;
#416 = DIRECTION ( 'NONE',  ( 0.000000000000000000, 1.000000000000000000, 0.000000000000000000 ) ) ;
#417 = ORIENTED_EDGE ( 'NONE', *, *, #153, .T. ) ;
#418 = DIRECTION ( 'NONE',  ( 0.000000000000000000, -1.000000000000000000, 0.000000000000000000 ) ) ;
#419 = AXIS2_PLACEMENT_3D ( 'NONE', #138, #98, #146 ) ;
#420 = CARTESIAN_POINT ( 'NONE',  ( 5.999999999999997335, -6.000000000000000000, -19.99999999999999645 ) ) ;
#421 = ORIENTED_EDGE ( 'NONE', *, *, #275, .F. ) ;
#422 = CARTESIAN_POINT ( 'NONE',  ( -6.000000000000002665, -6.000000000000000000, -15.99999999999999645 ) ) ;
#423 = DIRECTION ( 'NONE',  ( 0.000000000000000000, 1.000000000000000000, 0.000000000000000000 ) ) ;
#424 = VERTEX_POINT ( 'NONE', #148 ) ;
#425 = DIRECTION ( 'NONE',  ( 0.000000000000000000, 0.000000000000000000, -1.000000000000000000 ) ) ;
#426 = VECTOR ( 'NONE', #438, 1000.000000000000000 ) ;
#427 = DIRECTION ( 'NONE',  ( -1.000000000000000000, 0.000000000000000000, -0.000000000000000000 ) ) ;
#428 = ORIENTED_EDGE ( 'NONE', *, *, #503, .T. ) ;
#429 = DIRECTION ( 'NONE',  ( 1.000000000000000000, 0.000000000000000000, 0.000000000000000000 ) ) ;
#430 = CARTESIAN_POINT ( 'NONE',  ( 5.999999999999997335, -6.000000000000000000, -18.00000000000000000 ) ) ;
#431 = ORIENTED_EDGE ( 'NONE', *, *, #576, .T. ) ;
#432 = DIRECTION ( 'NONE',  ( 1.000000000000000000, 0.000000000000000000, 0.000000000000000000 ) ) ;
#433 = CARTESIAN_POINT ( 'NONE',  ( 12.00000000000000000, -6.000000000000000000, -14.00000000000000000 ) ) ;
#434 = ORIENTED_EDGE ( 'NONE', *, *, #30, .F. ) ;
#435 =( NAMED_UNIT ( * ) PLANE_ANGLE_UNIT ( ) SI_UNIT ( $, .RADIAN. ) );
#436 = CIRCLE ( 'NONE', #516, 2.499999999999998668 ) ;
#437 = EDGE_LOOP ( 'NONE', ( #273, #554, #39, #352 ) ) ;
#438 = DIRECTION ( 'NONE',  ( 0.000000000000000000, 0.000000000000000000, -1.000000000000000000 ) ) ;
#439 = PRODUCT_DEFINITION_FORMATION_WITH_SPECIFIED_SOURCE ( 'ANY', '', #45, .NOT_KNOWN. ) ;
#440 = ORIENTED_EDGE ( 'NONE', *, *, #396, .T. ) ;
#441 = DIRECTION ( 'NONE',  ( -0.000000000000000000, -1.000000000000000000, -0.000000000000000000 ) ) ;
#442 = ORIENTED_EDGE ( 'NONE', *, *, #233, .T. ) ;
#443 = DIRECTION ( 'NONE',  ( 0.000000000000000000, -0.000000000000000000, -1.000000000000000000 ) ) ;
#444 = PLANE ( 'NONE',  #473 ) ;
#445 = LINE ( 'NONE', #559, #151 ) ;
#446 = CARTESIAN_POINT ( 'NONE',  ( 7.500000000000000000, 20.00000000000000000, 10.99999999999999822 ) ) ;
#447 = ADVANCED_FACE ( 'NONE', ( #369 ), #97, .T. ) ;
#448 = PLANE ( 'NONE',  #410 ) ;
#449 = CARTESIAN_POINT ( 'NONE',  ( 0.000000000000000000, 0.000000000000000000, -25.00000000000000000 ) ) ;
#450 = CARTESIAN_POINT ( 'NONE',  ( -6.000000000000002665, -6.000000000000000000, -15.99999999999999645 ) ) ;
#451 = VECTOR ( 'NONE', #577, 1000.000000000000000 ) ;
#452 = EDGE_CURVE ( 'NONE', #548, #9, #445, .T. ) ;
#453 = FACE_BOUND ( 'NONE', #129, .T. ) ;
#454 = ORIENTED_EDGE ( 'NONE', *, *, #41, .T. ) ;
#455 = AXIS2_PLACEMENT_3D ( 'NONE', #43, #243, #394 ) ;
#456 = LINE ( 'NONE', #463, #326 ) ;
#457 = ORIENTED_EDGE ( 'NONE', *, *, #404, .T. ) ;
#458 = LINE ( 'NONE', #92, #87 ) ;
#459 = LINE ( 'NONE', #420, #35 ) ;
#460 = VERTEX_POINT ( 'NONE', #644 ) ;
#461 = LINE ( 'NONE', #214, #191 ) ;
#462 = VECTOR ( 'NONE', #227, 1000.000000000000000 ) ;
#463 = CARTESIAN_POINT ( 'NONE',  ( 12.00000000000000000, -6.000000000000000000, -28.99999999999999645 ) ) ;
#464 = ORIENTED_EDGE ( 'NONE', *, *, #380, .T. ) ;
#465 = DIRECTION ( 'NONE',  ( 0.000000000000000000, 0.000000000000000000, -1.000000000000000000 ) ) ;
#466 = CLOSED_SHELL ( 'NONE', ( #19, #225, #125, #144, #306, #535, #405, #486, #208, #288, #447, #328, #597, #285, #113, #196, #60, #482, #603, #258, #624, #373, #348 ) ) ;
#467 = DIRECTION ( 'NONE',  ( 0.000000000000000000, 1.000000000000000000, 0.000000000000000000 ) ) ;
#468 = ORIENTED_EDGE ( 'NONE', *, *, #153, .F. ) ;
#469 = DIRECTION ( 'NONE',  ( -0.000000000000000000, -0.000000000000000000, -1.000000000000000000 ) ) ;
#470 = DIRECTION ( 'NONE',  ( 1.000000000000000000, 0.000000000000000000, -0.000000000000000000 ) ) ;
#471 = ORIENTED_EDGE ( 'NONE', *, *, #181, .T. ) ;
#472 = DIRECTION ( 'NONE',  ( 1.000000000000000000, 0.000000000000000000, 0.000000000000000000 ) ) ;
#473 = AXIS2_PLACEMENT_3D ( 'NONE', #248, #494, #362 ) ;
#474 = DIRECTION ( 'NONE',  ( 0.000000000000000000, 1.000000000000000000, 0.000000000000000000 ) ) ;
#475 = ORIENTED_EDGE ( 'NONE', *, *, #560, .T. ) ;
#476 = PLANE ( 'NONE',  #170 ) ;
#477 = AXIS2_PLACEMENT_3D ( 'NONE', #523, #579, #571 ) ;
#478 = ORIENTED_EDGE ( 'NONE', *, *, #115, .F. ) ;
#479 = AXIS2_PLACEMENT_3D ( 'NONE', #550, #91, #592 ) ;
#480 = CARTESIAN_POINT ( 'NONE',  ( 12.00000000000000000, -6.000000000000000000, -28.99999999999999645 ) ) ;
#481 = EDGE_LOOP ( 'NONE', ( #628, #570 ) ) ;
#482 = ADVANCED_FACE ( 'NONE', ( #192 ), #545, .F. ) ;
#483 = PRESENTATION_STYLE_ASSIGNMENT (( #280 ) ) ;
#484 = AXIS2_PLACEMENT_3D ( 'NONE', #370, #509, #470 ) ;
#485 = EDGE_LOOP ( 'NONE', ( #390, #207 ) ) ;
#486 = ADVANCED_FACE ( 'NONE', ( #245 ), #448, .F. ) ;
#487 = EDGE_CURVE ( 'NONE', #334, #386, #205, .T. ) ;
#488 = CARTESIAN_POINT ( 'NONE',  ( 0.000000000000000000, 0.000000000000000000, 0.000000000000000000 ) ) ;
#489 = CIRCLE ( 'NONE', #236, 1.999999999999998224 ) ;
#490 = ORIENTED_EDGE ( 'NONE', *, *, #78, .T. ) ;
#491 = CARTESIAN_POINT ( 'NONE',  ( 3.061616997868383141E-16, -6.000000000000000000, -27.50000000000000000 ) ) ;
#492 = DIRECTION ( 'NONE',  ( 0.000000000000000000, 1.000000000000000000, 0.000000000000000000 ) ) ;
#493 = DIRECTION ( 'NONE',  ( -1.000000000000000000, 0.000000000000000000, -0.000000000000000000 ) ) ;
#494 = DIRECTION ( 'NONE',  ( 1.000000000000000000, -0.000000000000000000, 0.000000000000000000 ) ) ;
#495 = DIRECTION ( 'NONE',  ( -0.000000000000000000, -0.000000000000000000, 1.000000000000000000 ) ) ;
#496 = CARTESIAN_POINT ( 'NONE',  ( -12.00000000000000000, 0.000000000000000000, -28.99999999999999645 ) ) ;
#497 = ORIENTED_EDGE ( 'NONE', *, *, #41, .F. ) ;
#498 = CIRCLE ( 'NONE', #268, 2.000000000000001776 ) ;
#499 = CARTESIAN_POINT ( 'NONE',  ( 5.999999999999997335, -6.000000000000000000, -16.00000000000000000 ) ) ;
#500 = ORIENTED_EDGE ( 'NONE', *, *, #358, .F. ) ;
#501 = FACE_BOUND ( 'NONE', #485, .T. ) ;
#502 = AXIS2_PLACEMENT_3D ( 'NONE', #133, #126, #20 ) ;
#503 = EDGE_CURVE ( 'NONE', #255, #548, #612, .T. ) ;
#504 = CARTESIAN_POINT ( 'NONE',  ( -20.00000000000000000, 41.00000000000000000, 0.000000000000000000 ) ) ;
#505 = ORIENTED_EDGE ( 'NONE', *, *, #318, .T. ) ;
#506 = CIRCLE ( 'NONE', #520, 7.500000000000000000 ) ;
#507 = DIRECTION ( 'NONE',  ( 0.000000000000000000, 0.000000000000000000, 1.000000000000000000 ) ) ;
#508 = AXIS2_PLACEMENT_3D ( 'NONE', #51, #395, #150 ) ;
#509 = DIRECTION ( 'NONE',  ( 0.000000000000000000, 0.000000000000000000, 1.000000000000000000 ) ) ;
#510 = ORIENTED_EDGE ( 'NONE', *, *, #50, .T. ) ;
#511 = DIRECTION ( 'NONE',  ( 0.000000000000000000, -0.000000000000000000, -1.000000000000000000 ) ) ;
#512 = CARTESIAN_POINT ( 'NONE',  ( -6.000000000000002665, 0.000000000000000000, -15.99999999999999645 ) ) ;
#513 = VERTEX_POINT ( 'NONE', #264 ) ;
#514 = EDGE_CURVE ( 'NONE', #163, #341, #281, .T. ) ;
#515 = CARTESIAN_POINT ( 'NONE',  ( 20.00000000000000000, 41.00000000000000000, 0.000000000000000000 ) ) ;
#516 = AXIS2_PLACEMENT_3D ( 'NONE', #565, #467, #157 ) ;
#517 = DIRECTION ( 'NONE',  ( -1.000000000000000000, -0.000000000000000000, -0.000000000000000000 ) ) ;
#518 = ORIENTED_EDGE ( 'NONE', *, *, #606, .F. ) ;
#519 = DIRECTION ( 'NONE',  ( 0.000000000000000000, 0.000000000000000000, -1.000000000000000000 ) ) ;
#520 = AXIS2_PLACEMENT_3D ( 'NONE', #22, #617, #432 ) ;
#521 = CARTESIAN_POINT ( 'NONE',  ( 12.00000000000000000, -6.000000000000000000, -14.00000000000000000 ) ) ;
#522 = ORIENTED_EDGE ( 'NONE', *, *, #388, .F. ) ;
#523 = CARTESIAN_POINT ( 'NONE',  ( 5.999999999999997335, -6.000000000000000000, -18.00000000000000000 ) ) ;
#524 = EDGE_CURVE ( 'NONE', #424, #110, #270, .T. ) ;
#525 = CARTESIAN_POINT ( 'NONE',  ( 5.999999999999997335, -6.000000000000000000, -19.99999999999999645 ) ) ;
#526 = ORIENTED_EDGE ( 'NONE', *, *, #135, .F. ) ;
#527 = CARTESIAN_POINT ( 'NONE',  ( 0.000000000000000000, -6.000000000000000000, -22.50000000000000355 ) ) ;
#528 = EDGE_CURVE ( 'NONE', #179, #310, #260, .T. ) ;
#529 = DIRECTION ( 'NONE',  ( 0.000000000000000000, 0.000000000000000000, 1.000000000000000000 ) ) ;
#530 = ORIENTED_EDGE ( 'NONE', *, *, #71, .T. ) ;
#531 = SURFACE_STYLE_FILL_AREA ( #634 ) ;
#532 = ORIENTED_EDGE ( 'NONE', *, *, #311, .T. ) ;
#533 = PRODUCT_CONTEXT ( 'NONE', #269, 'mechanical' ) ;
#534 = VERTEX_POINT ( 'NONE', #168 ) ;
#535 = ADVANCED_FACE ( 'NONE', ( #625 ), #629, .F. ) ;
#536 = CARTESIAN_POINT ( 'NONE',  ( -12.00000000000000000, 0.000000000000000000, -14.00000000000000000 ) ) ;
#537 = ORIENTED_EDGE ( 'NONE', *, *, #94, .T. ) ;
#538 = CARTESIAN_POINT ( 'NONE',  ( 20.00000000000000000, 41.00000000000000000, -34.00000000000000000 ) ) ;
#539 = VECTOR ( 'NONE', #425, 1000.000000000000000 ) ;
#540 = LINE ( 'NONE', #496, #220 ) ;
#541 = EDGE_CURVE ( 'NONE', #286, #110, #461, .T. ) ;
#542 = CARTESIAN_POINT ( 'NONE',  ( -12.00000000000000000, 0.000000000000000000, -28.99999999999999645 ) ) ;
#543 = FACE_OUTER_BOUND ( 'NONE', #134, .T. ) ;
#544 = VERTEX_POINT ( 'NONE', #422 ) ;
#545 = CYLINDRICAL_SURFACE ( 'NONE', #583, 1.999999999999998224 ) ;
#546 = CARTESIAN_POINT ( 'NONE',  ( -6.000000000000002665, 0.000000000000000000, -18.00000000000000000 ) ) ;
#547 =( GEOMETRIC_REPRESENTATION_CONTEXT ( 3 ) GLOBAL_UNCERTAINTY_ASSIGNED_CONTEXT ( ( #283 ) ) GLOBAL_UNIT_ASSIGNED_CONTEXT ( ( #85, #435, #131 ) ) REPRESENTATION_CONTEXT ( 'NONE', 'WORKASPACE' ) );
#548 = VERTEX_POINT ( 'NONE', #15 ) ;
#549 = FACE_OUTER_BOUND ( 'NONE', #481, .T. ) ;
#550 = CARTESIAN_POINT ( 'NONE',  ( 0.000000000000000000, 20.00000000000000000, 0.000000000000000000 ) ) ;
#551 = CIRCLE ( 'NONE', #608, 2.000000000000001776 ) ;
#552 = LINE ( 'NONE', #499, #392 ) ;
#553 = DIRECTION ( 'NONE',  ( 0.000000000000000000, 0.000000000000000000, 1.000000000000000000 ) ) ;
#554 = ORIENTED_EDGE ( 'NONE', *, *, #233, .F. ) ;
#555 = AXIS2_PLACEMENT_3D ( 'NONE', #562, #272, #109 ) ;
#556 = CARTESIAN_POINT ( 'NONE',  ( -6.000000000000002665, -6.000000000000000000, -20.00000000000000000 ) ) ;
#557 = ORIENTED_EDGE ( 'NONE', *, *, #365, .T. ) ;
#558 = VECTOR ( 'NONE', #441, 1000.000000000000000 ) ;
#559 = CARTESIAN_POINT ( 'NONE',  ( -20.00000000000000000, 0.000000000000000000, -34.00000000000000000 ) ) ;
#560 = EDGE_CURVE ( 'NONE', #33, #360, #506, .T. ) ;
#561 = EDGE_CURVE ( 'NONE', #33, #80, #567, .T. ) ;
#562 = CARTESIAN_POINT ( 'NONE',  ( 0.000000000000000000, 20.00000000000000000, 10.99999999999999822 ) ) ;
#563 = VERTEX_POINT ( 'NONE', #527 ) ;
#564 = DIRECTION ( 'NONE',  ( -0.000000000000000000, -1.000000000000000000, -0.000000000000000000 ) ) ;
#565 = CARTESIAN_POINT ( 'NONE',  ( 0.000000000000000000, -6.000000000000000000, -25.00000000000000000 ) ) ;
#566 = ORIENTED_EDGE ( 'NONE', *, *, #115, .T. ) ;
#567 = LINE ( 'NONE', #164, #400 ) ;
#568 = AXIS2_PLACEMENT_3D ( 'NONE', #595, #244, #645 ) ;
#569 = CARTESIAN_POINT ( 'NONE',  ( 5.999999999999997335, -6.000000000000000000, -16.00000000000000000 ) ) ;
#570 = ORIENTED_EDGE ( 'NONE', *, *, #50, .F. ) ;
#571 = DIRECTION ( 'NONE',  ( 0.000000000000000000, 0.000000000000000000, 1.000000000000000000 ) ) ;
#572 = AXIS2_PLACEMENT_3D ( 'NONE', #217, #111, #321 ) ;
#573 = DIRECTION ( 'NONE',  ( 1.000000000000000000, 0.000000000000000000, -0.000000000000000000 ) ) ;
#574 = EDGE_LOOP ( 'NONE', ( #375, #619, #320, #428 ) ) ;
#575 = DIRECTION ( 'NONE',  ( 0.000000000000000000, 0.000000000000000000, 1.000000000000000000 ) ) ;
#576 = EDGE_CURVE ( 'NONE', #286, #255, #77, .T. ) ;
#577 = DIRECTION ( 'NONE',  ( -0.000000000000000000, -0.000000000000000000, 1.000000000000000000 ) ) ;
#578 = VERTEX_POINT ( 'NONE', #173 ) ;
#579 = DIRECTION ( 'NONE',  ( 0.000000000000000000, 1.000000000000000000, 0.000000000000000000 ) ) ;
#580 = MECHANICAL_DESIGN_GEOMETRIC_PRESENTATION_REPRESENTATION (  '', ( #397 ), #547 ) ;
#581 = DIRECTION ( 'NONE',  ( 0.000000000000000000, 0.000000000000000000, -1.000000000000000000 ) ) ;
#582 = ORIENTED_EDGE ( 'NONE', *, *, #524, .F. ) ;
#583 = AXIS2_PLACEMENT_3D ( 'NONE', #346, #357, #46 ) ;
#584 = PLANE ( 'NONE',  #84 ) ;
#585 = PRODUCT_DEFINITION ( 'UNKNOWN', '', #439, #211 ) ;
#586 = VERTEX_POINT ( 'NONE', #176 ) ;
#587 = PLANE ( 'NONE',  #261 ) ;
#588 = EDGE_LOOP ( 'NONE', ( #522, #313, #421, #582 ) ) ;
#589 = APPLICATION_PROTOCOL_DEFINITION ( 'draft international standard', 'automotive_design', 1998, #287 ) ;
#590 = DIRECTION ( 'NONE',  ( 0.000000000000000000, 1.000000000000000000, 0.000000000000000000 ) ) ;
#591 = AXIS2_PLACEMENT_3D ( 'NONE', #327, #160, #165 ) ;
#592 = DIRECTION ( 'NONE',  ( 1.000000000000000000, 0.000000000000000000, 0.000000000000000000 ) ) ;
#593 = FACE_BOUND ( 'NONE', #3, .T. ) ;
#594 = AXIS2_PLACEMENT_3D ( 'NONE', #18, #117, #575 ) ;
#595 = CARTESIAN_POINT ( 'NONE',  ( 5.999999999999997335, -6.000000000000000000, -18.00000000000000000 ) ) ;
#596 = ORIENTED_EDGE ( 'NONE', *, *, #528, .F. ) ;
#597 = ADVANCED_FACE ( 'NONE', ( #279 ), #324, .T. ) ;
#598 = LINE ( 'NONE', #406, #317 ) ;
#599 = DIRECTION ( 'NONE',  ( 0.000000000000000000, 1.000000000000000000, 0.000000000000000000 ) ) ;
#600 = CARTESIAN_POINT ( 'NONE',  ( -20.00000000000000000, 41.00000000000000000, -34.00000000000000000 ) ) ;
#601 = FACE_OUTER_BOUND ( 'NONE', #6, .T. ) ;
#602 = CIRCLE ( 'NONE', #292, 2.000000000000001776 ) ;
#603 = ADVANCED_FACE ( 'NONE', ( #381 ), #221, .F. ) ;
#604 = VECTOR ( 'NONE', #465, 1000.000000000000000 ) ;
#605 = DIRECTION ( 'NONE',  ( 0.000000000000000000, 0.000000000000000000, 1.000000000000000000 ) ) ;
#606 = EDGE_CURVE ( 'NONE', #386, #382, #330, .T. ) ;
#607 = CARTESIAN_POINT ( 'NONE',  ( 20.00000000000000000, 41.00000000000000000, -34.00000000000000000 ) ) ;
#608 = AXIS2_PLACEMENT_3D ( 'NONE', #546, #347, #605 ) ;
#609 = ORIENTED_EDGE ( 'NONE', *, *, #396, .F. ) ;
#610 = DIRECTION ( 'NONE',  ( 0.000000000000000000, 1.000000000000000000, 0.000000000000000000 ) ) ;
#611 = ORIENTED_EDGE ( 'NONE', *, *, #181, .F. ) ;
#612 = LINE ( 'NONE', #538, #223 ) ;
#613 = FACE_OUTER_BOUND ( 'NONE', #99, .T. ) ;
#614 = EDGE_LOOP ( 'NONE', ( #81, #371 ) ) ;
#615 = DIRECTION ( 'NONE',  ( 0.000000000000000000, 1.000000000000000000, 0.000000000000000000 ) ) ;
#616 = ORIENTED_EDGE ( 'NONE', *, *, #561, .F. ) ;
#617 = DIRECTION ( 'NONE',  ( 0.000000000000000000, 0.000000000000000000, 1.000000000000000000 ) ) ;
#618 = CYLINDRICAL_SURFACE ( 'NONE', #591, 7.500000000000000000 ) ;
#619 = ORIENTED_EDGE ( 'NONE', *, *, #414, .F. ) ;
#620 = CARTESIAN_POINT ( 'NONE',  ( 5.999999999999997335, 0.000000000000000000, -18.00000000000000000 ) ) ;
#621 = AXIS2_PLACEMENT_3D ( 'NONE', #215, #423, #529 ) ;
#622 = FACE_OUTER_BOUND ( 'NONE', #368, .T. ) ;
#623 = ORIENTED_EDGE ( 'NONE', *, *, #514, .F. ) ;
#624 = ADVANCED_FACE ( 'NONE', ( #124 ), #476, .T. ) ;
#625 = FACE_OUTER_BOUND ( 'NONE', #437, .T. ) ;
#626 = AXIS2_PLACEMENT_3D ( 'NONE', #488, #300, #443 ) ;
#627 = LINE ( 'NONE', #29, #426 ) ;
#628 = ORIENTED_EDGE ( 'NONE', *, *, #83, .F. ) ;
#629 = PLANE ( 'NONE',  #13 ) ;
#630 = FACE_OUTER_BOUND ( 'NONE', #323, .T. ) ;
#631 = ORIENTED_EDGE ( 'NONE', *, *, #5, .F. ) ;
#632 = EDGE_CURVE ( 'NONE', #73, #534, #489, .T. ) ;
#633 = AXIS2_PLACEMENT_3D ( 'NONE', #88, #398, #638 ) ;
#634 = FILL_AREA_STYLE ('',( #182 ) ) ;
#635 = ORIENTED_EDGE ( 'NONE', *, *, #524, .T. ) ;
#636 = CARTESIAN_POINT ( 'NONE',  ( -12.00000000000000000, -6.000000000000000000, -28.99999999999999645 ) ) ;
#637 = EDGE_LOOP ( 'NONE', ( #186, #224 ) ) ;
#638 = DIRECTION ( 'NONE',  ( 0.000000000000000000, -0.000000000000000000, -1.000000000000000000 ) ) ;
#639 = ORIENTED_EDGE ( 'NONE', *, *, #201, .F. ) ;
#640 = DIRECTION ( 'NONE',  ( 0.000000000000000000, 0.000000000000000000, -1.000000000000000000 ) ) ;
#641 = VECTOR ( 'NONE', #169, 1000.000000000000000 ) ;
#642 = DIRECTION ( 'NONE',  ( -0.000000000000000000, -0.000000000000000000, -1.000000000000000000 ) ) ;
#643 = EDGE_CURVE ( 'NONE', #460, #179, #121, .T. ) ;
#644 = CARTESIAN_POINT ( 'NONE',  ( -12.00000000000000000, -6.000000000000000000, -14.00000000000000000 ) ) ;
#645 = DIRECTION ( 'NONE',  ( 0.000000000000000000, 0.000000000000000000, 1.000000000000000000 ) ) ;
#646 = CARTESIAN_POINT ( 'NONE',  ( 20.00000000000000000, 41.00000000000000000, 0.000000000000000000 ) ) ;
#647 = DIRECTION ( 'NONE',  ( 0.000000000000000000, 1.000000000000000000, 0.000000000000000000 ) ) ;
#648 = DIRECTION ( 'NONE',  ( 1.000000000000000000, 0.000000000000000000, 0.000000000000000000 ) ) ;
#649 = ORIENTED_EDGE ( 'NONE', *, *, #5, .T. ) ;
ENDSEC;
END-ISO-10303-21;
