ISO-10303-21;
HEADER;
FILE_DESCRIPTION (( 'STEP AP214' ),
    '1' );
FILE_NAME ('ELP_Camera.STEP',
    '2026-08-16T22:57:29',
    ( '' ),
    ( '' ),
    'SwSTEP 2.0',
    'SolidWorks 2026',
    '' );
FILE_SCHEMA (( 'AUTOMOTIVE_DESIGN' ));
ENDSEC;

DATA;
#1 = VERTEX_POINT ( 'NONE', #62 ) ;
#2 = CYLINDRICAL_SURFACE ( 'NONE', #159, 7.500000000000000000 ) ;
#3 = CARTESIAN_POINT ( 'NONE',  ( -12.00000000000000000, -5.000000000000000000, -14.00000000000000000 ) ) ;
#4 =( NAMED_UNIT ( * ) PLANE_ANGLE_UNIT ( ) SI_UNIT ( $, .RADIAN. ) );
#5 = DIRECTION ( 'NONE',  ( 0.000000000000000000, 0.000000000000000000, 1.000000000000000000 ) ) ;
#6 = EDGE_CURVE ( 'NONE', #179, #87, #161, .T. ) ;
#7 = LINE ( 'NONE', #67, #290 ) ;
#8 = DIRECTION ( 'NONE',  ( -0.000000000000000000, -0.000000000000000000, 1.000000000000000000 ) ) ;
#9 = CARTESIAN_POINT ( 'NONE',  ( 7.500000000000000000, 20.00000000000000000, 10.99999999999999822 ) ) ;
#10 = DIRECTION ( 'NONE',  ( 1.000000000000000000, 0.000000000000000000, 0.000000000000000000 ) ) ;
#11 = DIRECTION ( 'NONE',  ( 0.000000000000000000, 0.000000000000000000, -1.000000000000000000 ) ) ;
#12 = DIRECTION ( 'NONE',  ( -0.000000000000000000, -1.000000000000000000, -0.000000000000000000 ) ) ;
#13 = PRODUCT_CONTEXT ( 'NONE', #350, 'mechanical' ) ;
#14 = CARTESIAN_POINT ( 'NONE',  ( -12.00000000000000000, -5.000000000000000000, -14.00000000000000000 ) ) ;
#15 = CARTESIAN_POINT ( 'NONE',  ( -20.00000000000000000, 0.000000000000000000, 0.000000000000000000 ) ) ;
#16 = FACE_OUTER_BOUND ( 'NONE', #66, .T. ) ;
#17 = ADVANCED_FACE ( 'NONE', ( #33 ), #284, .T. ) ;
#18 = CARTESIAN_POINT ( 'NONE',  ( 12.00000000000000000, -5.000000000000000000, -28.99999999999999645 ) ) ;
#19 = DIRECTION ( 'NONE',  ( -0.000000000000000000, -0.000000000000000000, 1.000000000000000000 ) ) ;
#20 = AXIS2_PLACEMENT_3D ( 'NONE', #42, #173, #299 ) ;
#21 = ORIENTED_EDGE ( 'NONE', *, *, #211, .F. ) ;
#22 = LINE ( 'NONE', #337, #310 ) ;
#23 = ORIENTED_EDGE ( 'NONE', *, *, #278, .F. ) ;
#24 = DIRECTION ( 'NONE',  ( 0.000000000000000000, -0.000000000000000000, -1.000000000000000000 ) ) ;
#25 = EDGE_LOOP ( 'NONE', ( #279, #320, #156, #82 ) ) ;
#26 = EDGE_CURVE ( 'NONE', #151, #1, #380, .T. ) ;
#27 = FACE_OUTER_BOUND ( 'NONE', #370, .T. ) ;
#28 = VECTOR ( 'NONE', #385, 1000.000000000000000 ) ;
#29 = ORIENTED_EDGE ( 'NONE', *, *, #402, .F. ) ;
#30 = ADVANCED_FACE ( 'NONE', ( #312, #384 ), #98, .T. ) ;
#31 = EDGE_CURVE ( 'NONE', #1, #222, #165, .T. ) ;
#32 = ORIENTED_EDGE ( 'NONE', *, *, #365, .F. ) ;
#33 = FACE_OUTER_BOUND ( 'NONE', #133, .T. ) ;
#34 = ORIENTED_EDGE ( 'NONE', *, *, #278, .T. ) ;
#35 = DIRECTION ( 'NONE',  ( 0.000000000000000000, -1.000000000000000000, 0.000000000000000000 ) ) ;
#36 = VERTEX_POINT ( 'NONE', #160 ) ;
#37 = PRESENTATION_STYLE_ASSIGNMENT (( #379 ) ) ;
#38 = ORIENTED_EDGE ( 'NONE', *, *, #395, .F. ) ;
#39 = AXIS2_PLACEMENT_3D ( 'NONE', #141, #387, #43 ) ;
#40 = CARTESIAN_POINT ( 'NONE',  ( 20.00000000000000000, 41.00000000000000000, 0.000000000000000000 ) ) ;
#41 = VECTOR ( 'NONE', #12, 1000.000000000000000 ) ;
#42 = CARTESIAN_POINT ( 'NONE',  ( 20.00000000000000000, 41.00000000000000000, 0.000000000000000000 ) ) ;
#43 = DIRECTION ( 'NONE',  ( 1.000000000000000000, 0.000000000000000000, -0.000000000000000000 ) ) ;
#44 = FACE_OUTER_BOUND ( 'NONE', #341, .T. ) ;
#45 = VECTOR ( 'NONE', #71, 1000.000000000000000 ) ;
#46 = CARTESIAN_POINT ( 'NONE',  ( 12.00000000000000000, -5.000000000000000000, -14.00000000000000000 ) ) ;
#47 =( GEOMETRIC_REPRESENTATION_CONTEXT ( 3 ) GLOBAL_UNCERTAINTY_ASSIGNED_CONTEXT ( ( #363 ) ) GLOBAL_UNIT_ASSIGNED_CONTEXT ( ( #261, #228, #69 ) ) REPRESENTATION_CONTEXT ( 'NONE', 'WORKASPACE' ) );
#48 = DIRECTION ( 'NONE',  ( 1.000000000000000000, 0.000000000000000000, 0.000000000000000000 ) ) ;
#49 = CARTESIAN_POINT ( 'NONE',  ( 0.000000000000000000, 20.00000000000000000, 10.99999999999999822 ) ) ;
#50 = VERTEX_POINT ( 'NONE', #157 ) ;
#51 = AXIS2_PLACEMENT_3D ( 'NONE', #49, #248, #88 ) ;
#52 = CARTESIAN_POINT ( 'NONE',  ( 0.000000000000000000, -5.000000000000000000, 0.000000000000000000 ) ) ;
#53 = ORIENTED_EDGE ( 'NONE', *, *, #31, .F. ) ;
#54 = APPLICATION_CONTEXT ( 'automotive_design' ) ;
#55 = CARTESIAN_POINT ( 'NONE',  ( -12.00000000000000000, -5.000000000000000000, -28.99999999999999645 ) ) ;
#56 = ORIENTED_EDGE ( 'NONE', *, *, #114, .T. ) ;
#57 = CARTESIAN_POINT ( 'NONE',  ( -20.00000000000000000, 0.000000000000000000, 0.000000000000000000 ) ) ;
#58 = ORIENTED_EDGE ( 'NONE', *, *, #164, .F. ) ;
#59 = AXIS2_PLACEMENT_3D ( 'NONE', #86, #206, #273 ) ;
#60 = ORIENTED_EDGE ( 'NONE', *, *, #220, .T. ) ;
#61 = ADVANCED_FACE ( 'NONE', ( #256 ), #2, .T. ) ;
#62 = CARTESIAN_POINT ( 'NONE',  ( -20.00000000000000000, 41.00000000000000000, 0.000000000000000000 ) ) ;
#63 = EDGE_LOOP ( 'NONE', ( #186, #188 ) ) ;
#64 = CARTESIAN_POINT ( 'NONE',  ( -7.500000000000000000, 20.00000000000000000, 0.000000000000000000 ) ) ;
#65 = EDGE_CURVE ( 'NONE', #36, #318, #234, .T. ) ;
#66 = EDGE_LOOP ( 'NONE', ( #227, #217, #343, #376 ) ) ;
#67 = CARTESIAN_POINT ( 'NONE',  ( -12.00000000000000000, -5.000000000000000000, -14.00000000000000000 ) ) ;
#68 = ORIENTED_EDGE ( 'NONE', *, *, #402, .T. ) ;
#69 =( NAMED_UNIT ( * ) SI_UNIT ( $, .STERADIAN. ) SOLID_ANGLE_UNIT ( ) );
#70 = CARTESIAN_POINT ( 'NONE',  ( -20.00000000000000000, 41.00000000000000000, 0.000000000000000000 ) ) ;
#71 = DIRECTION ( 'NONE',  ( 0.000000000000000000, 1.000000000000000000, 0.000000000000000000 ) ) ;
#72 = EDGE_CURVE ( 'NONE', #96, #155, #169, .T. ) ;
#73 = CLOSED_SHELL ( 'NONE', ( #61, #30, #137, #174, #100, #180, #390, #345, #265, #17, #214, #351, #85, #235 ) ) ;
#74 = LINE ( 'NONE', #225, #126 ) ;
#75 = CARTESIAN_POINT ( 'NONE',  ( -20.00000000000000000, 41.00000000000000000, 0.000000000000000000 ) ) ;
#76 = DIRECTION ( 'NONE',  ( 1.000000000000000000, 0.000000000000000000, 0.000000000000000000 ) ) ;
#77 = CARTESIAN_POINT ( 'NONE',  ( -12.00000000000000000, -5.000000000000000000, -28.99999999999999645 ) ) ;
#78 = EDGE_CURVE ( 'NONE', #50, #399, #237, .T. ) ;
#79 = DIRECTION ( 'NONE',  ( 1.000000000000000000, -0.000000000000000000, 0.000000000000000000 ) ) ;
#80 = DIRECTION ( 'NONE',  ( 1.000000000000000000, 0.000000000000000000, 0.000000000000000000 ) ) ;
#81 = LINE ( 'NONE', #276, #281 ) ;
#82 = ORIENTED_EDGE ( 'NONE', *, *, #114, .F. ) ;
#83 = LINE ( 'NONE', #287, #246 ) ;
#84 = ORIENTED_EDGE ( 'NONE', *, *, #6, .F. ) ;
#85 = ADVANCED_FACE ( 'NONE', ( #103 ), #295, .T. ) ;
#86 = CARTESIAN_POINT ( 'NONE',  ( 0.000000000000000000, 20.00000000000000000, 0.000000000000000000 ) ) ;
#87 = VERTEX_POINT ( 'NONE', #77 ) ;
#88 = DIRECTION ( 'NONE',  ( 1.000000000000000000, 0.000000000000000000, -0.000000000000000000 ) ) ;
#89 = VERTEX_POINT ( 'NONE', #15 ) ;
#90 = EDGE_CURVE ( 'NONE', #349, #50, #359, .T. ) ;
#91 = ORIENTED_EDGE ( 'NONE', *, *, #31, .T. ) ;
#92 = AXIS2_PLACEMENT_3D ( 'NONE', #3, #194, #5 ) ;
#93 = DIRECTION ( 'NONE',  ( -0.000000000000000000, -0.000000000000000000, -1.000000000000000000 ) ) ;
#94 = ORIENTED_EDGE ( 'NONE', *, *, #145, .T. ) ;
#95 = DIRECTION ( 'NONE',  ( 1.000000000000000000, 0.000000000000000000, 0.000000000000000000 ) ) ;
#96 = VERTEX_POINT ( 'NONE', #170 ) ;
#97 = ORIENTED_EDGE ( 'NONE', *, *, #90, .T. ) ;
#98 = PLANE ( 'NONE',  #166 ) ;
#99 = DIRECTION ( 'NONE',  ( -0.000000000000000000, -1.000000000000000000, -0.000000000000000000 ) ) ;
#100 = ADVANCED_FACE ( 'NONE', ( #393 ), #204, .F. ) ;
#101 = DIRECTION ( 'NONE',  ( 0.000000000000000000, 0.000000000000000000, 1.000000000000000000 ) ) ;
#102 = SURFACE_SIDE_STYLE ('',( #135 ) ) ;
#103 = FACE_OUTER_BOUND ( 'NONE', #289, .T. ) ;
#104 = VECTOR ( 'NONE', #95, 1000.000000000000000 ) ;
#105 = LINE ( 'NONE', #231, #218 ) ;
#106 = AXIS2_PLACEMENT_3D ( 'NONE', #200, #35, #162 ) ;
#107 = DIRECTION ( 'NONE',  ( 0.000000000000000000, 1.000000000000000000, 0.000000000000000000 ) ) ;
#108 = CARTESIAN_POINT ( 'NONE',  ( 20.00000000000000000, 0.000000000000000000, 0.000000000000000000 ) ) ;
#109 = AXIS2_PLACEMENT_3D ( 'NONE', #14, #101, #326 ) ;
#110 = DIRECTION ( 'NONE',  ( -1.000000000000000000, -0.000000000000000000, -0.000000000000000000 ) ) ;
#111 =( GEOMETRIC_REPRESENTATION_CONTEXT ( 3 ) GLOBAL_UNCERTAINTY_ASSIGNED_CONTEXT ( ( #294 ) ) GLOBAL_UNIT_ASSIGNED_CONTEXT ( ( #192, #4, #325 ) ) REPRESENTATION_CONTEXT ( 'NONE', 'WORKASPACE' ) );
#112 = CARTESIAN_POINT ( 'NONE',  ( 12.00000000000000000, -5.000000000000000000, -14.00000000000000000 ) ) ;
#113 = ORIENTED_EDGE ( 'NONE', *, *, #26, .T. ) ;
#114 = EDGE_CURVE ( 'NONE', #318, #336, #105, .T. ) ;
#115 = DIRECTION ( 'NONE',  ( -1.000000000000000000, 0.000000000000000000, -0.000000000000000000 ) ) ;
#116 = VERTEX_POINT ( 'NONE', #134 ) ;
#117 = LINE ( 'NONE', #334, #388 ) ;
#118 = ORIENTED_EDGE ( 'NONE', *, *, #6, .T. ) ;
#119 = MECHANICAL_DESIGN_GEOMETRIC_PRESENTATION_REPRESENTATION (  '', ( #132 ), #111 ) ;
#120 = LINE ( 'NONE', #267, #158 ) ;
#121 = ORIENTED_EDGE ( 'NONE', *, *, #26, .F. ) ;
#122 = PRODUCT_DEFINITION ( 'UNKNOWN', '', #324, #301 ) ;
#123 = ORIENTED_EDGE ( 'NONE', *, *, #366, .F. ) ;
#124 = VECTOR ( 'NONE', #242, 1000.000000000000000 ) ;
#125 = DIRECTION ( 'NONE',  ( -1.000000000000000000, 0.000000000000000000, 0.000000000000000000 ) ) ;
#126 = VECTOR ( 'NONE', #99, 1000.000000000000000 ) ;
#127 = AXIS2_PLACEMENT_3D ( 'NONE', #262, #172, #360 ) ;
#128 = CARTESIAN_POINT ( 'NONE',  ( 0.000000000000000000, 0.000000000000000000, 0.000000000000000000 ) ) ;
#129 = ORIENTED_EDGE ( 'NONE', *, *, #78, .T. ) ;
#130 = EDGE_LOOP ( 'NONE', ( #23, #303, #209, #94 ) ) ;
#131 = CARTESIAN_POINT ( 'NONE',  ( 12.00000000000000000, 0.000000000000000000, -14.00000000000000000 ) ) ;
#132 = STYLED_ITEM ( 'NONE', ( #37 ), #394 ) ;
#133 = EDGE_LOOP ( 'NONE', ( #21, #277, #249, #219 ) ) ;
#134 = CARTESIAN_POINT ( 'NONE',  ( -12.00000000000000000, 0.000000000000000000, -28.99999999999999645 ) ) ;
#135 = SURFACE_STYLE_FILL_AREA ( #319 ) ;
#136 = DIRECTION ( 'NONE',  ( 1.000000000000000000, 0.000000000000000000, 0.000000000000000000 ) ) ;
#137 = ADVANCED_FACE ( 'NONE', ( #233 ), #357, .F. ) ;
#138 = AXIS2_PLACEMENT_3D ( 'NONE', #112, #243, #367 ) ;
#139 = LINE ( 'NONE', #354, #45 ) ;
#140 = PRESENTATION_LAYER_ASSIGNMENT (  '', '', ( #132 ) ) ;
#141 = CARTESIAN_POINT ( 'NONE',  ( -20.00000000000000000, 41.00000000000000000, -34.00000000000000000 ) ) ;
#142 = CARTESIAN_POINT ( 'NONE',  ( 0.000000000000000000, 20.00000000000000000, 10.99999999999999822 ) ) ;
#143 = CIRCLE ( 'NONE', #59, 7.500000000000000000 ) ;
#144 = VECTOR ( 'NONE', #187, 1000.000000000000000 ) ;
#145 = EDGE_CURVE ( 'NONE', #179, #272, #168, .T. ) ;
#146 = DIRECTION ( 'NONE',  ( -1.000000000000000000, 0.000000000000000000, 0.000000000000000000 ) ) ;
#147 = ORIENTED_EDGE ( 'NONE', *, *, #205, .F. ) ;
#148 = CARTESIAN_POINT ( 'NONE',  ( -12.00000000000000000, -5.000000000000000000, -14.00000000000000000 ) ) ;
#149 = EDGE_LOOP ( 'NONE', ( #113, #91, #347, #163 ) ) ;
#150 = PLANE ( 'NONE',  #51 ) ;
#151 = VERTEX_POINT ( 'NONE', #202 ) ;
#152 = EDGE_CURVE ( 'NONE', #282, #96, #260, .T. ) ;
#153 = CIRCLE ( 'NONE', #381, 7.500000000000000000 ) ;
#154 = CARTESIAN_POINT ( 'NONE',  ( 12.00000000000000000, 0.000000000000000000, -14.00000000000000000 ) ) ;
#155 = VERTEX_POINT ( 'NONE', #203 ) ;
#156 = ORIENTED_EDGE ( 'NONE', *, *, #251, .T. ) ;
#157 = CARTESIAN_POINT ( 'NONE',  ( 12.00000000000000000, -5.000000000000000000, -14.00000000000000000 ) ) ;
#158 = VECTOR ( 'NONE', #255, 1000.000000000000000 ) ;
#159 = AXIS2_PLACEMENT_3D ( 'NONE', #375, #93, #125 ) ;
#160 = CARTESIAN_POINT ( 'NONE',  ( 7.500000000000000000, 20.00000000000000000, 10.99999999999999822 ) ) ;
#161 = LINE ( 'NONE', #286, #144 ) ;
#162 = DIRECTION ( 'NONE',  ( 0.000000000000000000, -0.000000000000000000, -1.000000000000000000 ) ) ;
#163 = ORIENTED_EDGE ( 'NONE', *, *, #239, .T. ) ;
#164 = EDGE_CURVE ( 'NONE', #349, #404, #139, .T. ) ;
#165 = LINE ( 'NONE', #70, #241 ) ;
#166 = AXIS2_PLACEMENT_3D ( 'NONE', #128, #229, #352 ) ;
#167 = CARTESIAN_POINT ( 'NONE',  ( -12.00000000000000000, 0.000000000000000000, -14.00000000000000000 ) ) ;
#168 = LINE ( 'NONE', #18, #356 ) ;
#169 = LINE ( 'NONE', #329, #405 ) ;
#170 = CARTESIAN_POINT ( 'NONE',  ( 20.00000000000000000, 0.000000000000000000, -34.00000000000000000 ) ) ;
#171 = EDGE_CURVE ( 'NONE', #50, #179, #199, .T. ) ;
#172 = DIRECTION ( 'NONE',  ( 0.000000000000000000, 0.000000000000000000, -1.000000000000000000 ) ) ;
#173 = DIRECTION ( 'NONE',  ( -1.000000000000000000, 0.000000000000000000, 0.000000000000000000 ) ) ;
#174 = ADVANCED_FACE ( 'NONE', ( #323, #44 ), #264, .F. ) ;
#175 = LINE ( 'NONE', #408, #104 ) ;
#176 = ORIENTED_EDGE ( 'NONE', *, *, #205, .T. ) ;
#177 = AXIS2_PLACEMENT_3D ( 'NONE', #212, #331, #403 ) ;
#178 = DIRECTION ( 'NONE',  ( 0.000000000000000000, -1.000000000000000000, 0.000000000000000000 ) ) ;
#179 = VERTEX_POINT ( 'NONE', #298 ) ;
#180 = ADVANCED_FACE ( 'NONE', ( #16 ), #328, .F. ) ;
#181 = FACE_OUTER_BOUND ( 'NONE', #340, .T. ) ;
#182 = ORIENTED_EDGE ( 'NONE', *, *, #171, .F. ) ;
#183 = DIRECTION ( 'NONE',  ( 0.000000000000000000, 0.000000000000000000, -1.000000000000000000 ) ) ;
#184 = ORIENTED_EDGE ( 'NONE', *, *, #291, .T. ) ;
#185 = VECTOR ( 'NONE', #369, 1000.000000000000000 ) ;
#186 = ORIENTED_EDGE ( 'NONE', *, *, #226, .F. ) ;
#187 = DIRECTION ( 'NONE',  ( -1.000000000000000000, -0.000000000000000000, -0.000000000000000000 ) ) ;
#188 = ORIENTED_EDGE ( 'NONE', *, *, #251, .F. ) ;
#189 = FACE_OUTER_BOUND ( 'NONE', #250, .T. ) ;
#190 = AXIS2_PLACEMENT_3D ( 'NONE', #142, #396, #146 ) ;
#191 = ORIENTED_EDGE ( 'NONE', *, *, #321, .T. ) ;
#192 =( LENGTH_UNIT ( ) NAMED_UNIT ( * ) SI_UNIT ( .MILLI., .METRE. ) );
#193 = VERTEX_POINT ( 'NONE', #108 ) ;
#194 = DIRECTION ( 'NONE',  ( -1.000000000000000000, 0.000000000000000000, 0.000000000000000000 ) ) ;
#195 = ADVANCED_BREP_SHAPE_REPRESENTATION ( 'ELP_Camera', ( #394, #221 ), #47 ) ;
#196 = LINE ( 'NONE', #9, #28 ) ;
#197 = DIRECTION ( 'NONE',  ( -0.000000000000000000, -0.000000000000000000, -1.000000000000000000 ) ) ;
#198 = VECTOR ( 'NONE', #107, 1000.000000000000000 ) ;
#199 = LINE ( 'NONE', #46, #268 ) ;
#200 = CARTESIAN_POINT ( 'NONE',  ( 0.000000000000000000, 41.00000000000000000, 0.000000000000000000 ) ) ;
#201 = EDGE_CURVE ( 'NONE', #318, #36, #153, .T. ) ;
#202 = CARTESIAN_POINT ( 'NONE',  ( -20.00000000000000000, 41.00000000000000000, -34.00000000000000000 ) ) ;
#203 = CARTESIAN_POINT ( 'NONE',  ( -20.00000000000000000, 0.000000000000000000, -34.00000000000000000 ) ) ;
#204 = PLANE ( 'NONE',  #20 ) ;
#205 = EDGE_CURVE ( 'NONE', #272, #116, #22, .T. ) ;
#206 = DIRECTION ( 'NONE',  ( 0.000000000000000000, 0.000000000000000000, 1.000000000000000000 ) ) ;
#207 = EDGE_LOOP ( 'NONE', ( #374, #344, #244, #68 ) ) ;
#208 = LINE ( 'NONE', #154, #335 ) ;
#209 = ORIENTED_EDGE ( 'NONE', *, *, #171, .T. ) ;
#210 = VECTOR ( 'NONE', #346, 1000.000000000000000 ) ;
#211 = EDGE_CURVE ( 'NONE', #116, #404, #117, .T. ) ;
#212 = CARTESIAN_POINT ( 'NONE',  ( 0.000000000000000000, 20.00000000000000000, 0.000000000000000000 ) ) ;
#213 = ORIENTED_EDGE ( 'NONE', *, *, #72, .F. ) ;
#214 = ADVANCED_FACE ( 'NONE', ( #215 ), #372, .T. ) ;
#215 = FACE_OUTER_BOUND ( 'NONE', #309, .T. ) ;
#216 = ORIENTED_EDGE ( 'NONE', *, *, #297, .T. ) ;
#217 = ORIENTED_EDGE ( 'NONE', *, *, #371, .F. ) ;
#218 = VECTOR ( 'NONE', #197, 1000.000000000000000 ) ;
#219 = ORIENTED_EDGE ( 'NONE', *, *, #164, .T. ) ;
#220 = EDGE_CURVE ( 'NONE', #155, #89, #245, .T. ) ;
#221 = AXIS2_PLACEMENT_3D ( 'NONE', #236, #358, #76 ) ;
#222 = VERTEX_POINT ( 'NONE', #306 ) ;
#223 = CARTESIAN_POINT ( 'NONE',  ( 20.00000000000000000, 41.00000000000000000, 0.000000000000000000 ) ) ;
#224 = EDGE_LOOP ( 'NONE', ( #401, #213, #258, #274 ) ) ;
#225 = CARTESIAN_POINT ( 'NONE',  ( -20.00000000000000000, 41.00000000000000000, -34.00000000000000000 ) ) ;
#226 = EDGE_CURVE ( 'NONE', #336, #373, #143, .T. ) ;
#227 = ORIENTED_EDGE ( 'NONE', *, *, #72, .T. ) ;
#228 =( NAMED_UNIT ( * ) PLANE_ANGLE_UNIT ( ) SI_UNIT ( $, .RADIAN. ) );
#229 = DIRECTION ( 'NONE',  ( 0.000000000000000000, -1.000000000000000000, 0.000000000000000000 ) ) ;
#230 = CARTESIAN_POINT ( 'NONE',  ( 7.500000000000000000, 20.00000000000000000, 0.000000000000000000 ) ) ;
#231 = CARTESIAN_POINT ( 'NONE',  ( -7.500000000000000000, 20.00000000000000000, 10.99999999999999822 ) ) ;
#232 = CARTESIAN_POINT ( 'NONE',  ( 20.00000000000000000, 0.000000000000000000, 0.000000000000000000 ) ) ;
#233 = FACE_OUTER_BOUND ( 'NONE', #307, .T. ) ;
#234 = CIRCLE ( 'NONE', #275, 7.500000000000000000 ) ;
#235 = ADVANCED_FACE ( 'NONE', ( #27 ), #398, .T. ) ;
#236 = CARTESIAN_POINT ( 'NONE',  ( 0.000000000000000000, 0.000000000000000000, 0.000000000000000000 ) ) ;
#237 = LINE ( 'NONE', #330, #198 ) ;
#238 = DIRECTION ( 'NONE',  ( 0.000000000000000000, 1.000000000000000000, 0.000000000000000000 ) ) ;
#239 = EDGE_CURVE ( 'NONE', #282, #151, #280, .T. ) ;
#240 = CARTESIAN_POINT ( 'NONE',  ( 0.000000000000000000, 20.00000000000000000, 10.99999999999999822 ) ) ;
#241 = VECTOR ( 'NONE', #10, 1000.000000000000000 ) ;
#242 = DIRECTION ( 'NONE',  ( -1.000000000000000000, -0.000000000000000000, -0.000000000000000000 ) ) ;
#243 = DIRECTION ( 'NONE',  ( 1.000000000000000000, -0.000000000000000000, 0.000000000000000000 ) ) ;
#244 = ORIENTED_EDGE ( 'NONE', *, *, #327, .F. ) ;
#245 = LINE ( 'NONE', #57, #185 ) ;
#246 = VECTOR ( 'NONE', #285, 1000.000000000000000 ) ;
#247 = VECTOR ( 'NONE', #8, 1000.000000000000000 ) ;
#248 = DIRECTION ( 'NONE',  ( 0.000000000000000000, 0.000000000000000000, 1.000000000000000000 ) ) ;
#249 = ORIENTED_EDGE ( 'NONE', *, *, #366, .T. ) ;
#250 = EDGE_LOOP ( 'NONE', ( #38, #305, #56, #332 ) ) ;
#251 = EDGE_CURVE ( 'NONE', #373, #336, #355, .T. ) ;
#252 = EDGE_LOOP ( 'NONE', ( #176, #409, #270, #34 ) ) ;
#253 = AXIS2_PLACEMENT_3D ( 'NONE', #75, #79, #296 ) ;
#254 = ORIENTED_EDGE ( 'NONE', *, *, #90, .F. ) ;
#255 = DIRECTION ( 'NONE',  ( -0.000000000000000000, -1.000000000000000000, -0.000000000000000000 ) ) ;
#256 = FACE_OUTER_BOUND ( 'NONE', #25, .T. ) ;
#257 = ORIENTED_EDGE ( 'NONE', *, *, #145, .F. ) ;
#258 = ORIENTED_EDGE ( 'NONE', *, *, #383, .F. ) ;
#259 = FILL_AREA_STYLE_COLOUR ( '', #316 ) ;
#260 = LINE ( 'NONE', #292, #41 ) ;
#261 =( LENGTH_UNIT ( ) NAMED_UNIT ( * ) SI_UNIT ( .MILLI., .METRE. ) );
#262 = CARTESIAN_POINT ( 'NONE',  ( -20.00000000000000000, 41.00000000000000000, 0.000000000000000000 ) ) ;
#263 = CARTESIAN_POINT ( 'NONE',  ( -12.00000000000000000, -5.000000000000000000, -14.00000000000000000 ) ) ;
#264 = PLANE ( 'NONE',  #127 ) ;
#265 = ADVANCED_FACE ( 'NONE', ( #181 ), #150, .T. ) ;
#266 = DIRECTION ( 'NONE',  ( 0.000000000000000000, 0.000000000000000000, -1.000000000000000000 ) ) ;
#267 = CARTESIAN_POINT ( 'NONE',  ( -20.00000000000000000, 41.00000000000000000, 0.000000000000000000 ) ) ;
#268 = VECTOR ( 'NONE', #266, 1000.000000000000000 ) ;
#269 = PLANE ( 'NONE',  #138 ) ;
#270 = ORIENTED_EDGE ( 'NONE', *, *, #365, .T. ) ;
#271 = FACE_OUTER_BOUND ( 'NONE', #130, .T. ) ;
#272 = VERTEX_POINT ( 'NONE', #364 ) ;
#273 = DIRECTION ( 'NONE',  ( 1.000000000000000000, 0.000000000000000000, 0.000000000000000000 ) ) ;
#274 = ORIENTED_EDGE ( 'NONE', *, *, #297, .F. ) ;
#275 = AXIS2_PLACEMENT_3D ( 'NONE', #392, #389, #136 ) ;
#276 = CARTESIAN_POINT ( 'NONE',  ( -12.00000000000000000, -5.000000000000000000, -28.99999999999999645 ) ) ;
#277 = ORIENTED_EDGE ( 'NONE', *, *, #291, .F. ) ;
#278 = EDGE_CURVE ( 'NONE', #399, #272, #208, .T. ) ;
#279 = ORIENTED_EDGE ( 'NONE', *, *, #65, .F. ) ;
#280 = LINE ( 'NONE', #339, #124 ) ;
#281 = VECTOR ( 'NONE', #304, 1000.000000000000000 ) ;
#282 = VERTEX_POINT ( 'NONE', #308 ) ;
#283 = LINE ( 'NONE', #232, #407 ) ;
#284 = PLANE ( 'NONE',  #92 ) ;
#285 = DIRECTION ( 'NONE',  ( 1.000000000000000000, 0.000000000000000000, 0.000000000000000000 ) ) ;
#286 = CARTESIAN_POINT ( 'NONE',  ( -12.00000000000000000, -5.000000000000000000, -28.99999999999999645 ) ) ;
#287 = CARTESIAN_POINT ( 'NONE',  ( -12.00000000000000000, 0.000000000000000000, -14.00000000000000000 ) ) ;
#288 = AXIS2_PLACEMENT_3D ( 'NONE', #52, #178, #24 ) ;
#289 = EDGE_LOOP ( 'NONE', ( #32, #58, #97, #129 ) ) ;
#290 = VECTOR ( 'NONE', #317, 1000.000000000000000 ) ;
#291 = EDGE_CURVE ( 'NONE', #87, #116, #81, .T. ) ;
#292 = CARTESIAN_POINT ( 'NONE',  ( 20.00000000000000000, 41.00000000000000000, -34.00000000000000000 ) ) ;
#293 = APPLICATION_PROTOCOL_DEFINITION ( 'draft international standard', 'automotive_design', 1998, #350 ) ;
#294 = UNCERTAINTY_MEASURE_WITH_UNIT (LENGTH_MEASURE( 1.000000000000000082E-05 ), #192, 'distance_accuracy_value', 'NONE');
#295 = PLANE ( 'NONE',  #109 ) ;
#296 = DIRECTION ( 'NONE',  ( 0.000000000000000000, 0.000000000000000000, -1.000000000000000000 ) ) ;
#297 = EDGE_CURVE ( 'NONE', #89, #193, #175, .T. ) ;
#298 = CARTESIAN_POINT ( 'NONE',  ( 12.00000000000000000, -5.000000000000000000, -28.99999999999999645 ) ) ;
#299 = DIRECTION ( 'NONE',  ( 0.000000000000000000, 0.000000000000000000, 1.000000000000000000 ) ) ;
#300 = APPLICATION_PROTOCOL_DEFINITION ( 'draft international standard', 'automotive_design', 1998, #54 ) ;
#301 = PRODUCT_DEFINITION_CONTEXT ( 'detailed design', #54, 'design' ) ;
#302 = CARTESIAN_POINT ( 'NONE',  ( -7.500000000000000000, 20.00000000000000000, 10.99999999999999822 ) ) ;
#303 = ORIENTED_EDGE ( 'NONE', *, *, #78, .F. ) ;
#304 = DIRECTION ( 'NONE',  ( 0.000000000000000000, 1.000000000000000000, 0.000000000000000000 ) ) ;
#305 = ORIENTED_EDGE ( 'NONE', *, *, #201, .F. ) ;
#306 = CARTESIAN_POINT ( 'NONE',  ( 20.00000000000000000, 41.00000000000000000, 0.000000000000000000 ) ) ;
#307 = EDGE_LOOP ( 'NONE', ( #60, #378, #121, #338 ) ) ;
#308 = CARTESIAN_POINT ( 'NONE',  ( 20.00000000000000000, 41.00000000000000000, -34.00000000000000000 ) ) ;
#309 = EDGE_LOOP ( 'NONE', ( #147, #257, #118, #184 ) ) ;
#310 = VECTOR ( 'NONE', #110, 1000.000000000000000 ) ;
#311 = ORIENTED_EDGE ( 'NONE', *, *, #65, .T. ) ;
#312 = FACE_OUTER_BOUND ( 'NONE', #224, .T. ) ;
#313 = CARTESIAN_POINT ( 'NONE',  ( -20.00000000000000000, 41.00000000000000000, 0.000000000000000000 ) ) ;
#314 = CYLINDRICAL_SURFACE ( 'NONE', #190, 7.500000000000000000 ) ;
#315 = ORIENTED_EDGE ( 'NONE', *, *, #201, .T. ) ;
#316 = COLOUR_RGB ( '',0.7921568627450980005, 0.8196078431372548767, 0.9333333333333333481 ) ;
#317 = DIRECTION ( 'NONE',  ( -0.000000000000000000, -0.000000000000000000, 1.000000000000000000 ) ) ;
#318 = VERTEX_POINT ( 'NONE', #302 ) ;
#319 = FILL_AREA_STYLE ('',( #259 ) ) ;
#320 = ORIENTED_EDGE ( 'NONE', *, *, #395, .T. ) ;
#321 = EDGE_CURVE ( 'NONE', #1, #89, #120, .T. ) ;
#322 = LINE ( 'NONE', #40, #406 ) ;
#323 = FACE_BOUND ( 'NONE', #63, .T. ) ;
#324 = PRODUCT_DEFINITION_FORMATION_WITH_SPECIFIED_SOURCE ( 'ANY', '', #397, .NOT_KNOWN. ) ;
#325 =( NAMED_UNIT ( * ) SI_UNIT ( $, .STERADIAN. ) SOLID_ANGLE_UNIT ( ) );
#326 = DIRECTION ( 'NONE',  ( 1.000000000000000000, 0.000000000000000000, -0.000000000000000000 ) ) ;
#327 = EDGE_CURVE ( 'NONE', #222, #282, #377, .T. ) ;
#328 = PLANE ( 'NONE',  #39 ) ;
#329 = CARTESIAN_POINT ( 'NONE',  ( -20.00000000000000000, 0.000000000000000000, -34.00000000000000000 ) ) ;
#330 = CARTESIAN_POINT ( 'NONE',  ( 12.00000000000000000, -5.000000000000000000, -14.00000000000000000 ) ) ;
#331 = DIRECTION ( 'NONE',  ( 0.000000000000000000, 0.000000000000000000, 1.000000000000000000 ) ) ;
#332 = ORIENTED_EDGE ( 'NONE', *, *, #226, .T. ) ;
#333 = PRODUCT_DEFINITION_SHAPE ( 'NONE', 'NONE',  #122 ) ;
#334 = CARTESIAN_POINT ( 'NONE',  ( -12.00000000000000000, 0.000000000000000000, -14.00000000000000000 ) ) ;
#335 = VECTOR ( 'NONE', #183, 1000.000000000000000 ) ;
#336 = VERTEX_POINT ( 'NONE', #64 ) ;
#337 = CARTESIAN_POINT ( 'NONE',  ( -12.00000000000000000, 0.000000000000000000, -28.99999999999999645 ) ) ;
#338 = ORIENTED_EDGE ( 'NONE', *, *, #371, .T. ) ;
#339 = CARTESIAN_POINT ( 'NONE',  ( -20.00000000000000000, 41.00000000000000000, -34.00000000000000000 ) ) ;
#340 = EDGE_LOOP ( 'NONE', ( #315, #311 ) ) ;
#341 = EDGE_LOOP ( 'NONE', ( #216, #29, #53, #191 ) ) ;
#342 = VECTOR ( 'NONE', #48, 1000.000000000000000 ) ;
#343 = ORIENTED_EDGE ( 'NONE', *, *, #239, .F. ) ;
#344 = ORIENTED_EDGE ( 'NONE', *, *, #152, .F. ) ;
#345 = ADVANCED_FACE ( 'NONE', ( #189 ), #314, .T. ) ;
#346 = DIRECTION ( 'NONE',  ( 0.000000000000000000, 0.000000000000000000, -1.000000000000000000 ) ) ;
#347 = ORIENTED_EDGE ( 'NONE', *, *, #327, .T. ) ;
#348 = PLANE ( 'NONE',  #106 ) ;
#349 = VERTEX_POINT ( 'NONE', #148 ) ;
#350 = APPLICATION_CONTEXT ( 'automotive_design' ) ;
#351 = ADVANCED_FACE ( 'NONE', ( #271 ), #269, .T. ) ;
#352 = DIRECTION ( 'NONE',  ( 0.000000000000000000, -0.000000000000000000, -1.000000000000000000 ) ) ;
#353 = FACE_OUTER_BOUND ( 'NONE', #149, .T. ) ;
#354 = CARTESIAN_POINT ( 'NONE',  ( -12.00000000000000000, -5.000000000000000000, -14.00000000000000000 ) ) ;
#355 = CIRCLE ( 'NONE', #177, 7.500000000000000000 ) ;
#356 = VECTOR ( 'NONE', #238, 1000.000000000000000 ) ;
#357 = PLANE ( 'NONE',  #253 ) ;
#358 = DIRECTION ( 'NONE',  ( 0.000000000000000000, 0.000000000000000000, 1.000000000000000000 ) ) ;
#359 = LINE ( 'NONE', #263, #342 ) ;
#360 = DIRECTION ( 'NONE',  ( -1.000000000000000000, 0.000000000000000000, -0.000000000000000000 ) ) ;
#361 = DIRECTION ( 'NONE',  ( 0.000000000000000000, 0.000000000000000000, 1.000000000000000000 ) ) ;
#362 = AXIS2_PLACEMENT_3D ( 'NONE', #55, #400, #115 ) ;
#363 = UNCERTAINTY_MEASURE_WITH_UNIT (LENGTH_MEASURE( 1.000000000000000082E-05 ), #261, 'distance_accuracy_value', 'NONE');
#364 = CARTESIAN_POINT ( 'NONE',  ( 12.00000000000000000, 0.000000000000000000, -28.99999999999999645 ) ) ;
#365 = EDGE_CURVE ( 'NONE', #404, #399, #83, .T. ) ;
#366 = EDGE_CURVE ( 'NONE', #87, #349, #7, .T. ) ;
#367 = DIRECTION ( 'NONE',  ( 0.000000000000000000, 0.000000000000000000, -1.000000000000000000 ) ) ;
#368 = SHAPE_DEFINITION_REPRESENTATION ( #333, #195 ) ;
#369 = DIRECTION ( 'NONE',  ( -0.000000000000000000, -0.000000000000000000, 1.000000000000000000 ) ) ;
#370 = EDGE_LOOP ( 'NONE', ( #123, #84, #182, #254 ) ) ;
#371 = EDGE_CURVE ( 'NONE', #151, #155, #74, .T. ) ;
#372 = PLANE ( 'NONE',  #362 ) ;
#373 = VERTEX_POINT ( 'NONE', #230 ) ;
#374 = ORIENTED_EDGE ( 'NONE', *, *, #383, .T. ) ;
#375 = CARTESIAN_POINT ( 'NONE',  ( 0.000000000000000000, 20.00000000000000000, 10.99999999999999822 ) ) ;
#376 = ORIENTED_EDGE ( 'NONE', *, *, #152, .T. ) ;
#377 = LINE ( 'NONE', #223, #210 ) ;
#378 = ORIENTED_EDGE ( 'NONE', *, *, #321, .F. ) ;
#379 = SURFACE_STYLE_USAGE ( .BOTH. , #102 ) ;
#380 = LINE ( 'NONE', #313, #247 ) ;
#381 = AXIS2_PLACEMENT_3D ( 'NONE', #240, #361, #80 ) ;
#382 = DIRECTION ( 'NONE',  ( -0.000000000000000000, -1.000000000000000000, -0.000000000000000000 ) ) ;
#383 = EDGE_CURVE ( 'NONE', #193, #96, #283, .T. ) ;
#384 = FACE_BOUND ( 'NONE', #252, .T. ) ;
#385 = DIRECTION ( 'NONE',  ( -0.000000000000000000, -0.000000000000000000, -1.000000000000000000 ) ) ;
#386 = DIRECTION ( 'NONE',  ( -1.000000000000000000, -0.000000000000000000, -0.000000000000000000 ) ) ;
#387 = DIRECTION ( 'NONE',  ( 0.000000000000000000, 0.000000000000000000, 1.000000000000000000 ) ) ;
#388 = VECTOR ( 'NONE', #19, 1000.000000000000000 ) ;
#389 = DIRECTION ( 'NONE',  ( 0.000000000000000000, 0.000000000000000000, 1.000000000000000000 ) ) ;
#390 = ADVANCED_FACE ( 'NONE', ( #353 ), #348, .F. ) ;
#391 = PRODUCT_RELATED_PRODUCT_CATEGORY ( 'part', '', ( #397 ) ) ;
#392 = CARTESIAN_POINT ( 'NONE',  ( 0.000000000000000000, 20.00000000000000000, 10.99999999999999822 ) ) ;
#393 = FACE_OUTER_BOUND ( 'NONE', #207, .T. ) ;
#394 = MANIFOLD_SOLID_BREP ( 'Boss-Extrude3', #73 ) ;
#395 = EDGE_CURVE ( 'NONE', #36, #373, #196, .T. ) ;
#396 = DIRECTION ( 'NONE',  ( -0.000000000000000000, -0.000000000000000000, -1.000000000000000000 ) ) ;
#397 = PRODUCT ( 'ELP_Camera', 'ELP_Camera', '', ( #13 ) ) ;
#398 = PLANE ( 'NONE',  #288 ) ;
#399 = VERTEX_POINT ( 'NONE', #131 ) ;
#400 = DIRECTION ( 'NONE',  ( 0.000000000000000000, 0.000000000000000000, -1.000000000000000000 ) ) ;
#401 = ORIENTED_EDGE ( 'NONE', *, *, #220, .F. ) ;
#402 = EDGE_CURVE ( 'NONE', #222, #193, #322, .T. ) ;
#403 = DIRECTION ( 'NONE',  ( 1.000000000000000000, 0.000000000000000000, 0.000000000000000000 ) ) ;
#404 = VERTEX_POINT ( 'NONE', #167 ) ;
#405 = VECTOR ( 'NONE', #386, 1000.000000000000000 ) ;
#406 = VECTOR ( 'NONE', #382, 1000.000000000000000 ) ;
#407 = VECTOR ( 'NONE', #11, 1000.000000000000000 ) ;
#408 = CARTESIAN_POINT ( 'NONE',  ( -20.00000000000000000, 0.000000000000000000, 0.000000000000000000 ) ) ;
#409 = ORIENTED_EDGE ( 'NONE', *, *, #211, .T. ) ;
ENDSEC;
END-ISO-10303-21;
