ISO-10303-21;
HEADER;
FILE_DESCRIPTION (( 'STEP AP214' ),
    '1' );
FILE_NAME ('CameraHousing.STEP',
    '2026-08-08T23:51:53',
    ( '' ),
    ( '' ),
    'SwSTEP 2.0',
    'SolidWorks 2026',
    '' );
FILE_SCHEMA (( 'AUTOMOTIVE_DESIGN' ));
ENDSEC;

DATA;
#1 = EDGE_CURVE ( 'NONE', #949, #296, #1092, .T. ) ;
#2 = DIRECTION ( 'NONE',  ( 1.000000000000000000, 0.000000000000000000, 0.000000000000000000 ) ) ;
#3 = VERTEX_POINT ( 'NONE', #657 ) ;
#4 = DIRECTION ( 'NONE',  ( 1.000000000000000000, 0.000000000000000000, -0.000000000000000000 ) ) ;
#5 = PLANE ( 'NONE',  #718 ) ;
#6 = ADVANCED_FACE ( 'NONE', ( #397 ), #577, .T. ) ;
#7 =( LENGTH_UNIT ( ) NAMED_UNIT ( * ) SI_UNIT ( .MILLI., .METRE. ) );
#8 = ORIENTED_EDGE ( 'NONE', *, *, #669, .F. ) ;
#9 = PLANE ( 'NONE',  #355 ) ;
#10 = LINE ( 'NONE', #699, #644 ) ;
#11 = ADVANCED_FACE ( 'NONE', ( #997 ), #307, .F. ) ;
#12 = DIRECTION ( 'NONE',  ( 0.000000000000000000, 0.000000000000000000, 1.000000000000000000 ) ) ;
#13 = ORIENTED_EDGE ( 'NONE', *, *, #498, .T. ) ;
#14 = CLOSED_SHELL ( 'NONE', ( #813, #852, #173, #704, #24, #88, #934, #767, #332, #221, #694, #1070, #478, #989, #265, #996, #381, #769, #807, #649, #317, #733, #826, #6, #485, #449, #834, #893, #137, #533, #1054, #627, #970, #11 ) ) ;
#15 = EDGE_CURVE ( 'NONE', #1113, #421, #1006, .T. ) ;
#16 = CARTESIAN_POINT ( 'NONE',  ( -22.30000000000000071, 16.00000000000000355, -2.799999999999999822 ) ) ;
#17 = VECTOR ( 'NONE', #204, 1000.000000000000000 ) ;
#18 = VECTOR ( 'NONE', #491, 1000.000000000000000 ) ;
#19 = LINE ( 'NONE', #811, #504 ) ;
#20 = VERTEX_POINT ( 'NONE', #489 ) ;
#21 = LINE ( 'NONE', #266, #274 ) ;
#22 = ORIENTED_EDGE ( 'NONE', *, *, #950, .F. ) ;
#23 = LINE ( 'NONE', #282, #959 ) ;
#24 = ADVANCED_FACE ( 'NONE', ( #405 ), #323, .F. ) ;
#25 = PLANE ( 'NONE',  #720 ) ;
#26 = ORIENTED_EDGE ( 'NONE', *, *, #669, .T. ) ;
#27 = DIRECTION ( 'NONE',  ( 1.239088197126290817E-16, 0.000000000000000000, -1.000000000000000000 ) ) ;
#28 = VERTEX_POINT ( 'NONE', #148 ) ;
#29 = LINE ( 'NONE', #106, #865 ) ;
#30 = ORIENTED_EDGE ( 'NONE', *, *, #887, .F. ) ;
#31 = ORIENTED_EDGE ( 'NONE', *, *, #192, .T. ) ;
#32 = LINE ( 'NONE', #1004, #1121 ) ;
#33 = VECTOR ( 'NONE', #320, 1000.000000000000000 ) ;
#34 = CARTESIAN_POINT ( 'NONE',  ( 22.30000000000000071, -15.00000000000000000, 7.799999999999999822 ) ) ;
#35 = VECTOR ( 'NONE', #874, 1000.000000000000000 ) ;
#36 = ORIENTED_EDGE ( 'NONE', *, *, #187, .F. ) ;
#37 = EDGE_CURVE ( 'NONE', #1022, #59, #648, .T. ) ;
#38 = VERTEX_POINT ( 'NONE', #1078 ) ;
#39 = PRODUCT_DEFINITION_CONTEXT ( 'detailed design', #122, 'design' ) ;
#40 = CARTESIAN_POINT ( 'NONE',  ( -19.29999999999999716, 16.00000000000000355, 1.300000000000000266 ) ) ;
#41 = DIRECTION ( 'NONE',  ( 1.239088197126290817E-16, -0.000000000000000000, -1.000000000000000000 ) ) ;
#42 = LINE ( 'NONE', #476, #736 ) ;
#43 = EDGE_LOOP ( 'NONE', ( #654, #706, #46, #1111, #348, #1057, #616, #547 ) ) ;
#44 = DIRECTION ( 'NONE',  ( -0.000000000000000000, -0.000000000000000000, -1.000000000000000000 ) ) ;
#45 = FACE_OUTER_BOUND ( 'NONE', #439, .T. ) ;
#46 = ORIENTED_EDGE ( 'NONE', *, *, #358, .F. ) ;
#47 = ORIENTED_EDGE ( 'NONE', *, *, #1056, .T. ) ;
#48 = EDGE_CURVE ( 'NONE', #20, #136, #312, .T. ) ;
#49 = LINE ( 'NONE', #573, #469 ) ;
#50 = EDGE_CURVE ( 'NONE', #124, #457, #666, .T. ) ;
#51 = LINE ( 'NONE', #487, #165 ) ;
#52 = CARTESIAN_POINT ( 'NONE',  ( -22.30000000000000071, 16.00000000000000355, 3.799999999999999822 ) ) ;
#53 = VECTOR ( 'NONE', #133, 1000.000000000000000 ) ;
#54 = VECTOR ( 'NONE', #110, 1000.000000000000000 ) ;
#55 = VERTEX_POINT ( 'NONE', #140 ) ;
#56 = LINE ( 'NONE', #909, #488 ) ;
#57 = CARTESIAN_POINT ( 'NONE',  ( 17.29999999999999716, 16.00000000000000355, 1.300000000000000044 ) ) ;
#58 = CARTESIAN_POINT ( 'NONE',  ( 22.30000000000000071, -15.00000000000000000, 3.799999999999999822 ) ) ;
#59 = VERTEX_POINT ( 'NONE', #63 ) ;
#60 = CARTESIAN_POINT ( 'NONE',  ( -19.29999999999999716, -19.00000000000000000, -0.2999999999999999889 ) ) ;
#61 = LINE ( 'NONE', #905, #432 ) ;
#62 = EDGE_CURVE ( 'NONE', #1026, #602, #286, .T. ) ;
#63 = CARTESIAN_POINT ( 'NONE',  ( 19.29999999999999716, 16.00000000000000355, 1.300000000000000266 ) ) ;
#64 = ORIENTED_EDGE ( 'NONE', *, *, #159, .F. ) ;
#65 = CARTESIAN_POINT ( 'NONE',  ( 17.30000000000000071, -19.00000000000000000, -0.2999999999999999889 ) ) ;
#66 = ORIENTED_EDGE ( 'NONE', *, *, #791, .F. ) ;
#67 = DIRECTION ( 'NONE',  ( -2.478176394252581634E-16, 0.000000000000000000, -1.000000000000000000 ) ) ;
#68 = DIRECTION ( 'NONE',  ( 1.000000000000000000, 0.000000000000000000, 0.000000000000000000 ) ) ;
#69 = AXIS2_PLACEMENT_3D ( 'NONE', #130, #301, #481 ) ;
#70 = AXIS2_PLACEMENT_3D ( 'NONE', #118, #806, #360 ) ;
#71 = ORIENTED_EDGE ( 'NONE', *, *, #437, .F. ) ;
#72 = EDGE_CURVE ( 'NONE', #602, #1113, #42, .T. ) ;
#73 = AXIS2_PLACEMENT_3D ( 'NONE', #568, #562, #138 ) ;
#74 = LINE ( 'NONE', #838, #1068 ) ;
#75 = VERTEX_POINT ( 'NONE', #641 ) ;
#76 = DIRECTION ( 'NONE',  ( 0.000000000000000000, 1.000000000000000000, 0.000000000000000000 ) ) ;
#77 = LINE ( 'NONE', #89, #774 ) ;
#78 = EDGE_LOOP ( 'NONE', ( #1020, #817, #281, #896, #680, #8, #883 ) ) ;
#79 = EDGE_CURVE ( 'NONE', #618, #912, #906, .T. ) ;
#80 = CARTESIAN_POINT ( 'NONE',  ( -14.00000000000000000, 16.00000000000000355, 2.000000000000000000 ) ) ;
#81 = VERTEX_POINT ( 'NONE', #58 ) ;
#82 = LINE ( 'NONE', #169, #127 ) ;
#83 = DIRECTION ( 'NONE',  ( -1.000000000000000000, 0.000000000000000000, 0.000000000000000000 ) ) ;
#84 = ORIENTED_EDGE ( 'NONE', *, *, #791, .T. ) ;
#85 = DIRECTION ( 'NONE',  ( -1.000000000000000000, 0.000000000000000000, 1.084202172485503448E-16 ) ) ;
#86 = ORIENTED_EDGE ( 'NONE', *, *, #1017, .T. ) ;
#87 = CARTESIAN_POINT ( 'NONE',  ( 17.29999999999999716, 16.00000000000000355, 1.300000000000000044 ) ) ;
#88 = ADVANCED_FACE ( 'NONE', ( #653 ), #829, .F. ) ;
#89 = CARTESIAN_POINT ( 'NONE',  ( 14.00000000000000000, 16.00000000000000355, 2.000000000000000000 ) ) ;
#90 = CIRCLE ( 'NONE', #642, 4.000000000000000000 ) ;
#91 = VECTOR ( 'NONE', #924, 1000.000000000000000 ) ;
#92 = CYLINDRICAL_SURFACE ( 'NONE', #833, 2.000000000000000000 ) ;
#93 = ORIENTED_EDGE ( 'NONE', *, *, #402, .F. ) ;
#94 = AXIS2_PLACEMENT_3D ( 'NONE', #483, #399, #143 ) ;
#95 = DIRECTION ( 'NONE',  ( -0.000000000000000000, -1.000000000000000000, -0.000000000000000000 ) ) ;
#96 = ADVANCED_BREP_SHAPE_REPRESENTATION ( 'CameraHousing', ( #709, #1065 ), #306 ) ;
#97 = DIRECTION ( 'NONE',  ( 1.000000000000000000, 0.000000000000000000, 0.000000000000000000 ) ) ;
#98 = DIRECTION ( 'NONE',  ( 0.000000000000000000, 0.000000000000000000, 1.000000000000000000 ) ) ;
#99 = ORIENTED_EDGE ( 'NONE', *, *, #352, .F. ) ;
#100 = DIRECTION ( 'NONE',  ( -1.000000000000000000, 0.000000000000000000, -1.239088197126290817E-16 ) ) ;
#101 = LINE ( 'NONE', #725, #976 ) ;
#102 = EDGE_CURVE ( 'NONE', #357, #546, #916, .T. ) ;
#103 = CARTESIAN_POINT ( 'NONE',  ( -9.500000000000001776, -16.99999999999999645, 2.000000000000000444 ) ) ;
#104 = EDGE_LOOP ( 'NONE', ( #542, #814, #662, #731 ) ) ;
#105 = CARTESIAN_POINT ( 'NONE',  ( 11.50000000000000178, -16.99999999999999645, 2.000000000000000000 ) ) ;
#106 = CARTESIAN_POINT ( 'NONE',  ( -17.29999999999999716, -19.00000000000000000, 1.300000000000000044 ) ) ;
#107 = ORIENTED_EDGE ( 'NONE', *, *, #759, .F. ) ;
#108 = ORIENTED_EDGE ( 'NONE', *, *, #508, .T. ) ;
#109 = EDGE_CURVE ( 'NONE', #591, #222, #583, .T. ) ;
#110 = DIRECTION ( 'NONE',  ( 0.000000000000000000, 0.000000000000000000, 1.000000000000000000 ) ) ;
#111 = VECTOR ( 'NONE', #1023, 1000.000000000000000 ) ;
#112 = VECTOR ( 'NONE', #223, 1000.000000000000000 ) ;
#113 = DIRECTION ( 'NONE',  ( -0.000000000000000000, -0.000000000000000000, -1.000000000000000000 ) ) ;
#114 = VERTEX_POINT ( 'NONE', #340 ) ;
#115 = DIRECTION ( 'NONE',  ( 1.000000000000000000, 0.000000000000000000, 0.000000000000000000 ) ) ;
#116 = ORIENTED_EDGE ( 'NONE', *, *, #48, .F. ) ;
#117 = LINE ( 'NONE', #527, #902 ) ;
#118 = CARTESIAN_POINT ( 'NONE',  ( 9.500000000000003553, -16.99999999999999645, 16.00000000000000000 ) ) ;
#119 = ORIENTED_EDGE ( 'NONE', *, *, #1003, .F. ) ;
#120 = DIRECTION ( 'NONE',  ( -0.000000000000000000, -1.000000000000000000, -0.000000000000000000 ) ) ;
#121 = DIRECTION ( 'NONE',  ( 2.478176394252581634E-16, 0.000000000000000000, -1.000000000000000000 ) ) ;
#122 = APPLICATION_CONTEXT ( 'automotive_design' ) ;
#123 = EDGE_CURVE ( 'NONE', #336, #940, #163, .T. ) ;
#124 = VERTEX_POINT ( 'NONE', #264 ) ;
#125 = EDGE_LOOP ( 'NONE', ( #86, #550, #870, #482 ) ) ;
#126 = LINE ( 'NONE', #1072, #185 ) ;
#127 = VECTOR ( 'NONE', #756, 1000.000000000000000 ) ;
#128 = DIRECTION ( 'NONE',  ( 1.000000000000000000, 0.000000000000000000, -0.000000000000000000 ) ) ;
#129 = AXIS2_PLACEMENT_3D ( 'NONE', #1051, #2, #177 ) ;
#130 = CARTESIAN_POINT ( 'NONE',  ( 0.000000000000000000, 16.00000000000000355, 0.000000000000000000 ) ) ;
#131 = VERTEX_POINT ( 'NONE', #683 ) ;
#132 = DIRECTION ( 'NONE',  ( 0.000000000000000000, 0.000000000000000000, -1.000000000000000000 ) ) ;
#133 = DIRECTION ( 'NONE',  ( -0.000000000000000000, -0.000000000000000000, -1.000000000000000000 ) ) ;
#134 = DIRECTION ( 'NONE',  ( -0.000000000000000000, -0.000000000000000000, 1.000000000000000000 ) ) ;
#135 = EDGE_CURVE ( 'NONE', #357, #998, #413, .T. ) ;
#136 = VERTEX_POINT ( 'NONE', #431 ) ;
#137 = ADVANCED_FACE ( 'NONE', ( #784 ), #862, .F. ) ;
#138 = DIRECTION ( 'NONE',  ( 0.000000000000000000, 0.000000000000000000, 1.000000000000000000 ) ) ;
#139 = CARTESIAN_POINT ( 'NONE',  ( 22.30000000000000071, 16.00000000000000355, -2.799999999999999822 ) ) ;
#140 = CARTESIAN_POINT ( 'NONE',  ( 22.30000000000000071, 16.00000000000000355, 3.799999999999999822 ) ) ;
#141 = ORIENTED_EDGE ( 'NONE', *, *, #79, .T. ) ;
#142 = EDGE_CURVE ( 'NONE', #1001, #287, #793, .T. ) ;
#143 = DIRECTION ( 'NONE',  ( 1.000000000000000000, 0.000000000000000000, -0.000000000000000000 ) ) ;
#144 = APPLICATION_CONTEXT ( 'automotive_design' ) ;
#145 = LINE ( 'NONE', #57, #574 ) ;
#146 = AXIS2_PLACEMENT_3D ( 'NONE', #820, #911, #220 ) ;
#147 = VECTOR ( 'NONE', #549, 1000.000000000000000 ) ;
#148 = CARTESIAN_POINT ( 'NONE',  ( -17.30000000000000071, 16.00000000000000355, -2.799999999999999822 ) ) ;
#149 = AXIS2_PLACEMENT_3D ( 'NONE', #40, #739, #392 ) ;
#150 = VERTEX_POINT ( 'NONE', #943 ) ;
#151 = LINE ( 'NONE', #1112, #18 ) ;
#152 = DIRECTION ( 'NONE',  ( 0.000000000000000000, 0.000000000000000000, -1.000000000000000000 ) ) ;
#153 = DIRECTION ( 'NONE',  ( 1.000000000000000000, -0.000000000000000000, 0.000000000000000000 ) ) ;
#154 = VERTEX_POINT ( 'NONE', #180 ) ;
#155 = CARTESIAN_POINT ( 'NONE',  ( 19.29999999999999716, 16.00000000000000355, -0.2999999999999999889 ) ) ;
#156 = EDGE_LOOP ( 'NONE', ( #260, #589, #1117, #977 ) ) ;
#157 = CARTESIAN_POINT ( 'NONE',  ( -22.30000000000000071, 16.00000000000000355, -2.799999999999999822 ) ) ;
#158 = LINE ( 'NONE', #499, #521 ) ;
#159 = EDGE_CURVE ( 'NONE', #222, #637, #158, .T. ) ;
#160 = ORIENTED_EDGE ( 'NONE', *, *, #508, .F. ) ;
#161 = CARTESIAN_POINT ( 'NONE',  ( -17.29999999999999716, 16.00000000000000355, 3.799999999999999822 ) ) ;
#162 = CARTESIAN_POINT ( 'NONE',  ( 17.29999999999999716, 16.00000000000000355, 1.300000000000000044 ) ) ;
#163 = LINE ( 'NONE', #1019, #540 ) ;
#164 = EDGE_CURVE ( 'NONE', #38, #20, #77, .T. ) ;
#165 = VECTOR ( 'NONE', #559, 1000.000000000000000 ) ;
#166 = VERTEX_POINT ( 'NONE', #1024 ) ;
#167 = DIRECTION ( 'NONE',  ( -0.000000000000000000, -1.000000000000000000, -0.000000000000000000 ) ) ;
#168 = ORIENTED_EDGE ( 'NONE', *, *, #367, .T. ) ;
#169 = CARTESIAN_POINT ( 'NONE',  ( -17.30000000000000071, -19.00000000000000000, -0.2999999999999999889 ) ) ;
#170 = DIRECTION ( 'NONE',  ( 1.000000000000000000, -0.000000000000000000, -0.000000000000000000 ) ) ;
#171 = EDGE_CURVE ( 'NONE', #998, #1082, #605, .T. ) ;
#172 = CARTESIAN_POINT ( 'NONE',  ( 22.30000000000000071, 16.00000000000000355, 3.799999999999999822 ) ) ;
#173 = ADVANCED_FACE ( 'NONE', ( #757 ), #5, .F. ) ;
#174 = CARTESIAN_POINT ( 'NONE',  ( -14.00000000000000000, -16.99999999999999645, 2.000000000000000000 ) ) ;
#175 = DIRECTION ( 'NONE',  ( -0.000000000000000000, -1.000000000000000000, -0.000000000000000000 ) ) ;
#176 = UNCERTAINTY_MEASURE_WITH_UNIT (LENGTH_MEASURE( 1.000000000000000082E-05 ), #7, 'distance_accuracy_value', 'NONE');
#177 = DIRECTION ( 'NONE',  ( 0.000000000000000000, 0.000000000000000000, -1.000000000000000000 ) ) ;
#178 = ORIENTED_EDGE ( 'NONE', *, *, #1, .T. ) ;
#179 = CARTESIAN_POINT ( 'NONE',  ( -22.30000000000000071, 16.00000000000000355, 3.799999999999999822 ) ) ;
#180 = CARTESIAN_POINT ( 'NONE',  ( -11.50000000000000178, 16.00000000000000355, 2.000000000000000000 ) ) ;
#181 = VECTOR ( 'NONE', #730, 1000.000000000000000 ) ;
#182 = VECTOR ( 'NONE', #1122, 1000.000000000000000 ) ;
#183 = APPLICATION_PROTOCOL_DEFINITION ( 'draft international standard', 'automotive_design', 1998, #144 ) ;
#184 = ORIENTED_EDGE ( 'NONE', *, *, #603, .T. ) ;
#185 = VECTOR ( 'NONE', #557, 1000.000000000000000 ) ;
#186 = CARTESIAN_POINT ( 'NONE',  ( -22.30000000000000071, -19.00000000000000000, 16.00000000000000000 ) ) ;
#187 = EDGE_CURVE ( 'NONE', #287, #75, #335, .T. ) ;
#188 = CARTESIAN_POINT ( 'NONE',  ( 14.00000000000000000, 16.00000000000000355, 2.000000000000000000 ) ) ;
#189 = EDGE_LOOP ( 'NONE', ( #461, #473, #71, #460 ) ) ;
#190 = SURFACE_STYLE_USAGE ( .BOTH. , #792 ) ;
#191 = LINE ( 'NONE', #197, #776 ) ;
#192 = EDGE_CURVE ( 'NONE', #287, #124, #564, .T. ) ;
#193 = ORIENTED_EDGE ( 'NONE', *, *, #123, .F. ) ;
#194 = SHAPE_DEFINITION_REPRESENTATION ( #780, #96 ) ;
#195 = VERTEX_POINT ( 'NONE', #1038 ) ;
#196 = DIRECTION ( 'NONE',  ( 0.000000000000000000, 0.000000000000000000, -1.000000000000000000 ) ) ;
#197 = CARTESIAN_POINT ( 'NONE',  ( 22.30000000000000071, -19.00000000000000000, -2.799999999999999822 ) ) ;
#198 = ORIENTED_EDGE ( 'NONE', *, *, #367, .F. ) ;
#199 = EDGE_CURVE ( 'NONE', #124, #1034, #938, .T. ) ;
#200 = DIRECTION ( 'NONE',  ( -0.000000000000000000, -1.000000000000000000, -0.000000000000000000 ) ) ;
#201 = EDGE_LOOP ( 'NONE', ( #26, #530, #1102, #753 ) ) ;
#202 = CARTESIAN_POINT ( 'NONE',  ( 22.30000000000000071, -21.50000000000000000, -2.799999999999999822 ) ) ;
#203 = VECTOR ( 'NONE', #249, 1000.000000000000000 ) ;
#204 = DIRECTION ( 'NONE',  ( -0.000000000000000000, -1.000000000000000000, -0.000000000000000000 ) ) ;
#205 = ORIENTED_EDGE ( 'NONE', *, *, #402, .T. ) ;
#206 = ORIENTED_EDGE ( 'NONE', *, *, #1088, .F. ) ;
#207 = EDGE_CURVE ( 'NONE', #993, #368, #90, .T. ) ;
#208 = DIRECTION ( 'NONE',  ( 1.000000000000000000, -0.000000000000000000, 2.478176394252581634E-16 ) ) ;
#209 = ORIENTED_EDGE ( 'NONE', *, *, #1115, .F. ) ;
#210 = ORIENTED_EDGE ( 'NONE', *, *, #199, .F. ) ;
#211 = PLANE ( 'NONE',  #575 ) ;
#212 = LINE ( 'NONE', #898, #663 ) ;
#213 = ORIENTED_EDGE ( 'NONE', *, *, #171, .T. ) ;
#214 = ORIENTED_EDGE ( 'NONE', *, *, #453, .T. ) ;
#215 = CARTESIAN_POINT ( 'NONE',  ( 14.00000000000000000, 16.00000000000000355, 2.000000000000000000 ) ) ;
#216 = AXIS2_PLACEMENT_3D ( 'NONE', #366, #980, #894 ) ;
#217 = VECTOR ( 'NONE', #95, 1000.000000000000000 ) ;
#218 = LINE ( 'NONE', #823, #831 ) ;
#219 = VECTOR ( 'NONE', #200, 1000.000000000000000 ) ;
#220 = DIRECTION ( 'NONE',  ( 1.000000000000000000, 0.000000000000000000, 0.000000000000000000 ) ) ;
#221 = ADVANCED_FACE ( 'NONE', ( #595 ), #350, .T. ) ;
#222 = VERTEX_POINT ( 'NONE', #770 ) ;
#223 = DIRECTION ( 'NONE',  ( -0.000000000000000000, -1.000000000000000000, -0.000000000000000000 ) ) ;
#224 = CARTESIAN_POINT ( 'NONE',  ( 22.30000000000000071, -19.00000000000000000, 16.00000000000000000 ) ) ;
#225 = ORIENTED_EDGE ( 'NONE', *, *, #950, .T. ) ;
#226 = ORIENTED_EDGE ( 'NONE', *, *, #1025, .T. ) ;
#227 = FACE_OUTER_BOUND ( 'NONE', #245, .T. ) ;
#228 = DIRECTION ( 'NONE',  ( 0.000000000000000000, -0.000000000000000000, 1.000000000000000000 ) ) ;
#229 = DIRECTION ( 'NONE',  ( 0.000000000000000000, 0.000000000000000000, -1.000000000000000000 ) ) ;
#230 = ORIENTED_EDGE ( 'NONE', *, *, #298, .F. ) ;
#231 = EDGE_CURVE ( 'NONE', #708, #981, #1116, .T. ) ;
#232 = DIRECTION ( 'NONE',  ( 1.000000000000000000, -0.000000000000000000, 0.000000000000000000 ) ) ;
#233 = CARTESIAN_POINT ( 'NONE',  ( 9.500000000000001776, -19.00000000000000000, 2.000000000000000000 ) ) ;
#234 = VECTOR ( 'NONE', #259, 1000.000000000000000 ) ;
#235 = AXIS2_PLACEMENT_3D ( 'NONE', #400, #389, #910 ) ;
#236 = ORIENTED_EDGE ( 'NONE', *, *, #659, .T. ) ;
#237 = ORIENTED_EDGE ( 'NONE', *, *, #1017, .F. ) ;
#238 = LINE ( 'NONE', #256, #203 ) ;
#239 = ORIENTED_EDGE ( 'NONE', *, *, #1041, .F. ) ;
#240 = EDGE_CURVE ( 'NONE', #136, #623, #522, .T. ) ;
#241 = DIRECTION ( 'NONE',  ( 1.000000000000000000, 0.000000000000000000, 0.000000000000000000 ) ) ;
#242 = CARTESIAN_POINT ( 'NONE',  ( 11.50000000000000178, 16.00000000000000355, 2.000000000000000000 ) ) ;
#243 = ORIENTED_EDGE ( 'NONE', *, *, #873, .T. ) ;
#244 = DIRECTION ( 'NONE',  ( -0.000000000000000000, -0.000000000000000000, 1.000000000000000000 ) ) ;
#245 = EDGE_LOOP ( 'NONE', ( #926, #1079, #373, #1098 ) ) ;
#246 = LINE ( 'NONE', #179, #700 ) ;
#247 = DIRECTION ( 'NONE',  ( 0.000000000000000000, 0.000000000000000000, 1.000000000000000000 ) ) ;
#248 = EDGE_LOOP ( 'NONE', ( #47, #830, #239, #444 ) ) ;
#249 = DIRECTION ( 'NONE',  ( -2.478176394252581634E-16, -0.000000000000000000, -1.000000000000000000 ) ) ;
#250 = ORIENTED_EDGE ( 'NONE', *, *, #1, .F. ) ;
#251 = LINE ( 'NONE', #843, #182 ) ;
#252 = EDGE_CURVE ( 'NONE', #477, #727, #1046, .T. ) ;
#253 = DIRECTION ( 'NONE',  ( -0.000000000000000000, -0.000000000000000000, 1.000000000000000000 ) ) ;
#254 = AXIS2_PLACEMENT_3D ( 'NONE', #587, #67, #762 ) ;
#255 = ORIENTED_EDGE ( 'NONE', *, *, #607, .F. ) ;
#256 = CARTESIAN_POINT ( 'NONE',  ( 14.00000000000000000, 16.00000000000000355, 2.000000000000000000 ) ) ;
#257 = ORIENTED_EDGE ( 'NONE', *, *, #418, .F. ) ;
#258 = CARTESIAN_POINT ( 'NONE',  ( -17.30000000000000071, -19.00000000000000000, -2.799999999999999822 ) ) ;
#259 = DIRECTION ( 'NONE',  ( -1.000000000000000000, -0.000000000000000000, -0.000000000000000000 ) ) ;
#260 = ORIENTED_EDGE ( 'NONE', *, *, #972, .T. ) ;
#261 = CARTESIAN_POINT ( 'NONE',  ( -22.30000000000000071, 16.00000000000000355, -2.799999999999999822 ) ) ;
#262 = ORIENTED_EDGE ( 'NONE', *, *, #520, .F. ) ;
#263 = DIRECTION ( 'NONE',  ( 1.000000000000000000, -0.000000000000000000, 0.000000000000000000 ) ) ;
#264 = CARTESIAN_POINT ( 'NONE',  ( -9.500000000000003553, -19.00000000000000000, 16.00000000000000000 ) ) ;
#265 = ADVANCED_FACE ( 'NONE', ( #532 ), #275, .F. ) ;
#266 = CARTESIAN_POINT ( 'NONE',  ( -14.00000000000000000, 16.00000000000000355, 2.000000000000000000 ) ) ;
#267 = ORIENTED_EDGE ( 'NONE', *, *, #779, .T. ) ;
#268 = LINE ( 'NONE', #880, #867 ) ;
#269 = LINE ( 'NONE', #620, #1029 ) ;
#270 = AXIS2_PLACEMENT_3D ( 'NONE', #778, #930, #935 ) ;
#271 = VECTOR ( 'NONE', #1109, 1000.000000000000000 ) ;
#272 = LINE ( 'NONE', #714, #701 ) ;
#273 = EDGE_LOOP ( 'NONE', ( #210, #415, #719, #539 ) ) ;
#274 = VECTOR ( 'NONE', #525, 1000.000000000000000 ) ;
#275 = PLANE ( 'NONE',  #216 ) ;
#276 = CARTESIAN_POINT ( 'NONE',  ( 14.00000000000000355, -16.99999999999999645, 16.00000000000000000 ) ) ;
#277 = ORIENTED_EDGE ( 'NONE', *, *, #352, .T. ) ;
#278 = PLANE ( 'NONE',  #781 ) ;
#279 = FACE_OUTER_BOUND ( 'NONE', #189, .T. ) ;
#280 = EDGE_CURVE ( 'NONE', #75, #3, #1008, .T. ) ;
#281 = ORIENTED_EDGE ( 'NONE', *, *, #393, .T. ) ;
#282 = CARTESIAN_POINT ( 'NONE',  ( -14.00000000000000000, 16.00000000000000355, 2.000000000000000000 ) ) ;
#283 = DIRECTION ( 'NONE',  ( 0.000000000000000000, 0.000000000000000000, 1.000000000000000000 ) ) ;
#284 = EDGE_LOOP ( 'NONE', ( #809, #842, #209, #536, #351, #758 ) ) ;
#285 = EDGE_CURVE ( 'NONE', #981, #336, #29, .T. ) ;
#286 = CIRCLE ( 'NONE', #146, 2.000000000000001776 ) ;
#287 = VERTEX_POINT ( 'NONE', #1061 ) ;
#288 = CIRCLE ( 'NONE', #486, 4.000000000000000000 ) ;
#289 = VECTOR ( 'NONE', #474, 1000.000000000000000 ) ;
#290 = AXIS2_PLACEMENT_3D ( 'NONE', #914, #44, #822 ) ;
#291 = CARTESIAN_POINT ( 'NONE',  ( 17.30000000000000071, 16.00000000000000355, -0.2999999999999999889 ) ) ;
#292 = EDGE_LOOP ( 'NONE', ( #1071, #382, #230, #255 ) ) ;
#293 = EDGE_LOOP ( 'NONE', ( #108, #141, #243, #837, #586, #851, #342, #495 ) ) ;
#294 = LINE ( 'NONE', #299, #922 ) ;
#295 = PLANE ( 'NONE',  #918 ) ;
#296 = VERTEX_POINT ( 'NONE', #801 ) ;
#297 = EDGE_LOOP ( 'NONE', ( #737, #796, #107, #390, #308, #1059 ) ) ;
#298 = EDGE_CURVE ( 'NONE', #81, #932, #288, .T. ) ;
#299 = CARTESIAN_POINT ( 'NONE',  ( -22.30000000000000071, -21.50000000000000000, 16.00000000000000000 ) ) ;
#300 = DIRECTION ( 'NONE',  ( -1.000000000000000000, -0.000000000000000000, -1.084202172485503448E-16 ) ) ;
#301 = DIRECTION ( 'NONE',  ( 0.000000000000000000, 1.000000000000000000, -0.000000000000000000 ) ) ;
#302 = ORIENTED_EDGE ( 'NONE', *, *, #387, .T. ) ;
#303 = FACE_OUTER_BOUND ( 'NONE', #125, .T. ) ;
#304 = VECTOR ( 'NONE', #570, 1000.000000000000000 ) ;
#305 = CARTESIAN_POINT ( 'NONE',  ( -14.00000000000000355, 16.00000000000000355, 16.00000000000000000 ) ) ;
#306 =( GEOMETRIC_REPRESENTATION_CONTEXT ( 3 ) GLOBAL_UNCERTAINTY_ASSIGNED_CONTEXT ( ( #176 ) ) GLOBAL_UNIT_ASSIGNED_CONTEXT ( ( #7, #611, #517 ) ) REPRESENTATION_CONTEXT ( 'NONE', 'WORKASPACE' ) );
#307 = CYLINDRICAL_SURFACE ( 'NONE', #751, 4.000000000000000000 ) ;
#308 = ORIENTED_EDGE ( 'NONE', *, *, #311, .T. ) ;
#309 = LINE ( 'NONE', #1090, #289 ) ;
#310 = CARTESIAN_POINT ( 'NONE',  ( 14.00000000000000000, -16.99999999999999645, 2.000000000000000000 ) ) ;
#311 = EDGE_CURVE ( 'NONE', #38, #1026, #881, .T. ) ;
#312 = LINE ( 'NONE', #242, #304 ) ;
#313 = ORIENTED_EDGE ( 'NONE', *, *, #548, .T. ) ;
#314 = CARTESIAN_POINT ( 'NONE',  ( 19.29999999999999716, 16.00000000000000355, 1.300000000000000266 ) ) ;
#315 = FACE_OUTER_BOUND ( 'NONE', #386, .T. ) ;
#316 = CARTESIAN_POINT ( 'NONE',  ( 17.29999999999999716, 16.00000000000000355, 3.799999999999999822 ) ) ;
#317 = ADVANCED_FACE ( 'NONE', ( #528 ), #615, .F. ) ;
#318 = FACE_OUTER_BOUND ( 'NONE', #156, .T. ) ;
#319 = VERTEX_POINT ( 'NONE', #788 ) ;
#320 = DIRECTION ( 'NONE',  ( 2.478176394252581634E-16, -0.000000000000000000, -1.000000000000000000 ) ) ;
#321 = VECTOR ( 'NONE', #471, 1000.000000000000000 ) ;
#322 = AXIS2_PLACEMENT_3D ( 'NONE', #711, #208, #121 ) ;
#323 = PLANE ( 'NONE',  #430 ) ;
#324 = VECTOR ( 'NONE', #1039, 1000.000000000000000 ) ;
#325 = LINE ( 'NONE', #667, #1010 ) ;
#326 = ORIENTED_EDGE ( 'NONE', *, *, #334, .T. ) ;
#327 = LINE ( 'NONE', #174, #754 ) ;
#328 = CARTESIAN_POINT ( 'NONE',  ( -9.500000000000003553, -16.99999999999999645, 16.00000000000000000 ) ) ;
#329 = ORIENTED_EDGE ( 'NONE', *, *, #365, .F. ) ;
#330 = DIRECTION ( 'NONE',  ( -0.000000000000000000, -1.000000000000000000, -0.000000000000000000 ) ) ;
#331 = ORIENTED_EDGE ( 'NONE', *, *, #614, .F. ) ;
#332 = ADVANCED_FACE ( 'NONE', ( #463 ), #794, .F. ) ;
#333 = LINE ( 'NONE', #510, #271 ) ;
#334 = EDGE_CURVE ( 'NONE', #580, #421, #269, .T. ) ;
#335 = LINE ( 'NONE', #505, #812 ) ;
#336 = VERTEX_POINT ( 'NONE', #975 ) ;
#337 = DIRECTION ( 'NONE',  ( 0.000000000000000000, 0.000000000000000000, 1.000000000000000000 ) ) ;
#338 = ORIENTED_EDGE ( 'NONE', *, *, #1033, .T. ) ;
#339 = CARTESIAN_POINT ( 'NONE',  ( 22.30000000000000071, -15.00000000000000000, 3.799999999999999822 ) ) ;
#340 = CARTESIAN_POINT ( 'NONE',  ( -19.29999999999999716, 16.00000000000000355, 1.300000000000000266 ) ) ;
#341 = VECTOR ( 'NONE', #515, 1000.000000000000000 ) ;
#342 = ORIENTED_EDGE ( 'NONE', *, *, #936, .T. ) ;
#343 = VECTOR ( 'NONE', #115, 1000.000000000000000 ) ;
#344 = FACE_OUTER_BOUND ( 'NONE', #798, .T. ) ;
#345 = DIRECTION ( 'NONE',  ( -2.478176394252581634E-16, 0.000000000000000000, 1.000000000000000000 ) ) ;
#346 = DIRECTION ( 'NONE',  ( -1.000000000000000000, 0.000000000000000000, 0.000000000000000000 ) ) ;
#347 = CARTESIAN_POINT ( 'NONE',  ( -14.00000000000000000, 16.00000000000000355, 2.000000000000000000 ) ) ;
#348 = ORIENTED_EDGE ( 'NONE', *, *, #685, .F. ) ;
#349 = DIRECTION ( 'NONE',  ( 0.000000000000000000, 0.000000000000000000, -1.000000000000000000 ) ) ;
#350 = PLANE ( 'NONE',  #374 ) ;
#351 = ORIENTED_EDGE ( 'NONE', *, *, #1041, .T. ) ;
#352 = EDGE_CURVE ( 'NONE', #1105, #457, #412, .T. ) ;
#353 = FACE_OUTER_BOUND ( 'NONE', #1069, .T. ) ;
#354 = CARTESIAN_POINT ( 'NONE',  ( 17.30000000000000071, -19.00000000000000000, -2.799999999999999822 ) ) ;
#355 = AXIS2_PLACEMENT_3D ( 'NONE', #888, #710, #4 ) ;
#356 = DIRECTION ( 'NONE',  ( 1.000000000000000000, 0.000000000000000000, 0.000000000000000000 ) ) ;
#357 = VERTEX_POINT ( 'NONE', #354 ) ;
#358 = EDGE_CURVE ( 'NONE', #606, #357, #19, .T. ) ;
#359 = SURFACE_STYLE_FILL_AREA ( #1064 ) ;
#360 = DIRECTION ( 'NONE',  ( 1.000000000000000000, 0.000000000000000000, 0.000000000000000000 ) ) ;
#361 = EDGE_LOOP ( 'NONE', ( #1107, #978, #735, #267 ) ) ;
#362 = CARTESIAN_POINT ( 'NONE',  ( 19.29999999999999716, -19.00000000000000000, -0.2999999999999999889 ) ) ;
#363 = ORIENTED_EDGE ( 'NONE', *, *, #520, .T. ) ;
#364 = DIRECTION ( 'NONE',  ( 1.000000000000000000, 0.000000000000000000, 0.000000000000000000 ) ) ;
#365 = EDGE_CURVE ( 'NONE', #713, #993, #872, .T. ) ;
#366 = CARTESIAN_POINT ( 'NONE',  ( 17.29999999999999716, 16.00000000000000355, 3.799999999999999822 ) ) ;
#367 = EDGE_CURVE ( 'NONE', #131, #940, #717, .T. ) ;
#368 = VERTEX_POINT ( 'NONE', #379 ) ;
#369 = LINE ( 'NONE', #438, #324 ) ;
#370 = EDGE_LOOP ( 'NONE', ( #226, #761, #447, #119 ) ) ;
#371 = FACE_OUTER_BOUND ( 'NONE', #43, .T. ) ;
#372 = DIRECTION ( 'NONE',  ( 1.000000000000000000, -0.000000000000000000, 0.000000000000000000 ) ) ;
#373 = ORIENTED_EDGE ( 'NONE', *, *, #240, .T. ) ;
#374 = AXIS2_PLACEMENT_3D ( 'NONE', #856, #1032, #425 ) ;
#375 = ORIENTED_EDGE ( 'NONE', *, *, #913, .F. ) ;
#376 = VECTOR ( 'NONE', #553, 1000.000000000000000 ) ;
#377 = LINE ( 'NONE', #724, #112 ) ;
#378 = AXIS2_PLACEMENT_3D ( 'NONE', #172, #661, #858 ) ;
#379 = CARTESIAN_POINT ( 'NONE',  ( -17.29999999999999716, -19.00000000000000000, 7.799999999999999822 ) ) ;
#380 = ORIENTED_EDGE ( 'NONE', *, *, #493, .F. ) ;
#381 = ADVANCED_FACE ( 'NONE', ( #279 ), #25, .F. ) ;
#382 = ORIENTED_EDGE ( 'NONE', *, *, #387, .F. ) ;
#383 = DIRECTION ( 'NONE',  ( 2.478176394252581634E-16, 0.000000000000000000, 1.000000000000000000 ) ) ;
#384 = CARTESIAN_POINT ( 'NONE',  ( 11.50000000000000178, 16.00000000000000355, 2.000000000000000000 ) ) ;
#385 = DIRECTION ( 'NONE',  ( 2.478176394252581634E-16, -0.000000000000000000, 1.000000000000000000 ) ) ;
#386 = EDGE_LOOP ( 'NONE', ( #64, #879, #262, #1052 ) ) ;
#387 = EDGE_CURVE ( 'NONE', #932, #296, #101, .T. ) ;
#388 = DIRECTION ( 'NONE',  ( -1.000000000000000000, 0.000000000000000000, 2.478176394252581634E-16 ) ) ;
#389 = DIRECTION ( 'NONE',  ( 1.239088197126290817E-16, -0.000000000000000000, 1.000000000000000000 ) ) ;
#390 = ORIENTED_EDGE ( 'NONE', *, *, #164, .F. ) ;
#391 = ORIENTED_EDGE ( 'NONE', *, *, #1025, .F. ) ;
#392 = DIRECTION ( 'NONE',  ( 0.000000000000000000, 0.000000000000000000, 1.000000000000000000 ) ) ;
#393 = EDGE_CURVE ( 'NONE', #637, #749, #10, .T. ) ;
#394 = MECHANICAL_DESIGN_GEOMETRIC_PRESENTATION_REPRESENTATION (  '', ( #991 ), #992 ) ;
#395 = LINE ( 'NONE', #1000, #91 ) ;
#396 = AXIS2_PLACEMENT_3D ( 'NONE', #161, #422, #337 ) ;
#397 = FACE_OUTER_BOUND ( 'NONE', #361, .T. ) ;
#398 = EDGE_LOOP ( 'NONE', ( #213, #857, #863, #746 ) ) ;
#399 = DIRECTION ( 'NONE',  ( 0.000000000000000000, 0.000000000000000000, 1.000000000000000000 ) ) ;
#400 = CARTESIAN_POINT ( 'NONE',  ( 9.500000000000001776, -16.99999999999999645, 2.000000000000000444 ) ) ;
#401 = DIRECTION ( 'NONE',  ( -1.000000000000000000, 0.000000000000000000, -0.000000000000000000 ) ) ;
#402 = EDGE_CURVE ( 'NONE', #421, #932, #191, .T. ) ;
#403 = DIRECTION ( 'NONE',  ( -0.000000000000000000, -1.000000000000000000, -0.000000000000000000 ) ) ;
#404 = DIRECTION ( 'NONE',  ( 0.000000000000000000, -0.000000000000000000, 1.000000000000000000 ) ) ;
#405 = FACE_OUTER_BOUND ( 'NONE', #78, .T. ) ;
#406 = PRODUCT_DEFINITION ( 'UNKNOWN', '', #596, #39 ) ;
#407 = ORIENTED_EDGE ( 'NONE', *, *, #231, .F. ) ;
#408 = DIRECTION ( 'NONE',  ( 1.000000000000000000, -0.000000000000000000, 0.000000000000000000 ) ) ;
#409 = EDGE_LOOP ( 'NONE', ( #490, #313, #375, #116 ) ) ;
#410 = CARTESIAN_POINT ( 'NONE',  ( 17.30000000000000071, 16.00000000000000355, -2.799999999999999822 ) ) ;
#411 = VECTOR ( 'NONE', #693, 1000.000000000000000 ) ;
#412 = CIRCLE ( 'NONE', #70, 2.000000000000000000 ) ;
#413 = LINE ( 'NONE', #850, #1007 ) ;
#414 = AXIS2_PLACEMENT_3D ( 'NONE', #1027, #416, #841 ) ;
#415 = ORIENTED_EDGE ( 'NONE', *, *, #192, .F. ) ;
#416 = DIRECTION ( 'NONE',  ( -1.084202172485503448E-16, 0.000000000000000000, 1.000000000000000000 ) ) ;
#417 = EDGE_LOOP ( 'NONE', ( #205, #302, #250, #1002, #237, #672, #514, #561, #825, #526, #193, #965, #840, #632, #338, #555, #636, #36, #31, #952, #426, #257, #764, #804 ) ) ;
#418 = EDGE_CURVE ( 'NONE', #602, #477, #740, .T. ) ;
#419 = DIRECTION ( 'NONE',  ( 0.000000000000000000, 0.000000000000000000, -1.000000000000000000 ) ) ;
#420 = CARTESIAN_POINT ( 'NONE',  ( -22.30000000000000071, -21.50000000000000000, -2.799999999999999822 ) ) ;
#421 = VERTEX_POINT ( 'NONE', #224 ) ;
#422 = DIRECTION ( 'NONE',  ( -1.000000000000000000, 0.000000000000000000, 0.000000000000000000 ) ) ;
#423 = ORIENTED_EDGE ( 'NONE', *, *, #958, .T. ) ;
#424 = CARTESIAN_POINT ( 'NONE',  ( 16.00000000000000000, -19.00000000000000000, 2.000000000000000000 ) ) ;
#425 = DIRECTION ( 'NONE',  ( 0.000000000000000000, -0.000000000000000000, 1.000000000000000000 ) ) ;
#426 = ORIENTED_EDGE ( 'NONE', *, *, #854, .T. ) ;
#427 = PLANE ( 'NONE',  #396 ) ;
#428 = ORIENTED_EDGE ( 'NONE', *, *, #535, .T. ) ;
#429 = LINE ( 'NONE', #1095, #341 ) ;
#430 = AXIS2_PLACEMENT_3D ( 'NONE', #1087, #839, #229 ) ;
#431 = CARTESIAN_POINT ( 'NONE',  ( 11.50000000000000355, 16.00000000000000355, 16.00000000000000000 ) ) ;
#432 = VECTOR ( 'NONE', #152, 1000.000000000000000 ) ;
#433 = VECTOR ( 'NONE', #403, 1000.000000000000000 ) ;
#434 = DIRECTION ( 'NONE',  ( 1.000000000000000000, 0.000000000000000000, -0.000000000000000000 ) ) ;
#435 = LINE ( 'NONE', #16, #54 ) ;
#436 = DIRECTION ( 'NONE',  ( 0.000000000000000000, 0.000000000000000000, 1.000000000000000000 ) ) ;
#437 = EDGE_CURVE ( 'NONE', #606, #1015, #51, .T. ) ;
#438 = CARTESIAN_POINT ( 'NONE',  ( -11.50000000000000355, 16.00000000000000355, 16.00000000000000000 ) ) ;
#439 = EDGE_LOOP ( 'NONE', ( #1093, #886, #99, #808 ) ) ;
#440 = DIRECTION ( 'NONE',  ( 1.084202172485503448E-16, -0.000000000000000000, 1.000000000000000000 ) ) ;
#441 = DIRECTION ( 'NONE',  ( -1.000000000000000000, 0.000000000000000000, -0.000000000000000000 ) ) ;
#442 = EDGE_CURVE ( 'NONE', #518, #195, #656, .T. ) ;
#443 = CARTESIAN_POINT ( 'NONE',  ( 16.00000000000000000, -19.00000000000000000, 16.00000000000000000 ) ) ;
#444 = ORIENTED_EDGE ( 'NONE', *, *, #512, .F. ) ;
#445 = FACE_OUTER_BOUND ( 'NONE', #715, .T. ) ;
#446 = DIRECTION ( 'NONE',  ( -1.000000000000000000, -0.000000000000000000, -0.000000000000000000 ) ) ;
#447 = ORIENTED_EDGE ( 'NONE', *, *, #311, .F. ) ;
#448 = AXIS2_PLACEMENT_3D ( 'NONE', #202, #364, #349 ) ;
#449 = ADVANCED_FACE ( 'NONE', ( #576 ), #295, .F. ) ;
#450 = FACE_OUTER_BOUND ( 'NONE', #566, .T. ) ;
#451 = ORIENTED_EDGE ( 'NONE', *, *, #207, .F. ) ;
#452 = VECTOR ( 'NONE', #132, 1000.000000000000000 ) ;
#453 = EDGE_CURVE ( 'NONE', #114, #131, #61, .T. ) ;
#454 = CARTESIAN_POINT ( 'NONE',  ( -11.50000000000000178, 16.00000000000000355, 2.000000000000000000 ) ) ;
#455 = CARTESIAN_POINT ( 'NONE',  ( 0.000000000000000000, 16.00000000000000355, 0.000000000000000000 ) ) ;
#456 = CARTESIAN_POINT ( 'NONE',  ( 11.50000000000000355, -16.99999999999999645, 16.00000000000000000 ) ) ;
#457 = VERTEX_POINT ( 'NONE', #1091 ) ;
#458 = CARTESIAN_POINT ( 'NONE',  ( -17.29999999999999716, 16.00000000000000355, 1.300000000000000044 ) ) ;
#459 = DIRECTION ( 'NONE',  ( 1.000000000000000000, 0.000000000000000000, 0.000000000000000000 ) ) ;
#460 = ORIENTED_EDGE ( 'NONE', *, *, #358, .T. ) ;
#461 = ORIENTED_EDGE ( 'NONE', *, *, #135, .T. ) ;
#462 = FACE_OUTER_BOUND ( 'NONE', #284, .T. ) ;
#463 = FACE_OUTER_BOUND ( 'NONE', #891, .T. ) ;
#464 = EDGE_CURVE ( 'NONE', #1075, #1026, #563, .T. ) ;
#465 = VECTOR ( 'NONE', #175, 1000.000000000000000 ) ;
#466 = ORIENTED_EDGE ( 'NONE', *, *, #231, .T. ) ;
#467 = VECTOR ( 'NONE', #263, 1000.000000000000000 ) ;
#468 = DIRECTION ( 'NONE',  ( -0.000000000000000000, -1.000000000000000000, -0.000000000000000000 ) ) ;
#469 = VECTOR ( 'NONE', #120, 1000.000000000000000 ) ;
#470 = LINE ( 'NONE', #139, #53 ) ;
#471 = DIRECTION ( 'NONE',  ( 1.000000000000000000, 0.000000000000000000, 0.000000000000000000 ) ) ;
#472 = EDGE_CURVE ( 'NONE', #878, #949, #395, .T. ) ;
#473 = ORIENTED_EDGE ( 'NONE', *, *, #750, .F. ) ;
#474 = DIRECTION ( 'NONE',  ( 1.000000000000000000, -0.000000000000000000, -0.000000000000000000 ) ) ;
#475 = CARTESIAN_POINT ( 'NONE',  ( 22.30000000000000071, -21.50000000000000000, -2.799999999999999822 ) ) ;
#476 = CARTESIAN_POINT ( 'NONE',  ( 16.00000000000000000, -19.00000000000000000, -3.965082230804131403E-15 ) ) ;
#477 = VERTEX_POINT ( 'NONE', #233 ) ;
#478 = ADVANCED_FACE ( 'NONE', ( #315 ), #734, .F. ) ;
#479 = CARTESIAN_POINT ( 'NONE',  ( 11.50000000000000355, 16.00000000000000355, 16.00000000000000000 ) ) ;
#480 = DIRECTION ( 'NONE',  ( 0.000000000000000000, 0.000000000000000000, -1.000000000000000000 ) ) ;
#481 = DIRECTION ( 'NONE',  ( 0.000000000000000000, 0.000000000000000000, 1.000000000000000000 ) ) ;
#482 = ORIENTED_EDGE ( 'NONE', *, *, #721, .T. ) ;
#483 = CARTESIAN_POINT ( 'NONE',  ( -14.00000000000000000, 16.00000000000000355, 2.000000000000000000 ) ) ;
#484 = AXIS2_PLACEMENT_3D ( 'NONE', #844, #588, #68 ) ;
#485 = ADVANCED_FACE ( 'NONE', ( #1081 ), #984, .F. ) ;
#486 = AXIS2_PLACEMENT_3D ( 'NONE', #34, #446, #969 ) ;
#487 = CARTESIAN_POINT ( 'NONE',  ( 17.30000000000000071, 16.00000000000000355, -0.2999999999999999889 ) ) ;
#488 = VECTOR ( 'NONE', #732, 1000.000000000000000 ) ;
#489 = CARTESIAN_POINT ( 'NONE',  ( 11.50000000000000178, 16.00000000000000355, 2.000000000000000000 ) ) ;
#490 = ORIENTED_EDGE ( 'NONE', *, *, #759, .T. ) ;
#491 = DIRECTION ( 'NONE',  ( -0.000000000000000000, -1.000000000000000000, -0.000000000000000000 ) ) ;
#492 = CARTESIAN_POINT ( 'NONE',  ( 14.00000000000000000, 16.00000000000000355, 2.000000000000000000 ) ) ;
#493 = EDGE_CURVE ( 'NONE', #55, #150, #470, .T. ) ;
#494 = CARTESIAN_POINT ( 'NONE',  ( -22.30000000000000071, -19.00000000000000000, 16.00000000000000000 ) ) ;
#495 = ORIENTED_EDGE ( 'NONE', *, *, #37, .T. ) ;
#496 = LINE ( 'NONE', #590, #848 ) ;
#497 = CARTESIAN_POINT ( 'NONE',  ( -16.00000000000000000, -19.00000000000000000, -3.965082230804131403E-15 ) ) ;
#498 = EDGE_CURVE ( 'NONE', #296, #944, #1066, .T. ) ;
#499 = CARTESIAN_POINT ( 'NONE',  ( -22.30000000000000071, -21.50000000000000000, -2.799999999999999822 ) ) ;
#500 = CARTESIAN_POINT ( 'NONE',  ( -17.30000000000000071, 16.00000000000000355, -0.2999999999999999889 ) ) ;
#501 = EDGE_LOOP ( 'NONE', ( #742, #331, #1063, #168 ) ) ;
#502 = DIRECTION ( 'NONE',  ( -0.000000000000000000, 1.000000000000000000, 0.000000000000000000 ) ) ;
#503 = AXIS2_PLACEMENT_3D ( 'NONE', #52, #836, #401 ) ;
#504 = VECTOR ( 'NONE', #705, 1000.000000000000000 ) ;
#505 = CARTESIAN_POINT ( 'NONE',  ( -14.00000000000000000, -19.00000000000000000, 2.000000000000000000 ) ) ;
#506 = AXIS2_PLACEMENT_3D ( 'NONE', #994, #832, #810 ) ;
#507 = ORIENTED_EDGE ( 'NONE', *, *, #887, .T. ) ;
#508 = EDGE_CURVE ( 'NONE', #59, #618, #145, .T. ) ;
#509 = LINE ( 'NONE', #853, #816 ) ;
#510 = CARTESIAN_POINT ( 'NONE',  ( -22.30000000000000071, -19.00000000000000000, 16.00000000000000000 ) ) ;
#511 = CARTESIAN_POINT ( 'NONE',  ( -9.500000000000001776, -19.00000000000000000, -1.177133787269976412E-15 ) ) ;
#512 = EDGE_CURVE ( 'NONE', #195, #154, #212, .T. ) ;
#513 = CARTESIAN_POINT ( 'NONE',  ( -19.29999999999999716, -19.00000000000000000, -0.2999999999999999889 ) ) ;
#514 = ORIENTED_EDGE ( 'NONE', *, *, #135, .F. ) ;
#515 = DIRECTION ( 'NONE',  ( 0.000000000000000000, 0.000000000000000000, -1.000000000000000000 ) ) ;
#516 = DIRECTION ( 'NONE',  ( 0.000000000000000000, 0.000000000000000000, -1.000000000000000000 ) ) ;
#517 =( NAMED_UNIT ( * ) SI_UNIT ( $, .STERADIAN. ) SOLID_ANGLE_UNIT ( ) );
#518 = VERTEX_POINT ( 'NONE', #305 ) ;
#519 = CARTESIAN_POINT ( 'NONE',  ( 22.30000000000000071, -21.50000000000000000, 16.00000000000000000 ) ) ;
#520 = EDGE_CURVE ( 'NONE', #580, #591, #819, .T. ) ;
#521 = VECTOR ( 'NONE', #247, 1000.000000000000000 ) ;
#522 = LINE ( 'NONE', #868, #411 ) ;
#523 = VECTOR ( 'NONE', #600, 1000.000000000000000 ) ;
#524 = VECTOR ( 'NONE', #244, 1000.000000000000000 ) ;
#525 = DIRECTION ( 'NONE',  ( -2.478176394252581634E-16, 0.000000000000000000, 1.000000000000000000 ) ) ;
#526 = ORIENTED_EDGE ( 'NONE', *, *, #964, .F. ) ;
#527 = CARTESIAN_POINT ( 'NONE',  ( 17.30000000000000071, 16.00000000000000355, -0.2999999999999999889 ) ) ;
#528 = FACE_OUTER_BOUND ( 'NONE', #726, .T. ) ;
#529 = EDGE_CURVE ( 'NONE', #1034, #1001, #218, .T. ) ;
#530 = ORIENTED_EDGE ( 'NONE', *, *, #365, .T. ) ;
#531 = DIRECTION ( 'NONE',  ( -1.239088197126290817E-16, 0.000000000000000000, 1.000000000000000000 ) ) ;
#532 = FACE_OUTER_BOUND ( 'NONE', #551, .T. ) ;
#533 = ADVANCED_FACE ( 'NONE', ( #45 ), #569, .F. ) ;
#534 = VERTEX_POINT ( 'NONE', #647 ) ;
#535 = EDGE_CURVE ( 'NONE', #28, #955, #744, .T. ) ;
#536 = ORIENTED_EDGE ( 'NONE', *, *, #779, .F. ) ;
#537 = DIRECTION ( 'NONE',  ( -1.000000000000000000, 0.000000000000000000, -0.000000000000000000 ) ) ;
#538 = DIRECTION ( 'NONE',  ( 1.000000000000000000, 0.000000000000000000, 0.000000000000000000 ) ) ;
#539 = ORIENTED_EDGE ( 'NONE', *, *, #529, .F. ) ;
#540 = VECTOR ( 'NONE', #516, 1000.000000000000000 ) ;
#541 = DIRECTION ( 'NONE',  ( -1.000000000000000000, 0.000000000000000000, -0.000000000000000000 ) ) ;
#542 = ORIENTED_EDGE ( 'NONE', *, *, #280, .F. ) ;
#543 = AXIS2_PLACEMENT_3D ( 'NONE', #585, #408, #1106 ) ;
#544 = PLANE ( 'NONE',  #448 ) ;
#545 = DIRECTION ( 'NONE',  ( 0.000000000000000000, -0.000000000000000000, 1.000000000000000000 ) ) ;
#546 = VERTEX_POINT ( 'NONE', #258 ) ;
#547 = ORIENTED_EDGE ( 'NONE', *, *, #535, .F. ) ;
#548 = EDGE_CURVE ( 'NONE', #727, #1105, #775, .T. ) ;
#549 = DIRECTION ( 'NONE',  ( -0.000000000000000000, -1.000000000000000000, -0.000000000000000000 ) ) ;
#550 = ORIENTED_EDGE ( 'NONE', *, *, #567, .F. ) ;
#551 = EDGE_LOOP ( 'NONE', ( #178, #13, #1009, #859, #986 ) ) ;
#552 = PLANE ( 'NONE',  #149 ) ;
#553 = DIRECTION ( 'NONE',  ( -2.478176394252581634E-16, 0.000000000000000000, -1.000000000000000000 ) ) ;
#554 = EDGE_CURVE ( 'NONE', #1074, #75, #1114, .T. ) ;
#555 = ORIENTED_EDGE ( 'NONE', *, *, #565, .T. ) ;
#556 = AXIS2_PLACEMENT_3D ( 'NONE', #1005, #635, #404 ) ;
#557 = DIRECTION ( 'NONE',  ( -0.000000000000000000, -1.000000000000000000, -0.000000000000000000 ) ) ;
#558 = CIRCLE ( 'NONE', #290, 1.999999999999998224 ) ;
#559 = DIRECTION ( 'NONE',  ( -0.000000000000000000, -0.000000000000000000, 1.000000000000000000 ) ) ;
#560 = CARTESIAN_POINT ( 'NONE',  ( 19.29999999999999716, 16.00000000000000355, 1.300000000000000266 ) ) ;
#561 = ORIENTED_EDGE ( 'NONE', *, *, #102, .T. ) ;
#562 = DIRECTION ( 'NONE',  ( 0.000000000000000000, 1.000000000000000000, -0.000000000000000000 ) ) ;
#563 = LINE ( 'NONE', #310, #376 ) ;
#564 = LINE ( 'NONE', #511, #572 ) ;
#565 = EDGE_CURVE ( 'NONE', #749, #1074, #333, .T. ) ;
#566 = EDGE_LOOP ( 'NONE', ( #691, #967, #1040, #326, #668, #84, #391, #578, #875, #277, #650, #643, #766, #903, #507, #423 ) ) ;
#567 = EDGE_CURVE ( 'NONE', #59, #878, #251, .T. ) ;
#568 = CARTESIAN_POINT ( 'NONE',  ( 0.000000000000000000, 16.00000000000000355, 0.000000000000000000 ) ) ;
#569 = CYLINDRICAL_SURFACE ( 'NONE', #235, 2.000000000000000000 ) ;
#570 = DIRECTION ( 'NONE',  ( 1.239088197126290817E-16, 0.000000000000000000, 1.000000000000000000 ) ) ;
#571 = ORIENTED_EDGE ( 'NONE', *, *, #712, .T. ) ;
#572 = VECTOR ( 'NONE', #1110, 1000.000000000000000 ) ;
#573 = CARTESIAN_POINT ( 'NONE',  ( 22.30000000000000071, 16.00000000000000355, 3.799999999999999822 ) ) ;
#574 = VECTOR ( 'NONE', #300, 1000.000000000000000 ) ;
#575 = AXIS2_PLACEMENT_3D ( 'NONE', #314, #232, #904 ) ;
#576 = FACE_OUTER_BOUND ( 'NONE', #409, .T. ) ;
#577 = PLANE ( 'NONE',  #69 ) ;
#578 = ORIENTED_EDGE ( 'NONE', *, *, #240, .F. ) ;
#579 = LINE ( 'NONE', #927, #524 ) ;
#580 = VERTEX_POINT ( 'NONE', #519 ) ;
#581 = EDGE_CURVE ( 'NONE', #937, #28, #429, .T. ) ;
#582 = CARTESIAN_POINT ( 'NONE',  ( -17.30000000000000071, 16.00000000000000355, -0.2999999999999999889 ) ) ;
#583 = LINE ( 'NONE', #420, #234 ) ;
#584 = PRODUCT ( 'CameraHousing', 'CameraHousing', '', ( #617 ) ) ;
#585 = CARTESIAN_POINT ( 'NONE',  ( 22.30000000000000071, -15.00000000000000000, 7.799999999999999822 ) ) ;
#586 = ORIENTED_EDGE ( 'NONE', *, *, #860, .T. ) ;
#587 = CARTESIAN_POINT ( 'NONE',  ( 16.00000000000000000, -16.99999999999999645, 1.999999999999999556 ) ) ;
#588 = DIRECTION ( 'NONE',  ( 0.000000000000000000, 0.000000000000000000, 1.000000000000000000 ) ) ;
#589 = ORIENTED_EDGE ( 'NONE', *, *, #607, .T. ) ;
#590 = CARTESIAN_POINT ( 'NONE',  ( 14.00000000000000355, 16.00000000000000355, 16.00000000000000000 ) ) ;
#591 = VERTEX_POINT ( 'NONE', #681 ) ;
#592 = LINE ( 'NONE', #582, #1097 ) ;
#593 = VECTOR ( 'NONE', #671, 1000.000000000000000 ) ;
#594 = AXIS2_PLACEMENT_3D ( 'NONE', #877, #283, #538 ) ;
#595 = FACE_OUTER_BOUND ( 'NONE', #417, .T. ) ;
#596 = PRODUCT_DEFINITION_FORMATION_WITH_SPECIFIED_SOURCE ( 'ANY', '', #584, .NOT_KNOWN. ) ;
#597 = EDGE_CURVE ( 'NONE', #955, #222, #942, .T. ) ;
#598 = ORIENTED_EDGE ( 'NONE', *, *, #884, .T. ) ;
#599 = CARTESIAN_POINT ( 'NONE',  ( 17.30000000000000071, 16.00000000000000355, -0.2999999999999999889 ) ) ;
#600 = DIRECTION ( 'NONE',  ( -1.000000000000000000, 0.000000000000000000, 0.000000000000000000 ) ) ;
#601 = CARTESIAN_POINT ( 'NONE',  ( 19.29999999999999716, -19.00000000000000000, -0.2999999999999999889 ) ) ;
#602 = VERTEX_POINT ( 'NONE', #424 ) ;
#603 = EDGE_CURVE ( 'NONE', #131, #937, #861, .T. ) ;
#604 = CYLINDRICAL_SURFACE ( 'NONE', #254, 2.000000000000000000 ) ;
#605 = LINE ( 'NONE', #601, #917 ) ;
#606 = VERTEX_POINT ( 'NONE', #410 ) ;
#607 = EDGE_CURVE ( 'NONE', #944, #81, #855, .T. ) ;
#608 = VECTOR ( 'NONE', #134, 1000.000000000000000 ) ;
#609 = DIRECTION ( 'NONE',  ( 0.000000000000000000, -0.000000000000000000, -1.000000000000000000 ) ) ;
#610 = AXIS2_PLACEMENT_3D ( 'NONE', #215, #388, #383 ) ;
#611 =( NAMED_UNIT ( * ) PLANE_ANGLE_UNIT ( ) SI_UNIT ( $, .RADIAN. ) );
#612 = EDGE_LOOP ( 'NONE', ( #622, #674, #451, #329 ) ) ;
#613 =( NAMED_UNIT ( * ) PLANE_ANGLE_UNIT ( ) SI_UNIT ( $, .RADIAN. ) );
#614 = EDGE_CURVE ( 'NONE', #937, #687, #592, .T. ) ;
#615 = PLANE ( 'NONE',  #322 ) ;
#616 = ORIENTED_EDGE ( 'NONE', *, *, #597, .F. ) ;
#617 = PRODUCT_CONTEXT ( 'NONE', #144, 'mechanical' ) ;
#618 = VERTEX_POINT ( 'NONE', #87 ) ;
#619 =( LENGTH_UNIT ( ) NAMED_UNIT ( * ) SI_UNIT ( .MILLI., .METRE. ) );
#620 = CARTESIAN_POINT ( 'NONE',  ( 22.30000000000000071, -21.50000000000000000, 16.00000000000000000 ) ) ;
#621 = PRODUCT_RELATED_PRODUCT_CATEGORY ( 'part', '', ( #584 ) ) ;
#622 = ORIENTED_EDGE ( 'NONE', *, *, #1062, .F. ) ;
#623 = VERTEX_POINT ( 'NONE', #929 ) ;
#624 = DIRECTION ( 'NONE',  ( 0.000000000000000000, 1.000000000000000000, 0.000000000000000000 ) ) ;
#625 = ORIENTED_EDGE ( 'NONE', *, *, #923, .F. ) ;
#626 = VECTOR ( 'NONE', #824, 1000.000000000000000 ) ;
#627 = ADVANCED_FACE ( 'NONE', ( #768 ), #604, .F. ) ;
#628 = AXIS2_PLACEMENT_3D ( 'NONE', #492, #228, #128 ) ;
#629 = ORIENTED_EDGE ( 'NONE', *, *, #676, .F. ) ;
#630 = VECTOR ( 'NONE', #697, 1000.000000000000000 ) ;
#631 = DIRECTION ( 'NONE',  ( 0.000000000000000000, 0.000000000000000000, -1.000000000000000000 ) ) ;
#632 = ORIENTED_EDGE ( 'NONE', *, *, #1108, .T. ) ;
#633 = EDGE_CURVE ( 'NONE', #687, #546, #82, .T. ) ;
#634 = DIRECTION ( 'NONE',  ( 1.000000000000000000, 0.000000000000000000, 0.000000000000000000 ) ) ;
#635 = DIRECTION ( 'NONE',  ( 0.000000000000000000, 1.000000000000000000, 0.000000000000000000 ) ) ;
#636 = ORIENTED_EDGE ( 'NONE', *, *, #554, .T. ) ;
#637 = VERTEX_POINT ( 'NONE', #1103 ) ;
#638 = CARTESIAN_POINT ( 'NONE',  ( -17.30000000000000071, 16.00000000000000355, -2.799999999999999822 ) ) ;
#639 = EDGE_CURVE ( 'NONE', #3, #534, #327, .T. ) ;
#640 = CARTESIAN_POINT ( 'NONE',  ( -14.00000000000000355, 16.00000000000000355, 16.00000000000000000 ) ) ;
#641 = CARTESIAN_POINT ( 'NONE',  ( -16.00000000000000000, -19.00000000000000000, 2.000000000000000000 ) ) ;
#642 = AXIS2_PLACEMENT_3D ( 'NONE', #954, #83, #436 ) ;
#643 = ORIENTED_EDGE ( 'NONE', *, *, #199, .T. ) ;
#644 = VECTOR ( 'NONE', #1050, 1000.000000000000000 ) ;
#645 = PLANE ( 'NONE',  #94 ) ;
#646 = CIRCLE ( 'NONE', #129, 4.000000000000000000 ) ;
#647 = CARTESIAN_POINT ( 'NONE',  ( -14.00000000000000355, -16.99999999999999645, 16.00000000000000000 ) ) ;
#648 = LINE ( 'NONE', #560, #660 ) ;
#649 = ADVANCED_FACE ( 'NONE', ( #670 ), #688, .T. ) ;
#650 = ORIENTED_EDGE ( 'NONE', *, *, #50, .F. ) ;
#651 = PLANE ( 'NONE',  #610 ) ;
#652 = DIRECTION ( 'NONE',  ( -1.239088197126290817E-16, 0.000000000000000000, -1.000000000000000000 ) ) ;
#653 = FACE_OUTER_BOUND ( 'NONE', #201, .T. ) ;
#654 = ORIENTED_EDGE ( 'NONE', *, *, #907, .T. ) ;
#655 = LINE ( 'NONE', #743, #452 ) ;
#656 = LINE ( 'NONE', #640, #1083 ) ;
#657 = CARTESIAN_POINT ( 'NONE',  ( -14.00000000000000000, -16.99999999999999645, 2.000000000000000000 ) ) ;
#658 = ORIENTED_EDGE ( 'NONE', *, *, #685, .T. ) ;
#659 = EDGE_CURVE ( 'NONE', #319, #708, #953, .T. ) ;
#660 = VECTOR ( 'NONE', #1096, 1000.000000000000000 ) ;
#661 = DIRECTION ( 'NONE',  ( 0.000000000000000000, 0.000000000000000000, -1.000000000000000000 ) ) ;
#662 = ORIENTED_EDGE ( 'NONE', *, *, #958, .F. ) ;
#663 = VECTOR ( 'NONE', #41, 1000.000000000000000 ) ;
#664 = VECTOR ( 'NONE', #1094, 1000.000000000000000 ) ;
#665 = DIRECTION ( 'NONE',  ( -0.000000000000000000, -1.000000000000000000, -0.000000000000000000 ) ) ;
#666 = LINE ( 'NONE', #900, #181 ) ;
#667 = CARTESIAN_POINT ( 'NONE',  ( -19.29999999999999716, 16.00000000000000355, 1.300000000000000266 ) ) ;
#668 = ORIENTED_EDGE ( 'NONE', *, *, #15, .F. ) ;
#669 = EDGE_CURVE ( 'NONE', #773, #713, #246, .T. ) ;
#670 = FACE_OUTER_BOUND ( 'NONE', #293, .T. ) ;
#671 = DIRECTION ( 'NONE',  ( -1.000000000000000000, -0.000000000000000000, -0.000000000000000000 ) ) ;
#672 = ORIENTED_EDGE ( 'NONE', *, *, #171, .F. ) ;
#673 = FACE_OUTER_BOUND ( 'NONE', #292, .T. ) ;
#674 = ORIENTED_EDGE ( 'NONE', *, *, #1108, .F. ) ;
#675 = CARTESIAN_POINT ( 'NONE',  ( -17.29999999999999716, 16.00000000000000355, 3.799999999999999822 ) ) ;
#676 = EDGE_CURVE ( 'NONE', #618, #949, #933, .T. ) ;
#677 = DIRECTION ( 'NONE',  ( -0.000000000000000000, -0.000000000000000000, -1.000000000000000000 ) ) ;
#678 = ORIENTED_EDGE ( 'NONE', *, *, #581, .T. ) ;
#679 = LINE ( 'NONE', #60, #664 ) ;
#680 = ORIENTED_EDGE ( 'NONE', *, *, #1062, .T. ) ;
#681 = CARTESIAN_POINT ( 'NONE',  ( 22.30000000000000071, -21.50000000000000000, -2.799999999999999822 ) ) ;
#682 = VECTOR ( 'NONE', #76, 1000.000000000000000 ) ;
#683 = CARTESIAN_POINT ( 'NONE',  ( -19.29999999999999716, 16.00000000000000355, -0.2999999999999999889 ) ) ;
#684 = AXIS2_PLACEMENT_3D ( 'NONE', #454, #100, #531 ) ;
#685 = EDGE_CURVE ( 'NONE', #591, #150, #849, .T. ) ;
#686 = CARTESIAN_POINT ( 'NONE',  ( 22.30000000000000071, -19.00000000000000000, 7.799999999999999822 ) ) ;
#687 = VERTEX_POINT ( 'NONE', #783 ) ;
#688 = PLANE ( 'NONE',  #795 ) ;
#689 = DIRECTION ( 'NONE',  ( -1.000000000000000000, -0.000000000000000000, -0.000000000000000000 ) ) ;
#690 = FACE_OUTER_BOUND ( 'NONE', #273, .T. ) ;
#691 = ORIENTED_EDGE ( 'NONE', *, *, #565, .F. ) ;
#692 = LINE ( 'NONE', #1042, #630 ) ;
#693 = DIRECTION ( 'NONE',  ( 1.000000000000000000, -0.000000000000000000, -0.000000000000000000 ) ) ;
#694 = ADVANCED_FACE ( 'NONE', ( #445 ), #544, .T. ) ;
#695 = PLANE ( 'NONE',  #755 ) ;
#696 = ORIENTED_EDGE ( 'NONE', *, *, #1099, .T. ) ;
#697 = DIRECTION ( 'NONE',  ( -0.000000000000000000, -1.000000000000000000, -0.000000000000000000 ) ) ;
#698 = AXIS2_PLACEMENT_3D ( 'NONE', #1043, #545, #459 ) ;
#699 = CARTESIAN_POINT ( 'NONE',  ( -22.30000000000000071, -21.50000000000000000, 16.00000000000000000 ) ) ;
#700 = VECTOR ( 'NONE', #864, 1000.000000000000000 ) ;
#701 = VECTOR ( 'NONE', #541, 1000.000000000000000 ) ;
#702 = ORIENTED_EDGE ( 'NONE', *, *, #614, .T. ) ;
#703 = FILL_AREA_STYLE_COLOUR ( '', #738 ) ;
#704 = ADVANCED_FACE ( 'NONE', ( #371 ), #9, .F. ) ;
#705 = DIRECTION ( 'NONE',  ( -0.000000000000000000, -1.000000000000000000, -0.000000000000000000 ) ) ;
#706 = ORIENTED_EDGE ( 'NONE', *, *, #102, .F. ) ;
#707 = DIRECTION ( 'NONE',  ( 0.000000000000000000, 0.000000000000000000, 1.000000000000000000 ) ) ;
#708 = VERTEX_POINT ( 'NONE', #1047 ) ;
#709 = MANIFOLD_SOLID_BREP ( 'Fillet2', #14 ) ;
#710 = DIRECTION ( 'NONE',  ( 0.000000000000000000, -0.000000000000000000, 1.000000000000000000 ) ) ;
#711 = CARTESIAN_POINT ( 'NONE',  ( -14.00000000000000000, 16.00000000000000355, 2.000000000000000000 ) ) ;
#712 = EDGE_CURVE ( 'NONE', #955, #773, #435, .T. ) ;
#713 = VERTEX_POINT ( 'NONE', #979 ) ;
#714 = CARTESIAN_POINT ( 'NONE',  ( -0.000000000000000000, -19.00000000000000000, 7.799999999999999822 ) ) ;
#715 = EDGE_LOOP ( 'NONE', ( #93, #982, #363, #658, #380, #890, #946 ) ) ;
#716 = PRESENTATION_STYLE_ASSIGNMENT (( #190 ) ) ;
#717 = LINE ( 'NONE', #963, #17 ) ;
#718 = AXIS2_PLACEMENT_3D ( 'NONE', #1123, #346, #1104 ) ;
#719 = ORIENTED_EDGE ( 'NONE', *, *, #142, .F. ) ;
#720 = AXIS2_PLACEMENT_3D ( 'NONE', #291, #960, #631 ) ;
#721 = EDGE_CURVE ( 'NONE', #1022, #1082, #692, .T. ) ;
#722 = CIRCLE ( 'NONE', #1030, 2.000000000000000000 ) ;
#723 = ORIENTED_EDGE ( 'NONE', *, *, #639, .T. ) ;
#724 = CARTESIAN_POINT ( 'NONE',  ( -17.29999999999999716, 16.00000000000000355, 3.799999999999999822 ) ) ;
#725 = CARTESIAN_POINT ( 'NONE',  ( -0.000000000000000000, -19.00000000000000000, 7.799999999999999822 ) ) ;
#726 = EDGE_LOOP ( 'NONE', ( #821, #723, #30, #206 ) ) ;
#727 = VERTEX_POINT ( 'NONE', #105 ) ;
#728 = FACE_OUTER_BOUND ( 'NONE', #370, .T. ) ;
#729 = CARTESIAN_POINT ( 'NONE',  ( 14.00000000000000000, -19.00000000000000000, 2.000000000000000000 ) ) ;
#730 = DIRECTION ( 'NONE',  ( 1.000000000000000000, 0.000000000000000000, 0.000000000000000000 ) ) ;
#731 = ORIENTED_EDGE ( 'NONE', *, *, #639, .F. ) ;
#732 = DIRECTION ( 'NONE',  ( -1.239088197126290817E-16, 0.000000000000000000, -1.000000000000000000 ) ) ;
#733 = ADVANCED_FACE ( 'NONE', ( #892 ), #974, .F. ) ;
#734 = PLANE ( 'NONE',  #556 ) ;
#735 = ORIENTED_EDGE ( 'NONE', *, *, #512, .T. ) ;
#736 = VECTOR ( 'NONE', #385, 1000.000000000000000 ) ;
#737 = ORIENTED_EDGE ( 'NONE', *, *, #418, .T. ) ;
#738 = COLOUR_RGB ( '',0.7921568627450980005, 0.8196078431372548767, 0.9333333333333333481 ) ;
#739 = DIRECTION ( 'NONE',  ( -1.000000000000000000, 0.000000000000000000, 0.000000000000000000 ) ) ;
#740 = LINE ( 'NONE', #729, #901 ) ;
#741 = DIRECTION ( 'NONE',  ( 0.000000000000000000, 0.000000000000000000, -1.000000000000000000 ) ) ;
#742 = ORIENTED_EDGE ( 'NONE', *, *, #964, .T. ) ;
#743 = CARTESIAN_POINT ( 'NONE',  ( -17.29999999999999716, -19.00000000000000000, 3.799999999999999822 ) ) ;
#744 = LINE ( 'NONE', #995, #523 ) ;
#745 = CARTESIAN_POINT ( 'NONE',  ( -22.30000000000000071, -19.00000000000000000, -2.799999999999999822 ) ) ;
#746 = ORIENTED_EDGE ( 'NONE', *, *, #750, .T. ) ;
#747 = DIRECTION ( 'NONE',  ( 1.000000000000000000, -0.000000000000000000, -0.000000000000000000 ) ) ;
#748 = CARTESIAN_POINT ( 'NONE',  ( 22.30000000000000071, -21.50000000000000000, -2.799999999999999822 ) ) ;
#749 = VERTEX_POINT ( 'NONE', #186 ) ;
#750 = EDGE_CURVE ( 'NONE', #1015, #998, #117, .T. ) ;
#751 = AXIS2_PLACEMENT_3D ( 'NONE', #925, #153, #741 ) ;
#752 = CARTESIAN_POINT ( 'NONE',  ( -16.00000000000000355, -16.99999999999999645, 16.00000000000000000 ) ) ;
#753 = ORIENTED_EDGE ( 'NONE', *, *, #1099, .F. ) ;
#754 = VECTOR ( 'NONE', #345, 1000.000000000000000 ) ;
#755 = AXIS2_PLACEMENT_3D ( 'NONE', #1044, #707, #434 ) ;
#756 = DIRECTION ( 'NONE',  ( 0.000000000000000000, 0.000000000000000000, -1.000000000000000000 ) ) ;
#757 = FACE_OUTER_BOUND ( 'NONE', #928, .T. ) ;
#758 = ORIENTED_EDGE ( 'NONE', *, *, #142, .T. ) ;
#759 = EDGE_CURVE ( 'NONE', #20, #727, #268, .T. ) ;
#760 = CARTESIAN_POINT ( 'NONE',  ( -17.29999999999999716, -15.00000000000000000, 3.799999999999999822 ) ) ;
#761 = ORIENTED_EDGE ( 'NONE', *, *, #464, .T. ) ;
#762 = DIRECTION ( 'NONE',  ( -1.000000000000000000, 0.000000000000000000, 2.168404344971008868E-16 ) ) ;
#763 = DIRECTION ( 'NONE',  ( -1.000000000000000000, 0.000000000000000000, 0.000000000000000000 ) ) ;
#764 = ORIENTED_EDGE ( 'NONE', *, *, #72, .T. ) ;
#765 = CARTESIAN_POINT ( 'NONE',  ( 17.29999999999999716, -15.00000000000000000, 3.799999999999999822 ) ) ;
#766 = ORIENTED_EDGE ( 'NONE', *, *, #1056, .F. ) ;
#767 = ADVANCED_FACE ( 'NONE', ( #353 ), #1060, .F. ) ;
#768 = FACE_OUTER_BOUND ( 'NONE', #786, .T. ) ;
#769 = ADVANCED_FACE ( 'NONE', ( #1053 ), #278, .F. ) ;
#770 = CARTESIAN_POINT ( 'NONE',  ( -22.30000000000000071, -21.50000000000000000, -2.799999999999999822 ) ) ;
#771 = ORIENTED_EDGE ( 'NONE', *, *, #453, .F. ) ;
#772 = CARTESIAN_POINT ( 'NONE',  ( 17.29999999999999716, -19.00000000000000000, 1.300000000000000044 ) ) ;
#773 = VERTEX_POINT ( 'NONE', #800 ) ;
#774 = VECTOR ( 'NONE', #763, 1000.000000000000000 ) ;
#775 = LINE ( 'NONE', #1031, #111 ) ;
#776 = VECTOR ( 'NONE', #113, 1000.000000000000000 ) ;
#777 = VECTOR ( 'NONE', #988, 1000.000000000000000 ) ;
#778 = CARTESIAN_POINT ( 'NONE',  ( -16.00000000000000000, -16.99999999999999645, 1.999999999999999556 ) ) ;
#779 = EDGE_CURVE ( 'NONE', #154, #919, #23, .T. ) ;
#780 = PRODUCT_DEFINITION_SHAPE ( 'NONE', 'NONE',  #406 ) ;
#781 = AXIS2_PLACEMENT_3D ( 'NONE', #968, #196, #537 ) ;
#782 = LINE ( 'NONE', #785, #343 ) ;
#783 = CARTESIAN_POINT ( 'NONE',  ( -17.30000000000000071, -19.00000000000000000, -0.2999999999999999889 ) ) ;
#784 = FACE_OUTER_BOUND ( 'NONE', #104, .T. ) ;
#785 = CARTESIAN_POINT ( 'NONE',  ( -22.30000000000000071, 16.00000000000000355, 3.799999999999999822 ) ) ;
#786 = EDGE_LOOP ( 'NONE', ( #66, #1012, #1045, #985 ) ) ;
#787 = DIRECTION ( 'NONE',  ( -0.000000000000000000, -1.000000000000000000, -0.000000000000000000 ) ) ;
#788 = CARTESIAN_POINT ( 'NONE',  ( -17.29999999999999716, 16.00000000000000355, 3.799999999999999822 ) ) ;
#789 = CARTESIAN_POINT ( 'NONE',  ( 0.000000000000000000, 0.000000000000000000, 0.000000000000000000 ) ) ;
#790 = ORIENTED_EDGE ( 'NONE', *, *, #581, .F. ) ;
#791 = EDGE_CURVE ( 'NONE', #1113, #1075, #558, .T. ) ;
#792 = SURFACE_SIDE_STYLE ('',( #359 ) ) ;
#793 = CIRCLE ( 'NONE', #484, 2.000000000000000000 ) ;
#794 = PLANE ( 'NONE',  #847 ) ;
#795 = AXIS2_PLACEMENT_3D ( 'NONE', #1037, #502, #1018 ) ;
#796 = ORIENTED_EDGE ( 'NONE', *, *, #252, .T. ) ;
#797 = CARTESIAN_POINT ( 'NONE',  ( -16.00000000000000355, -19.00000000000000000, 16.00000000000000000 ) ) ;
#798 = EDGE_LOOP ( 'NONE', ( #846, #407, #895, #598, #1084 ) ) ;
#799 = EDGE_CURVE ( 'NONE', #368, #981, #655, .T. ) ;
#800 = CARTESIAN_POINT ( 'NONE',  ( -22.30000000000000071, 16.00000000000000355, 3.799999999999999822 ) ) ;
#801 = CARTESIAN_POINT ( 'NONE',  ( 17.29999999999999716, -19.00000000000000000, 7.799999999999999822 ) ) ;
#802 = ORIENTED_EDGE ( 'NONE', *, *, #472, .T. ) ;
#803 = CARTESIAN_POINT ( 'NONE',  ( -11.50000000000000178, 16.00000000000000355, 2.000000000000000000 ) ) ;
#804 = ORIENTED_EDGE ( 'NONE', *, *, #15, .T. ) ;
#805 = DIRECTION ( 'NONE',  ( -1.000000000000000000, -0.000000000000000000, -0.000000000000000000 ) ) ;
#806 = DIRECTION ( 'NONE',  ( -0.000000000000000000, -0.000000000000000000, -1.000000000000000000 ) ) ;
#807 = ADVANCED_FACE ( 'NONE', ( #303 ), #211, .F. ) ;
#808 = ORIENTED_EDGE ( 'NONE', *, *, #548, .F. ) ;
#809 = ORIENTED_EDGE ( 'NONE', *, *, #187, .T. ) ;
#810 = DIRECTION ( 'NONE',  ( -1.000000000000000000, 0.000000000000000000, -0.000000000000000000 ) ) ;
#811 = CARTESIAN_POINT ( 'NONE',  ( 17.30000000000000071, 16.00000000000000355, -2.799999999999999822 ) ) ;
#812 = VECTOR ( 'NONE', #689, 1000.000000000000000 ) ;
#813 = ADVANCED_FACE ( 'NONE', ( #1080 ), #552, .F. ) ;
#814 = ORIENTED_EDGE ( 'NONE', *, *, #554, .F. ) ;
#815 = VECTOR ( 'NONE', #665, 1000.000000000000000 ) ;
#816 = VECTOR ( 'NONE', #98, 1000.000000000000000 ) ;
#817 = ORIENTED_EDGE ( 'NONE', *, *, #159, .T. ) ;
#818 = CARTESIAN_POINT ( 'NONE',  ( 17.29999999999999716, 16.00000000000000355, 3.799999999999999822 ) ) ;
#819 = LINE ( 'NONE', #475, #777 ) ;
#820 = CARTESIAN_POINT ( 'NONE',  ( 16.00000000000000000, -16.99999999999999645, 2.000000000000000000 ) ) ;
#821 = ORIENTED_EDGE ( 'NONE', *, *, #1115, .T. ) ;
#822 = DIRECTION ( 'NONE',  ( 1.000000000000000000, 0.000000000000000000, 0.000000000000000000 ) ) ;
#823 = CARTESIAN_POINT ( 'NONE',  ( -11.50000000000000178, -16.99999999999999645, 2.000000000000000000 ) ) ;
#824 = DIRECTION ( 'NONE',  ( -0.000000000000000000, -0.000000000000000000, 1.000000000000000000 ) ) ;
#825 = ORIENTED_EDGE ( 'NONE', *, *, #633, .F. ) ;
#826 = ADVANCED_FACE ( 'NONE', ( #462 ), #645, .F. ) ;
#827 = PLANE ( 'NONE',  #73 ) ;
#828 = DIRECTION ( 'NONE',  ( 1.239088197126290817E-16, 0.000000000000000000, -1.000000000000000000 ) ) ;
#829 = PLANE ( 'NONE',  #503 ) ;
#830 = ORIENTED_EDGE ( 'NONE', *, *, #529, .T. ) ;
#831 = VECTOR ( 'NONE', #828, 1000.000000000000000 ) ;
#832 = DIRECTION ( 'NONE',  ( 0.000000000000000000, 0.000000000000000000, -1.000000000000000000 ) ) ;
#833 = AXIS2_PLACEMENT_3D ( 'NONE', #103, #27, #885 ) ;
#834 = ADVANCED_FACE ( 'NONE', ( #728 ), #651, .F. ) ;
#835 = DIRECTION ( 'NONE',  ( -1.000000000000000000, 0.000000000000000000, 0.000000000000000000 ) ) ;
#836 = DIRECTION ( 'NONE',  ( 0.000000000000000000, 0.000000000000000000, -1.000000000000000000 ) ) ;
#837 = ORIENTED_EDGE ( 'NONE', *, *, #493, .T. ) ;
#838 = CARTESIAN_POINT ( 'NONE',  ( -17.29999999999999716, 16.00000000000000355, 1.300000000000000044 ) ) ;
#839 = DIRECTION ( 'NONE',  ( 1.000000000000000000, 0.000000000000000000, 0.000000000000000000 ) ) ;
#840 = ORIENTED_EDGE ( 'NONE', *, *, #799, .F. ) ;
#841 = DIRECTION ( 'NONE',  ( 1.000000000000000000, 0.000000000000000000, 1.084202172485503448E-16 ) ) ;
#842 = ORIENTED_EDGE ( 'NONE', *, *, #280, .T. ) ;
#843 = CARTESIAN_POINT ( 'NONE',  ( 19.29999999999999716, 16.00000000000000355, 1.300000000000000266 ) ) ;
#844 = CARTESIAN_POINT ( 'NONE',  ( -9.500000000000001776, -16.99999999999999645, 2.000000000000000000 ) ) ;
#845 = PLANE ( 'NONE',  #414 ) ;
#846 = ORIENTED_EDGE ( 'NONE', *, *, #799, .T. ) ;
#847 = AXIS2_PLACEMENT_3D ( 'NONE', #455, #1067, #609 ) ;
#848 = VECTOR ( 'NONE', #167, 1000.000000000000000 ) ;
#849 = LINE ( 'NONE', #748, #682 ) ;
#850 = CARTESIAN_POINT ( 'NONE',  ( 17.30000000000000071, -19.00000000000000000, -0.2999999999999999889 ) ) ;
#851 = ORIENTED_EDGE ( 'NONE', *, *, #437, .T. ) ;
#852 = ADVANCED_FACE ( 'NONE', ( #897 ), #1076, .F. ) ;
#853 = CARTESIAN_POINT ( 'NONE',  ( -22.30000000000000071, -19.00000000000000000, -2.799999999999999822 ) ) ;
#854 = EDGE_CURVE ( 'NONE', #457, #477, #56, .T. ) ;
#855 = LINE ( 'NONE', #339, #467 ) ;
#856 = CARTESIAN_POINT ( 'NONE',  ( 0.000000000000000000, -19.00000000000000000, 0.000000000000000000 ) ) ;
#857 = ORIENTED_EDGE ( 'NONE', *, *, #721, .F. ) ;
#858 = DIRECTION ( 'NONE',  ( -1.000000000000000000, 0.000000000000000000, -0.000000000000000000 ) ) ;
#859 = ORIENTED_EDGE ( 'NONE', *, *, #79, .F. ) ;
#860 = EDGE_CURVE ( 'NONE', #150, #606, #32, .T. ) ;
#861 = LINE ( 'NONE', #1013, #957 ) ;
#862 = CYLINDRICAL_SURFACE ( 'NONE', #270, 2.000000000000000000 ) ;
#863 = ORIENTED_EDGE ( 'NONE', *, *, #936, .F. ) ;
#864 = DIRECTION ( 'NONE',  ( -0.000000000000000000, -1.000000000000000000, -0.000000000000000000 ) ) ;
#865 = VECTOR ( 'NONE', #889, 1000.000000000000000 ) ;
#866 = EDGE_CURVE ( 'NONE', #55, #81, #49, .T. ) ;
#867 = VECTOR ( 'NONE', #871, 1000.000000000000000 ) ;
#868 = CARTESIAN_POINT ( 'NONE',  ( 14.00000000000000355, 16.00000000000000355, 16.00000000000000000 ) ) ;
#869 = LINE ( 'NONE', #803, #35 ) ;
#870 = ORIENTED_EDGE ( 'NONE', *, *, #37, .F. ) ;
#871 = DIRECTION ( 'NONE',  ( -0.000000000000000000, -1.000000000000000000, -0.000000000000000000 ) ) ;
#872 = LINE ( 'NONE', #1055, #941 ) ;
#873 = EDGE_CURVE ( 'NONE', #912, #55, #309, .T. ) ;
#874 = DIRECTION ( 'NONE',  ( -0.000000000000000000, -1.000000000000000000, -0.000000000000000000 ) ) ;
#875 = ORIENTED_EDGE ( 'NONE', *, *, #913, .T. ) ;
#876 = DIRECTION ( 'NONE',  ( 1.000000000000000000, 0.000000000000000000, -1.084202172485503448E-16 ) ) ;
#877 = CARTESIAN_POINT ( 'NONE',  ( -16.00000000000000000, -16.99999999999999645, 2.000000000000000000 ) ) ;
#878 = VERTEX_POINT ( 'NONE', #999 ) ;
#879 = ORIENTED_EDGE ( 'NONE', *, *, #109, .F. ) ;
#880 = CARTESIAN_POINT ( 'NONE',  ( 11.50000000000000178, 16.00000000000000355, 2.000000000000000000 ) ) ;
#881 = LINE ( 'NONE', #188, #147 ) ;
#882 = PRESENTATION_LAYER_ASSIGNMENT (  '', '', ( #991 ) ) ;
#883 = ORIENTED_EDGE ( 'NONE', *, *, #712, .F. ) ;
#884 = EDGE_CURVE ( 'NONE', #319, #993, #377, .T. ) ;
#885 = DIRECTION ( 'NONE',  ( -1.000000000000000000, 0.000000000000000000, -2.168404344971008868E-16 ) ) ;
#886 = ORIENTED_EDGE ( 'NONE', *, *, #854, .F. ) ;
#887 = EDGE_CURVE ( 'NONE', #518, #534, #126, .T. ) ;
#888 = CARTESIAN_POINT ( 'NONE',  ( -17.30000000000000071, 16.00000000000000355, -2.799999999999999822 ) ) ;
#889 = DIRECTION ( 'NONE',  ( -1.000000000000000000, 0.000000000000000000, 1.084202172485503448E-16 ) ) ;
#890 = ORIENTED_EDGE ( 'NONE', *, *, #866, .T. ) ;
#891 = EDGE_LOOP ( 'NONE', ( #214, #184, #678, #428, #571, #696, #236, #973 ) ) ;
#892 = FACE_OUTER_BOUND ( 'NONE', #248, .T. ) ;
#893 = ADVANCED_FACE ( 'NONE', ( #227 ), #827, .T. ) ;
#894 = DIRECTION ( 'NONE',  ( 0.000000000000000000, 0.000000000000000000, -1.000000000000000000 ) ) ;
#895 = ORIENTED_EDGE ( 'NONE', *, *, #659, .F. ) ;
#896 = ORIENTED_EDGE ( 'NONE', *, *, #1033, .F. ) ;
#897 = FACE_OUTER_BOUND ( 'NONE', #501, .T. ) ;
#898 = CARTESIAN_POINT ( 'NONE',  ( -11.50000000000000178, 16.00000000000000355, 2.000000000000000000 ) ) ;
#899 = EDGE_CURVE ( 'NONE', #637, #580, #294, .T. ) ;
#900 = CARTESIAN_POINT ( 'NONE',  ( -22.30000000000000071, -19.00000000000000000, 16.00000000000000000 ) ) ;
#901 = VECTOR ( 'NONE', #835, 1000.000000000000000 ) ;
#902 = VECTOR ( 'NONE', #787, 1000.000000000000000 ) ;
#903 = ORIENTED_EDGE ( 'NONE', *, *, #442, .F. ) ;
#904 = DIRECTION ( 'NONE',  ( 0.000000000000000000, 0.000000000000000000, -1.000000000000000000 ) ) ;
#905 = CARTESIAN_POINT ( 'NONE',  ( -19.29999999999999716, 16.00000000000000355, 1.300000000000000266 ) ) ;
#906 = LINE ( 'NONE', #316, #626 ) ;
#907 = EDGE_CURVE ( 'NONE', #28, #546, #983, .T. ) ;
#908 = EDGE_LOOP ( 'NONE', ( #961, #198, #771, #225 ) ) ;
#909 = CARTESIAN_POINT ( 'NONE',  ( 9.500000000000001776, -19.00000000000000000, -1.177133787269976412E-15 ) ) ;
#910 = DIRECTION ( 'NONE',  ( 1.000000000000000000, 0.000000000000000000, -2.168404344971008868E-16 ) ) ;
#911 = DIRECTION ( 'NONE',  ( 0.000000000000000000, -0.000000000000000000, 1.000000000000000000 ) ) ;
#912 = VERTEX_POINT ( 'NONE', #818 ) ;
#913 = EDGE_CURVE ( 'NONE', #136, #1105, #987, .T. ) ;
#914 = CARTESIAN_POINT ( 'NONE',  ( 16.00000000000000355, -16.99999999999999645, 16.00000000000000000 ) ) ;
#915 = DIRECTION ( 'NONE',  ( 1.000000000000000000, -0.000000000000000000, 0.000000000000000000 ) ) ;
#916 = LINE ( 'NONE', #745, #593 ) ;
#917 = VECTOR ( 'NONE', #170, 1000.000000000000000 ) ;
#918 = AXIS2_PLACEMENT_3D ( 'NONE', #384, #1086, #652 ) ;
#919 = VERTEX_POINT ( 'NONE', #80 ) ;
#920 = VECTOR ( 'NONE', #468, 1000.000000000000000 ) ;
#921 = CYLINDRICAL_SURFACE ( 'NONE', #543, 4.000000000000000000 ) ;
#922 = VECTOR ( 'NONE', #634, 1000.000000000000000 ) ;
#923 = EDGE_CURVE ( 'NONE', #708, #114, #74, .T. ) ;
#924 = DIRECTION ( 'NONE',  ( -1.000000000000000000, -0.000000000000000000, -1.084202172485503448E-16 ) ) ;
#925 = CARTESIAN_POINT ( 'NONE',  ( -22.30000000000000071, -15.00000000000000000, 7.799999999999999822 ) ) ;
#926 = ORIENTED_EDGE ( 'NONE', *, *, #164, .T. ) ;
#927 = CARTESIAN_POINT ( 'NONE',  ( 19.29999999999999716, -19.00000000000000000, 1.300000000000000266 ) ) ;
#928 = EDGE_LOOP ( 'NONE', ( #1089, #1014, #790, #702 ) ) ;
#929 = CARTESIAN_POINT ( 'NONE',  ( 14.00000000000000355, 16.00000000000000355, 16.00000000000000000 ) ) ;
#930 = DIRECTION ( 'NONE',  ( -2.478176394252581634E-16, 0.000000000000000000, 1.000000000000000000 ) ) ;
#931 = DIRECTION ( 'NONE',  ( 1.000000000000000000, 0.000000000000000000, 0.000000000000000000 ) ) ;
#932 = VERTEX_POINT ( 'NONE', #686 ) ;
#933 = LINE ( 'NONE', #162, #217 ) ;
#934 = ADVANCED_FACE ( 'NONE', ( #344 ), #427, .F. ) ;
#935 = DIRECTION ( 'NONE',  ( 1.000000000000000000, 0.000000000000000000, 2.168404344971008868E-16 ) ) ;
#936 = EDGE_CURVE ( 'NONE', #1015, #1022, #1118, .T. ) ;
#937 = VERTEX_POINT ( 'NONE', #500 ) ;
#938 = CIRCLE ( 'NONE', #956, 2.000000000000000000 ) ;
#939 = CARTESIAN_POINT ( 'NONE',  ( 14.00000000000000000, -16.99999999999999645, 2.000000000000000000 ) ) ;
#940 = VERTEX_POINT ( 'NONE', #513 ) ;
#941 = VECTOR ( 'NONE', #372, 1000.000000000000000 ) ;
#942 = LINE ( 'NONE', #157, #815 ) ;
#943 = CARTESIAN_POINT ( 'NONE',  ( 22.30000000000000071, 16.00000000000000355, -2.799999999999999822 ) ) ;
#944 = VERTEX_POINT ( 'NONE', #765 ) ;
#945 = FACE_OUTER_BOUND ( 'NONE', #971, .T. ) ;
#946 = ORIENTED_EDGE ( 'NONE', *, *, #298, .T. ) ;
#947 = DIRECTION ( 'NONE',  ( -0.000000000000000000, -1.000000000000000000, -0.000000000000000000 ) ) ;
#948 = CARTESIAN_POINT ( 'NONE',  ( -17.29999999999999716, 16.00000000000000355, 1.300000000000000044 ) ) ;
#949 = VERTEX_POINT ( 'NONE', #772 ) ;
#950 = EDGE_CURVE ( 'NONE', #114, #336, #325, .T. ) ;
#951 = CARTESIAN_POINT ( 'NONE',  ( -11.50000000000000355, -16.99999999999999645, 16.00000000000000000 ) ) ;
#952 = ORIENTED_EDGE ( 'NONE', *, *, #50, .T. ) ;
#953 = LINE ( 'NONE', #675, #1048 ) ;
#954 = CARTESIAN_POINT ( 'NONE',  ( -17.29999999999999716, -15.00000000000000000, 7.799999999999999822 ) ) ;
#955 = VERTEX_POINT ( 'NONE', #261 ) ;
#956 = AXIS2_PLACEMENT_3D ( 'NONE', #328, #677, #97 ) ;
#957 = VECTOR ( 'NONE', #241, 1000.000000000000000 ) ;
#958 = EDGE_CURVE ( 'NONE', #534, #1074, #722, .T. ) ;
#959 = VECTOR ( 'NONE', #805, 1000.000000000000000 ) ;
#960 = DIRECTION ( 'NONE',  ( 1.000000000000000000, -0.000000000000000000, 0.000000000000000000 ) ) ;
#961 = ORIENTED_EDGE ( 'NONE', *, *, #123, .T. ) ;
#962 =( NAMED_UNIT ( * ) SI_UNIT ( $, .STERADIAN. ) SOLID_ANGLE_UNIT ( ) );
#963 = CARTESIAN_POINT ( 'NONE',  ( -19.29999999999999716, 16.00000000000000355, -0.2999999999999999889 ) ) ;
#964 = EDGE_CURVE ( 'NONE', #940, #687, #679, .T. ) ;
#965 = ORIENTED_EDGE ( 'NONE', *, *, #285, .F. ) ;
#966 = APPLICATION_PROTOCOL_DEFINITION ( 'draft international standard', 'automotive_design', 1998, #122 ) ;
#967 = ORIENTED_EDGE ( 'NONE', *, *, #393, .F. ) ;
#968 = CARTESIAN_POINT ( 'NONE',  ( 19.29999999999999716, 16.00000000000000355, -0.2999999999999999889 ) ) ;
#969 = DIRECTION ( 'NONE',  ( 0.000000000000000000, 0.000000000000000000, -1.000000000000000000 ) ) ;
#970 = ADVANCED_FACE ( 'NONE', ( #673 ), #921, .F. ) ;
#971 = EDGE_LOOP ( 'NONE', ( #802, #629, #160, #1119 ) ) ;
#972 = EDGE_CURVE ( 'NONE', #912, #944, #151, .T. ) ;
#973 = ORIENTED_EDGE ( 'NONE', *, *, #923, .T. ) ;
#974 = PLANE ( 'NONE',  #684 ) ;
#975 = CARTESIAN_POINT ( 'NONE',  ( -19.29999999999999716, -19.00000000000000000, 1.300000000000000266 ) ) ;
#976 = VECTOR ( 'NONE', #441, 1000.000000000000000 ) ;
#977 = ORIENTED_EDGE ( 'NONE', *, *, #873, .F. ) ;
#978 = ORIENTED_EDGE ( 'NONE', *, *, #442, .T. ) ;
#979 = CARTESIAN_POINT ( 'NONE',  ( -22.30000000000000071, -15.00000000000000000, 3.799999999999999822 ) ) ;
#980 = DIRECTION ( 'NONE',  ( 1.000000000000000000, -0.000000000000000000, 0.000000000000000000 ) ) ;
#981 = VERTEX_POINT ( 'NONE', #1101 ) ;
#982 = ORIENTED_EDGE ( 'NONE', *, *, #334, .F. ) ;
#983 = LINE ( 'NONE', #638, #920 ) ;
#984 = PLANE ( 'NONE',  #628 ) ;
#985 = ORIENTED_EDGE ( 'NONE', *, *, #464, .F. ) ;
#986 = ORIENTED_EDGE ( 'NONE', *, *, #676, .T. ) ;
#987 = LINE ( 'NONE', #479, #433 ) ;
#988 = DIRECTION ( 'NONE',  ( -0.000000000000000000, -0.000000000000000000, -1.000000000000000000 ) ) ;
#989 = ADVANCED_FACE ( 'NONE', ( #945 ), #845, .F. ) ;
#990 = CARTESIAN_POINT ( 'NONE',  ( 17.29999999999999716, -19.00000000000000000, 3.799999999999999822 ) ) ;
#991 = STYLED_ITEM ( 'NONE', ( #716 ), #709 ) ;
#992 =( GEOMETRIC_REPRESENTATION_CONTEXT ( 3 ) GLOBAL_UNCERTAINTY_ASSIGNED_CONTEXT ( ( #1035 ) ) GLOBAL_UNIT_ASSIGNED_CONTEXT ( ( #619, #613, #962 ) ) REPRESENTATION_CONTEXT ( 'NONE', 'WORKASPACE' ) );
#993 = VERTEX_POINT ( 'NONE', #760 ) ;
#994 = CARTESIAN_POINT ( 'NONE',  ( -19.29999999999999716, 16.00000000000000355, -0.2999999999999999889 ) ) ;
#995 = CARTESIAN_POINT ( 'NONE',  ( -17.30000000000000071, 16.00000000000000355, -2.799999999999999822 ) ) ;
#996 = ADVANCED_FACE ( 'NONE', ( #318 ), #1021, .F. ) ;
#997 = FACE_OUTER_BOUND ( 'NONE', #612, .T. ) ;
#998 = VERTEX_POINT ( 'NONE', #65 ) ;
#999 = CARTESIAN_POINT ( 'NONE',  ( 19.29999999999999716, -19.00000000000000000, 1.300000000000000266 ) ) ;
#1000 = CARTESIAN_POINT ( 'NONE',  ( 17.29999999999999716, -19.00000000000000000, 1.300000000000000044 ) ) ;
#1001 = VERTEX_POINT ( 'NONE', #1016 ) ;
#1002 = ORIENTED_EDGE ( 'NONE', *, *, #472, .F. ) ;
#1003 = EDGE_CURVE ( 'NONE', #623, #38, #238, .T. ) ;
#1004 = CARTESIAN_POINT ( 'NONE',  ( 17.30000000000000071, 16.00000000000000355, -2.799999999999999822 ) ) ;
#1005 = CARTESIAN_POINT ( 'NONE',  ( 0.000000000000000000, -21.50000000000000000, 0.000000000000000000 ) ) ;
#1006 = LINE ( 'NONE', #494, #321 ) ;
#1007 = VECTOR ( 'NONE', #253, 1000.000000000000000 ) ;
#1008 = CIRCLE ( 'NONE', #594, 2.000000000000000000 ) ;
#1009 = ORIENTED_EDGE ( 'NONE', *, *, #972, .F. ) ;
#1010 = VECTOR ( 'NONE', #330, 1000.000000000000000 ) ;
#1011 = DIRECTION ( 'NONE',  ( -0.000000000000000000, -0.000000000000000000, -1.000000000000000000 ) ) ;
#1012 = ORIENTED_EDGE ( 'NONE', *, *, #72, .F. ) ;
#1013 = CARTESIAN_POINT ( 'NONE',  ( -19.29999999999999716, 16.00000000000000355, -0.2999999999999999889 ) ) ;
#1014 = ORIENTED_EDGE ( 'NONE', *, *, #907, .F. ) ;
#1015 = VERTEX_POINT ( 'NONE', #599 ) ;
#1016 = CARTESIAN_POINT ( 'NONE',  ( -11.50000000000000178, -16.99999999999999645, 2.000000000000000000 ) ) ;
#1017 = EDGE_CURVE ( 'NONE', #1082, #878, #579, .T. ) ;
#1018 = DIRECTION ( 'NONE',  ( 0.000000000000000000, -0.000000000000000000, 1.000000000000000000 ) ) ;
#1019 = CARTESIAN_POINT ( 'NONE',  ( -19.29999999999999716, -19.00000000000000000, 1.300000000000000266 ) ) ;
#1020 = ORIENTED_EDGE ( 'NONE', *, *, #597, .T. ) ;
#1021 = PLANE ( 'NONE',  #378 ) ;
#1022 = VERTEX_POINT ( 'NONE', #155 ) ;
#1023 = DIRECTION ( 'NONE',  ( 1.239088197126290817E-16, -0.000000000000000000, 1.000000000000000000 ) ) ;
#1024 = CARTESIAN_POINT ( 'NONE',  ( -22.30000000000000071, -19.00000000000000000, 7.799999999999999822 ) ) ;
#1025 = EDGE_CURVE ( 'NONE', #623, #1075, #496, .T. ) ;
#1026 = VERTEX_POINT ( 'NONE', #939 ) ;
#1027 = CARTESIAN_POINT ( 'NONE',  ( 17.29999999999999716, 16.00000000000000355, 1.300000000000000044 ) ) ;
#1028 = ORIENTED_EDGE ( 'NONE', *, *, #285, .T. ) ;
#1029 = VECTOR ( 'NONE', #624, 1000.000000000000000 ) ;
#1030 = AXIS2_PLACEMENT_3D ( 'NONE', #752, #1011, #931 ) ;
#1031 = CARTESIAN_POINT ( 'NONE',  ( 11.50000000000000178, -16.99999999999999645, 2.000000000000000000 ) ) ;
#1032 = DIRECTION ( 'NONE',  ( 0.000000000000000000, 1.000000000000000000, 0.000000000000000000 ) ) ;
#1033 = EDGE_CURVE ( 'NONE', #166, #749, #509, .T. ) ;
#1034 = VERTEX_POINT ( 'NONE', #951 ) ;
#1035 = UNCERTAINTY_MEASURE_WITH_UNIT (LENGTH_MEASURE( 1.000000000000000082E-05 ), #619, 'distance_accuracy_value', 'NONE');
#1036 = CARTESIAN_POINT ( 'NONE',  ( 19.29999999999999716, 16.00000000000000355, -0.2999999999999999889 ) ) ;
#1037 = CARTESIAN_POINT ( 'NONE',  ( 0.000000000000000000, 16.00000000000000355, 0.000000000000000000 ) ) ;
#1038 = CARTESIAN_POINT ( 'NONE',  ( -11.50000000000000355, 16.00000000000000355, 16.00000000000000000 ) ) ;
#1039 = DIRECTION ( 'NONE',  ( -0.000000000000000000, -1.000000000000000000, -0.000000000000000000 ) ) ;
#1040 = ORIENTED_EDGE ( 'NONE', *, *, #899, .T. ) ;
#1041 = EDGE_CURVE ( 'NONE', #154, #1001, #869, .T. ) ;
#1042 = CARTESIAN_POINT ( 'NONE',  ( 19.29999999999999716, 16.00000000000000355, -0.2999999999999999889 ) ) ;
#1043 = CARTESIAN_POINT ( 'NONE',  ( 9.500000000000001776, -16.99999999999999645, 2.000000000000000000 ) ) ;
#1044 = CARTESIAN_POINT ( 'NONE',  ( -22.30000000000000071, -21.50000000000000000, 16.00000000000000000 ) ) ;
#1045 = ORIENTED_EDGE ( 'NONE', *, *, #62, .F. ) ;
#1046 = CIRCLE ( 'NONE', #698, 2.000000000000000000 ) ;
#1047 = CARTESIAN_POINT ( 'NONE',  ( -17.29999999999999716, 16.00000000000000355, 1.300000000000000044 ) ) ;
#1048 = VECTOR ( 'NONE', #419, 1000.000000000000000 ) ;
#1049 = AXIS2_PLACEMENT_3D ( 'NONE', #458, #440, #876 ) ;
#1050 = DIRECTION ( 'NONE',  ( 0.000000000000000000, 1.000000000000000000, 0.000000000000000000 ) ) ;
#1051 = CARTESIAN_POINT ( 'NONE',  ( -22.30000000000000071, -15.00000000000000000, 7.799999999999999822 ) ) ;
#1052 = ORIENTED_EDGE ( 'NONE', *, *, #899, .F. ) ;
#1053 = FACE_OUTER_BOUND ( 'NONE', #398, .T. ) ;
#1054 = ADVANCED_FACE ( 'NONE', ( #690 ), #92, .F. ) ;
#1055 = CARTESIAN_POINT ( 'NONE',  ( -22.30000000000000071, -15.00000000000000000, 3.799999999999999822 ) ) ;
#1056 = EDGE_CURVE ( 'NONE', #195, #1034, #369, .T. ) ;
#1057 = ORIENTED_EDGE ( 'NONE', *, *, #109, .T. ) ;
#1058 = LINE ( 'NONE', #347, #219 ) ;
#1059 = ORIENTED_EDGE ( 'NONE', *, *, #62, .T. ) ;
#1060 = PLANE ( 'NONE',  #1049 ) ;
#1061 = CARTESIAN_POINT ( 'NONE',  ( -9.500000000000001776, -19.00000000000000000, 2.000000000000000000 ) ) ;
#1062 = EDGE_CURVE ( 'NONE', #166, #713, #646, .T. ) ;
#1063 = ORIENTED_EDGE ( 'NONE', *, *, #603, .F. ) ;
#1064 = FILL_AREA_STYLE ('',( #703 ) ) ;
#1065 = AXIS2_PLACEMENT_3D ( 'NONE', #789, #12, #356 ) ;
#1066 = CIRCLE ( 'NONE', #1120, 4.000000000000000000 ) ;
#1067 = DIRECTION ( 'NONE',  ( 0.000000000000000000, -1.000000000000000000, 0.000000000000000000 ) ) ;
#1068 = VECTOR ( 'NONE', #85, 1000.000000000000000 ) ;
#1069 = EDGE_LOOP ( 'NONE', ( #1028, #22, #625, #466 ) ) ;
#1070 = ADVANCED_FACE ( 'NONE', ( #450 ), #695, .T. ) ;
#1071 = ORIENTED_EDGE ( 'NONE', *, *, #498, .F. ) ;
#1072 = CARTESIAN_POINT ( 'NONE',  ( -14.00000000000000355, 16.00000000000000355, 16.00000000000000000 ) ) ;
#1073 = CARTESIAN_POINT ( 'NONE',  ( 17.29999999999999716, -15.00000000000000000, 7.799999999999999822 ) ) ;
#1074 = VERTEX_POINT ( 'NONE', #797 ) ;
#1075 = VERTEX_POINT ( 'NONE', #276 ) ;
#1076 = PLANE ( 'NONE',  #506 ) ;
#1077 = DIRECTION ( 'NONE',  ( 1.000000000000000000, 0.000000000000000000, 0.000000000000000000 ) ) ;
#1078 = CARTESIAN_POINT ( 'NONE',  ( 14.00000000000000000, 16.00000000000000355, 2.000000000000000000 ) ) ;
#1079 = ORIENTED_EDGE ( 'NONE', *, *, #48, .T. ) ;
#1080 = FACE_OUTER_BOUND ( 'NONE', #908, .T. ) ;
#1081 = FACE_OUTER_BOUND ( 'NONE', #297, .T. ) ;
#1082 = VERTEX_POINT ( 'NONE', #362 ) ;
#1083 = VECTOR ( 'NONE', #1077, 1000.000000000000000 ) ;
#1084 = ORIENTED_EDGE ( 'NONE', *, *, #207, .T. ) ;
#1085 = DIRECTION ( 'NONE',  ( -1.000000000000000000, -0.000000000000000000, -0.000000000000000000 ) ) ;
#1086 = DIRECTION ( 'NONE',  ( 1.000000000000000000, 0.000000000000000000, -1.239088197126290817E-16 ) ) ;
#1087 = CARTESIAN_POINT ( 'NONE',  ( -22.30000000000000071, 16.00000000000000355, -2.799999999999999822 ) ) ;
#1088 = EDGE_CURVE ( 'NONE', #919, #518, #21, .T. ) ;
#1089 = ORIENTED_EDGE ( 'NONE', *, *, #633, .T. ) ;
#1090 = CARTESIAN_POINT ( 'NONE',  ( 22.30000000000000071, 16.00000000000000355, 3.799999999999999822 ) ) ;
#1091 = CARTESIAN_POINT ( 'NONE',  ( 9.500000000000001776, -19.00000000000000000, 16.00000000000000000 ) ) ;
#1092 = LINE ( 'NONE', #990, #608 ) ;
#1093 = ORIENTED_EDGE ( 'NONE', *, *, #252, .F. ) ;
#1094 = DIRECTION ( 'NONE',  ( 1.000000000000000000, 0.000000000000000000, 0.000000000000000000 ) ) ;
#1095 = CARTESIAN_POINT ( 'NONE',  ( -17.30000000000000071, 16.00000000000000355, -0.2999999999999999889 ) ) ;
#1096 = DIRECTION ( 'NONE',  ( -0.000000000000000000, -0.000000000000000000, 1.000000000000000000 ) ) ;
#1097 = VECTOR ( 'NONE', #947, 1000.000000000000000 ) ;
#1098 = ORIENTED_EDGE ( 'NONE', *, *, #1003, .T. ) ;
#1099 = EDGE_CURVE ( 'NONE', #773, #319, #782, .T. ) ;
#1100 = VECTOR ( 'NONE', #747, 1000.000000000000000 ) ;
#1101 = CARTESIAN_POINT ( 'NONE',  ( -17.29999999999999716, -19.00000000000000000, 1.300000000000000044 ) ) ;
#1102 = ORIENTED_EDGE ( 'NONE', *, *, #884, .F. ) ;
#1103 = CARTESIAN_POINT ( 'NONE',  ( -22.30000000000000071, -21.50000000000000000, 16.00000000000000000 ) ) ;
#1104 = DIRECTION ( 'NONE',  ( 0.000000000000000000, 0.000000000000000000, 1.000000000000000000 ) ) ;
#1105 = VERTEX_POINT ( 'NONE', #456 ) ;
#1106 = DIRECTION ( 'NONE',  ( 0.000000000000000000, 0.000000000000000000, -1.000000000000000000 ) ) ;
#1107 = ORIENTED_EDGE ( 'NONE', *, *, #1088, .T. ) ;
#1108 = EDGE_CURVE ( 'NONE', #368, #166, #272, .T. ) ;
#1109 = DIRECTION ( 'NONE',  ( 1.000000000000000000, 0.000000000000000000, 0.000000000000000000 ) ) ;
#1110 = DIRECTION ( 'NONE',  ( -1.239088197126290817E-16, -0.000000000000000000, 1.000000000000000000 ) ) ;
#1111 = ORIENTED_EDGE ( 'NONE', *, *, #860, .F. ) ;
#1112 = CARTESIAN_POINT ( 'NONE',  ( 17.29999999999999716, 16.00000000000000355, 3.799999999999999822 ) ) ;
#1113 = VERTEX_POINT ( 'NONE', #443 ) ;
#1114 = LINE ( 'NONE', #497, #33 ) ;
#1115 = EDGE_CURVE ( 'NONE', #919, #3, #1058, .T. ) ;
#1116 = LINE ( 'NONE', #948, #465 ) ;
#1117 = ORIENTED_EDGE ( 'NONE', *, *, #866, .F. ) ;
#1118 = LINE ( 'NONE', #1036, #1100 ) ;
#1119 = ORIENTED_EDGE ( 'NONE', *, *, #567, .T. ) ;
#1120 = AXIS2_PLACEMENT_3D ( 'NONE', #1073, #915, #480 ) ;
#1121 = VECTOR ( 'NONE', #1085, 1000.000000000000000 ) ;
#1122 = DIRECTION ( 'NONE',  ( -0.000000000000000000, -1.000000000000000000, -0.000000000000000000 ) ) ;
#1123 = CARTESIAN_POINT ( 'NONE',  ( -17.30000000000000071, 16.00000000000000355, -0.2999999999999999889 ) ) ;
ENDSEC;
END-ISO-10303-21;
