ISO-10303-21;
HEADER;
FILE_DESCRIPTION (( 'STEP AP214' ),
    '1' );
FILE_NAME ('HousingBottom.STEP',
    '2026-08-10T01:15:26',
    ( '' ),
    ( '' ),
    'SwSTEP 2.0',
    'SolidWorks 2026',
    '' );
FILE_SCHEMA (( 'AUTOMOTIVE_DESIGN' ));
ENDSEC;

DATA;
#1 = EDGE_CURVE ( 'NONE', #626, #105, #117, .T. ) ;
#2 = DIRECTION ( 'NONE',  ( 0.000000000000000000, 1.000000000000000000, 0.000000000000000000 ) ) ;
#3 = VERTEX_POINT ( 'NONE', #419 ) ;
#4 = DIRECTION ( 'NONE',  ( 0.000000000000000000, -0.000000000000000000, 1.000000000000000000 ) ) ;
#5 = CARTESIAN_POINT ( 'NONE',  ( 4.250000000000000888, -20.00000000000000355, -3.400000000000001243 ) ) ;
#6 = ORIENTED_EDGE ( 'NONE', *, *, #318, .F. ) ;
#7 = FACE_OUTER_BOUND ( 'NONE', #563, .T. ) ;
#8 = AXIS2_PLACEMENT_3D ( 'NONE', #394, #482, #466 ) ;
#9 = VECTOR ( 'NONE', #60, 1000.000000000000000 ) ;
#10 = LINE ( 'NONE', #313, #967 ) ;
#11 = CARTESIAN_POINT ( 'NONE',  ( 6.250000000000000888, -18.00000000000000000, -5.400000000000001243 ) ) ;
#12 = AXIS2_PLACEMENT_3D ( 'NONE', #635, #30, #246 ) ;
#13 = ORIENTED_EDGE ( 'NONE', *, *, #224, .T. ) ;
#14 = FACE_OUTER_BOUND ( 'NONE', #198, .T. ) ;
#15 = ADVANCED_FACE ( 'NONE', ( #567 ), #865, .T. ) ;
#16 = CARTESIAN_POINT ( 'NONE',  ( 5.003386806650144791, -19.32165351144587362, -4.906773613300321024 ) ) ;
#17 = ORIENTED_EDGE ( 'NONE', *, *, #25, .T. ) ;
#18 = DIRECTION ( 'NONE',  ( -1.000000000000000000, 0.000000000000000000, -2.168404344971008868E-16 ) ) ;
#19 = CARTESIAN_POINT ( 'NONE',  ( -4.753618969496720581, -19.74757278571692254, 1.007237938993587933 ) ) ;
#20 = CARTESIAN_POINT ( 'NONE',  ( 6.250000000000000888, -18.13090116331779100, -4.399999999983680077 ) ) ;
#21 = ORIENTED_EDGE ( 'NONE', *, *, #728, .T. ) ;
#22 = CARTESIAN_POINT ( 'NONE',  ( -5.117831594392583838, -19.00230136216338295, 1.735663188785195210 ) ) ;
#23 = AXIS2_PLACEMENT_3D ( 'NONE', #725, #34, #416 ) ;
#24 = CARTESIAN_POINT ( 'NONE',  ( 6.750000000000000888, -2.500000000000000000, 0.9999999999999986677 ) ) ;
#25 = EDGE_CURVE ( 'NONE', #235, #386, #457, .T. ) ;
#26 = EDGE_CURVE ( 'NONE', #877, #386, #570, .T. ) ;
#27 = CARTESIAN_POINT ( 'NONE',  ( -4.835786437626905077, -20.00000000000000355, 1.171572875253809931 ) ) ;
#28 = EDGE_LOOP ( 'NONE', ( #221, #13, #776, #669 ) ) ;
#29 = CARTESIAN_POINT ( 'NONE',  ( -4.249999999999999112, -20.00000000000000355, -5.561455489089369218E-16 ) ) ;
#30 = DIRECTION ( 'NONE',  ( 0.000000000000000000, 1.000000000000000000, -0.000000000000000000 ) ) ;
#31 = EDGE_CURVE ( 'NONE', #626, #486, #179, .T. ) ;
#32 = ORIENTED_EDGE ( 'NONE', *, *, #963, .T. ) ;
#33 = ORIENTED_EDGE ( 'NONE', *, *, #986, .T. ) ;
#34 = DIRECTION ( 'NONE',  ( 0.000000000000000000, 1.000000000000000000, 0.000000000000000000 ) ) ;
#35 = CARTESIAN_POINT ( 'NONE',  ( -5.040665110884829936, -19.86499769986533082, -4.190665110884673972 ) ) ;
#36 = ORIENTED_EDGE ( 'NONE', *, *, #521, .T. ) ;
#37 = ADVANCED_FACE ( 'NONE', ( #667 ), #238, .T. ) ;
#38 = CARTESIAN_POINT ( 'NONE',  ( -6.249999999999998224, -18.00000000000000355, -4.400000000000000355 ) ) ;
#39 = CARTESIAN_POINT ( 'NONE',  ( 5.250000000000000888, -2.500000000000000000, -5.900000000000000355 ) ) ;
#40 = AXIS2_PLACEMENT_3D ( 'NONE', #828, #912, #837 ) ;
#41 = CARTESIAN_POINT ( 'NONE',  ( -6.249999999999999112, -18.00000000000000355, 0.9999999999999997780 ) ) ;
#42 = CARTESIAN_POINT ( 'NONE',  ( 4.835786437626905077, -20.00000000000000711, -4.571572875253810508 ) ) ;
#43 = AXIS2_PLACEMENT_3D ( 'NONE', #824, #888, #159 ) ;
#44 = ADVANCED_FACE ( 'NONE', ( #517 ), #892, .T. ) ;
#45 = DIRECTION ( 'NONE',  ( 1.000000000000000000, -0.000000000000000000, 0.000000000000000000 ) ) ;
#46 = CARTESIAN_POINT ( 'NONE',  ( -22.30000000000000071, -2.500000000000000000, -18.05000000000000071 ) ) ;
#47 = ORIENTED_EDGE ( 'NONE', *, *, #26, .T. ) ;
#48 = DIRECTION ( 'NONE',  ( 0.000000000000000000, 0.000000000000000000, -1.000000000000000000 ) ) ;
#49 = CARTESIAN_POINT ( 'NONE',  ( -6.237107820140987080, -18.26179617165912816, -4.393553910070499668 ) ) ;
#50 = DIRECTION ( 'NONE',  ( -0.000000000000000000, -1.000000000000000000, -0.000000000000000000 ) ) ;
#51 = VERTEX_POINT ( 'NONE', #978 ) ;
#52 = PLANE ( 'NONE',  #938 ) ;
#53 = CARTESIAN_POINT ( 'NONE',  ( -22.29999999999999716, 0.000000000000000000, 2.750000000000000000 ) ) ;
#54 = VECTOR ( 'NONE', #142, 1000.000000000000000 ) ;
#55 = EDGE_CURVE ( 'NONE', #486, #988, #208, .T. ) ;
#56 = CARTESIAN_POINT ( 'NONE',  ( -6.249999999999999112, -20.00000000000000000, 2.000000000000000000 ) ) ;
#57 = EDGE_LOOP ( 'NONE', ( #469, #876, #513, #969 ) ) ;
#58 = CARTESIAN_POINT ( 'NONE',  ( 4.511747895233460426, -19.94794534432822886, 0.5234957904667782991 ) ) ;
#59 = CARTESIAN_POINT ( 'NONE',  ( 5.250000000000000888, -20.00000000000000000, -3.400000000000001243 ) ) ;
#60 = DIRECTION ( 'NONE',  ( -1.172110456741085828E-16, 0.000000000000000000, 1.000000000000000000 ) ) ;
#61 = DIRECTION ( 'NONE',  ( -1.668003342285391551E-16, 0.000000000000000000, -1.000000000000000000 ) ) ;
#62 = ADVANCED_FACE ( 'NONE', ( #352 ), #348, .T. ) ;
#63 = ORIENTED_EDGE ( 'NONE', *, *, #842, .F. ) ;
#64 = CARTESIAN_POINT ( 'NONE',  ( 4.647438642464888581, -19.97379281257657624, 0.3974386424649620220 ) ) ;
#65 = AXIS2_PLACEMENT_3D ( 'NONE', #508, #660, #743 ) ;
#66 = EDGE_LOOP ( 'NONE', ( #586, #715, #409, #209 ) ) ;
#67 = CARTESIAN_POINT ( 'NONE',  ( 5.250000000000000888, -18.00000000000000355, 1.999999999999998224 ) ) ;
#68 = EDGE_CURVE ( 'NONE', #893, #243, #964, .T. ) ;
#69 = CARTESIAN_POINT ( 'NONE',  ( -5.249999999999998224, -3.000000000000000000, 2.500000000000000000 ) ) ;
#70 = FACE_OUTER_BOUND ( 'NONE', #762, .T. ) ;
#71 = VECTOR ( 'NONE', #339, 1000.000000000000000 ) ;
#72 = ORIENTED_EDGE ( 'NONE', *, *, #323, .F. ) ;
#73 = CARTESIAN_POINT ( 'NONE',  ( 5.148832964073959850, -18.88630239515460474, 1.797665928147991865 ) ) ;
#74 =( NAMED_UNIT ( * ) PLANE_ANGLE_UNIT ( ) SI_UNIT ( $, .RADIAN. ) );
#75 = EDGE_CURVE ( 'NONE', #376, #184, #698, .T. ) ;
#76 = PRODUCT_DEFINITION_CONTEXT ( 'detailed design', #606, 'design' ) ;
#77 = CARTESIAN_POINT ( 'NONE',  ( 5.250000000000000888, -18.00000000000000355, -5.400000000000001243 ) ) ;
#78 = EDGE_LOOP ( 'NONE', ( #229, #505, #710, #443 ) ) ;
#79 = CARTESIAN_POINT ( 'NONE',  ( 5.257237938993647219, -19.74757278571689767, 0.5036189694966860531 ) ) ;
#80 = DIRECTION ( 'NONE',  ( -1.000000000000000000, 0.000000000000000000, 1.668003342285391551E-16 ) ) ;
#81 = FACE_OUTER_BOUND ( 'NONE', #111, .T. ) ;
#82 = CARTESIAN_POINT ( 'NONE',  ( -22.30000000000000071, 0.000000000000000000, -18.05000000000000071 ) ) ;
#83 = ORIENTED_EDGE ( 'NONE', *, *, #963, .F. ) ;
#84 = PLANE ( 'NONE',  #309 ) ;
#85 = CARTESIAN_POINT ( 'NONE',  ( 6.250000000000000000, -19.17157287525381193, -4.400000000000001243 ) ) ;
#86 = CARTESIAN_POINT ( 'NONE',  ( 6.147852201897150870, -18.64443133430576793, -4.348926100948616202 ) ) ;
#87 = EDGE_CURVE ( 'NONE', #877, #533, #442, .T. ) ;
#88 = EDGE_LOOP ( 'NONE', ( #476, #905, #543, #685 ) ) ;
#89 = DIRECTION ( 'NONE',  ( 1.000000000000000000, 0.000000000000000000, -0.000000000000000000 ) ) ;
#90 = AXIS2_PLACEMENT_3D ( 'NONE', #637, #782, #786 ) ;
#91 = CIRCLE ( 'NONE', #655, 1.500000000000000000 ) ;
#92 = CARTESIAN_POINT ( 'NONE',  ( -5.528392651607560992, -19.58157591876751269, 1.278392651607631381 ) ) ;
#93 = CARTESIAN_POINT ( 'NONE',  ( 5.243553910070472668, -18.26179617165913172, -5.387107820140988323 ) ) ;
#94 = ORIENTED_EDGE ( 'NONE', *, *, #494, .T. ) ;
#95 = CARTESIAN_POINT ( 'NONE',  ( -5.249999999999998224, -2.999999999999999112, 2.000000000000000000 ) ) ;
#96 = CARTESIAN_POINT ( 'NONE',  ( -6.224060811848748820, -18.38998141954119347, 1.974060811848763031 ) ) ;
#97 = CARTESIAN_POINT ( 'NONE',  ( -5.249999999999998224, -2.999999999999999112, -4.400000000000000355 ) ) ;
#98 = ORIENTED_EDGE ( 'NONE', *, *, #504, .F. ) ;
#99 = DIRECTION ( 'NONE',  ( -1.000000000000000000, 0.000000000000000000, -0.000000000000000000 ) ) ;
#100 = CARTESIAN_POINT ( 'NONE',  ( -5.901889555196379256, -19.18653773056819034, 1.651889555196424331 ) ) ;
#101 = ADVANCED_FACE ( 'NONE', ( #605 ), #212, .T. ) ;
#102 = EDGE_CURVE ( 'NONE', #772, #235, #203, .T. ) ;
#103 = CARTESIAN_POINT ( 'NONE',  ( 6.224060811848780794, -18.38998141954120058, -5.374060811848781150 ) ) ;
#104 = AXIS2_PLACEMENT_3D ( 'NONE', #285, #897, #661 ) ;
#105 = VERTEX_POINT ( 'NONE', #813 ) ;
#106 = EDGE_LOOP ( 'NONE', ( #720, #935, #148, #825 ) ) ;
#107 = CARTESIAN_POINT ( 'NONE',  ( -5.218016650735989082, -18.51856511640538372, 1.936033301471933976 ) ) ;
#108 = VECTOR ( 'NONE', #163, 1000.000000000000000 ) ;
#109 = ADVANCED_FACE ( 'NONE', ( #462 ), #308, .T. ) ;
#110 = CARTESIAN_POINT ( 'NONE',  ( 5.249999999983679722, -18.13090116331780521, -5.400000000000001243 ) ) ;
#111 = EDGE_LOOP ( 'NONE', ( #799, #132, #226 ) ) ;
#112 = CARTESIAN_POINT ( 'NONE',  ( -6.249999999999999112, -2.999999999999999112, 0.9999999999999997780 ) ) ;
#113 = PLANE ( 'NONE',  #632 ) ;
#114 = EDGE_CURVE ( 'NONE', #807, #680, #468, .T. ) ;
#115 = ORIENTED_EDGE ( 'NONE', *, *, #537, .F. ) ;
#116 = CARTESIAN_POINT ( 'NONE',  ( -4.864546730259356799, -19.59933366422758638, -4.629093460518610925 ) ) ;
#117 = LINE ( 'NONE', #46, #838 ) ;
#118 = EDGE_CURVE ( 'NONE', #960, #140, #666, .T. ) ;
#119 = FACE_OUTER_BOUND ( 'NONE', #831, .T. ) ;
#120 = CARTESIAN_POINT ( 'NONE',  ( -6.060804154951799916, -18.90841389844905862, -5.210804154951802936 ) ) ;
#121 = STYLED_ITEM ( 'NONE', ( #623 ), #374 ) ;
#122 = ORIENTED_EDGE ( 'NONE', *, *, #288, .T. ) ;
#123 = DIRECTION ( 'NONE',  ( -0.000000000000000000, -0.000000000000000000, 1.000000000000000000 ) ) ;
#124 = CARTESIAN_POINT ( 'NONE',  ( -4.249999999999998224, -20.00000000000000355, -3.400000000000000355 ) ) ;
#125 = DIRECTION ( 'NONE',  ( -0.000000000000000000, -1.000000000000000000, -0.000000000000000000 ) ) ;
#126 = ORIENTED_EDGE ( 'NONE', *, *, #568, .F. ) ;
#127 = CARTESIAN_POINT ( 'NONE',  ( -6.249999999999998224, -18.00000000000000000, -5.400000000000000355 ) ) ;
#128 = EDGE_CURVE ( 'NONE', #51, #267, #493, .T. ) ;
#129 = ADVANCED_FACE ( 'NONE', ( #434 ), #745, .T. ) ;
#130 =( BOUNDED_CURVE ( )  B_SPLINE_CURVE ( 3, ( #882, #886, #878, #656 ),
 .UNSPECIFIED., .F., .T. ) 
 B_SPLINE_CURVE_WITH_KNOTS ( ( 4, 4 ),
 ( 1.570796326794896780, 3.141592653589793116 ),
 .UNSPECIFIED. ) 
 CURVE ( )  GEOMETRIC_REPRESENTATION_ITEM ( )  RATIONAL_B_SPLINE_CURVE ( ( 1.000000000000000000, 0.8047378541243650485, 0.8047378541243650485, 1.000000000000000000 ) ) 
 REPRESENTATION_ITEM ( '' )  );
#131 = DIRECTION ( 'NONE',  ( 0.000000000000000000, 0.000000000000000000, 1.000000000000000000 ) ) ;
#132 = ORIENTED_EDGE ( 'NONE', *, *, #690, .F. ) ;
#133 = CARTESIAN_POINT ( 'NONE',  ( 4.250000000000000888, -20.00000000000000355, -1.340849412639352272E-15 ) ) ;
#134 = CARTESIAN_POINT ( 'NONE',  ( 4.250000000000000888, -20.00000000000000000, -1.092875789865388469E-15 ) ) ;
#135 = ADVANCED_FACE ( 'NONE', ( #81 ), #407, .T. ) ;
#136 = AXIS2_PLACEMENT_3D ( 'NONE', #500, #48, #815 ) ;
#137 = DIRECTION ( 'NONE',  ( -1.668003342285391551E-16, -0.000000000000000000, -1.000000000000000000 ) ) ;
#138 = VECTOR ( 'NONE', #699, 1000.000000000000000 ) ;
#139 = CARTESIAN_POINT ( 'NONE',  ( 5.250000000000000888, -20.00000000000000000, -4.400000000000001243 ) ) ;
#140 = VERTEX_POINT ( 'NONE', #571 ) ;
#141 = FACE_OUTER_BOUND ( 'NONE', #334, .T. ) ;
#142 = DIRECTION ( 'NONE',  ( 0.000000000000000000, 1.000000000000000000, 0.000000000000000000 ) ) ;
#143 = EDGE_CURVE ( 'NONE', #877, #235, #509, .T. ) ;
#144 = VERTEX_POINT ( 'NONE', #560 ) ;
#145 = DIRECTION ( 'NONE',  ( -0.000000000000000000, 1.000000000000000000, 0.000000000000000000 ) ) ;
#146 = DIRECTION ( 'NONE',  ( 0.000000000000000000, 0.000000000000000000, 1.000000000000000000 ) ) ;
#147 = CARTESIAN_POINT ( 'NONE',  ( -5.249999999999998224, -2.999999999999999112, -5.400000000000000355 ) ) ;
#148 = ORIENTED_EDGE ( 'NONE', *, *, #739, .F. ) ;
#149 = DIRECTION ( 'NONE',  ( 0.000000000000000000, 0.000000000000000000, 1.000000000000000000 ) ) ;
#150 = CARTESIAN_POINT ( 'NONE',  ( -5.249999999999998224, -18.00000000000000355, -5.400000000000000355 ) ) ;
#151 = CIRCLE ( 'NONE', #546, 0.5000000000000004441 ) ;
#152 = ORIENTED_EDGE ( 'NONE', *, *, #616, .T. ) ;
#153 = DIRECTION ( 'NONE',  ( 0.000000000000000000, 0.000000000000000000, 1.000000000000000000 ) ) ;
#154 = DIRECTION ( 'NONE',  ( -1.000000000000000000, 0.000000000000000000, -1.172110456741085828E-16 ) ) ;
#155 = CARTESIAN_POINT ( 'NONE',  ( -6.249999999999999112, -18.00000000000000355, 0.9999999999999997780 ) ) ;
#156 = VERTEX_POINT ( 'NONE', #24 ) ;
#157 = FACE_OUTER_BOUND ( 'NONE', #414, .T. ) ;
#158 = CARTESIAN_POINT ( 'NONE',  ( 22.30000000000000071, 0.000000000000000000, -18.05000000000000071 ) ) ;
#159 = DIRECTION ( 'NONE',  ( 0.000000000000000000, 0.000000000000000000, -1.000000000000000000 ) ) ;
#160 = DIRECTION ( 'NONE',  ( 1.000000000000000000, 0.000000000000000000, 0.000000000000000000 ) ) ;
#161 = ORIENTED_EDGE ( 'NONE', *, *, #347, .F. ) ;
#162 = DIRECTION ( 'NONE',  ( -1.000000000000000000, 0.000000000000000000, -4.336808689942013792E-16 ) ) ;
#163 = DIRECTION ( 'NONE',  ( -0.000000000000000000, -1.000000000000000000, -0.000000000000000000 ) ) ;
#164 = FACE_OUTER_BOUND ( 'NONE', #696, .T. ) ;
#165 = ADVANCED_FACE ( 'NONE', ( #639 ), #580, .F. ) ;
#166 = DIRECTION ( 'NONE',  ( 0.000000000000000000, 0.000000000000000000, 1.000000000000000000 ) ) ;
#167 = EDGE_LOOP ( 'NONE', ( #582, #585, #754, #122 ) ) ;
#168 = CARTESIAN_POINT ( 'NONE',  ( 6.250000000000000888, -18.00000000000000355, -4.400000000000001243 ) ) ;
#169 =( BOUNDED_SURFACE ( )  B_SPLINE_SURFACE ( 3, 2, ( 
 ( #980, #133, #763 ),
 ( #371, #748, #361 ),
 ( #608, #64, #58 ),
 ( #79, #298, #222 ),
 ( #596, #452, #894 ),
 ( #302, #459, #916 ),
 ( #676, #975, #911 ),
 ( #601, #619, #534 ),
 ( #686, #759, #73 ),
 ( #377, #230, #693 ),
 ( #544, #670, #755 ),
 ( #287, #215, #293 ),
 ( #525, #832, #519 ),
 ( #841, #767, #67 ) ),
 .UNSPECIFIED., .F., .F., .F. ) 
 B_SPLINE_SURFACE_WITH_KNOTS ( ( 4, 2, 2, 2, 2, 2, 4 ),
 ( 3, 3 ),
 ( 1.570796326794896558, 1.963495408493620697, 2.356194490192344837, 2.552544031041707129, 2.748893571891068976, 2.945243112740430824, 3.141592653589793116 ),
 ( 0.000000000000000000, 1.000000000000000000 ),
 .UNSPECIFIED. ) 
 GEOMETRIC_REPRESENTATION_ITEM ( )  RATIONAL_B_SPLINE_SURFACE ( (
 ( 1.000000000000000000, 1.000000000000000000, 1.000000000000000000),
 ( 1.000000000000000000, 1.000158585517645804, 1.000000000000000000),
 ( 1.000000000000000000, 0.9867291829330671060, 1.000000000000000000),
 ( 1.000000000000000000, 0.9386556568292458991, 1.000000000000000000),
 ( 1.000000000000000000, 0.9038128751444400866, 1.000000000000000000),
 ( 1.000000000000000000, 0.8471316681044381847, 1.000000000000000000),
 ( 1.000000000000000000, 0.8275942589161981999, 1.000000000000000000),
 ( 1.000000000000000000, 0.7902180193271426401, 1.000000000000000000),
 ( 1.000000000000000000, 0.7723968094988064026, 1.000000000000000000),
 ( 1.000000000000000000, 0.7418334301983978696, 1.000000000000000000),
 ( 1.000000000000000000, 0.7291288848862731431, 1.000000000000000000),
 ( 1.000000000000000000, 0.7117460116570426543, 1.000000000000000000),
 ( 1.000000000000000000, 0.7070717215218276230, 1.000000000000000000),
 ( 1.000000000000000000, 0.7071067811865475727, 1.000000000000000000) ) ) 
 REPRESENTATION_ITEM ( '' )  SURFACE ( )  );
#170 = AXIS2_PLACEMENT_3D ( 'NONE', #976, #981, #761 ) ;
#171 = AXIS2_PLACEMENT_3D ( 'NONE', #380, #385, #300 ) ;
#172 = CARTESIAN_POINT ( 'NONE',  ( -6.128314877086245893, -18.74763398995468577, 1.878314877086231016 ) ) ;
#173 = PRODUCT_RELATED_PRODUCT_CATEGORY ( 'part', '', ( #760 ) ) ;
#174 = DIRECTION ( 'NONE',  ( -1.040834085586084257E-16, 0.000000000000000000, -1.000000000000000000 ) ) ;
#175 = ORIENTED_EDGE ( 'NONE', *, *, #973, .F. ) ;
#176 = DIRECTION ( 'NONE',  ( 0.000000000000000000, 0.000000000000000000, -1.000000000000000000 ) ) ;
#177 = CARTESIAN_POINT ( 'NONE',  ( -5.243553910070470891, -18.26179617165913172, 1.987107820140986858 ) ) ;
#178 = CARTESIAN_POINT ( 'NONE',  ( 5.479093460518609682, -19.59933366422758638, -4.014546730259358043 ) ) ;
#179 = LINE ( 'NONE', #599, #900 ) ;
#180 = ADVANCED_FACE ( 'NONE', ( #187 ), #867, .F. ) ;
#181 = CARTESIAN_POINT ( 'NONE',  ( -6.237107820140987080, -18.26179617165913172, 0.9935539100704847693 ) ) ;
#182 = CARTESIAN_POINT ( 'NONE',  ( 6.237107820140988856, -18.26179617165913172, -4.393553910070473023 ) ) ;
#183 = ORIENTED_EDGE ( 'NONE', *, *, #855, .F. ) ;
#184 = VERTEX_POINT ( 'NONE', #402 ) ;
#185 = AXIS2_PLACEMENT_3D ( 'NONE', #399, #936, #18 ) ;
#186 = CIRCLE ( 'NONE', #625, 1.000000000000000000 ) ;
#187 = FACE_OUTER_BOUND ( 'NONE', #898, .T. ) ;
#188 = AXIS2_PLACEMENT_3D ( 'NONE', #97, #864, #723 ) ;
#189 = ORIENTED_EDGE ( 'NONE', *, *, #775, .F. ) ;
#190 = ORIENTED_EDGE ( 'NONE', *, *, #351, .F. ) ;
#191 = CARTESIAN_POINT ( 'NONE',  ( 4.250000000000000888, -20.00000000000000000, 0.9999999999999986677 ) ) ;
#192 = CARTESIAN_POINT ( 'NONE',  ( -4.753618969496719693, -19.74757278571692609, -4.407237938993580073 ) ) ;
#193 = AXIS2_PLACEMENT_3D ( 'NONE', #652, #195, #966 ) ;
#194 = DIRECTION ( 'NONE',  ( -1.172110456741085828E-16, 0.000000000000000000, 1.000000000000000000 ) ) ;
#195 = DIRECTION ( 'NONE',  ( -0.000000000000000000, 0.000000000000000000, 1.000000000000000000 ) ) ;
#196 = VECTOR ( 'NONE', #887, 1000.000000000000000 ) ;
#197 = DIRECTION ( 'NONE',  ( -1.000000000000000000, 0.000000000000000000, 1.040834085586084257E-16 ) ) ;
#198 = EDGE_LOOP ( 'NONE', ( #574, #305, #856, #320 ) ) ;
#199 = CARTESIAN_POINT ( 'NONE',  ( -22.30000000000000071, 0.000000000000000000, -18.05000000000000071 ) ) ;
#200 = CARTESIAN_POINT ( 'NONE',  ( -5.003386806650143015, -19.32165351144585586, -4.906773613300338788 ) ) ;
#201 =( BOUNDED_CURVE ( )  B_SPLINE_CURVE ( 3, ( #38, #492, #730, #579 ),
 .UNSPECIFIED., .F., .T. ) 
 B_SPLINE_CURVE_WITH_KNOTS ( ( 4, 4 ),
 ( 3.141592653589793116, 4.712388980384689674 ),
 .UNSPECIFIED. ) 
 CURVE ( )  GEOMETRIC_REPRESENTATION_ITEM ( )  RATIONAL_B_SPLINE_CURVE ( ( 1.000000000000000000, 0.8047378541243649375, 0.8047378541243649375, 1.000000000000000000 ) ) 
 REPRESENTATION_ITEM ( '' )  );
#202 = VECTOR ( 'NONE', #899, 1000.000000000000000 ) ;
#203 = LINE ( 'NONE', #220, #329 ) ;
#204 = EDGE_CURVE ( 'NONE', #156, #51, #793, .T. ) ;
#205 = VERTEX_POINT ( 'NONE', #630 ) ;
#206 = CARTESIAN_POINT ( 'NONE',  ( -6.749999999999999112, -2.500000000000000000, -7.911745583002327921E-16 ) ) ;
#207 = CARTESIAN_POINT ( 'NONE',  ( -6.224060811848804775, -18.38998141954120058, -5.374060811848806907 ) ) ;
#208 = LINE ( 'NONE', #593, #803 ) ;
#209 = ORIENTED_EDGE ( 'NONE', *, *, #946, .T. ) ;
#210 = CARTESIAN_POINT ( 'NONE',  ( -6.749999999999999112, -3.000000000000000000, -7.911745583002327921E-16 ) ) ;
#211 = DIRECTION ( 'NONE',  ( 0.000000000000000000, -0.000000000000000000, 1.000000000000000000 ) ) ;
#212 = CYLINDRICAL_SURFACE ( 'NONE', #43, 2.000000000000000000 ) ;
#213 = AXIS2_PLACEMENT_3D ( 'NONE', #727, #197, #881 ) ;
#214 = VERTEX_POINT ( 'NONE', #929 ) ;
#215 = CARTESIAN_POINT ( 'NONE',  ( 6.224060811848780794, -18.38998141954120058, 1.974060811848791896 ) ) ;
#216 = DIRECTION ( 'NONE',  ( 0.000000000000000000, 1.000000000000000000, 0.000000000000000000 ) ) ;
#217 = ADVANCED_FACE ( 'NONE', ( #164 ), #484, .F. ) ;
#218 = AXIS2_PLACEMENT_3D ( 'NONE', #262, #268, #587 ) ;
#219 = DIRECTION ( 'NONE',  ( -1.000000000000000000, -0.000000000000000000, 1.040834085586084257E-16 ) ) ;
#220 = CARTESIAN_POINT ( 'NONE',  ( -5.249999999999998224, -20.00000000000000000, 2.000000000000000000 ) ) ;
#221 = ORIENTED_EDGE ( 'NONE', *, *, #537, .T. ) ;
#222 = CARTESIAN_POINT ( 'NONE',  ( 4.753618969496721469, -19.74757278571692609, 1.007237938993579052 ) ) ;
#223 = LINE ( 'NONE', #59, #357 ) ;
#224 = EDGE_CURVE ( 'NONE', #706, #282, #350, .T. ) ;
#225 = LINE ( 'NONE', #155, #9 ) ;
#226 = ORIENTED_EDGE ( 'NONE', *, *, #494, .F. ) ;
#227 = FACE_OUTER_BOUND ( 'NONE', #861, .T. ) ;
#228 = DIRECTION ( 'NONE',  ( 0.000000000000000000, 1.000000000000000000, 0.000000000000000000 ) ) ;
#229 = ORIENTED_EDGE ( 'NONE', *, *, #594, .F. ) ;
#230 = CARTESIAN_POINT ( 'NONE',  ( 6.060804154951803469, -18.90841389844905862, 1.810804154951816347 ) ) ;
#231 = LINE ( 'NONE', #545, #54 ) ;
#232 = PLANE ( 'NONE',  #954 ) ;
#233 = AXIS2_PLACEMENT_3D ( 'NONE', #820, #711, #4 ) ;
#234 = CIRCLE ( 'NONE', #668, 1.000000000000000000 ) ;
#235 = VERTEX_POINT ( 'NONE', #498 ) ;
#236 = DIRECTION ( 'NONE',  ( -1.000000000000000000, 0.000000000000000000, 6.938893903907228378E-17 ) ) ;
#237 = CARTESIAN_POINT ( 'NONE',  ( -6.249999999246404592, -18.19659951090272187, 1.999999999246418358 ) ) ;
#238 = CYLINDRICAL_SURFACE ( 'NONE', #104, 1.000000000000000000 ) ;
#239 = ORIENTED_EDGE ( 'NONE', *, *, #379, .F. ) ;
#240 = CARTESIAN_POINT ( 'NONE',  ( -6.749999999999999112, -3.000000000000000000, 0.9999999999999995559 ) ) ;
#241 = CARTESIAN_POINT ( 'NONE',  ( -22.29999999999999716, -2.500000000000000000, 2.750000000000000000 ) ) ;
#242 = CARTESIAN_POINT ( 'NONE',  ( 5.117831594392585615, -19.00230136216336874, -5.135663188785206223 ) ) ;
#243 = VERTEX_POINT ( 'NONE', #798 ) ;
#244 = CARTESIAN_POINT ( 'NONE',  ( -4.093947403305264743E-16, -3.000000000000000000, -5.899999999999999467 ) ) ;
#245 = CARTESIAN_POINT ( 'NONE',  ( -4.446336970049565629, -19.99990745014004645, 0.1963369700492487158 ) ) ;
#246 = DIRECTION ( 'NONE',  ( 0.000000000000000000, 0.000000000000000000, 1.000000000000000000 ) ) ;
#247 = ADVANCED_FACE ( 'NONE', ( #429 ), #883, .T. ) ;
#248 = PRODUCT_CONTEXT ( 'NONE', #271, 'mechanical' ) ;
#249 = EDGE_LOOP ( 'NONE', ( #974, #325, #595 ) ) ;
#250 = DIRECTION ( 'NONE',  ( 1.000000000000000000, 0.000000000000000000, -1.040834085586084257E-16 ) ) ;
#251 = VECTOR ( 'NONE', #424, 1000.000000000000000 ) ;
#252 = CARTESIAN_POINT ( 'NONE',  ( -4.511747895233458649, -19.94794534432823241, 0.5234957904667707496 ) ) ;
#253 = CARTESIAN_POINT ( 'NONE',  ( 6.047665928147998748, -18.88630239515459763, -4.298832964073959317 ) ) ;
#254 = ORIENTED_EDGE ( 'NONE', *, *, #204, .T. ) ;
#255 = LINE ( 'NONE', #554, #108 ) ;
#256 = CARTESIAN_POINT ( 'NONE',  ( 4.511846573181920839, -20.00000000000000355, -3.530923286590800458 ) ) ;
#257 = ORIENTED_EDGE ( 'NONE', *, *, #384, .F. ) ;
#258 = DIRECTION ( 'NONE',  ( -6.938893903907228378E-17, 0.000000000000000000, -1.000000000000000000 ) ) ;
#259 = CLOSED_SHELL ( 'NONE', ( #400, #816, #109, #787, #713, #872, #275, #809, #129, #657, #849, #44, #62, #928, #37, #281, #101, #781, #135, #461, #247, #15, #700, #165, #682, #717, #649, #217, #180, #628, #555 ) ) ;
#260 = CARTESIAN_POINT ( 'NONE',  ( 4.511747895233460426, -19.94794534432822886, -3.923495790466780431 ) ) ;
#261 = EDGE_LOOP ( 'NONE', ( #890, #21, #415, #947 ) ) ;
#262 = CARTESIAN_POINT ( 'NONE',  ( 5.250000000000000888, -2.999999999999999112, 0.9999999999999986677 ) ) ;
#263 = CIRCLE ( 'NONE', #719, 1.500000000000000000 ) ;
#264 = VECTOR ( 'NONE', #219, 1000.000000000000000 ) ;
#265 = CARTESIAN_POINT ( 'NONE',  ( -4.511846573181889752, -20.00000000000000355, -3.530923286590784915 ) ) ;
#266 = ORIENTED_EDGE ( 'NONE', *, *, #499, .T. ) ;
#267 = VERTEX_POINT ( 'NONE', #39 ) ;
#268 = DIRECTION ( 'NONE',  ( 0.000000000000000000, 1.000000000000000000, 0.000000000000000000 ) ) ;
#269 = CARTESIAN_POINT ( 'NONE',  ( -5.117831594392582950, -19.00230136216336874, -5.135663188785205335 ) ) ;
#270 = ORIENTED_EDGE ( 'NONE', *, *, #365, .T. ) ;
#271 = APPLICATION_CONTEXT ( 'automotive_design' ) ;
#272 = AXIS2_PLACEMENT_3D ( 'NONE', #489, #495, #174 ) ;
#273 = CARTESIAN_POINT ( 'NONE',  ( 22.30000000000000071, -2.500000000000000000, -18.05000000000000071 ) ) ;
#274 = CARTESIAN_POINT ( 'NONE',  ( -6.128314877086184609, -18.74763398995468577, -5.278314877086186740 ) ) ;
#275 = ADVANCED_FACE ( 'NONE', ( #658 ), #113, .T. ) ;
#276 = DIRECTION ( 'NONE',  ( 0.000000000000000000, 1.000000000000000000, 0.000000000000000000 ) ) ;
#277 = LINE ( 'NONE', #199, #251 ) ;
#278 = CARTESIAN_POINT ( 'NONE',  ( -5.257237938993578830, -19.74757278571692609, -3.903618969496720936 ) ) ;
#279 = VECTOR ( 'NONE', #412, 1000.000000000000000 ) ;
#280 = CARTESIAN_POINT ( 'NONE',  ( 4.250000000000000888, -20.00000000000000000, -1.092875789865388469E-15 ) ) ;
#281 = ADVANCED_FACE ( 'NONE', ( #726 ), #510, .T. ) ;
#282 = VERTEX_POINT ( 'NONE', #527 ) ;
#283 = CARTESIAN_POINT ( 'NONE',  ( 6.250000000000000888, -2.999999999999999112, -4.400000000000001243 ) ) ;
#284 = CARTESIAN_POINT ( 'NONE',  ( -5.243553910070497537, -18.26179617165912816, -5.387107820140988323 ) ) ;
#285 = CARTESIAN_POINT ( 'NONE',  ( 5.250000000000000888, -20.00000000000000000, 0.9999999999999986677 ) ) ;
#286 = ORIENTED_EDGE ( 'NONE', *, *, #440, .T. ) ;
#287 = CARTESIAN_POINT ( 'NONE',  ( 6.237107820140988856, -18.26179617165913172, 0.9935539100704910975 ) ) ;
#288 = EDGE_CURVE ( 'NONE', #979, #337, #223, .T. ) ;
#289 = DIRECTION ( 'NONE',  ( 0.000000000000000000, 0.000000000000000000, 1.000000000000000000 ) ) ;
#290 =( NAMED_UNIT ( * ) PLANE_ANGLE_UNIT ( ) SI_UNIT ( $, .RADIAN. ) );
#291 = DIRECTION ( 'NONE',  ( -1.000000000000000000, -0.000000000000000000, -0.000000000000000000 ) ) ;
#292 = EDGE_LOOP ( 'NONE', ( #98, #33, #381, #447 ) ) ;
#293 = CARTESIAN_POINT ( 'NONE',  ( 5.243553910070472668, -18.26179617165912816, 1.987107820140986858 ) ) ;
#294 = CARTESIAN_POINT ( 'NONE',  ( -5.249999999999998224, -18.00000000000000355, -4.400000000000000355 ) ) ;
#295 = AXIS2_PLACEMENT_3D ( 'NONE', #294, #216, #289 ) ;
#296 =( LENGTH_UNIT ( ) NAMED_UNIT ( * ) SI_UNIT ( .MILLI., .METRE. ) );
#297 = EDGE_LOOP ( 'NONE', ( #366, #950, #431 ) ) ;
#298 = CARTESIAN_POINT ( 'NONE',  ( 5.040665110884834377, -19.86499769986564345, 0.7906651108847528864 ) ) ;
#299 = CARTESIAN_POINT ( 'NONE',  ( 6.250000000000000000, -19.17157287525381193, 0.9999999999999983347 ) ) ;
#300 = DIRECTION ( 'NONE',  ( 0.000000000000000000, 0.000000000000000000, 1.000000000000000000 ) ) ;
#301 = ORIENTED_EDGE ( 'NONE', *, *, #25, .F. ) ;
#302 = CARTESIAN_POINT ( 'NONE',  ( 5.756773613300305570, -19.32165351144589138, 0.7533868066501422378 ) ) ;
#303 = CARTESIAN_POINT ( 'NONE',  ( 6.250000000000000888, -18.00000000000000355, 0.9999999999999986677 ) ) ;
#304 = CARTESIAN_POINT ( 'NONE',  ( 5.250000000000000888, -18.00000000000000355, 1.999999999999998668 ) ) ;
#305 = ORIENTED_EDGE ( 'NONE', *, *, #958, .T. ) ;
#306 = CARTESIAN_POINT ( 'NONE',  ( 6.250000000000000888, -2.999999999999999112, -5.400000000000001243 ) ) ;
#307 = SURFACE_STYLE_FILL_AREA ( #610 ) ;
#308 = PLANE ( 'NONE',  #613 ) ;
#309 = AXIS2_PLACEMENT_3D ( 'NONE', #387, #321, #250 ) ;
#310 = ORIENTED_EDGE ( 'NONE', *, *, #933, .F. ) ;
#311 = FACE_OUTER_BOUND ( 'NONE', #557, .T. ) ;
#312 = AXIS2_PLACEMENT_3D ( 'NONE', #449, #378, #689 ) ;
#313 = CARTESIAN_POINT ( 'NONE',  ( -22.30000000000000071, -2.500000000000000000, -18.05000000000000071 ) ) ;
#314 = CARTESIAN_POINT ( 'NONE',  ( 6.750000000000000888, -2.500000000000000000, 0.000000000000000000 ) ) ;
#315 = ORIENTED_EDGE ( 'NONE', *, *, #529, .T. ) ;
#316 = DIRECTION ( 'NONE',  ( 6.938893903907230843E-17, 0.000000000000000000, 1.000000000000000000 ) ) ;
#317 = CARTESIAN_POINT ( 'NONE',  ( -6.047665928147991643, -18.88630239515460829, 0.8988329640739610715 ) ) ;
#318 = EDGE_CURVE ( 'NONE', #376, #772, #749, .T. ) ;
#319 = CARTESIAN_POINT ( 'NONE',  ( 5.198926100948615847, -18.64443133430575728, -5.297852201897155666 ) ) ;
#320 = ORIENTED_EDGE ( 'NONE', *, *, #611, .T. ) ;
#321 = DIRECTION ( 'NONE',  ( 1.040834085586084257E-16, -0.000000000000000000, 1.000000000000000000 ) ) ;
#322 = FACE_OUTER_BOUND ( 'NONE', #435, .T. ) ;
#323 = EDGE_CURVE ( 'NONE', #870, #3, #516, .T. ) ;
#324 = CARTESIAN_POINT ( 'NONE',  ( 5.756773613300338432, -19.32165351144585586, -4.153386806650144258 ) ) ;
#325 = ORIENTED_EDGE ( 'NONE', *, *, #440, .F. ) ;
#326 = CIRCLE ( 'NONE', #8, 1.000000000000000000 ) ;
#327 =( BOUNDED_SURFACE ( )  B_SPLINE_SURFACE ( 3, 2, ( 
 ( #29, #932, #332 ),
 ( #646, #245, #937 ),
 ( #252, #565, #471 ),
 ( #19, #559, #712 ),
 ( #406, #943, #863 ),
 ( #634, #92, #716 ),
 ( #722, #487, #858 ),
 ( #22, #708, #848 ),
 ( #638, #100, #317 ),
 ( #927, #792, #569 ),
 ( #107, #172, #478 ),
 ( #177, #96, #181 ),
 ( #783, #237, #388 ),
 ( #788, #328, #642 ) ),
 .UNSPECIFIED., .F., .F., .F. ) 
 B_SPLINE_SURFACE_WITH_KNOTS ( ( 4, 2, 2, 2, 2, 2, 4 ),
 ( 3, 3 ),
 ( 1.570796326794896558, 1.963495408493620697, 2.356194490192344837, 2.552544031041707129, 2.748893571891068976, 2.945243112740430824, 3.141592653589793116 ),
 ( 0.000000000000000000, 1.000000000000000000 ),
 .UNSPECIFIED. ) 
 GEOMETRIC_REPRESENTATION_ITEM ( )  RATIONAL_B_SPLINE_SURFACE ( (
 ( 1.000000000000000000, 1.000000000000000000, 1.000000000000000000),
 ( 1.000000000000000000, 1.000158585517645804, 1.000000000000000000),
 ( 1.000000000000000000, 0.9867291829330671060, 1.000000000000000000),
 ( 1.000000000000000000, 0.9386556568292458991, 1.000000000000000000),
 ( 1.000000000000000000, 0.9038128751444400866, 1.000000000000000000),
 ( 1.000000000000000000, 0.8471316681044381847, 1.000000000000000000),
 ( 1.000000000000000000, 0.8275942589162066376, 1.000000000000000000),
 ( 1.000000000000000000, 0.7902180193271345354, 1.000000000000000000),
 ( 1.000000000000000000, 0.7723968094988064026, 1.000000000000000000),
 ( 1.000000000000000000, 0.7418334301983978696, 1.000000000000000000),
 ( 1.000000000000000000, 0.7291288848862770289, 1.000000000000000000),
 ( 1.000000000000000000, 0.7117460116570392126, 1.000000000000000000),
 ( 1.000000000000000000, 0.7070717215218300655, 1.000000000000000000),
 ( 1.000000000000000000, 0.7071067811865471286, 1.000000000000000000) ) ) 
 REPRESENTATION_ITEM ( '' )  SURFACE ( )  );
#328 = CARTESIAN_POINT ( 'NONE',  ( -6.250000000000000000, -18.00000000000000355, 2.000000000000000444 ) ) ;
#329 = VECTOR ( 'NONE', #50, 1000.000000000000000 ) ;
#330 = EDGE_LOOP ( 'NONE', ( #115, #701, #266, #766 ) ) ;
#331 = ORIENTED_EDGE ( 'NONE', *, *, #914, .F. ) ;
#332 = CARTESIAN_POINT ( 'NONE',  ( -4.249999999999999112, -20.00000000000000355, -3.821561830130769852E-16 ) ) ;
#333 = CARTESIAN_POINT ( 'NONE',  ( 5.257237938993647219, -19.74757278571689767, -3.903618969496683189 ) ) ;
#334 = EDGE_LOOP ( 'NONE', ( #464, #496, #175, #485 ) ) ;
#335 = CARTESIAN_POINT ( 'NONE',  ( 22.30000000000000426, -2.500000000000000000, 2.750000000000000000 ) ) ;
#336 = CARTESIAN_POINT ( 'NONE',  ( -5.241276407119268121, -19.77802397096312959, -4.391276407119269365 ) ) ;
#337 = VERTEX_POINT ( 'NONE', #454 ) ;
#338 = EDGE_CURVE ( 'NONE', #184, #144, #959, .T. ) ;
#339 = DIRECTION ( 'NONE',  ( -0.000000000000000000, -1.000000000000000000, -0.000000000000000000 ) ) ;
#340 = VECTOR ( 'NONE', #194, 1000.000000000000000 ) ;
#341 = AXIS2_PLACEMENT_3D ( 'NONE', #868, #166, #160 ) ;
#342 = CARTESIAN_POINT ( 'NONE',  ( -4.647438642464884140, -19.97379281257687467, -3.797438642465036818 ) ) ;
#343 = CARTESIAN_POINT ( 'NONE',  ( -6.250000000000000000, -19.17157287525381193, 0.9999999999999995559 ) ) ;
#344 = CARTESIAN_POINT ( 'NONE',  ( 5.250000000000000888, -18.00000000000000355, -5.400000000000001243 ) ) ;
#345 = CARTESIAN_POINT ( 'NONE',  ( -4.249999999999998224, -20.00000000000000355, -3.400000000000000355 ) ) ;
#346 = AXIS2_PLACEMENT_3D ( 'NONE', #69, #833, #146 ) ;
#347 = EDGE_CURVE ( 'NONE', #282, #486, #822, .T. ) ;
#348 = CYLINDRICAL_SURFACE ( 'NONE', #421, 1.000000000000000000 ) ;
#349 = CARTESIAN_POINT ( 'NONE',  ( 6.750000000000000888, -2.999999999999999112, -4.400000000000001243 ) ) ;
#350 = LINE ( 'NONE', #53, #196 ) ;
#351 = EDGE_CURVE ( 'NONE', #140, #614, #687, .T. ) ;
#352 = FACE_OUTER_BOUND ( 'NONE', #524, .T. ) ;
#353 = ORIENTED_EDGE ( 'NONE', *, *, #55, .F. ) ;
#354 = CARTESIAN_POINT ( 'NONE',  ( 6.250000000000000888, -20.00000000000000000, -5.400000000000001243 ) ) ;
#355 = CIRCLE ( 'NONE', #746, 1.000000000000000000 ) ;
#356 = CARTESIAN_POINT ( 'NONE',  ( -5.756773613300337544, -19.32165351144585586, -4.153386806650144258 ) ) ;
#357 = VECTOR ( 'NONE', #535, 1000.000000000000000 ) ;
#358 = VECTOR ( 'NONE', #363, 1000.000000000000000 ) ;
#359 = DIRECTION ( 'NONE',  ( 0.000000000000000000, 1.000000000000000000, 0.000000000000000000 ) ) ;
#360 = ORIENTED_EDGE ( 'NONE', *, *, #87, .F. ) ;
#361 = CARTESIAN_POINT ( 'NONE',  ( 4.380923286590991950, -20.00000000000000355, 0.2618465731817897213 ) ) ;
#362 =( LENGTH_UNIT ( ) NAMED_UNIT ( * ) SI_UNIT ( .MILLI., .METRE. ) );
#363 = DIRECTION ( 'NONE',  ( 1.000000000000000000, 0.000000000000000000, 0.000000000000000000 ) ) ;
#364 = DIRECTION ( 'NONE',  ( 1.000000000000000000, 0.000000000000000000, -1.040834085586084257E-16 ) ) ;
#365 = EDGE_CURVE ( 'NONE', #205, #156, #671, .T. ) ;
#366 = ORIENTED_EDGE ( 'NONE', *, *, #418, .F. ) ;
#367 = CYLINDRICAL_SURFACE ( 'NONE', #390, 0.5000000000000004441 ) ;
#368 = SURFACE_SIDE_STYLE ('',( #307 ) ) ;
#369 = CARTESIAN_POINT ( 'NONE',  ( 5.250000000000000888, -20.00000000000000000, 1.999999999999998668 ) ) ;
#370 = ORIENTED_EDGE ( 'NONE', *, *, #739, .T. ) ;
#371 = CARTESIAN_POINT ( 'NONE',  ( 4.511846573181895081, -20.00000000000000355, 0.1309232865908502574 ) ) ;
#372 = SURFACE_STYLE_USAGE ( .BOTH. , #368 ) ;
#373 = VECTOR ( 'NONE', #123, 1000.000000000000000 ) ;
#374 = MANIFOLD_SOLID_BREP ( 'Fillet2', #259 ) ;
#375 = DIRECTION ( 'NONE',  ( -0.000000000000000000, -1.000000000000000000, -0.000000000000000000 ) ) ;
#376 = VERTEX_POINT ( 'NONE', #917 ) ;
#377 = CARTESIAN_POINT ( 'NONE',  ( 6.147852201897150870, -18.64443133430576793, 0.9489261009486135157 ) ) ;
#378 = DIRECTION ( 'NONE',  ( -1.000000000000000000, 0.000000000000000000, 0.000000000000000000 ) ) ;
#379 = EDGE_CURVE ( 'NONE', #572, #870, #231, .T. ) ;
#380 = CARTESIAN_POINT ( 'NONE',  ( -5.249999999999999112, -20.00000000000000000, 1.000000000000000000 ) ) ;
#381 = ORIENTED_EDGE ( 'NONE', *, *, #951, .F. ) ;
#382 = CARTESIAN_POINT ( 'NONE',  ( 5.250000000000000888, -2.999999999999999112, -4.400000000000001243 ) ) ;
#383 = DIRECTION ( 'NONE',  ( -1.000000000000000000, 0.000000000000000000, 0.000000000000000000 ) ) ;
#384 = EDGE_CURVE ( 'NONE', #140, #386, #844, .T. ) ;
#385 = DIRECTION ( 'NONE',  ( 0.000000000000000000, 1.000000000000000000, 0.000000000000000000 ) ) ;
#386 = VERTEX_POINT ( 'NONE', #751 ) ;
#387 = CARTESIAN_POINT ( 'NONE',  ( 6.250000000000000888, -20.00000000000000000, 1.999999999999998668 ) ) ;
#388 = CARTESIAN_POINT ( 'NONE',  ( -6.249999999999999112, -18.13090116331780521, 0.9999999999836428621 ) ) ;
#389 = CARTESIAN_POINT ( 'NONE',  ( 5.045107630212506855, -19.21997956991504708, -4.990215260424975874 ) ) ;
#390 = AXIS2_PLACEMENT_3D ( 'NONE', #210, #989, #836 ) ;
#391 = AXIS2_PLACEMENT_3D ( 'NONE', #547, #375, #834 ) ;
#392 = ORIENTED_EDGE ( 'NONE', *, *, #1, .T. ) ;
#393 = DIRECTION ( 'NONE',  ( 0.000000000000000000, 0.000000000000000000, 1.000000000000000000 ) ) ;
#394 = CARTESIAN_POINT ( 'NONE',  ( -5.249999999999999112, -2.999999999999999112, 1.000000000000000000 ) ) ;
#395 = CARTESIAN_POINT ( 'NONE',  ( 5.250000000000000888, -18.00000000000000355, -5.400000000000001243 ) ) ;
#396 = SHAPE_DEFINITION_REPRESENTATION ( #612, #683 ) ;
#397 = AXIS2_PLACEMENT_3D ( 'NONE', #677, #383, #908 ) ;
#398 = ORIENTED_EDGE ( 'NONE', *, *, #879, .T. ) ;
#399 = CARTESIAN_POINT ( 'NONE',  ( -4.249999999999999112, -18.00000000000000355, 2.000000000000000444 ) ) ;
#400 = ADVANCED_FACE ( 'NONE', ( #460 ), #445, .T. ) ;
#401 = LINE ( 'NONE', #550, #279 ) ;
#402 = CARTESIAN_POINT ( 'NONE',  ( 5.250000000000000888, -2.500000000000000000, 2.499999999999999112 ) ) ;
#403 = VECTOR ( 'NONE', #413, 1000.000000000000000 ) ;
#404 = ORIENTED_EDGE ( 'NONE', *, *, #986, .F. ) ;
#405 = LINE ( 'NONE', #697, #437 ) ;
#406 = CARTESIAN_POINT ( 'NONE',  ( -4.864546730259426965, -19.59933366422756862, 1.229093460518626557 ) ) ;
#407 =( BOUNDED_SURFACE ( )  B_SPLINE_SURFACE ( 3, 2, ( 
 ( #5, #859, #709 ),
 ( #939, #705, #256 ),
 ( #260, #479, #934 ),
 ( #718, #576, #333 ),
 ( #566, #873, #178 ),
 ( #16, #483, #324 ),
 ( #389, #779, #647 ),
 ( #242, #949, #784 ),
 ( #556, #789, #253 ),
 ( #319, #714, #86 ),
 ( #472, #643, #944 ),
 ( #93, #103, #182 ),
 ( #110, #854, #20 ),
 ( #395, #11, #408 ) ),
 .UNSPECIFIED., .F., .F., .F. ) 
 B_SPLINE_SURFACE_WITH_KNOTS ( ( 4, 2, 2, 2, 2, 2, 4 ),
 ( 3, 3 ),
 ( 1.570796326794896558, 1.963495408493620697, 2.356194490192344837, 2.552544031041707129, 2.748893571891068976, 2.945243112740430824, 3.141592653589793116 ),
 ( 0.000000000000000000, 1.000000000000000000 ),
 .UNSPECIFIED. ) 
 GEOMETRIC_REPRESENTATION_ITEM ( )  RATIONAL_B_SPLINE_SURFACE ( (
 ( 1.000000000000000000, 1.000000000000000000, 1.000000000000000000),
 ( 1.000000000000000000, 1.000158585517653131, 1.000000000000000000),
 ( 1.000000000000000000, 0.9867291829330572250, 1.000000000000000000),
 ( 1.000000000000000000, 0.9386556568292557801, 1.000000000000000000),
 ( 1.000000000000000000, 0.9038128751444403086, 1.000000000000000000),
 ( 1.000000000000000000, 0.8471316681044384067, 1.000000000000000000),
 ( 1.000000000000000000, 0.8275942589162024188, 1.000000000000000000),
 ( 1.000000000000000000, 0.7902180193271386432, 1.000000000000000000),
 ( 1.000000000000000000, 0.7723968094988064026, 1.000000000000000000),
 ( 1.000000000000000000, 0.7418334301983978696, 1.000000000000000000),
 ( 1.000000000000000000, 0.7291288848862731431, 1.000000000000000000),
 ( 1.000000000000000000, 0.7117460116570426543, 1.000000000000000000),
 ( 1.000000000000000000, 0.7070717215218276230, 1.000000000000000000),
 ( 1.000000000000000000, 0.7071067811865475727, 1.000000000000000000) ) ) 
 REPRESENTATION_ITEM ( '' )  SURFACE ( )  );
#408 = CARTESIAN_POINT ( 'NONE',  ( 6.250000000000000888, -18.00000000000000355, -4.400000000000001243 ) ) ;
#409 = ORIENTED_EDGE ( 'NONE', *, *, #68, .T. ) ;
#410 = AXIS2_PLACEMENT_3D ( 'NONE', #603, #901, #866 ) ;
#411 = ORIENTED_EDGE ( 'NONE', *, *, #933, .T. ) ;
#412 = DIRECTION ( 'NONE',  ( 0.000000000000000000, 1.000000000000000000, 0.000000000000000000 ) ) ;
#413 = DIRECTION ( 'NONE',  ( 0.000000000000000000, 0.000000000000000000, -1.000000000000000000 ) ) ;
#414 = EDGE_LOOP ( 'NONE', ( #675, #648, #398, #315 ) ) ;
#415 = ORIENTED_EDGE ( 'NONE', *, *, #594, .T. ) ;
#416 = DIRECTION ( 'NONE',  ( 0.000000000000000000, 0.000000000000000000, 1.000000000000000000 ) ) ;
#417 = CARTESIAN_POINT ( 'NONE',  ( 6.250000000000000888, -20.00000000000000000, 1.999999999999998668 ) ) ;
#418 = EDGE_CURVE ( 'NONE', #960, #614, #732, .T. ) ;
#419 = CARTESIAN_POINT ( 'NONE',  ( -5.249999999999998224, -2.500000000000000000, -5.899999999999999467 ) ) ;
#420 = CYLINDRICAL_SURFACE ( 'NONE', #136, 0.5000000000000004441 ) ;
#421 = AXIS2_PLACEMENT_3D ( 'NONE', #512, #740, #903 ) ;
#422 = CARTESIAN_POINT ( 'NONE',  ( -5.528392651607632047, -19.58157591876751624, -4.678392651607633290 ) ) ;
#423 = CARTESIAN_POINT ( 'NONE',  ( -5.249999999999998224, -18.00000000000000355, 2.000000000000000000 ) ) ;
#424 = DIRECTION ( 'NONE',  ( 1.668003342285391551E-16, 0.000000000000000000, 1.000000000000000000 ) ) ;
#425 = PRODUCT_DEFINITION_FORMATION_WITH_SPECIFIED_SOURCE ( 'ANY', '', #760, .NOT_KNOWN. ) ;
#426 = CARTESIAN_POINT ( 'NONE',  ( -6.186033301471931090, -18.51856511640538727, -4.368016650735960127 ) ) ;
#427 = ORIENTED_EDGE ( 'NONE', *, *, #488, .T. ) ;
#428 = DIRECTION ( 'NONE',  ( 1.000000000000000000, 0.000000000000000000, -1.040834085586084257E-16 ) ) ;
#429 = FACE_OUTER_BOUND ( 'NONE', #621, .T. ) ;
#430 = DIRECTION ( 'NONE',  ( 1.000000000000000000, 0.000000000000000000, -1.668003342285391551E-16 ) ) ;
#431 = ORIENTED_EDGE ( 'NONE', *, *, #351, .T. ) ;
#432 = CARTESIAN_POINT ( 'NONE',  ( 22.30000000000000426, -2.500000000000000000, 2.750000000000000000 ) ) ;
#433 = CARTESIAN_POINT ( 'NONE',  ( -5.985663188785204092, -19.00230136216336874, -4.267831594392584194 ) ) ;
#434 = FACE_OUTER_BOUND ( 'NONE', #66, .T. ) ;
#435 = EDGE_LOOP ( 'NONE', ( #692, #47, #301 ) ) ;
#436 = FACE_OUTER_BOUND ( 'NONE', #297, .T. ) ;
#437 = VECTOR ( 'NONE', #926, 1000.000000000000000 ) ;
#438 = CARTESIAN_POINT ( 'NONE',  ( -5.249999999999998224, -20.00000000000000000, -1.040834085586085243E-16 ) ) ;
#439 = CIRCLE ( 'NONE', #795, 1.500000000000000000 ) ;
#440 = EDGE_CURVE ( 'NONE', #572, #243, #653, .T. ) ;
#441 = CARTESIAN_POINT ( 'NONE',  ( -4.249999999999998224, -20.00000000000000000, -3.400000000000000355 ) ) ;
#442 = LINE ( 'NONE', #850, #511 ) ;
#443 = ORIENTED_EDGE ( 'NONE', *, *, #690, .T. ) ;
#444 = FACE_BOUND ( 'NONE', #480, .T. ) ;
#445 = PLANE ( 'NONE',  #609 ) ;
#446 =( NAMED_UNIT ( * ) SI_UNIT ( $, .STERADIAN. ) SOLID_ANGLE_UNIT ( ) );
#447 = ORIENTED_EDGE ( 'NONE', *, *, #418, .T. ) ;
#448 = CARTESIAN_POINT ( 'NONE',  ( -22.29999999999999716, -2.500000000000000000, 2.750000000000000000 ) ) ;
#449 = CARTESIAN_POINT ( 'NONE',  ( 5.250000000000000888, -3.000000000000000000, 2.499999999999999112 ) ) ;
#450 = LINE ( 'NONE', #531, #827 ) ;
#451 = ORIENTED_EDGE ( 'NONE', *, *, #488, .F. ) ;
#452 = CARTESIAN_POINT ( 'NONE',  ( 5.241276407119403125, -19.77802397096312959, 0.9912764071192657900 ) ) ;
#453 = EDGE_CURVE ( 'NONE', #802, #893, #561, .T. ) ;
#454 = CARTESIAN_POINT ( 'NONE',  ( 4.250000000000000888, -20.00000000000000000, -3.400000000000001243 ) ) ;
#455 = AXIS2_PLACEMENT_3D ( 'NONE', #244, #236, #316 ) ;
#456 = CARTESIAN_POINT ( 'NONE',  ( 0.000000000000000000, 0.000000000000000000, 0.000000000000000000 ) ) ;
#457 =( BOUNDED_CURVE ( )  B_SPLINE_CURVE ( 3, ( #423, #884, #27, #733 ),
 .UNSPECIFIED., .F., .T. ) 
 B_SPLINE_CURVE_WITH_KNOTS ( ( 4, 4 ),
 ( 3.141592653589793116, 4.712388980384689674 ),
 .UNSPECIFIED. ) 
 CURVE ( )  GEOMETRIC_REPRESENTATION_ITEM ( )  RATIONAL_B_SPLINE_CURVE ( ( 1.000000000000000000, 0.8047378541243649375, 0.8047378541243649375, 1.000000000000000000 ) ) 
 REPRESENTATION_ITEM ( '' )  );
#458 = ORIENTED_EDGE ( 'NONE', *, *, #573, .T. ) ;
#459 = CARTESIAN_POINT ( 'NONE',  ( 5.528392651607563657, -19.58157591876751269, 1.278392651607630492 ) ) ;
#460 = FACE_OUTER_BOUND ( 'NONE', #330, .T. ) ;
#461 = ADVANCED_FACE ( 'NONE', ( #322 ), #327, .T. ) ;
#462 = FACE_OUTER_BOUND ( 'NONE', #785, .T. ) ;
#463 = LINE ( 'NONE', #617, #264 ) ;
#464 = ORIENTED_EDGE ( 'NONE', *, *, #499, .F. ) ;
#465 = CARTESIAN_POINT ( 'NONE',  ( -22.29999999999999716, -2.500000000000000000, 2.750000000000000000 ) ) ;
#466 = DIRECTION ( 'NONE',  ( 0.000000000000000000, 0.000000000000000000, 1.000000000000000000 ) ) ;
#467 = UNCERTAINTY_MEASURE_WITH_UNIT (LENGTH_MEASURE( 1.000000000000000082E-05 ), #296, 'distance_accuracy_value', 'NONE');
#468 = LINE ( 'NONE', #972, #530 ) ;
#469 = ORIENTED_EDGE ( 'NONE', *, *, #114, .T. ) ;
#470 = FACE_OUTER_BOUND ( 'NONE', #167, .T. ) ;
#471 = CARTESIAN_POINT ( 'NONE',  ( -4.773495790466713018, -19.94794534432825373, 0.2617478952334877929 ) ) ;
#472 = CARTESIAN_POINT ( 'NONE',  ( 5.218016650735990858, -18.51856511640538372, -5.336033301471936774 ) ) ;
#473 = VECTOR ( 'NONE', #702, 1000.000000000000000 ) ;
#474 = EDGE_CURVE ( 'NONE', #105, #988, #401, .T. ) ;
#475 = CIRCLE ( 'NONE', #562, 0.5000000000000004441 ) ;
#476 = ORIENTED_EDGE ( 'NONE', *, *, #640, .T. ) ;
#477 = DIRECTION ( 'NONE',  ( 1.000000000000000000, -0.000000000000000000, -6.938893903907228378E-17 ) ) ;
#478 = CARTESIAN_POINT ( 'NONE',  ( -6.186033301471934642, -18.51856511640538372, 0.9680166507359747596 ) ) ;
#479 = CARTESIAN_POINT ( 'NONE',  ( 4.647438642464811309, -19.97379281257657269, -3.797438642464963099 ) ) ;
#480 = EDGE_LOOP ( 'NONE', ( #814, #780, #254, #736, #930, #411, #152, #32 ) ) ;
#481 = DIRECTION ( 'NONE',  ( 0.000000000000000000, 0.000000000000000000, 1.000000000000000000 ) ) ;
#482 = DIRECTION ( 'NONE',  ( -0.000000000000000000, -1.000000000000000000, -0.000000000000000000 ) ) ;
#483 = CARTESIAN_POINT ( 'NONE',  ( 5.528392651607632047, -19.58157591876751624, -4.678392651607598651 ) ) ;
#484 = TOROIDAL_SURFACE ( 'NONE', #65, 1.500000000000000000, 0.5000000000000000000 ) ;
#485 = ORIENTED_EDGE ( 'NONE', *, *, #879, .F. ) ;
#486 = VERTEX_POINT ( 'NONE', #158 ) ;
#487 = CARTESIAN_POINT ( 'NONE',  ( -5.625436372909306648, -19.50077375515762057, 1.375436372909345728 ) ) ;
#488 = EDGE_CURVE ( 'NONE', #772, #533, #326, .T. ) ;
#489 = CARTESIAN_POINT ( 'NONE',  ( 2.602085213965210149E-16, -3.000000000000000000, 2.499999999999999556 ) ) ;
#490 = CIRCLE ( 'NONE', #90, 0.5000000000000004441 ) ;
#491 = ORIENTED_EDGE ( 'NONE', *, *, #889, .F. ) ;
#492 = CARTESIAN_POINT ( 'NONE',  ( -6.249999999999998224, -19.17157287525381193, -4.400000000000000355 ) ) ;
#493 = CIRCLE ( 'NONE', #752, 1.500000000000000000 ) ;
#494 = EDGE_CURVE ( 'NONE', #337, #807, #821, .T. ) ;
#495 = DIRECTION ( 'NONE',  ( 1.000000000000000000, 0.000000000000000000, -1.040834085586084257E-16 ) ) ;
#496 = ORIENTED_EDGE ( 'NONE', *, *, #1, .F. ) ;
#497 = CARTESIAN_POINT ( 'NONE',  ( 4.250000000000000888, -20.00000000000000000, -3.400000000000001243 ) ) ;
#498 = CARTESIAN_POINT ( 'NONE',  ( -5.249999999999998224, -18.00000000000000355, 2.000000000000000000 ) ) ;
#499 = EDGE_CURVE ( 'NONE', #105, #503, #10, .T. ) ;
#500 = CARTESIAN_POINT ( 'NONE',  ( 6.750000000000000888, -3.000000000000000000, 0.000000000000000000 ) ) ;
#501 = VECTOR ( 'NONE', #125, 1000.000000000000000 ) ;
#502 = CARTESIAN_POINT ( 'NONE',  ( -4.380923286591040799, -20.00000000000000355, -3.661846573181764430 ) ) ;
#503 = VERTEX_POINT ( 'NONE', #241 ) ;
#504 = EDGE_CURVE ( 'NONE', #205, #614, #255, .T. ) ;
#505 = ORIENTED_EDGE ( 'NONE', *, *, #744, .T. ) ;
#506 = CARTESIAN_POINT ( 'NONE',  ( 5.250000000000000888, -20.00000000000000000, -5.400000000000001243 ) ) ;
#507 = VECTOR ( 'NONE', #871, 1000.000000000000000 ) ;
#508 = CARTESIAN_POINT ( 'NONE',  ( 5.250000000000000888, -2.999999999999999112, -4.400000000000001243 ) ) ;
#509 = CIRCLE ( 'NONE', #12, 1.000000000000000000 ) ;
#510 =( BOUNDED_SURFACE ( )  B_SPLINE_SURFACE ( 3, 2, ( 
 ( #812, #345, #124 ),
 ( #265, #672, #502 ),
 ( #880, #342, #581 ),
 ( #278, #35, #192 ),
 ( #801, #336, #116 ),
 ( #356, #422, #200 ),
 ( #962, #817, #731 ),
 ( #433, #957, #269 ),
 ( #891, #584, #738 ),
 ( #805, #120, #971 ),
 ( #426, #274, #588 ),
 ( #49, #207, #284 ),
 ( #663, #592, #597 ),
 ( #515, #127, #895 ) ),
 .UNSPECIFIED., .F., .F., .F. ) 
 B_SPLINE_SURFACE_WITH_KNOTS ( ( 4, 2, 2, 2, 2, 2, 4 ),
 ( 3, 3 ),
 ( 1.570796326794896558, 1.963495408493620697, 2.356194490192344837, 2.552544031041707129, 2.748893571891068976, 2.945243112740430824, 3.141592653589793116 ),
 ( 0.000000000000000000, 1.000000000000000000 ),
 .UNSPECIFIED. ) 
 GEOMETRIC_REPRESENTATION_ITEM ( )  RATIONAL_B_SPLINE_SURFACE ( (
 ( 1.000000000000000000, 1.000000000000000000, 1.000000000000000000),
 ( 1.000000000000000000, 1.000158585517653131, 1.000000000000000000),
 ( 1.000000000000000000, 0.9867291829330572250, 1.000000000000000000),
 ( 1.000000000000000000, 0.9386556568292557801, 1.000000000000000000),
 ( 1.000000000000000000, 0.9038128751444489684, 1.000000000000000000),
 ( 1.000000000000000000, 0.8471316681044337438, 1.000000000000000000),
 ( 1.000000000000000000, 0.8275942589162067486, 1.000000000000000000),
 ( 1.000000000000000000, 0.7902180193271346464, 1.000000000000000000),
 ( 1.000000000000000000, 0.7723968094988064026, 1.000000000000000000),
 ( 1.000000000000000000, 0.7418334301983978696, 1.000000000000000000),
 ( 1.000000000000000000, 0.7291288848862736982, 1.000000000000000000),
 ( 1.000000000000000000, 0.7117460116570432094, 1.000000000000000000),
 ( 1.000000000000000000, 0.7070717215218274010, 1.000000000000000000),
 ( 1.000000000000000000, 0.7071067811865475727, 1.000000000000000000) ) ) 
 REPRESENTATION_ITEM ( '' )  SURFACE ( )  );
#511 = VECTOR ( 'NONE', #589, 1000.000000000000000 ) ;
#512 = CARTESIAN_POINT ( 'NONE',  ( -5.249999999999998224, -20.00000000000000000, -4.400000000000000355 ) ) ;
#513 = ORIENTED_EDGE ( 'NONE', *, *, #504, .T. ) ;
#514 = FACE_OUTER_BOUND ( 'NONE', #618, .T. ) ;
#515 = CARTESIAN_POINT ( 'NONE',  ( -6.249999999999998224, -18.00000000000000355, -4.400000000000000355 ) ) ;
#516 = CIRCLE ( 'NONE', #397, 0.5000000000000004441 ) ;
#517 = FACE_OUTER_BOUND ( 'NONE', #78, .T. ) ;
#518 = ORIENTED_EDGE ( 'NONE', *, *, #143, .T. ) ;
#519 = CARTESIAN_POINT ( 'NONE',  ( 5.249999999983679722, -18.13090116331781232, 1.999999999999998224 ) ) ;
#520 = DIRECTION ( 'NONE',  ( 1.668003342285391551E-16, 0.000000000000000000, 1.000000000000000000 ) ) ;
#521 = EDGE_CURVE ( 'NONE', #243, #979, #201, .T. ) ;
#522 = LINE ( 'NONE', #598, #907 ) ;
#523 = CARTESIAN_POINT ( 'NONE',  ( -6.249999999999998224, -20.00000000000000000, -4.400000000000000355 ) ) ;
#524 = EDGE_LOOP ( 'NONE', ( #796, #578, #239, #286 ) ) ;
#525 = CARTESIAN_POINT ( 'NONE',  ( 6.250000000000000888, -18.13090116331780521, 0.9999999999836348685 ) ) ;
#526 = AXIS2_PLACEMENT_3D ( 'NONE', #564, #176, #99 ) ;
#527 = CARTESIAN_POINT ( 'NONE',  ( 22.30000000000000426, 0.000000000000000000, 2.750000000000000000 ) ) ;
#528 = VECTOR ( 'NONE', #896, 1000.000000000000000 ) ;
#529 = EDGE_CURVE ( 'NONE', #654, #282, #797, .T. ) ;
#530 = VECTOR ( 'NONE', #924, 1000.000000000000000 ) ;
#531 = CARTESIAN_POINT ( 'NONE',  ( 22.30000000000000071, -2.500000000000000000, -18.05000000000000071 ) ) ;
#532 = CARTESIAN_POINT ( 'NONE',  ( 5.250000000000000888, -18.00000000000000355, 1.999999999999998668 ) ) ;
#533 = VERTEX_POINT ( 'NONE', #112 ) ;
#534 = CARTESIAN_POINT ( 'NONE',  ( 5.117831594392585615, -19.00230136216337584, 1.735663188785199429 ) ) ;
#535 = DIRECTION ( 'NONE',  ( 1.000000000000000000, -0.000000000000000000, -6.938893903907228378E-17 ) ) ;
#536 = LINE ( 'NONE', #150, #528 ) ;
#537 = EDGE_CURVE ( 'NONE', #988, #706, #277, .T. ) ;
#538 = ORIENTED_EDGE ( 'NONE', *, *, #288, .F. ) ;
#539 = LINE ( 'NONE', #448, #202 ) ;
#540 = CARTESIAN_POINT ( 'NONE',  ( 5.421572875253811929, -20.00000000000000000, 0.5857864376269034112 ) ) ;
#541 = FACE_OUTER_BOUND ( 'NONE', #28, .T. ) ;
#542 = EDGE_CURVE ( 'NONE', #267, #3, #583, .T. ) ;
#543 = ORIENTED_EDGE ( 'NONE', *, *, #365, .F. ) ;
#544 = CARTESIAN_POINT ( 'NONE',  ( 6.186033301471936419, -18.51856511640538372, 0.9680166507359666550 ) ) ;
#545 = CARTESIAN_POINT ( 'NONE',  ( -5.249999999999998224, -20.00000000000000000, -5.400000000000000355 ) ) ;
#546 = AXIS2_PLACEMENT_3D ( 'NONE', #349, #662, #965 ) ;
#547 = CARTESIAN_POINT ( 'NONE',  ( -5.249999999999998224, -2.999999999999999112, -4.400000000000000355 ) ) ;
#548 = ORIENTED_EDGE ( 'NONE', *, *, #26, .F. ) ;
#549 = CARTESIAN_POINT ( 'NONE',  ( -4.249999999999998224, -20.00000000000000000, -4.400000000000001243 ) ) ;
#550 = CARTESIAN_POINT ( 'NONE',  ( -22.30000000000000071, -2.500000000000000000, -18.05000000000000071 ) ) ;
#551 = CARTESIAN_POINT ( 'NONE',  ( 2.602085213965210149E-16, -2.500000000000000000, 2.499999999999999556 ) ) ;
#552 = ORIENTED_EDGE ( 'NONE', *, *, #118, .F. ) ;
#553 = FACE_OUTER_BOUND ( 'NONE', #106, .T. ) ;
#554 = CARTESIAN_POINT ( 'NONE',  ( 6.250000000000000888, -20.00000000000000000, 0.9999999999999986677 ) ) ;
#555 = ADVANCED_FACE ( 'NONE', ( #119 ), #874, .F. ) ;
#556 = CARTESIAN_POINT ( 'NONE',  ( 5.148832964073959850, -18.88630239515460829, -5.197665928147992886 ) ) ;
#557 = EDGE_LOOP ( 'NONE', ( #36, #189, #548, #758 ) ) ;
#558 = CARTESIAN_POINT ( 'NONE',  ( 6.250000000000000888, -18.00000000000000355, -4.400000000000001243 ) ) ;
#559 = CARTESIAN_POINT ( 'NONE',  ( -5.040665110884832600, -19.86499769986564345, 0.7906651108847831955 ) ) ;
#560 = CARTESIAN_POINT ( 'NONE',  ( 5.250000000000000888, -2.999999999999999112, 1.999999999999998668 ) ) ;
#561 = CIRCLE ( 'NONE', #410, 0.4999999999999995559 ) ;
#562 = AXIS2_PLACEMENT_3D ( 'NONE', #240, #852, #162 ) ;
#563 = EDGE_LOOP ( 'NONE', ( #353, #600, #392, #791 ) ) ;
#564 = CARTESIAN_POINT ( 'NONE',  ( -22.30000000000000071, -2.500000000000000000, -18.05000000000000071 ) ) ;
#565 = CARTESIAN_POINT ( 'NONE',  ( -4.647438642464886804, -19.97379281257657624, 0.3974386424649344329 ) ) ;
#566 = CARTESIAN_POINT ( 'NONE',  ( 4.864546730259358576, -19.59933366422755086, -4.629093460518643788 ) ) ;
#567 = FACE_OUTER_BOUND ( 'NONE', #650, .T. ) ;
#568 = EDGE_CURVE ( 'NONE', #337, #140, #734, .T. ) ;
#569 = CARTESIAN_POINT ( 'NONE',  ( -6.147852201897154423, -18.64443133430575728, 0.9489261009486107401 ) ) ;
#570 =( BOUNDED_CURVE ( )  B_SPLINE_CURVE ( 3, ( #41, #343, #659, #624 ),
 .UNSPECIFIED., .F., .T. ) 
 B_SPLINE_CURVE_WITH_KNOTS ( ( 4, 4 ),
 ( 3.141592653589793116, 4.712388980384689674 ),
 .UNSPECIFIED. ) 
 CURVE ( )  GEOMETRIC_REPRESENTATION_ITEM ( )  RATIONAL_B_SPLINE_CURVE ( ( 1.000000000000000000, 0.8047378541243649375, 0.8047378541243649375, 1.000000000000000000 ) ) 
 REPRESENTATION_ITEM ( '' )  );
#571 = CARTESIAN_POINT ( 'NONE',  ( 4.250000000000000888, -20.00000000000000000, -1.092875789865388469E-15 ) ) ;
#572 = VERTEX_POINT ( 'NONE', #590 ) ;
#573 = EDGE_CURVE ( 'NONE', #979, #572, #130, .T. ) ;
#574 = ORIENTED_EDGE ( 'NONE', *, *, #951, .T. ) ;
#575 = DIRECTION ( 'NONE',  ( -1.000000000000000000, 0.000000000000000000, 6.938893903907228378E-17 ) ) ;
#576 = CARTESIAN_POINT ( 'NONE',  ( 5.040665110884911648, -19.86499769986563990, -4.190665110884753020 ) ) ;
#577 =( GEOMETRIC_REPRESENTATION_CONTEXT ( 3 ) GLOBAL_UNCERTAINTY_ASSIGNED_CONTEXT ( ( #673 ) ) GLOBAL_UNIT_ASSIGNED_CONTEXT ( ( #362, #74, #694 ) ) REPRESENTATION_CONTEXT ( 'NONE', 'WORKASPACE' ) );
#578 = ORIENTED_EDGE ( 'NONE', *, *, #914, .T. ) ;
#579 = CARTESIAN_POINT ( 'NONE',  ( -4.249999999999998224, -20.00000000000000000, -3.400000000000000355 ) ) ;
#580 = TOROIDAL_SURFACE ( 'NONE', #188, 1.500000000000000000, 0.5000000000000000000 ) ;
#581 = CARTESIAN_POINT ( 'NONE',  ( -4.511747895233457761, -19.94794534432822886, -3.923495790466779543 ) ) ;
#582 = ORIENTED_EDGE ( 'NONE', *, *, #568, .T. ) ;
#583 = LINE ( 'NONE', #952, #806 ) ;
#584 = CARTESIAN_POINT ( 'NONE',  ( -5.901889555196408566, -19.18653773056819034, -5.051889555196409809 ) ) ;
#585 = ORIENTED_EDGE ( 'NONE', *, *, #384, .T. ) ;
#586 = ORIENTED_EDGE ( 'NONE', *, *, #87, .T. ) ;
#587 = DIRECTION ( 'NONE',  ( 0.000000000000000000, 0.000000000000000000, 1.000000000000000000 ) ) ;
#588 = CARTESIAN_POINT ( 'NONE',  ( -5.218016650735958883, -18.51856511640538727, -5.336033301471933221 ) ) ;
#589 = DIRECTION ( 'NONE',  ( 0.000000000000000000, 1.000000000000000000, 0.000000000000000000 ) ) ;
#590 = CARTESIAN_POINT ( 'NONE',  ( -5.249999999999998224, -18.00000000000000355, -5.400000000000000355 ) ) ;
#591 = VECTOR ( 'NONE', #764, 1000.000000000000000 ) ;
#592 = CARTESIAN_POINT ( 'NONE',  ( -6.249999999246317550, -18.19659951090271477, -5.399999999246318794 ) ) ;
#593 = CARTESIAN_POINT ( 'NONE',  ( -22.30000000000000071, 0.000000000000000000, -18.05000000000000071 ) ) ;
#594 = EDGE_CURVE ( 'NONE', #955, #910, #948, .T. ) ;
#595 = ORIENTED_EDGE ( 'NONE', *, *, #573, .F. ) ;
#596 = CARTESIAN_POINT ( 'NONE',  ( 5.479093460518681624, -19.59933366422751533, 0.6145467302593561332 ) ) ;
#597 = CARTESIAN_POINT ( 'NONE',  ( -5.249999999983564258, -18.13090116331781232, -5.400000000000000355 ) ) ;
#598 = CARTESIAN_POINT ( 'NONE',  ( -6.249999999999999112, -2.999999999999999112, 2.000000000000000000 ) ) ;
#599 = CARTESIAN_POINT ( 'NONE',  ( 22.30000000000000071, -2.500000000000000000, -18.05000000000000071 ) ) ;
#600 = ORIENTED_EDGE ( 'NONE', *, *, #31, .F. ) ;
#601 = CARTESIAN_POINT ( 'NONE',  ( 5.985663188785197875, -19.00230136216338295, 0.8678315943925865028 ) ) ;
#602 = EDGE_CURVE ( 'NONE', #337, #910, #808, .T. ) ;
#603 = CARTESIAN_POINT ( 'NONE',  ( -6.749999999999998224, -3.000000000000000000, -4.400000000000000355 ) ) ;
#604 = CYLINDRICAL_SURFACE ( 'NONE', #171, 1.000000000000000000 ) ;
#605 = FACE_OUTER_BOUND ( 'NONE', #835, .T. ) ;
#606 = APPLICATION_CONTEXT ( 'automotive_design' ) ;
#607 = ORIENTED_EDGE ( 'NONE', *, *, #318, .T. ) ;
#608 = CARTESIAN_POINT ( 'NONE',  ( 4.773495790466714794, -19.94794534432825373, 0.2617478952334917897 ) ) ;
#609 = AXIS2_PLACEMENT_3D ( 'NONE', #768, #80, #520 ) ;
#610 = FILL_AREA_STYLE ('',( #756 ) ) ;
#611 = EDGE_CURVE ( 'NONE', #235, #960, #811, .T. ) ;
#612 = PRODUCT_DEFINITION_SHAPE ( 'NONE', 'NONE',  #790 ) ;
#613 = AXIS2_PLACEMENT_3D ( 'NONE', #753, #430, #61 ) ;
#614 = VERTEX_POINT ( 'NONE', #956 ) ;
#615 = CARTESIAN_POINT ( 'NONE',  ( 22.30000000000000071, 0.000000000000000000, -18.05000000000000071 ) ) ;
#616 = EDGE_CURVE ( 'NONE', #802, #214, #961, .T. ) ;
#617 = CARTESIAN_POINT ( 'NONE',  ( 6.250000000000000888, -2.999999999999999112, 1.999999999999998668 ) ) ;
#618 = EDGE_LOOP ( 'NONE', ( #984, #451, #6, #83 ) ) ;
#619 = CARTESIAN_POINT ( 'NONE',  ( 5.812546386749345650, -19.30395656095041446, 1.562546386749357863 ) ) ;
#620 = DIRECTION ( 'NONE',  ( 0.000000000000000000, 0.000000000000000000, 1.000000000000000000 ) ) ;
#621 = EDGE_LOOP ( 'NONE', ( #94, #645, #190, #126 ) ) ;
#622 = PLANE ( 'NONE',  #953 ) ;
#623 = PRESENTATION_STYLE_ASSIGNMENT (( #372 ) ) ;
#624 = CARTESIAN_POINT ( 'NONE',  ( -4.249999999999999112, -20.00000000000000000, -2.081668171172168513E-16 ) ) ;
#625 = AXIS2_PLACEMENT_3D ( 'NONE', #977, #839, #620 ) ;
#626 = VERTEX_POINT ( 'NONE', #273 ) ;
#627 = PLANE ( 'NONE',  #526 ) ;
#628 = ADVANCED_FACE ( 'NONE', ( #804 ), #420, .F. ) ;
#629 = DIRECTION ( 'NONE',  ( 1.668003342285391551E-16, 0.000000000000000000, 1.000000000000000000 ) ) ;
#630 = CARTESIAN_POINT ( 'NONE',  ( 6.250000000000000888, -2.999999999999999112, 0.9999999999999986677 ) ) ;
#631 = ORIENTED_EDGE ( 'NONE', *, *, #338, .T. ) ;
#632 = AXIS2_PLACEMENT_3D ( 'NONE', #417, #45, #735 ) ;
#633 = CYLINDRICAL_SURFACE ( 'NONE', #455, 0.4999999999999995559 ) ;
#634 = CARTESIAN_POINT ( 'NONE',  ( -5.003386806650109264, -19.32165351144586651, 1.506773613300329551 ) ) ;
#635 = CARTESIAN_POINT ( 'NONE',  ( -5.249999999999999112, -18.00000000000000355, 1.000000000000000000 ) ) ;
#636 = ORIENTED_EDGE ( 'NONE', *, *, #616, .F. ) ;
#637 = CARTESIAN_POINT ( 'NONE',  ( 5.250000000000000888, -3.000000000000000000, -5.900000000000000355 ) ) ;
#638 = CARTESIAN_POINT ( 'NONE',  ( -5.148832964073958074, -18.88630239515460119, 1.797665928147993641 ) ) ;
#639 = FACE_OUTER_BOUND ( 'NONE', #945, .T. ) ;
#640 = EDGE_CURVE ( 'NONE', #680, #51, #151, .T. ) ;
#641 = DIRECTION ( 'NONE',  ( -1.000000000000000000, -0.000000000000000000, -0.000000000000000000 ) ) ;
#642 = CARTESIAN_POINT ( 'NONE',  ( -6.249999999999999112, -18.00000000000000355, 0.9999999999999995559 ) ) ;
#643 = CARTESIAN_POINT ( 'NONE',  ( 6.128314877086217471, -18.74763398995468577, -5.278314877086218715 ) ) ;
#644 = APPLICATION_PROTOCOL_DEFINITION ( 'draft international standard', 'automotive_design', 1998, #271 ) ;
#645 = ORIENTED_EDGE ( 'NONE', *, *, #769, .F. ) ;
#646 = CARTESIAN_POINT ( 'NONE',  ( -4.380923286590992838, -20.00000000000000355, 0.2618465731817956055 ) ) ;
#647 = CARTESIAN_POINT ( 'NONE',  ( 5.840215260424986177, -19.21997956991502932, -4.195107630212507210 ) ) ;
#648 = ORIENTED_EDGE ( 'NONE', *, *, #664, .F. ) ;
#649 = ADVANCED_FACE ( 'NONE', ( #514 ), #843, .F. ) ;
#650 = EDGE_LOOP ( 'NONE', ( #17, #257, #552, #851 ) ) ;
#651 = DIRECTION ( 'NONE',  ( -1.000000000000000000, 0.000000000000000000, 6.938893903907228378E-17 ) ) ;
#652 = CARTESIAN_POINT ( 'NONE',  ( 4.250000000000000888, -18.00000000000000355, 1.999999999999998668 ) ) ;
#653 = CIRCLE ( 'NONE', #295, 1.000000000000000000 ) ;
#654 = VERTEX_POINT ( 'NONE', #432 ) ;
#655 = AXIS2_PLACEMENT_3D ( 'NONE', #845, #902, #909 ) ;
#656 = CARTESIAN_POINT ( 'NONE',  ( -5.249999999999998224, -18.00000000000000355, -5.400000000000000355 ) ) ;
#657 = ADVANCED_FACE ( 'NONE', ( #742 ), #52, .T. ) ;
#658 = FACE_OUTER_BOUND ( 'NONE', #57, .T. ) ;
#659 = CARTESIAN_POINT ( 'NONE',  ( -5.421572875253808377, -20.00000000000000355, 0.5857864376269047435 ) ) ;
#660 = DIRECTION ( 'NONE',  ( 0.000000000000000000, 1.000000000000000000, 0.000000000000000000 ) ) ;
#661 = DIRECTION ( 'NONE',  ( 0.000000000000000000, 0.000000000000000000, 1.000000000000000000 ) ) ;
#662 = DIRECTION ( 'NONE',  ( 0.000000000000000000, 0.000000000000000000, -1.000000000000000000 ) ) ;
#663 = CARTESIAN_POINT ( 'NONE',  ( -6.249999999999998224, -18.13090116331780521, -4.399999999983565502 ) ) ;
#664 = EDGE_CURVE ( 'NONE', #503, #706, #539, .T. ) ;
#665 = EDGE_CURVE ( 'NONE', #184, #156, #263, .T. ) ;
#666 =( BOUNDED_CURVE ( )  B_SPLINE_CURVE ( 3, ( #532, #968, #830, #280 ),
 .UNSPECIFIED., .F., .F. ) 
 B_SPLINE_CURVE_WITH_KNOTS ( ( 4, 4 ),
 ( 3.141592653589793116, 4.712388980384689674 ),
 .UNSPECIFIED. ) 
 CURVE ( )  GEOMETRIC_REPRESENTATION_ITEM ( )  RATIONAL_B_SPLINE_CURVE ( ( 1.000000000000000000, 0.8047378541243649375, 0.8047378541243649375, 1.000000000000000000 ) ) 
 REPRESENTATION_ITEM ( '' )  );
#667 = FACE_OUTER_BOUND ( 'NONE', #292, .T. ) ;
#668 = AXIS2_PLACEMENT_3D ( 'NONE', #681, #145, #149 ) ;
#669 = ORIENTED_EDGE ( 'NONE', *, *, #55, .T. ) ;
#670 = CARTESIAN_POINT ( 'NONE',  ( 6.128314877086217471, -18.74763398995468577, 1.878314877086202150 ) ) ;
#671 = CIRCLE ( 'NONE', #40, 0.5000000000000004441 ) ;
#672 = CARTESIAN_POINT ( 'NONE',  ( -4.446336970049364901, -19.99990745014004645, -3.596336970049366588 ) ) ;
#673 = UNCERTAINTY_MEASURE_WITH_UNIT (LENGTH_MEASURE( 1.000000000000000082E-05 ), #362, 'distance_accuracy_value', 'NONE');
#674 = DIRECTION ( 'NONE',  ( 0.000000000000000000, 0.000000000000000000, 1.000000000000000000 ) ) ;
#675 = ORIENTED_EDGE ( 'NONE', *, *, #224, .F. ) ;
#676 = CARTESIAN_POINT ( 'NONE',  ( 5.840215260424986177, -19.21997956991502932, 0.7951076302125006379 ) ) ;
#677 = CARTESIAN_POINT ( 'NONE',  ( -5.249999999999998224, -2.999999999999999112, -5.900000000000000355 ) ) ;
#678 = DIRECTION ( 'NONE',  ( 0.000000000000000000, 1.000000000000000000, 0.000000000000000000 ) ) ;
#679 = CARTESIAN_POINT ( 'NONE',  ( 5.250000000000000888, -2.500000000000000000, -4.400000000000001243 ) ) ;
#680 = VERTEX_POINT ( 'NONE', #283 ) ;
#681 = CARTESIAN_POINT ( 'NONE',  ( 5.250000000000000888, -18.00000000000000355, -4.400000000000001243 ) ) ;
#682 = ADVANCED_FACE ( 'NONE', ( #227 ), #367, .F. ) ;
#683 = ADVANCED_BREP_SHAPE_REPRESENTATION ( 'HousingBottom', ( #374, #341 ), #922 ) ;
#684 = LINE ( 'NONE', #982, #358 ) ;
#685 = ORIENTED_EDGE ( 'NONE', *, *, #829, .F. ) ;
#686 = CARTESIAN_POINT ( 'NONE',  ( 6.047665928147998748, -18.88630239515459763, 0.8988329640739562976 ) ) ;
#687 =( BOUNDED_CURVE ( )  B_SPLINE_CURVE ( 3, ( #134, #540, #299, #303 ),
 .UNSPECIFIED., .F., .T. ) 
 B_SPLINE_CURVE_WITH_KNOTS ( ( 4, 4 ),
 ( 1.570796326794896558, 3.141592653589793116 ),
 .UNSPECIFIED. ) 
 CURVE ( )  GEOMETRIC_REPRESENTATION_ITEM ( )  RATIONAL_B_SPLINE_CURVE ( ( 1.000000000000000000, 0.8047378541243649375, 0.8047378541243649375, 1.000000000000000000 ) ) 
 REPRESENTATION_ITEM ( '' )  );
#688 = VECTOR ( 'NONE', #923, 1000.000000000000000 ) ;
#689 = DIRECTION ( 'NONE',  ( 0.000000000000000000, 0.000000000000000000, 1.000000000000000000 ) ) ;
#690 = EDGE_CURVE ( 'NONE', #807, #910, #234, .T. ) ;
#691 = CARTESIAN_POINT ( 'NONE',  ( 5.250000000000000888, -2.999999999999999112, -5.400000000000001243 ) ) ;
#692 = ORIENTED_EDGE ( 'NONE', *, *, #143, .F. ) ;
#693 = CARTESIAN_POINT ( 'NONE',  ( 5.198926100948615847, -18.64443133430576083, 1.897852201897151314 ) ) ;
#694 =( NAMED_UNIT ( * ) SI_UNIT ( $, .STERADIAN. ) SOLID_ANGLE_UNIT ( ) );
#695 = LINE ( 'NONE', #369, #138 ) ;
#696 = EDGE_LOOP ( 'NONE', ( #370, #741, #941, #869 ) ) ;
#697 = CARTESIAN_POINT ( 'NONE',  ( 6.250000000000000888, -2.999999999999999112, 1.999999999999998668 ) ) ;
#698 = LINE ( 'NONE', #551, #942 ) ;
#699 = DIRECTION ( 'NONE',  ( 0.000000000000000000, 1.000000000000000000, 0.000000000000000000 ) ) ;
#700 = ADVANCED_FACE ( 'NONE', ( #436 ), #169, .T. ) ;
#701 = ORIENTED_EDGE ( 'NONE', *, *, #474, .F. ) ;
#702 = DIRECTION ( 'NONE',  ( 0.000000000000000000, 0.000000000000000000, -1.000000000000000000 ) ) ;
#703 = CARTESIAN_POINT ( 'NONE',  ( 6.250000000000000888, -18.00000000000000355, -4.400000000000001243 ) ) ;
#704 = PRESENTATION_LAYER_ASSIGNMENT (  '', '', ( #121 ) ) ;
#705 = CARTESIAN_POINT ( 'NONE',  ( 4.446336970049604709, -19.99990745014004645, -3.596336970049244908 ) ) ;
#706 = VERTEX_POINT ( 'NONE', #826 ) ;
#707 = LINE ( 'NONE', #306, #794 ) ;
#708 = CARTESIAN_POINT ( 'NONE',  ( -5.812546386749376737, -19.30395656095041446, 1.562546386749335436 ) ) ;
#709 = CARTESIAN_POINT ( 'NONE',  ( 4.250000000000000888, -20.00000000000000355, -3.400000000000001243 ) ) ;
#710 = ORIENTED_EDGE ( 'NONE', *, *, #114, .F. ) ;
#711 = DIRECTION ( 'NONE',  ( 0.000000000000000000, 1.000000000000000000, 0.000000000000000000 ) ) ;
#712 = CARTESIAN_POINT ( 'NONE',  ( -5.257237938993645443, -19.74757278571689767, 0.5036189694966917152 ) ) ;
#713 = ADVANCED_FACE ( 'NONE', ( #444, #141 ), #985, .F. ) ;
#714 = CARTESIAN_POINT ( 'NONE',  ( 6.060804154951803469, -18.90841389844905862, -5.210804154951834022 ) ) ;
#715 = ORIENTED_EDGE ( 'NONE', *, *, #889, .T. ) ;
#716 = CARTESIAN_POINT ( 'NONE',  ( -5.756773613300303793, -19.32165351144589138, 0.7533868066501431260 ) ) ;
#717 = ADVANCED_FACE ( 'NONE', ( #553 ), #633, .F. ) ;
#718 = CARTESIAN_POINT ( 'NONE',  ( 4.753618969496721469, -19.74757278571692609, -4.407237938993580961 ) ) ;
#719 = AXIS2_PLACEMENT_3D ( 'NONE', #906, #970, #153 ) ;
#720 = ORIENTED_EDGE ( 'NONE', *, *, #323, .T. ) ;
#721 = ORIENTED_EDGE ( 'NONE', *, *, #31, .T. ) ;
#722 = CARTESIAN_POINT ( 'NONE',  ( -5.045107630212505079, -19.21997956991502932, 1.590215260424983956 ) ) ;
#723 = DIRECTION ( 'NONE',  ( 0.000000000000000000, 0.000000000000000000, 1.000000000000000000 ) ) ;
#724 = ORIENTED_EDGE ( 'NONE', *, *, #102, .F. ) ;
#725 = CARTESIAN_POINT ( 'NONE',  ( -5.249999999999999112, -2.999999999999999112, 1.000000000000000000 ) ) ;
#726 = FACE_OUTER_BOUND ( 'NONE', #249, .T. ) ;
#727 = CARTESIAN_POINT ( 'NONE',  ( 6.250000000000000888, -18.00000000000000355, -1.301042606982605321E-15 ) ) ;
#728 = EDGE_CURVE ( 'NONE', #870, #955, #707, .T. ) ;
#729 = AXIS2_PLACEMENT_3D ( 'NONE', #139, #359, #674 ) ;
#730 = CARTESIAN_POINT ( 'NONE',  ( -5.421572875253808377, -20.00000000000000355, -3.985786437626904988 ) ) ;
#731 = CARTESIAN_POINT ( 'NONE',  ( -5.045107630212505079, -19.21997956991504708, -4.990215260424974986 ) ) ;
#732 = CIRCLE ( 'NONE', #170, 1.000000000000000000 ) ;
#733 = CARTESIAN_POINT ( 'NONE',  ( -4.249999999999999112, -20.00000000000000000, -2.081668171172168513E-16 ) ) ;
#734 = LINE ( 'NONE', #191, #373 ) ;
#735 = DIRECTION ( 'NONE',  ( 0.000000000000000000, 0.000000000000000000, -1.000000000000000000 ) ) ;
#736 = ORIENTED_EDGE ( 'NONE', *, *, #128, .T. ) ;
#737 = CARTESIAN_POINT ( 'NONE',  ( 5.250000000000000888, -18.00000000000000355, 1.999999999999998668 ) ) ;
#738 = CARTESIAN_POINT ( 'NONE',  ( -5.148832964073956298, -18.88630239515460829, -5.197665928147991110 ) ) ;
#739 = EDGE_CURVE ( 'NONE', #955, #267, #490, .T. ) ;
#740 = DIRECTION ( 'NONE',  ( 0.000000000000000000, 1.000000000000000000, 0.000000000000000000 ) ) ;
#741 = ORIENTED_EDGE ( 'NONE', *, *, #128, .F. ) ;
#742 = FACE_OUTER_BOUND ( 'NONE', #261, .T. ) ;
#743 = DIRECTION ( 'NONE',  ( 0.000000000000000000, 0.000000000000000000, 1.000000000000000000 ) ) ;
#744 = EDGE_CURVE ( 'NONE', #955, #680, #355, .T. ) ;
#745 = PLANE ( 'NONE',  #860 ) ;
#746 = AXIS2_PLACEMENT_3D ( 'NONE', #382, #931, #481 ) ;
#747 = ORIENTED_EDGE ( 'NONE', *, *, #529, .F. ) ;
#748 = CARTESIAN_POINT ( 'NONE',  ( 4.446336970049554971, -19.99990745014004645, 0.1963369700492357539 ) ) ;
#749 = CIRCLE ( 'NONE', #346, 0.5000000000000000000 ) ;
#750 = AXIS2_PLACEMENT_3D ( 'NONE', #918, #678, #211 ) ;
#751 = CARTESIAN_POINT ( 'NONE',  ( -4.249999999999999112, -20.00000000000000000, -2.081668171172168513E-16 ) ) ;
#752 = AXIS2_PLACEMENT_3D ( 'NONE', #679, #818, #131 ) ;
#753 = CARTESIAN_POINT ( 'NONE',  ( 22.30000000000000071, -2.500000000000000000, -18.05000000000000071 ) ) ;
#754 = ORIENTED_EDGE ( 'NONE', *, *, #775, .T. ) ;
#755 = CARTESIAN_POINT ( 'NONE',  ( 5.218016650735990858, -18.51856511640538727, 1.936033301471931978 ) ) ;
#756 = FILL_AREA_STYLE_COLOUR ( '', #904 ) ;
#757 = CARTESIAN_POINT ( 'NONE',  ( -6.249999999999999112, -18.00000000000000355, 0.9999999999999997780 ) ) ;
#758 = ORIENTED_EDGE ( 'NONE', *, *, #946, .F. ) ;
#759 = CARTESIAN_POINT ( 'NONE',  ( 5.901889555196413006, -19.18653773056819034, 1.651889555196394133 ) ) ;
#760 = PRODUCT ( 'HousingBottom', 'HousingBottom', '', ( #248 ) ) ;
#761 = DIRECTION ( 'NONE',  ( 0.000000000000000000, 0.000000000000000000, 1.000000000000000000 ) ) ;
#762 = EDGE_LOOP ( 'NONE', ( #724, #427, #360, #518 ) ) ;
#763 = CARTESIAN_POINT ( 'NONE',  ( 4.250000000000000888, -20.00000000000000355, -1.423507286897340469E-15 ) ) ;
#764 = DIRECTION ( 'NONE',  ( -1.668003342285391551E-16, -0.000000000000000000, -1.000000000000000000 ) ) ;
#765 = CARTESIAN_POINT ( 'NONE',  ( -6.249999999999998224, -2.999999999999999112, -4.400000000000000355 ) ) ;
#766 = ORIENTED_EDGE ( 'NONE', *, *, #664, .T. ) ;
#767 = CARTESIAN_POINT ( 'NONE',  ( 6.250000000000000888, -18.00000000000000000, 1.999999999999998446 ) ) ;
#768 = CARTESIAN_POINT ( 'NONE',  ( -22.30000000000000071, -2.500000000000000000, -18.05000000000000071 ) ) ;
#769 = EDGE_CURVE ( 'NONE', #614, #807, #920, .T. ) ;
#770 = DIRECTION ( 'NONE',  ( -1.172110456741085828E-16, 0.000000000000000000, 1.000000000000000000 ) ) ;
#771 = DIRECTION ( 'NONE',  ( 0.000000000000000000, 0.000000000000000000, 1.000000000000000000 ) ) ;
#772 = VERTEX_POINT ( 'NONE', #95 ) ;
#773 = CARTESIAN_POINT ( 'NONE',  ( -6.749999999999998224, -2.500000000000000000, -4.400000000000000355 ) ) ;
#774 = CARTESIAN_POINT ( 'NONE',  ( 4.250000000000000888, -20.00000000000000000, -3.400000000000001243 ) ) ;
#775 = EDGE_CURVE ( 'NONE', #386, #979, #857, .T. ) ;
#776 = ORIENTED_EDGE ( 'NONE', *, *, #347, .T. ) ;
#777 = PLANE ( 'NONE',  #750 ) ;
#778 = VECTOR ( 'NONE', #428, 1000.000000000000000 ) ;
#779 = CARTESIAN_POINT ( 'NONE',  ( 5.625436372909340399, -19.50077375515762057, -4.775436372909307892 ) ) ;
#780 = ORIENTED_EDGE ( 'NONE', *, *, #665, .T. ) ;
#781 = ADVANCED_FACE ( 'NONE', ( #311 ), #847, .T. ) ;
#782 = DIRECTION ( 'NONE',  ( -1.000000000000000000, 0.000000000000000000, 0.000000000000000000 ) ) ;
#783 = CARTESIAN_POINT ( 'NONE',  ( -5.249999999983649523, -18.13090116331780521, 2.000000000000000000 ) ) ;
#784 = CARTESIAN_POINT ( 'NONE',  ( 5.985663188785197875, -19.00230136216338295, -4.267831594392585082 ) ) ;
#785 = EDGE_LOOP ( 'NONE', ( #161, #747, #925, #721 ) ) ;
#786 = DIRECTION ( 'NONE',  ( 0.000000000000000000, 0.000000000000000000, 1.000000000000000000 ) ) ;
#787 = ADVANCED_FACE ( 'NONE', ( #157 ), #622, .T. ) ;
#788 = CARTESIAN_POINT ( 'NONE',  ( -5.249999999999999112, -18.00000000000000355, 2.000000000000000000 ) ) ;
#789 = CARTESIAN_POINT ( 'NONE',  ( 5.901889555196413006, -19.18653773056819034, -5.051889555196380499 ) ) ;
#790 = PRODUCT_DEFINITION ( 'UNKNOWN', '', #425, #76 ) ;
#791 = ORIENTED_EDGE ( 'NONE', *, *, #474, .T. ) ;
#792 = CARTESIAN_POINT ( 'NONE',  ( -6.060804154951833667, -18.90841389844905862, 1.810804154951785927 ) ) ;
#793 = LINE ( 'NONE', #314, #403 ) ;
#794 = VECTOR ( 'NONE', #477, 1000.000000000000000 ) ;
#795 = AXIS2_PLACEMENT_3D ( 'NONE', #913, #228, #771 ) ;
#796 = ORIENTED_EDGE ( 'NONE', *, *, #68, .F. ) ;
#797 = LINE ( 'NONE', #335, #507 ) ;
#798 = CARTESIAN_POINT ( 'NONE',  ( -6.249999999999998224, -18.00000000000000355, -4.400000000000000355 ) ) ;
#799 = ORIENTED_EDGE ( 'NONE', *, *, #602, .T. ) ;
#800 = CARTESIAN_POINT ( 'NONE',  ( 5.250000000000000000, -19.17157287525380838, -5.400000000000001243 ) ) ;
#801 = CARTESIAN_POINT ( 'NONE',  ( -5.479093460518609682, -19.59933366422758638, -4.014546730259358043 ) ) ;
#802 = VERTEX_POINT ( 'NONE', #773 ) ;
#803 = VECTOR ( 'NONE', #291, 1000.000000000000000 ) ;
#804 = FACE_OUTER_BOUND ( 'NONE', #88, .T. ) ;
#805 = CARTESIAN_POINT ( 'NONE',  ( -6.147852201897152646, -18.64443133430575728, -4.348926100948614426 ) ) ;
#806 = VECTOR ( 'NONE', #651, 1000.000000000000000 ) ;
#807 = VERTEX_POINT ( 'NONE', #168 ) ;
#808 =( BOUNDED_CURVE ( )  B_SPLINE_CURVE ( 3, ( #497, #42, #800, #344 ),
 .UNSPECIFIED., .F., .F. ) 
 B_SPLINE_CURVE_WITH_KNOTS ( ( 4, 4 ),
 ( 1.570796326794896780, 3.141592653589793116 ),
 .UNSPECIFIED. ) 
 CURVE ( )  GEOMETRIC_REPRESENTATION_ITEM ( )  RATIONAL_B_SPLINE_CURVE ( ( 1.000000000000000000, 0.8047378541243650485, 0.8047378541243650485, 1.000000000000000000 ) ) 
 REPRESENTATION_ITEM ( '' )  );
#809 = ADVANCED_FACE ( 'NONE', ( #14 ), #84, .T. ) ;
#810 = ORIENTED_EDGE ( 'NONE', *, *, #602, .F. ) ;
#811 = LINE ( 'NONE', #737, #778 ) ;
#812 = CARTESIAN_POINT ( 'NONE',  ( -4.249999999999998224, -20.00000000000000355, -3.400000000000000355 ) ) ;
#813 = CARTESIAN_POINT ( 'NONE',  ( -22.30000000000000071, -2.500000000000000000, -18.05000000000000071 ) ) ;
#814 = ORIENTED_EDGE ( 'NONE', *, *, #75, .T. ) ;
#815 = DIRECTION ( 'NONE',  ( -1.000000000000000000, 0.000000000000000000, 0.000000000000000000 ) ) ;
#816 = ADVANCED_FACE ( 'NONE', ( #7 ), #627, .T. ) ;
#817 = CARTESIAN_POINT ( 'NONE',  ( -5.625436372909335958, -19.50077375515762057, -4.775436372909338090 ) ) ;
#818 = DIRECTION ( 'NONE',  ( 0.000000000000000000, 1.000000000000000000, 0.000000000000000000 ) ) ;
#819 = ORIENTED_EDGE ( 'NONE', *, *, #958, .F. ) ;
#820 = CARTESIAN_POINT ( 'NONE',  ( 0.000000000000000000, -2.500000000000000000, 0.000000000000000000 ) ) ;
#821 =( BOUNDED_CURVE ( )  B_SPLINE_CURVE ( 3, ( #774, #853, #85, #703 ),
 .UNSPECIFIED., .F., .F. ) 
 B_SPLINE_CURVE_WITH_KNOTS ( ( 4, 4 ),
 ( 1.570796326794896558, 3.141592653589793116 ),
 .UNSPECIFIED. ) 
 CURVE ( )  GEOMETRIC_REPRESENTATION_ITEM ( )  RATIONAL_B_SPLINE_CURVE ( ( 1.000000000000000000, 0.8047378541243649375, 0.8047378541243649375, 1.000000000000000000 ) ) 
 REPRESENTATION_ITEM ( '' )  );
#822 = LINE ( 'NONE', #615, #591 ) ;
#823 = DIRECTION ( 'NONE',  ( 1.172110456741085828E-16, -0.000000000000000000, -1.000000000000000000 ) ) ;
#824 = CARTESIAN_POINT ( 'NONE',  ( 6.250000000000000888, -18.00000000000000355, -3.400000000000001243 ) ) ;
#825 = ORIENTED_EDGE ( 'NONE', *, *, #728, .F. ) ;
#826 = CARTESIAN_POINT ( 'NONE',  ( -22.29999999999999716, 0.000000000000000000, 2.750000000000000000 ) ) ;
#827 = VECTOR ( 'NONE', #137, 1000.000000000000000 ) ;
#828 = CARTESIAN_POINT ( 'NONE',  ( 6.750000000000000888, -3.000000000000000000, 0.9999999999999986677 ) ) ;
#829 = EDGE_CURVE ( 'NONE', #680, #205, #405, .T. ) ;
#830 = CARTESIAN_POINT ( 'NONE',  ( 4.835786437626905965, -20.00000000000000355, 1.171572875253809043 ) ) ;
#831 = EDGE_LOOP ( 'NONE', ( #631, #404, #270, #915 ) ) ;
#832 = CARTESIAN_POINT ( 'NONE',  ( 6.249999999246433902, -18.19659951090272898, 1.999999999246402371 ) ) ;
#833 = DIRECTION ( 'NONE',  ( -1.000000000000000000, 0.000000000000000000, 0.000000000000000000 ) ) ;
#834 = DIRECTION ( 'NONE',  ( 0.000000000000000000, 0.000000000000000000, 1.000000000000000000 ) ) ;
#835 = EDGE_LOOP ( 'NONE', ( #458, #183, #810, #538 ) ) ;
#836 = DIRECTION ( 'NONE',  ( 1.000000000000000000, 0.000000000000000000, 1.172110456741084595E-16 ) ) ;
#837 = DIRECTION ( 'NONE',  ( -1.000000000000000000, 0.000000000000000000, 0.000000000000000000 ) ) ;
#838 = VECTOR ( 'NONE', #641, 1000.000000000000000 ) ;
#839 = DIRECTION ( 'NONE',  ( -0.000000000000000000, -1.000000000000000000, -0.000000000000000000 ) ) ;
#840 = ORIENTED_EDGE ( 'NONE', *, *, #75, .F. ) ;
#841 = CARTESIAN_POINT ( 'NONE',  ( 6.250000000000000888, -18.00000000000000355, 0.9999999999999985567 ) ) ;
#842 = EDGE_CURVE ( 'NONE', #214, #533, #475, .T. ) ;
#843 = TOROIDAL_SURFACE ( 'NONE', #23, 1.500000000000000000, 0.5000000000000000000 ) ;
#844 = LINE ( 'NONE', #438, #688 ) ;
#845 = CARTESIAN_POINT ( 'NONE',  ( -5.249999999999998224, -2.500000000000000000, -4.400000000000000355 ) ) ;
#846 = ORIENTED_EDGE ( 'NONE', *, *, #338, .F. ) ;
#847 = CYLINDRICAL_SURFACE ( 'NONE', #185, 2.000000000000000000 ) ;
#848 = CARTESIAN_POINT ( 'NONE',  ( -5.985663188785204980, -19.00230136216336874, 0.8678315943925831721 ) ) ;
#849 = ADVANCED_FACE ( 'NONE', ( #470 ), #777, .F. ) ;
#850 = CARTESIAN_POINT ( 'NONE',  ( -6.249999999999999112, -20.00000000000000000, 0.9999999999999997780 ) ) ;
#851 = ORIENTED_EDGE ( 'NONE', *, *, #611, .F. ) ;
#852 = DIRECTION ( 'NONE',  ( 4.336808689942021680E-16, 0.000000000000000000, -1.000000000000000000 ) ) ;
#853 = CARTESIAN_POINT ( 'NONE',  ( 5.421572875253811929, -20.00000000000000355, -3.985786437626906320 ) ) ;
#854 = CARTESIAN_POINT ( 'NONE',  ( 6.249999999246433902, -18.19659951090272187, -5.399999999246434257 ) ) ;
#855 = EDGE_CURVE ( 'NONE', #910, #572, #536, .T. ) ;
#856 = ORIENTED_EDGE ( 'NONE', *, *, #102, .T. ) ;
#857 = LINE ( 'NONE', #549, #921 ) ;
#858 = CARTESIAN_POINT ( 'NONE',  ( -5.840215260424974630, -19.21997956991504708, 0.7951076302125055228 ) ) ;
#859 = CARTESIAN_POINT ( 'NONE',  ( 4.250000000000000888, -20.00000000000000355, -3.400000000000001243 ) ) ;
#860 = AXIS2_PLACEMENT_3D ( 'NONE', #56, #154, #770 ) ;
#861 = EDGE_LOOP ( 'NONE', ( #885, #491, #63, #636 ) ) ;
#862 = DIRECTION ( 'NONE',  ( 1.172110456741085828E-16, -0.000000000000000000, -1.000000000000000000 ) ) ;
#863 = CARTESIAN_POINT ( 'NONE',  ( -5.479093460518679848, -19.59933366422751533, 0.6145467302593570214 ) ) ;
#864 = DIRECTION ( 'NONE',  ( 0.000000000000000000, 1.000000000000000000, 0.000000000000000000 ) ) ;
#865 = CYLINDRICAL_SURFACE ( 'NONE', #213, 2.000000000000000000 ) ;
#866 = DIRECTION ( 'NONE',  ( -1.000000000000000000, 0.000000000000000000, 0.000000000000000000 ) ) ;
#867 = CYLINDRICAL_SURFACE ( 'NONE', #272, 0.5000000000000000000 ) ;
#868 = CARTESIAN_POINT ( 'NONE',  ( 0.000000000000000000, 0.000000000000000000, 0.000000000000000000 ) ) ;
#869 = ORIENTED_EDGE ( 'NONE', *, *, #744, .F. ) ;
#870 = VERTEX_POINT ( 'NONE', #147 ) ;
#871 = DIRECTION ( 'NONE',  ( 0.000000000000000000, 1.000000000000000000, 0.000000000000000000 ) ) ;
#872 = ADVANCED_FACE ( 'NONE', ( #541 ), #232, .T. ) ;
#873 = CARTESIAN_POINT ( 'NONE',  ( 5.241276407119267233, -19.77802397096312603, -4.391276407119334202 ) ) ;
#874 = TOROIDAL_SURFACE ( 'NONE', #218, 1.500000000000000000, 0.5000000000000000000 ) ;
#875 = CIRCLE ( 'NONE', #391, 1.000000000000000000 ) ;
#876 = ORIENTED_EDGE ( 'NONE', *, *, #829, .T. ) ;
#877 = VERTEX_POINT ( 'NONE', #757 ) ;
#878 = CARTESIAN_POINT ( 'NONE',  ( -5.249999999999997335, -19.17157287525380838, -5.400000000000000355 ) ) ;
#879 = EDGE_CURVE ( 'NONE', #503, #654, #684, .T. ) ;
#880 = CARTESIAN_POINT ( 'NONE',  ( -4.773495790466777855, -19.94794534432822886, -3.661747895233459449 ) ) ;
#881 = DIRECTION ( 'NONE',  ( 0.000000000000000000, 0.000000000000000000, 1.000000000000000000 ) ) ;
#882 = CARTESIAN_POINT ( 'NONE',  ( -4.249999999999998224, -20.00000000000000000, -3.400000000000000355 ) ) ;
#883 = CYLINDRICAL_SURFACE ( 'NONE', #193, 2.000000000000000000 ) ;
#884 = CARTESIAN_POINT ( 'NONE',  ( -5.250000000000000000, -19.17157287525381193, 1.999999999999999556 ) ) ;
#885 = ORIENTED_EDGE ( 'NONE', *, *, #453, .T. ) ;
#886 = CARTESIAN_POINT ( 'NONE',  ( -4.835786437626902412, -20.00000000000000711, -4.571572875253810508 ) ) ;
#887 = DIRECTION ( 'NONE',  ( 1.000000000000000000, 0.000000000000000000, 0.000000000000000000 ) ) ;
#888 = DIRECTION ( 'NONE',  ( 1.000000000000000000, 0.000000000000000000, -6.938893903907228378E-17 ) ) ;
#889 = EDGE_CURVE ( 'NONE', #533, #893, #522, .T. ) ;
#890 = ORIENTED_EDGE ( 'NONE', *, *, #379, .T. ) ;
#891 = CARTESIAN_POINT ( 'NONE',  ( -6.047665928147989867, -18.88630239515460829, -4.298832964073957541 ) ) ;
#892 = CYLINDRICAL_SURFACE ( 'NONE', #729, 1.000000000000000000 ) ;
#893 = VERTEX_POINT ( 'NONE', #765 ) ;
#894 = CARTESIAN_POINT ( 'NONE',  ( 4.864546730259428742, -19.59933366422756862, 1.229093460518625669 ) ) ;
#895 = CARTESIAN_POINT ( 'NONE',  ( -5.249999999999998224, -18.00000000000000355, -5.400000000000000355 ) ) ;
#896 = DIRECTION ( 'NONE',  ( -1.000000000000000000, 0.000000000000000000, 6.938893903907228378E-17 ) ) ;
#897 = DIRECTION ( 'NONE',  ( 0.000000000000000000, 1.000000000000000000, 0.000000000000000000 ) ) ;
#898 = EDGE_LOOP ( 'NONE', ( #607, #819, #846, #840 ) ) ;
#899 = DIRECTION ( 'NONE',  ( 0.000000000000000000, 1.000000000000000000, 0.000000000000000000 ) ) ;
#900 = VECTOR ( 'NONE', #276, 1000.000000000000000 ) ;
#901 = DIRECTION ( 'NONE',  ( 0.000000000000000000, 0.000000000000000000, -1.000000000000000000 ) ) ;
#902 = DIRECTION ( 'NONE',  ( 0.000000000000000000, 1.000000000000000000, 0.000000000000000000 ) ) ;
#903 = DIRECTION ( 'NONE',  ( 0.000000000000000000, 0.000000000000000000, 1.000000000000000000 ) ) ;
#904 = COLOUR_RGB ( '',0.7921568627450980005, 0.8196078431372548767, 0.9333333333333333481 ) ;
#905 = ORIENTED_EDGE ( 'NONE', *, *, #204, .F. ) ;
#906 = CARTESIAN_POINT ( 'NONE',  ( 5.250000000000000888, -2.500000000000000000, 0.9999999999999986677 ) ) ;
#907 = VECTOR ( 'NONE', #823, 1000.000000000000000 ) ;
#908 = DIRECTION ( 'NONE',  ( 0.000000000000000000, 0.000000000000000000, 1.000000000000000000 ) ) ;
#909 = DIRECTION ( 'NONE',  ( 0.000000000000000000, 0.000000000000000000, 1.000000000000000000 ) ) ;
#910 = VERTEX_POINT ( 'NONE', #77 ) ;
#911 = CARTESIAN_POINT ( 'NONE',  ( 5.045107630212506855, -19.21997956991503642, 1.590215260424978183 ) ) ;
#912 = DIRECTION ( 'NONE',  ( 0.000000000000000000, 0.000000000000000000, -1.000000000000000000 ) ) ;
#913 = CARTESIAN_POINT ( 'NONE',  ( -5.249999999999999112, -2.500000000000000000, 1.000000000000000000 ) ) ;
#914 = EDGE_CURVE ( 'NONE', #893, #870, #875, .T. ) ;
#915 = ORIENTED_EDGE ( 'NONE', *, *, #665, .F. ) ;
#916 = CARTESIAN_POINT ( 'NONE',  ( 5.003386806650111041, -19.32165351144586651, 1.506773613300328662 ) ) ;
#917 = CARTESIAN_POINT ( 'NONE',  ( -5.249999999999998224, -2.500000000000000000, 2.500000000000000000 ) ) ;
#918 = CARTESIAN_POINT ( 'NONE',  ( 0.000000000000000000, -20.00000000000000000, 0.000000000000000000 ) ) ;
#919 = ORIENTED_EDGE ( 'NONE', *, *, #453, .F. ) ;
#920 = LINE ( 'NONE', #558, #473 ) ;
#921 = VECTOR ( 'NONE', #862, 1000.000000000000000 ) ;
#922 =( GEOMETRIC_REPRESENTATION_CONTEXT ( 3 ) GLOBAL_UNCERTAINTY_ASSIGNED_CONTEXT ( ( #467 ) ) GLOBAL_UNIT_ASSIGNED_CONTEXT ( ( #296, #290, #446 ) ) REPRESENTATION_CONTEXT ( 'NONE', 'WORKASPACE' ) );
#923 = DIRECTION ( 'NONE',  ( -1.000000000000000000, -0.000000000000000000, 1.040834085586084257E-16 ) ) ;
#924 = DIRECTION ( 'NONE',  ( 0.000000000000000000, 1.000000000000000000, 0.000000000000000000 ) ) ;
#925 = ORIENTED_EDGE ( 'NONE', *, *, #973, .T. ) ;
#926 = DIRECTION ( 'NONE',  ( -0.000000000000000000, -0.000000000000000000, 1.000000000000000000 ) ) ;
#927 = CARTESIAN_POINT ( 'NONE',  ( -5.198926100948614071, -18.64443133430576438, 1.897852201897151092 ) ) ;
#928 = ADVANCED_FACE ( 'NONE', ( #70 ), #604, .T. ) ;
#929 = CARTESIAN_POINT ( 'NONE',  ( -6.749999999999999112, -2.500000000000000000, 0.9999999999999995559 ) ) ;
#930 = ORIENTED_EDGE ( 'NONE', *, *, #542, .T. ) ;
#931 = DIRECTION ( 'NONE',  ( -0.000000000000000000, -1.000000000000000000, -0.000000000000000000 ) ) ;
#932 = CARTESIAN_POINT ( 'NONE',  ( -4.249999999999999112, -20.00000000000000355, -4.691508659610070028E-16 ) ) ;
#933 = EDGE_CURVE ( 'NONE', #3, #802, #91, .T. ) ;
#934 = CARTESIAN_POINT ( 'NONE',  ( 4.773495790466714794, -19.94794534432825373, -3.661747895233498973 ) ) ;
#935 = ORIENTED_EDGE ( 'NONE', *, *, #542, .F. ) ;
#936 = DIRECTION ( 'NONE',  ( 1.172110456741085828E-16, 0.000000000000000000, -1.000000000000000000 ) ) ;
#937 = CARTESIAN_POINT ( 'NONE',  ( -4.511846573181896858, -20.00000000000000355, 0.1309232865908528387 ) ) ;
#938 = AXIS2_PLACEMENT_3D ( 'NONE', #354, #258, #575 ) ;
#939 = CARTESIAN_POINT ( 'NONE',  ( 4.380923286591046129, -20.00000000000000355, -3.661846573181770204 ) ) ;
#940 = APPLICATION_PROTOCOL_DEFINITION ( 'draft international standard', 'automotive_design', 1998, #606 ) ;
#941 = ORIENTED_EDGE ( 'NONE', *, *, #640, .F. ) ;
#942 = VECTOR ( 'NONE', #364, 1000.000000000000000 ) ;
#943 = CARTESIAN_POINT ( 'NONE',  ( -5.241276407119401348, -19.77802397096312959, 0.9912764071192665671 ) ) ;
#944 = CARTESIAN_POINT ( 'NONE',  ( 6.186033301471936419, -18.51856511640538372, -4.368016650735991213 ) ) ;
#945 = EDGE_LOOP ( 'NONE', ( #72, #331, #919, #310 ) ) ;
#946 = EDGE_CURVE ( 'NONE', #243, #877, #225, .T. ) ;
#947 = ORIENTED_EDGE ( 'NONE', *, *, #855, .T. ) ;
#948 = LINE ( 'NONE', #506, #71 ) ;
#949 = CARTESIAN_POINT ( 'NONE',  ( 5.812546386749345650, -19.30395656095041446, -4.962546386749377092 ) ) ;
#950 = ORIENTED_EDGE ( 'NONE', *, *, #118, .T. ) ;
#951 = EDGE_CURVE ( 'NONE', #960, #144, #695, .T. ) ;
#952 = CARTESIAN_POINT ( 'NONE',  ( -4.093947403305264743E-16, -2.500000000000000000, -5.899999999999999467 ) ) ;
#953 = AXIS2_PLACEMENT_3D ( 'NONE', #465, #393, #89 ) ;
#954 = AXIS2_PLACEMENT_3D ( 'NONE', #456, #2, #987 ) ;
#955 = VERTEX_POINT ( 'NONE', #691 ) ;
#956 = CARTESIAN_POINT ( 'NONE',  ( 6.250000000000000888, -18.00000000000000355, 0.9999999999999986677 ) ) ;
#957 = CARTESIAN_POINT ( 'NONE',  ( -5.812546386749342098, -19.30395656095041446, -4.962546386749344229 ) ) ;
#958 = EDGE_CURVE ( 'NONE', #144, #772, #463, .T. ) ;
#959 = CIRCLE ( 'NONE', #312, 0.5000000000000000000 ) ;
#960 = VERTEX_POINT ( 'NONE', #304 ) ;
#961 = LINE ( 'NONE', #206, #340 ) ;
#962 = CARTESIAN_POINT ( 'NONE',  ( -5.840215260424973742, -19.21997956991504708, -4.195107630212506322 ) ) ;
#963 = EDGE_CURVE ( 'NONE', #214, #376, #439, .T. ) ;
#964 = LINE ( 'NONE', #523, #501 ) ;
#965 = DIRECTION ( 'NONE',  ( -1.000000000000000000, 0.000000000000000000, 0.000000000000000000 ) ) ;
#966 = DIRECTION ( 'NONE',  ( 1.000000000000000000, 0.000000000000000000, 0.000000000000000000 ) ) ;
#967 = VECTOR ( 'NONE', #629, 1000.000000000000000 ) ;
#968 = CARTESIAN_POINT ( 'NONE',  ( 5.250000000000000888, -19.17157287525381193, 1.999999999999998668 ) ) ;
#969 = ORIENTED_EDGE ( 'NONE', *, *, #769, .T. ) ;
#970 = DIRECTION ( 'NONE',  ( 0.000000000000000000, 1.000000000000000000, 0.000000000000000000 ) ) ;
#971 = CARTESIAN_POINT ( 'NONE',  ( -5.198926100948612294, -18.64443133430575728, -5.297852201897153890 ) ) ;
#972 = CARTESIAN_POINT ( 'NONE',  ( 6.250000000000000888, -20.00000000000000000, -4.400000000000001243 ) ) ;
#973 = EDGE_CURVE ( 'NONE', #654, #626, #450, .T. ) ;
#974 = ORIENTED_EDGE ( 'NONE', *, *, #521, .F. ) ;
#975 = CARTESIAN_POINT ( 'NONE',  ( 5.625436372909340399, -19.50077375515762057, 1.375436372909319971 ) ) ;
#976 = CARTESIAN_POINT ( 'NONE',  ( 5.250000000000000888, -18.00000000000000355, 0.9999999999999986677 ) ) ;
#977 = CARTESIAN_POINT ( 'NONE',  ( 5.250000000000000888, -2.999999999999999112, 0.9999999999999986677 ) ) ;
#978 = CARTESIAN_POINT ( 'NONE',  ( 6.750000000000000888, -2.500000000000000000, -4.400000000000001243 ) ) ;
#979 = VERTEX_POINT ( 'NONE', #441 ) ;
#980 = CARTESIAN_POINT ( 'NONE',  ( 4.250000000000000888, -20.00000000000000355, -1.258191538381364469E-15 ) ) ;
#981 = DIRECTION ( 'NONE',  ( 0.000000000000000000, 1.000000000000000000, 0.000000000000000000 ) ) ;
#982 = CARTESIAN_POINT ( 'NONE',  ( -22.29999999999999716, -2.500000000000000000, 2.750000000000000000 ) ) ;
#983 = MECHANICAL_DESIGN_GEOMETRIC_PRESENTATION_REPRESENTATION (  '', ( #121 ), #577 ) ;
#984 = ORIENTED_EDGE ( 'NONE', *, *, #842, .T. ) ;
#985 = PLANE ( 'NONE',  #233 ) ;
#986 = EDGE_CURVE ( 'NONE', #205, #144, #186, .T. ) ;
#987 = DIRECTION ( 'NONE',  ( 0.000000000000000000, -0.000000000000000000, 1.000000000000000000 ) ) ;
#988 = VERTEX_POINT ( 'NONE', #82 ) ;
#989 = DIRECTION ( 'NONE',  ( -1.172110456741085828E-16, 0.000000000000000000, 1.000000000000000000 ) ) ;
ENDSEC;
END-ISO-10303-21;
