ISO-10303-21;
HEADER;
FILE_DESCRIPTION (( 'STEP AP214' ),
    '1' );
FILE_NAME ('HousingBottom.STEP',
    '2026-08-09T04:34:16',
    ( '' ),
    ( '' ),
    'SwSTEP 2.0',
    'SolidWorks 2026',
    '' );
FILE_SCHEMA (( 'AUTOMOTIVE_DESIGN' ));
ENDSEC;

DATA;
#1 = CARTESIAN_POINT ( 'NONE',  ( -22.29999999999999716, 0.000000000000000000, 2.750000000000000000 ) ) ;
#2 = VERTEX_POINT ( 'NONE', #529 ) ;
#3 = PRODUCT_DEFINITION_FORMATION_WITH_SPECIFIED_SOURCE ( 'ANY', '', #238, .NOT_KNOWN. ) ;
#4 = DIRECTION ( 'NONE',  ( 1.000000000000000000, -0.000000000000000000, -1.365923996832131609E-16 ) ) ;
#5 = PRODUCT_RELATED_PRODUCT_CATEGORY ( 'part', '', ( #238 ) ) ;
#6 = LINE ( 'NONE', #460, #102 ) ;
#7 = CARTESIAN_POINT ( 'NONE',  ( 3.414809992080327544E-16, -3.000000000000000000, 2.499999999999999112 ) ) ;
#8 = CARTESIAN_POINT ( 'NONE',  ( 6.349999999999999645, -2.707106781186547018, -5.620000000000002771 ) ) ;
#9 = EDGE_CURVE ( 'NONE', #431, #117, #50, .T. ) ;
#10 = ORIENTED_EDGE ( 'NONE', *, *, #457, .F. ) ;
#11 = SURFACE_STYLE_USAGE ( .BOTH. , #351 ) ;
#12 = CYLINDRICAL_SURFACE ( 'NONE', #110, 2.000000000000000000 ) ;
#13 = AXIS2_PLACEMENT_3D ( 'NONE', #223, #500, #387 ) ;
#14 = CARTESIAN_POINT ( 'NONE',  ( 6.350000000000000533, -20.00000000000000000, 1.999999999999998224 ) ) ;
#15 = DIRECTION ( 'NONE',  ( 1.000000000000000000, 0.000000000000000000, -1.365923996832131609E-16 ) ) ;
#16 = LINE ( 'NONE', #38, #507 ) ;
#17 = CARTESIAN_POINT ( 'NONE',  ( 6.350000000000000533, -18.00000000000000355, 1.999999999999998224 ) ) ;
#18 = EDGE_CURVE ( 'NONE', #258, #523, #253, .T. ) ;
#19 = EDGE_LOOP ( 'NONE', ( #282, #105, #201, #234 ) ) ;
#20 = SURFACE_STYLE_FILL_AREA ( #498 ) ;
#21 = EDGE_CURVE ( 'NONE', #456, #68, #44, .T. ) ;
#22 =( BOUNDED_CURVE ( )  B_SPLINE_CURVE ( 3, ( #271, #220, #310, #270 ),
 .UNSPECIFIED., .F., .F. ) 
 B_SPLINE_CURVE_WITH_KNOTS ( ( 4, 4 ),
 ( 4.712388980384689674, 6.283185307179586232 ),
 .UNSPECIFIED. ) 
 CURVE ( )  GEOMETRIC_REPRESENTATION_ITEM ( )  RATIONAL_B_SPLINE_CURVE ( ( 1.000000000000000000, 0.8047378541243649375, 0.8047378541243649375, 1.000000000000000000 ) ) 
 REPRESENTATION_ITEM ( '' )  );
#23 = ORIENTED_EDGE ( 'NONE', *, *, #374, .T. ) ;
#24 = CARTESIAN_POINT ( 'NONE',  ( 4.350000000000000533, -18.00000000000000355, 1.999999999999998224 ) ) ;
#25 =( NAMED_UNIT ( * ) SI_UNIT ( $, .STERADIAN. ) SOLID_ANGLE_UNIT ( ) );
#26 = ORIENTED_EDGE ( 'NONE', *, *, #359, .F. ) ;
#27 = PRODUCT_DEFINITION_SHAPE ( 'NONE', 'NONE',  #106 ) ;
#28 = DIRECTION ( 'NONE',  ( -1.000000000000000000, -0.000000000000000000, 1.365923996832131609E-16 ) ) ;
#29 =( BOUNDED_CURVE ( )  B_SPLINE_CURVE ( 3, ( #136, #60, #269, #426 ),
 .UNSPECIFIED., .F., .F. ) 
 B_SPLINE_CURVE_WITH_KNOTS ( ( 4, 4 ),
 ( 1.734723475976807883E-15, 1.570796326794896558 ),
 .UNSPECIFIED. ) 
 CURVE ( )  GEOMETRIC_REPRESENTATION_ITEM ( )  RATIONAL_B_SPLINE_CURVE ( ( 1.000000000000000000, 0.8047378541243654926, 0.8047378541243654926, 1.000000000000000000 ) ) 
 REPRESENTATION_ITEM ( '' )  );
#30 = VERTEX_POINT ( 'NONE', #378 ) ;
#31 = EDGE_CURVE ( 'NONE', #86, #146, #375, .T. ) ;
#32 = DIRECTION ( 'NONE',  ( 1.000000000000000000, 0.000000000000000000, 0.000000000000000000 ) ) ;
#33 = DIRECTION ( 'NONE',  ( -1.000000000000000000, 0.000000000000000000, -2.168404344971008868E-16 ) ) ;
#34 = CARTESIAN_POINT ( 'NONE',  ( 22.30000000000000426, -2.500000000000000000, 2.750000000000000000 ) ) ;
#35 = ORIENTED_EDGE ( 'NONE', *, *, #228, .F. ) ;
#36 = LINE ( 'NONE', #203, #37 ) ;
#37 = VECTOR ( 'NONE', #276, 1000.000000000000000 ) ;
#38 = CARTESIAN_POINT ( 'NONE',  ( -22.30000000000000071, -2.500000000000000000, -16.05000000000000071 ) ) ;
#39 = DIRECTION ( 'NONE',  ( -1.138269997360109674E-16, 0.000000000000000000, 1.000000000000000000 ) ) ;
#40 = EDGE_LOOP ( 'NONE', ( #35, #295, #23, #364 ) ) ;
#41 = LINE ( 'NONE', #512, #415 ) ;
#42 = DIRECTION ( 'NONE',  ( 0.000000000000000000, 1.000000000000000000, 0.000000000000000000 ) ) ;
#43 = EDGE_CURVE ( 'NONE', #237, #292, #340, .T. ) ;
#44 = LINE ( 'NONE', #487, #249 ) ;
#45 = ORIENTED_EDGE ( 'NONE', *, *, #172, .T. ) ;
#46 = CARTESIAN_POINT ( 'NONE',  ( 4.350000000000000533, -20.00000000000000000, 1.999999999999998224 ) ) ;
#47 = VECTOR ( 'NONE', #164, 1000.000000000000000 ) ;
#48 = VECTOR ( 'NONE', #491, 1000.000000000000000 ) ;
#49 = PRODUCT_DEFINITION_CONTEXT ( 'detailed design', #524, 'design' ) ;
#50 = LINE ( 'NONE', #120, #168 ) ;
#51 = ORIENTED_EDGE ( 'NONE', *, *, #21, .F. ) ;
#52 = LINE ( 'NONE', #343, #54 ) ;
#53 = CARTESIAN_POINT ( 'NONE',  ( 6.350000000000000533, -18.00000000000000355, -5.620000000000001883 ) ) ;
#54 = VECTOR ( 'NONE', #490, 1000.000000000000000 ) ;
#55 = CARTESIAN_POINT ( 'NONE',  ( -4.349999999999998757, -20.00000000000000000, -2.731847993664263218E-16 ) ) ;
#56 = DIRECTION ( 'NONE',  ( -1.365923996832131116E-16, 0.000000000000000000, -1.000000000000000000 ) ) ;
#57 = EDGE_CURVE ( 'NONE', #495, #2, #184, .T. ) ;
#58 = ORIENTED_EDGE ( 'NONE', *, *, #116, .F. ) ;
#59 = CARTESIAN_POINT ( 'NONE',  ( 6.350000000000000533, -20.00000000000000000, 1.999999999999998224 ) ) ;
#60 = CARTESIAN_POINT ( 'NONE',  ( 6.349999999999999645, -2.707106781186547018, 1.999999999999998668 ) ) ;
#61 = LINE ( 'NONE', #493, #88 ) ;
#62 = CARTESIAN_POINT ( 'NONE',  ( -22.29999999999999716, 0.000000000000000000, 2.750000000000000000 ) ) ;
#63 = AXIS2_PLACEMENT_3D ( 'NONE', #14, #502, #185 ) ;
#64 = FACE_OUTER_BOUND ( 'NONE', #277, .T. ) ;
#65 = DIRECTION ( 'NONE',  ( -1.845450506358305325E-16, 0.000000000000000000, -1.000000000000000000 ) ) ;
#66 = ORIENTED_EDGE ( 'NONE', *, *, #116, .T. ) ;
#67 = EDGE_CURVE ( 'NONE', #2, #523, #497, .T. ) ;
#68 = VERTEX_POINT ( 'NONE', #55 ) ;
#69 = CARTESIAN_POINT ( 'NONE',  ( 6.350000000000000533, -20.00000000000000000, -3.620000000000001883 ) ) ;
#70 = FACE_OUTER_BOUND ( 'NONE', #148, .T. ) ;
#71 = ORIENTED_EDGE ( 'NONE', *, *, #314, .F. ) ;
#72 = AXIS2_PLACEMENT_3D ( 'NONE', #264, #393, #356 ) ;
#73 = CARTESIAN_POINT ( 'NONE',  ( -6.849999999999998757, -3.000000000000000000, -7.797149481916749174E-16 ) ) ;
#74 = EDGE_CURVE ( 'NONE', #117, #350, #336, .T. ) ;
#75 = CARTESIAN_POINT ( 'NONE',  ( 22.30000000000000071, -2.500000000000000000, -16.05000000000000071 ) ) ;
#76 = ORIENTED_EDGE ( 'NONE', *, *, #18, .T. ) ;
#77 = CARTESIAN_POINT ( 'NONE',  ( -22.29999999999999716, -2.500000000000000000, 2.750000000000000000 ) ) ;
#78 =( NAMED_UNIT ( * ) PLANE_ANGLE_UNIT ( ) SI_UNIT ( $, .RADIAN. ) );
#79 = ORIENTED_EDGE ( 'NONE', *, *, #421, .T. ) ;
#80 = DIRECTION ( 'NONE',  ( 0.000000000000000000, 1.000000000000000000, 0.000000000000000000 ) ) ;
#81 = CARTESIAN_POINT ( 'NONE',  ( 0.000000000000000000, -20.00000000000000000, 0.000000000000000000 ) ) ;
#82 = ORIENTED_EDGE ( 'NONE', *, *, #254, .T. ) ;
#83 = LINE ( 'NONE', #239, #438 ) ;
#84 = EDGE_CURVE ( 'NONE', #523, #167, #217, .T. ) ;
#85 = DIRECTION ( 'NONE',  ( 0.000000000000000000, 1.000000000000000000, 0.000000000000000000 ) ) ;
#86 = VERTEX_POINT ( 'NONE', #62 ) ;
#87 = ORIENTED_EDGE ( 'NONE', *, *, #510, .F. ) ;
#88 = VECTOR ( 'NONE', #304, 1000.000000000000000 ) ;
#89 = VERTEX_POINT ( 'NONE', #302 ) ;
#90 = CARTESIAN_POINT ( 'NONE',  ( -8.359454860612647618E-16, -2.500000000000000000, -6.120000000000000995 ) ) ;
#91 = DIRECTION ( 'NONE',  ( -1.000000000000000000, 0.000000000000000000, 1.365923996832131609E-16 ) ) ;
#92 = CARTESIAN_POINT ( 'NONE',  ( 3.414809992080327544E-16, -2.500000000000000000, 2.499999999999999112 ) ) ;
#93 = CARTESIAN_POINT ( 'NONE',  ( 6.850000000000000533, -2.500000000000000000, -6.120000000000001883 ) ) ;
#94 = ADVANCED_FACE ( 'NONE', ( #231 ), #385, .T. ) ;
#95 = CARTESIAN_POINT ( 'NONE',  ( 6.850000000000000533, -3.000000000000000000, 0.000000000000000000 ) ) ;
#96 =( BOUNDED_CURVE ( )  B_SPLINE_CURVE ( 3, ( #407, #522, #165, #417 ),
 .UNSPECIFIED., .F., .F. ) 
 B_SPLINE_CURVE_WITH_KNOTS ( ( 4, 4 ),
 ( 4.712388980384689674, 6.283185307179586232 ),
 .UNSPECIFIED. ) 
 CURVE ( )  GEOMETRIC_REPRESENTATION_ITEM ( )  RATIONAL_B_SPLINE_CURVE ( ( 1.000000000000000000, 0.8047378541243649375, 0.8047378541243649375, 1.000000000000000000 ) ) 
 REPRESENTATION_ITEM ( '' )  );
#97 = CARTESIAN_POINT ( 'NONE',  ( -6.349999999999998757, -2.999999999999999112, 2.000000000000000000 ) ) ;
#98 = ORIENTED_EDGE ( 'NONE', *, *, #457, .T. ) ;
#99 = CARTESIAN_POINT ( 'NONE',  ( 5.521572875253808910, -20.00000000000000355, 1.171572875253807933 ) ) ;
#100 = DIRECTION ( 'NONE',  ( 1.845450506358305325E-16, 0.000000000000000000, 1.000000000000000000 ) ) ;
#101 = PLANE ( 'NONE',  #450 ) ;
#102 = VECTOR ( 'NONE', #173, 1000.000000000000000 ) ;
#103 = ORIENTED_EDGE ( 'NONE', *, *, #348, .T. ) ;
#104 = DIRECTION ( 'NONE',  ( -1.000000000000000000, 0.000000000000000000, 1.365923996832131609E-16 ) ) ;
#105 = ORIENTED_EDGE ( 'NONE', *, *, #163, .F. ) ;
#106 = PRODUCT_DEFINITION ( 'UNKNOWN', '', #3, #49 ) ;
#107 = PLANE ( 'NONE',  #202 ) ;
#108 = ADVANCED_FACE ( 'NONE', ( #463 ), #132, .T. ) ;
#109 = ORIENTED_EDGE ( 'NONE', *, *, #84, .T. ) ;
#110 = AXIS2_PLACEMENT_3D ( 'NONE', #458, #91, #180 ) ;
#111 = DIRECTION ( 'NONE',  ( -1.000000000000000000, 0.000000000000000000, -0.000000000000000000 ) ) ;
#112 = ORIENTED_EDGE ( 'NONE', *, *, #275, .F. ) ;
#113 = CARTESIAN_POINT ( 'NONE',  ( 6.850000000000000533, -2.500000000000000000, 2.499999999999998224 ) ) ;
#114 = APPLICATION_PROTOCOL_DEFINITION ( 'draft international standard', 'automotive_design', 1998, #524 ) ;
#115 = CARTESIAN_POINT ( 'NONE',  ( 22.30000000000000426, 0.000000000000000000, 2.750000000000000000 ) ) ;
#116 = EDGE_CURVE ( 'NONE', #495, #167, #386, .T. ) ;
#117 = VERTEX_POINT ( 'NONE', #97 ) ;
#118 = CARTESIAN_POINT ( 'NONE',  ( -22.30000000000000071, -2.500000000000000000, -16.05000000000000071 ) ) ;
#119 = DIRECTION ( 'NONE',  ( 0.000000000000000000, -0.000000000000000000, 1.000000000000000000 ) ) ;
#120 = CARTESIAN_POINT ( 'NONE',  ( -6.349999999999998757, -20.00000000000000000, 2.000000000000000000 ) ) ;
#121 = VECTOR ( 'NONE', #316, 1000.000000000000000 ) ;
#122 = EDGE_LOOP ( 'NONE', ( #517, #412, #58, #274 ) ) ;
#123 = ORIENTED_EDGE ( 'NONE', *, *, #57, .T. ) ;
#124 = EDGE_CURVE ( 'NONE', #292, #30, #268, .T. ) ;
#125 = CARTESIAN_POINT ( 'NONE',  ( -22.30000000000000071, -2.500000000000000000, -16.05000000000000071 ) ) ;
#126 = DIRECTION ( 'NONE',  ( 0.000000000000000000, -0.000000000000000000, 1.000000000000000000 ) ) ;
#127 = VECTOR ( 'NONE', #471, 1000.000000000000000 ) ;
#128 = EDGE_LOOP ( 'NONE', ( #205, #160, #156, #367 ) ) ;
#129 = FACE_OUTER_BOUND ( 'NONE', #290, .T. ) ;
#130 = EDGE_CURVE ( 'NONE', #237, #442, #16, .T. ) ;
#131 = FACE_OUTER_BOUND ( 'NONE', #489, .T. ) ;
#132 = CYLINDRICAL_SURFACE ( 'NONE', #72, 2.000000000000000000 ) ;
#133 = CARTESIAN_POINT ( 'NONE',  ( 6.350000000000000533, -18.00000000000000355, 1.999999999999998224 ) ) ;
#134 = DIRECTION ( 'NONE',  ( -1.000000000000000000, 0.000000000000000000, 1.365923996832131609E-16 ) ) ;
#135 = ORIENTED_EDGE ( 'NONE', *, *, #43, .F. ) ;
#136 = CARTESIAN_POINT ( 'NONE',  ( 6.350000000000000533, -2.999999999999999112, 1.999999999999998224 ) ) ;
#137 = UNCERTAINTY_MEASURE_WITH_UNIT (LENGTH_MEASURE( 1.000000000000000082E-05 ), #361, 'distance_accuracy_value', 'NONE');
#138 = CARTESIAN_POINT ( 'NONE',  ( -6.557106781186545774, -2.499999999999999112, -5.827106781186548012 ) ) ;
#139 = FACE_OUTER_BOUND ( 'NONE', #454, .T. ) ;
#140 = FACE_OUTER_BOUND ( 'NONE', #122, .T. ) ;
#141 = FACE_OUTER_BOUND ( 'NONE', #396, .T. ) ;
#142 = VECTOR ( 'NONE', #134, 1000.000000000000000 ) ;
#143 = ORIENTED_EDGE ( 'NONE', *, *, #189, .T. ) ;
#144 = CARTESIAN_POINT ( 'NONE',  ( 6.350000000000000533, -20.00000000000000000, -5.620000000000001883 ) ) ;
#145 =( LENGTH_UNIT ( ) NAMED_UNIT ( * ) SI_UNIT ( .MILLI., .METRE. ) );
#146 = VERTEX_POINT ( 'NONE', #115 ) ;
#147 = CARTESIAN_POINT ( 'NONE',  ( 6.350000000000000533, -2.999999999999999112, 1.999999999999998224 ) ) ;
#148 = EDGE_LOOP ( 'NONE', ( #66, #298, #296, #159 ) ) ;
#149 =( BOUNDED_CURVE ( )  B_SPLINE_CURVE ( 3, ( #17, #306, #99, #186 ),
 .UNSPECIFIED., .F., .F. ) 
 B_SPLINE_CURVE_WITH_KNOTS ( ( 4, 4 ),
 ( 0.000000000000000000, 1.570796326794896780 ),
 .UNSPECIFIED. ) 
 CURVE ( )  GEOMETRIC_REPRESENTATION_ITEM ( )  RATIONAL_B_SPLINE_CURVE ( ( 1.000000000000000000, 0.8047378541243649375, 0.8047378541243649375, 1.000000000000000000 ) ) 
 REPRESENTATION_ITEM ( '' )  );
#150 = CYLINDRICAL_SURFACE ( 'NONE', #161, 0.5000000000000004441 ) ;
#151 = CARTESIAN_POINT ( 'NONE',  ( -6.349999999999998757, -2.999999999999999112, 2.000000000000000000 ) ) ;
#152 = VECTOR ( 'NONE', #100, 1000.000000000000000 ) ;
#153 = EDGE_LOOP ( 'NONE', ( #135, #331, #187, #451 ) ) ;
#154 = FACE_OUTER_BOUND ( 'NONE', #405, .T. ) ;
#155 = CARTESIAN_POINT ( 'NONE',  ( -8.359454860612647618E-16, -3.000000000000000000, -6.120000000000000995 ) ) ;
#156 = ORIENTED_EDGE ( 'NONE', *, *, #267, .T. ) ;
#157 = CARTESIAN_POINT ( 'NONE',  ( -6.349999999999997868, -18.00000000000000355, -5.620000000000000107 ) ) ;
#158 = EDGE_CURVE ( 'NONE', #244, #435, #288, .T. ) ;
#159 = ORIENTED_EDGE ( 'NONE', *, *, #57, .F. ) ;
#160 = ORIENTED_EDGE ( 'NONE', *, *, #31, .T. ) ;
#161 = AXIS2_PLACEMENT_3D ( 'NONE', #73, #332, #371 ) ;
#162 = EDGE_LOOP ( 'NONE', ( #123, #342, #483, #321 ) ) ;
#163 = EDGE_CURVE ( 'NONE', #480, #456, #345, .T. ) ;
#164 = DIRECTION ( 'NONE',  ( 1.000000000000000000, 0.000000000000000000, 0.000000000000000000 ) ) ;
#165 = CARTESIAN_POINT ( 'NONE',  ( -6.349999999999997868, -19.17157287525381193, -5.620000000000000107 ) ) ;
#166 = MANIFOLD_SOLID_BREP ( 'Fillet2', #397 ) ;
#167 = VERTEX_POINT ( 'NONE', #175 ) ;
#168 = VECTOR ( 'NONE', #85, 1000.000000000000000 ) ;
#169 = FACE_OUTER_BOUND ( 'NONE', #153, .T. ) ;
#170 = AXIS2_PLACEMENT_3D ( 'NONE', #7, #15, #56 ) ;
#171 = APPLICATION_CONTEXT ( 'automotive_design' ) ;
#172 = EDGE_CURVE ( 'NONE', #435, #167, #309, .T. ) ;
#173 = DIRECTION ( 'NONE',  ( 1.138269997360109674E-16, -0.000000000000000000, -1.000000000000000000 ) ) ;
#174 = DIRECTION ( 'NONE',  ( -1.000000000000000000, 0.000000000000000000, 1.845450506358305325E-16 ) ) ;
#175 = CARTESIAN_POINT ( 'NONE',  ( 6.350000000000000533, -2.999999999999999112, -5.620000000000001883 ) ) ;
#176 = DIRECTION ( 'NONE',  ( 1.000000000000000000, 0.000000000000000000, -1.365923996832131609E-16 ) ) ;
#177 = UNCERTAINTY_MEASURE_WITH_UNIT (LENGTH_MEASURE( 1.000000000000000082E-05 ), #145, 'distance_accuracy_value', 'NONE');
#178 = ORIENTED_EDGE ( 'NONE', *, *, #418, .F. ) ;
#179 =( NAMED_UNIT ( * ) SI_UNIT ( $, .STERADIAN. ) SOLID_ANGLE_UNIT ( ) );
#180 = DIRECTION ( 'NONE',  ( 0.000000000000000000, 0.000000000000000000, 1.000000000000000000 ) ) ;
#181 = VECTOR ( 'NONE', #358, 1000.000000000000000 ) ;
#182 = CARTESIAN_POINT ( 'NONE',  ( 6.350000000000000533, -2.999999999999999112, -5.620000000000001883 ) ) ;
#183 = CARTESIAN_POINT ( 'NONE',  ( 4.350000000000000533, -20.00000000000000000, -3.620000000000001439 ) ) ;
#184 = LINE ( 'NONE', #90, #142 ) ;
#185 = DIRECTION ( 'NONE',  ( 1.000000000000000000, 0.000000000000000000, -1.365923996832131609E-16 ) ) ;
#186 = CARTESIAN_POINT ( 'NONE',  ( 4.350000000000000533, -20.00000000000000000, -1.461538676610380773E-15 ) ) ;
#187 = ORIENTED_EDGE ( 'NONE', *, *, #334, .F. ) ;
#188 = PRESENTATION_STYLE_ASSIGNMENT (( #11 ) ) ;
#189 = EDGE_CURVE ( 'NONE', #286, #319, #29, .T. ) ;
#190 = AXIS2_PLACEMENT_3D ( 'NONE', #155, #199, #444 ) ;
#191 = EDGE_LOOP ( 'NONE', ( #362, #323, #255, #469 ) ) ;
#192 = FACE_BOUND ( 'NONE', #162, .T. ) ;
#193 = EDGE_CURVE ( 'NONE', #319, #495, #461, .T. ) ;
#194 = ORIENTED_EDGE ( 'NONE', *, *, #365, .F. ) ;
#195 = DIRECTION ( 'NONE',  ( 1.000000000000000000, 0.000000000000000000, -0.000000000000000000 ) ) ;
#196 = CARTESIAN_POINT ( 'NONE',  ( -6.349999999999997868, -2.999999999999999112, -5.620000000000000107 ) ) ;
#197 = ORIENTED_EDGE ( 'NONE', *, *, #9, .F. ) ;
#198 = DIRECTION ( 'NONE',  ( 0.000000000000000000, 1.000000000000000000, 0.000000000000000000 ) ) ;
#199 = DIRECTION ( 'NONE',  ( -1.000000000000000000, 0.000000000000000000, 1.365923996832131609E-16 ) ) ;
#200 = DIRECTION ( 'NONE',  ( 0.000000000000000000, 1.000000000000000000, 0.000000000000000000 ) ) ;
#201 = ORIENTED_EDGE ( 'NONE', *, *, #453, .F. ) ;
#202 = AXIS2_PLACEMENT_3D ( 'NONE', #144, #478, #104 ) ;
#203 = CARTESIAN_POINT ( 'NONE',  ( 22.30000000000000071, -2.500000000000000000, -16.05000000000000071 ) ) ;
#204 = FACE_OUTER_BOUND ( 'NONE', #242, .T. ) ;
#205 = ORIENTED_EDGE ( 'NONE', *, *, #413, .T. ) ;
#206 = LINE ( 'NONE', #69, #221 ) ;
#207 = DIRECTION ( 'NONE',  ( -1.000000000000000000, -0.000000000000000000, 1.365923996832131609E-16 ) ) ;
#208 = CARTESIAN_POINT ( 'NONE',  ( 6.350000000000000533, -18.00000000000000355, -5.620000000000001883 ) ) ;
#209 = ADVANCED_FACE ( 'NONE', ( #64 ), #232, .T. ) ;
#210 = EDGE_LOOP ( 'NONE', ( #408, #416, #485, #414 ) ) ;
#211 = VECTOR ( 'NONE', #297, 1000.000000000000000 ) ;
#212 =( BOUNDED_CURVE ( )  B_SPLINE_CURVE ( 3, ( #53, #226, #465, #183 ),
 .UNSPECIFIED., .F., .F. ) 
 B_SPLINE_CURVE_WITH_KNOTS ( ( 4, 4 ),
 ( 3.141592653589793116, 4.712388980384689674 ),
 .UNSPECIFIED. ) 
 CURVE ( )  GEOMETRIC_REPRESENTATION_ITEM ( )  RATIONAL_B_SPLINE_CURVE ( ( 1.000000000000000000, 0.8047378541243649375, 0.8047378541243649375, 1.000000000000000000 ) ) 
 REPRESENTATION_ITEM ( '' )  );
#213 = DIRECTION ( 'NONE',  ( 0.000000000000000000, 1.000000000000000000, 0.000000000000000000 ) ) ;
#214 = CARTESIAN_POINT ( 'NONE',  ( 0.000000000000000000, -2.500000000000000000, 0.000000000000000000 ) ) ;
#215 = ORIENTED_EDGE ( 'NONE', *, *, #31, .F. ) ;
#216 = EDGE_CURVE ( 'NONE', #350, #319, #459, .T. ) ;
#217 = LINE ( 'NONE', #182, #449 ) ;
#218 = ADVANCED_FACE ( 'NONE', ( #139 ), #150, .F. ) ;
#219 = AXIS2_PLACEMENT_3D ( 'NONE', #353, #174, #347 ) ;
#220 = CARTESIAN_POINT ( 'NONE',  ( -5.521572875253808910, -20.00000000000000000, 1.171572875253809487 ) ) ;
#221 = VECTOR ( 'NONE', #402, 1000.000000000000000 ) ;
#222 = CARTESIAN_POINT ( 'NONE',  ( -6.349999999999998757, -2.999999999999999112, 2.000000000000000000 ) ) ;
#223 = CARTESIAN_POINT ( 'NONE',  ( -6.349999999999998757, -20.00000000000000000, 2.000000000000000000 ) ) ;
#224 = CARTESIAN_POINT ( 'NONE',  ( 6.850000000000000533, -2.500000000000000000, -6.120000000000001883 ) ) ;
#225 = ORIENTED_EDGE ( 'NONE', *, *, #216, .F. ) ;
#226 = CARTESIAN_POINT ( 'NONE',  ( 6.350000000000000533, -19.17157287525381193, -5.620000000000000107 ) ) ;
#227 = CARTESIAN_POINT ( 'NONE',  ( -6.349999999999998757, -2.707106781186547018, 2.000000000000000444 ) ) ;
#228 = EDGE_CURVE ( 'NONE', #247, #442, #363, .T. ) ;
#229 = DIRECTION ( 'NONE',  ( 0.000000000000000000, 0.000000000000000000, -1.000000000000000000 ) ) ;
#230 = VECTOR ( 'NONE', #229, 1000.000000000000000 ) ;
#231 = FACE_OUTER_BOUND ( 'NONE', #256, .T. ) ;
#232 = PLANE ( 'NONE',  #63 ) ;
#233 = DIRECTION ( 'NONE',  ( -1.000000000000000000, 0.000000000000000000, 0.000000000000000000 ) ) ;
#234 = ORIENTED_EDGE ( 'NONE', *, *, #158, .F. ) ;
#235 = APPLICATION_PROTOCOL_DEFINITION ( 'draft international standard', 'automotive_design', 1998, #171 ) ;
#236 = EDGE_CURVE ( 'NONE', #244, #286, #410, .T. ) ;
#237 = VERTEX_POINT ( 'NONE', #440 ) ;
#238 = PRODUCT ( 'HousingBottom', 'HousingBottom', '', ( #403 ) ) ;
#239 = CARTESIAN_POINT ( 'NONE',  ( 22.30000000000000071, 0.000000000000000000, -16.05000000000000071 ) ) ;
#240 = VECTOR ( 'NONE', #213, 1000.000000000000000 ) ;
#241 = VECTOR ( 'NONE', #176, 1000.000000000000000 ) ;
#242 = EDGE_LOOP ( 'NONE', ( #339, #71, #194, #10 ) ) ;
#243 = FACE_OUTER_BOUND ( 'NONE', #370, .T. ) ;
#244 = VERTEX_POINT ( 'NONE', #400 ) ;
#245 = DIRECTION ( 'NONE',  ( -0.000000000000000000, 0.000000000000000000, 1.000000000000000000 ) ) ;
#246 = DIRECTION ( 'NONE',  ( 1.000000000000000000, 0.000000000000000000, 0.000000000000000000 ) ) ;
#247 = VERTEX_POINT ( 'NONE', #448 ) ;
#248 = DIRECTION ( 'NONE',  ( 0.000000000000000000, -0.000000000000000000, 1.000000000000000000 ) ) ;
#249 = VECTOR ( 'NONE', #207, 1000.000000000000000 ) ;
#250 = ORIENTED_EDGE ( 'NONE', *, *, #267, .F. ) ;
#251 =( GEOMETRIC_REPRESENTATION_CONTEXT ( 3 ) GLOBAL_UNCERTAINTY_ASSIGNED_CONTEXT ( ( #177 ) ) GLOBAL_UNIT_ASSIGNED_CONTEXT ( ( #145, #78, #25 ) ) REPRESENTATION_CONTEXT ( 'NONE', 'WORKASPACE' ) );
#252 = CARTESIAN_POINT ( 'NONE',  ( -6.349999999999998757, -18.00000000000000355, 2.000000000000000000 ) ) ;
#253 = LINE ( 'NONE', #411, #240 ) ;
#254 = EDGE_CURVE ( 'NONE', #514, #480, #206, .T. ) ;
#255 = ORIENTED_EDGE ( 'NONE', *, *, #18, .F. ) ;
#256 = EDGE_LOOP ( 'NONE', ( #520, #380, #477, #464 ) ) ;
#257 =( GEOMETRIC_REPRESENTATION_CONTEXT ( 3 ) GLOBAL_UNCERTAINTY_ASSIGNED_CONTEXT ( ( #137 ) ) GLOBAL_UNIT_ASSIGNED_CONTEXT ( ( #361, #312, #179 ) ) REPRESENTATION_CONTEXT ( 'NONE', 'WORKASPACE' ) );
#258 = VERTEX_POINT ( 'NONE', #157 ) ;
#259 = DIRECTION ( 'NONE',  ( 0.000000000000000000, 1.000000000000000000, 0.000000000000000000 ) ) ;
#260 = EDGE_CURVE ( 'NONE', #435, #258, #329, .T. ) ;
#261 = FACE_OUTER_BOUND ( 'NONE', #335, .T. ) ;
#262 = FACE_OUTER_BOUND ( 'NONE', #191, .T. ) ;
#263 = AXIS2_PLACEMENT_3D ( 'NONE', #81, #482, #119 ) ;
#264 = CARTESIAN_POINT ( 'NONE',  ( 6.350000000000000533, -18.00000000000000355, -3.620000000000001883 ) ) ;
#265 = ORIENTED_EDGE ( 'NONE', *, *, #124, .T. ) ;
#266 = LINE ( 'NONE', #424, #181 ) ;
#267 = EDGE_CURVE ( 'NONE', #146, #247, #83, .T. ) ;
#268 = LINE ( 'NONE', #425, #376 ) ;
#269 = CARTESIAN_POINT ( 'NONE',  ( 6.557106781186547551, -2.499999999999999112, 2.207106781186546129 ) ) ;
#270 = CARTESIAN_POINT ( 'NONE',  ( -6.349999999999998757, -18.00000000000000355, 2.000000000000000000 ) ) ;
#271 = CARTESIAN_POINT ( 'NONE',  ( -4.349999999999998757, -20.00000000000000000, -2.731847993664263218E-16 ) ) ;
#272 = VECTOR ( 'NONE', #475, 1000.000000000000000 ) ;
#273 = ADVANCED_FACE ( 'NONE', ( #481 ), #406, .T. ) ;
#274 = ORIENTED_EDGE ( 'NONE', *, *, #193, .F. ) ;
#275 = EDGE_CURVE ( 'NONE', #286, #117, #41, .T. ) ;
#276 = DIRECTION ( 'NONE',  ( -1.845450506358305325E-16, -0.000000000000000000, -1.000000000000000000 ) ) ;
#277 = EDGE_LOOP ( 'NONE', ( #377, #399, #197, #423 ) ) ;
#278 = CARTESIAN_POINT ( 'NONE',  ( -6.349999999999998757, -18.00000000000000355, -5.620000000000000107 ) ) ;
#279 = SHAPE_DEFINITION_REPRESENTATION ( #27, #344 ) ;
#280 = STYLED_ITEM ( 'NONE', ( #188 ), #166 ) ;
#281 = VECTOR ( 'NONE', #200, 1000.000000000000000 ) ;
#282 = ORIENTED_EDGE ( 'NONE', *, *, #418, .T. ) ;
#283 = FACE_OUTER_BOUND ( 'NONE', #19, .T. ) ;
#284 = CYLINDRICAL_SURFACE ( 'NONE', #190, 0.4999999999999995559 ) ;
#285 = ADVANCED_FACE ( 'NONE', ( #243 ), #398, .T. ) ;
#286 = VERTEX_POINT ( 'NONE', #291 ) ;
#287 = FACE_OUTER_BOUND ( 'NONE', #128, .T. ) ;
#288 = LINE ( 'NONE', #208, #437 ) ;
#289 = CARTESIAN_POINT ( 'NONE',  ( -6.849999999999998757, -2.500000000000000000, -7.797149481916749174E-16 ) ) ;
#290 = EDGE_LOOP ( 'NONE', ( #250, #395, #308, #79 ) ) ;
#291 = CARTESIAN_POINT ( 'NONE',  ( 6.350000000000000533, -2.999999999999999112, 1.999999999999998224 ) ) ;
#292 = VERTEX_POINT ( 'NONE', #77 ) ;
#293 = AXIS2_PLACEMENT_3D ( 'NONE', #515, #80, #248 ) ;
#294 = ADVANCED_FACE ( 'NONE', ( #283 ), #509, .T. ) ;
#295 = ORIENTED_EDGE ( 'NONE', *, *, #421, .F. ) ;
#296 = ORIENTED_EDGE ( 'NONE', *, *, #67, .F. ) ;
#297 = DIRECTION ( 'NONE',  ( -0.000000000000000000, -0.000000000000000000, 1.000000000000000000 ) ) ;
#298 = ORIENTED_EDGE ( 'NONE', *, *, #84, .F. ) ;
#299 = AXIS2_PLACEMENT_3D ( 'NONE', #473, #436, #195 ) ;
#300 = DIRECTION ( 'NONE',  ( 0.000000000000000000, 0.000000000000000000, -1.000000000000000000 ) ) ;
#301 = PLANE ( 'NONE',  #420 ) ;
#302 = CARTESIAN_POINT ( 'NONE',  ( 22.30000000000000071, -2.500000000000000000, -16.05000000000000071 ) ) ;
#303 = CARTESIAN_POINT ( 'NONE',  ( 6.850000000000000533, -2.500000000000000000, 0.000000000000000000 ) ) ;
#304 = DIRECTION ( 'NONE',  ( 1.845450506358305325E-16, 0.000000000000000000, 1.000000000000000000 ) ) ;
#305 = EDGE_CURVE ( 'NONE', #167, #286, #366, .T. ) ;
#306 = CARTESIAN_POINT ( 'NONE',  ( 6.350000000000000533, -19.17157287525381193, 1.999999999999998446 ) ) ;
#307 = CARTESIAN_POINT ( 'NONE',  ( -6.557106781186545774, -2.499999999999999112, 2.207106781186547906 ) ) ;
#308 = ORIENTED_EDGE ( 'NONE', *, *, #334, .T. ) ;
#309 = LINE ( 'NONE', #354, #455 ) ;
#310 = CARTESIAN_POINT ( 'NONE',  ( -6.349999999999998757, -19.17157287525381193, 1.999999999999999556 ) ) ;
#311 = CARTESIAN_POINT ( 'NONE',  ( 6.557106781186547551, -2.499999999999999112, -5.827106781186549789 ) ) ;
#312 =( NAMED_UNIT ( * ) PLANE_ANGLE_UNIT ( ) SI_UNIT ( $, .RADIAN. ) );
#313 = CARTESIAN_POINT ( 'NONE',  ( 6.350000000000000533, -18.00000000000000355, -5.620000000000001883 ) ) ;
#314 = EDGE_CURVE ( 'NONE', #258, #431, #368, .T. ) ;
#315 = FILL_AREA_STYLE_COLOUR ( '', #494 ) ;
#316 = DIRECTION ( 'NONE',  ( 1.138269997360109674E-16, -0.000000000000000000, -1.000000000000000000 ) ) ;
#317 = AXIS2_PLACEMENT_3D ( 'NONE', #513, #433, #246 ) ;
#318 = ADVANCED_FACE ( 'NONE', ( #154 ), #107, .T. ) ;
#319 = VERTEX_POINT ( 'NONE', #113 ) ;
#320 = CARTESIAN_POINT ( 'NONE',  ( 6.350000000000000533, -20.00000000000000000, 1.999999999999998224 ) ) ;
#321 = ORIENTED_EDGE ( 'NONE', *, *, #193, .T. ) ;
#322 = CARTESIAN_POINT ( 'NONE',  ( -22.30000000000000071, 0.000000000000000000, -16.05000000000000071 ) ) ;
#323 = ORIENTED_EDGE ( 'NONE', *, *, #510, .T. ) ;
#324 = DIRECTION ( 'NONE',  ( -1.845450506358305325E-16, -0.000000000000000000, -1.000000000000000000 ) ) ;
#325 = DIRECTION ( 'NONE',  ( 1.138269997360109674E-16, 0.000000000000000000, -1.000000000000000000 ) ) ;
#326 = ADVANCED_FACE ( 'NONE', ( #287 ), #443, .T. ) ;
#327 = VECTOR ( 'NONE', #518, 1000.000000000000000 ) ;
#328 = ORIENTED_EDGE ( 'NONE', *, *, #21, .T. ) ;
#329 = LINE ( 'NONE', #278, #272 ) ;
#330 = LINE ( 'NONE', #289, #484 ) ;
#331 = ORIENTED_EDGE ( 'NONE', *, *, #374, .F. ) ;
#332 = DIRECTION ( 'NONE',  ( -1.138269997360109674E-16, 0.000000000000000000, 1.000000000000000000 ) ) ;
#333 = PLANE ( 'NONE',  #263 ) ;
#334 = EDGE_CURVE ( 'NONE', #30, #89, #36, .T. ) ;
#335 = EDGE_LOOP ( 'NONE', ( #45, #439, #474, #488 ) ) ;
#336 =( BOUNDED_CURVE ( )  B_SPLINE_CURVE ( 3, ( #222, #227, #307, #428 ),
 .UNSPECIFIED., .F., .T. ) 
 B_SPLINE_CURVE_WITH_KNOTS ( ( 4, 4 ),
 ( 1.734723475976807883E-15, 1.570796326794896558 ),
 .UNSPECIFIED. ) 
 CURVE ( )  GEOMETRIC_REPRESENTATION_ITEM ( )  RATIONAL_B_SPLINE_CURVE ( ( 1.000000000000000000, 0.8047378541243654926, 0.8047378541243654926, 1.000000000000000000 ) ) 
 REPRESENTATION_ITEM ( '' )  );
#337 = ADVANCED_FACE ( 'NONE', ( #192, #169 ), #404, .F. ) ;
#338 = ORIENTED_EDGE ( 'NONE', *, *, #172, .F. ) ;
#339 = ORIENTED_EDGE ( 'NONE', *, *, #470, .T. ) ;
#340 = LINE ( 'NONE', #125, #152 ) ;
#341 = FACE_OUTER_BOUND ( 'NONE', #526, .T. ) ;
#342 = ORIENTED_EDGE ( 'NONE', *, *, #359, .T. ) ;
#343 = CARTESIAN_POINT ( 'NONE',  ( -22.30000000000000071, -2.500000000000000000, -16.05000000000000071 ) ) ;
#344 = ADVANCED_BREP_SHAPE_REPRESENTATION ( 'HousingBottom', ( #166, #317 ), #251 ) ;
#345 = LINE ( 'NONE', #46, #211 ) ;
#346 = CARTESIAN_POINT ( 'NONE',  ( 22.30000000000000071, -2.500000000000000000, -16.05000000000000071 ) ) ;
#347 = DIRECTION ( 'NONE',  ( 1.845450506358305325E-16, 0.000000000000000000, 1.000000000000000000 ) ) ;
#348 = EDGE_CURVE ( 'NONE', #30, #146, #479, .T. ) ;
#349 = CYLINDRICAL_SURFACE ( 'NONE', #352, 0.5000000000000004441 ) ;
#350 = VERTEX_POINT ( 'NONE', #445 ) ;
#351 = SURFACE_SIDE_STYLE ('',( #20 ) ) ;
#352 = AXIS2_PLACEMENT_3D ( 'NONE', #95, #429, #233 ) ;
#353 = CARTESIAN_POINT ( 'NONE',  ( -22.30000000000000071, -2.500000000000000000, -16.05000000000000071 ) ) ;
#354 = CARTESIAN_POINT ( 'NONE',  ( 6.350000000000000533, -20.00000000000000000, -5.620000000000001883 ) ) ;
#355 = DIRECTION ( 'NONE',  ( 1.000000000000000000, 0.000000000000000000, -1.845450506358305325E-16 ) ) ;
#356 = DIRECTION ( 'NONE',  ( 0.000000000000000000, 0.000000000000000000, -1.000000000000000000 ) ) ;
#357 = DIRECTION ( 'NONE',  ( 1.000000000000000000, 0.000000000000000000, -1.365923996832131609E-16 ) ) ;
#358 = DIRECTION ( 'NONE',  ( 0.000000000000000000, 1.000000000000000000, 0.000000000000000000 ) ) ;
#359 = EDGE_CURVE ( 'NONE', #2, #350, #330, .T. ) ;
#360 = ORIENTED_EDGE ( 'NONE', *, *, #384, .F. ) ;
#361 =( LENGTH_UNIT ( ) NAMED_UNIT ( * ) SI_UNIT ( .MILLI., .METRE. ) );
#362 = ORIENTED_EDGE ( 'NONE', *, *, #9, .T. ) ;
#363 = LINE ( 'NONE', #322, #369 ) ;
#364 = ORIENTED_EDGE ( 'NONE', *, *, #130, .T. ) ;
#365 = EDGE_CURVE ( 'NONE', #514, #258, #96, .T. ) ;
#366 = LINE ( 'NONE', #147, #127 ) ;
#367 = ORIENTED_EDGE ( 'NONE', *, *, #228, .T. ) ;
#368 = LINE ( 'NONE', #252, #327 ) ;
#369 = VECTOR ( 'NONE', #521, 1000.000000000000000 ) ;
#370 = EDGE_LOOP ( 'NONE', ( #215, #401, #265, #103 ) ) ;
#371 = DIRECTION ( 'NONE',  ( 1.000000000000000000, 0.000000000000000000, 1.138269997360107949E-16 ) ) ;
#372 = ADVANCED_FACE ( 'NONE', ( #341 ), #333, .F. ) ;
#373 = ORIENTED_EDGE ( 'NONE', *, *, #470, .F. ) ;
#374 = EDGE_CURVE ( 'NONE', #89, #237, #52, .T. ) ;
#375 = LINE ( 'NONE', #1, #47 ) ;
#376 = VECTOR ( 'NONE', #390, 1000.000000000000000 ) ;
#377 = ORIENTED_EDGE ( 'NONE', *, *, #236, .T. ) ;
#378 = CARTESIAN_POINT ( 'NONE',  ( 22.30000000000000426, -2.500000000000000000, 2.750000000000000000 ) ) ;
#379 = ADVANCED_FACE ( 'NONE', ( #129 ), #301, .T. ) ;
#380 = ORIENTED_EDGE ( 'NONE', *, *, #130, .F. ) ;
#381 = CARTESIAN_POINT ( 'NONE',  ( -6.849999999999997868, -2.500000000000000000, -6.120000000000000107 ) ) ;
#382 = VECTOR ( 'NONE', #357, 1000.000000000000000 ) ;
#383 = CARTESIAN_POINT ( 'NONE',  ( 4.350000000000000533, -20.00000000000000000, -3.620000000000001439 ) ) ;
#384 = EDGE_CURVE ( 'NONE', #431, #244, #389, .T. ) ;
#385 = PLANE ( 'NONE',  #219 ) ;
#386 =( BOUNDED_CURVE ( )  B_SPLINE_CURVE ( 3, ( #224, #311, #8, #501 ),
 .UNSPECIFIED., .F., .F. ) 
 B_SPLINE_CURVE_WITH_KNOTS ( ( 4, 4 ),
 ( 1.570796326794896558, 3.141592653589791340 ),
 .UNSPECIFIED. ) 
 CURVE ( )  GEOMETRIC_REPRESENTATION_ITEM ( )  RATIONAL_B_SPLINE_CURVE ( ( 1.000000000000000000, 0.8047378541243654926, 0.8047378541243654926, 1.000000000000000000 ) ) 
 REPRESENTATION_ITEM ( '' )  );
#387 = DIRECTION ( 'NONE',  ( -1.138269997360109674E-16, 0.000000000000000000, 1.000000000000000000 ) ) ;
#388 = DIRECTION ( 'NONE',  ( 0.000000000000000000, 1.000000000000000000, 0.000000000000000000 ) ) ;
#389 = LINE ( 'NONE', #133, #241 ) ;
#390 = DIRECTION ( 'NONE',  ( 1.000000000000000000, 0.000000000000000000, 0.000000000000000000 ) ) ;
#391 = CYLINDRICAL_SURFACE ( 'NONE', #170, 0.5000000000000000000 ) ;
#392 = AXIS2_PLACEMENT_3D ( 'NONE', #24, #245, #32 ) ;
#393 = DIRECTION ( 'NONE',  ( 1.000000000000000000, 0.000000000000000000, -1.365923996832131609E-16 ) ) ;
#394 = DIRECTION ( 'NONE',  ( 0.000000000000000000, 0.000000000000000000, -1.000000000000000000 ) ) ;
#395 = ORIENTED_EDGE ( 'NONE', *, *, #348, .F. ) ;
#396 = EDGE_LOOP ( 'NONE', ( #373, #51, #178, #360 ) ) ;
#397 = CLOSED_SHELL ( 'NONE', ( #94, #273, #379, #285, #337, #326, #446, #209, #499, #318, #372, #466, #294, #527, #108, #409, #525, #486, #218 ) ) ;
#398 = PLANE ( 'NONE',  #299 ) ;
#399 = ORIENTED_EDGE ( 'NONE', *, *, #275, .T. ) ;
#400 = CARTESIAN_POINT ( 'NONE',  ( 6.350000000000000533, -18.00000000000000355, 1.999999999999998224 ) ) ;
#401 = ORIENTED_EDGE ( 'NONE', *, *, #434, .F. ) ;
#402 = DIRECTION ( 'NONE',  ( 1.000000000000000000, -0.000000000000000000, -1.365923996832131609E-16 ) ) ;
#403 = PRODUCT_CONTEXT ( 'NONE', #171, 'mechanical' ) ;
#404 = PLANE ( 'NONE',  #496 ) ;
#405 = EDGE_LOOP ( 'NONE', ( #76, #109, #338, #511 ) ) ;
#406 = PLANE ( 'NONE',  #508 ) ;
#407 = CARTESIAN_POINT ( 'NONE',  ( -4.349999999999997868, -20.00000000000000000, -3.620000000000000551 ) ) ;
#408 = ORIENTED_EDGE ( 'NONE', *, *, #453, .T. ) ;
#409 = ADVANCED_FACE ( 'NONE', ( #140 ), #349, .F. ) ;
#410 = LINE ( 'NONE', #320, #519 ) ;
#411 = CARTESIAN_POINT ( 'NONE',  ( -6.349999999999997868, -20.00000000000000000, -5.620000000000000107 ) ) ;
#412 = ORIENTED_EDGE ( 'NONE', *, *, #305, .F. ) ;
#413 = EDGE_CURVE ( 'NONE', #442, #86, #61, .T. ) ;
#414 = ORIENTED_EDGE ( 'NONE', *, *, #260, .F. ) ;
#415 = VECTOR ( 'NONE', #28, 1000.000000000000000 ) ;
#416 = ORIENTED_EDGE ( 'NONE', *, *, #254, .F. ) ;
#417 = CARTESIAN_POINT ( 'NONE',  ( -6.349999999999997868, -18.00000000000000355, -5.620000000000000107 ) ) ;
#418 = EDGE_CURVE ( 'NONE', #244, #456, #149, .T. ) ;
#419 = CARTESIAN_POINT ( 'NONE',  ( 4.350000000000000533, -20.00000000000000000, -1.461538676610380773E-15 ) ) ;
#420 = AXIS2_PLACEMENT_3D ( 'NONE', #75, #355, #65 ) ;
#421 = EDGE_CURVE ( 'NONE', #89, #247, #503, .T. ) ;
#422 = PLANE ( 'NONE',  #13 ) ;
#423 = ORIENTED_EDGE ( 'NONE', *, *, #384, .T. ) ;
#424 = CARTESIAN_POINT ( 'NONE',  ( -22.29999999999999716, -2.500000000000000000, 2.750000000000000000 ) ) ;
#425 = CARTESIAN_POINT ( 'NONE',  ( -22.29999999999999716, -2.500000000000000000, 2.750000000000000000 ) ) ;
#426 = CARTESIAN_POINT ( 'NONE',  ( 6.850000000000000533, -2.500000000000000000, 2.499999999999998224 ) ) ;
#427 = LINE ( 'NONE', #151, #121 ) ;
#428 = CARTESIAN_POINT ( 'NONE',  ( -6.849999999999998757, -2.500000000000000000, 2.500000000000000000 ) ) ;
#429 = DIRECTION ( 'NONE',  ( 0.000000000000000000, 0.000000000000000000, -1.000000000000000000 ) ) ;
#430 = CARTESIAN_POINT ( 'NONE',  ( -4.349999999999998757, -18.00000000000000355, 2.000000000000000444 ) ) ;
#431 = VERTEX_POINT ( 'NONE', #462 ) ;
#432 = DIRECTION ( 'NONE',  ( 0.000000000000000000, 0.000000000000000000, -1.000000000000000000 ) ) ;
#433 = DIRECTION ( 'NONE',  ( 0.000000000000000000, 0.000000000000000000, 1.000000000000000000 ) ) ;
#434 = EDGE_CURVE ( 'NONE', #292, #86, #266, .T. ) ;
#435 = VERTEX_POINT ( 'NONE', #313 ) ;
#436 = DIRECTION ( 'NONE',  ( 0.000000000000000000, 0.000000000000000000, 1.000000000000000000 ) ) ;
#437 = VECTOR ( 'NONE', #300, 1000.000000000000000 ) ;
#438 = VECTOR ( 'NONE', #324, 1000.000000000000000 ) ;
#439 = ORIENTED_EDGE ( 'NONE', *, *, #305, .T. ) ;
#440 = CARTESIAN_POINT ( 'NONE',  ( -22.30000000000000071, -2.500000000000000000, -16.05000000000000071 ) ) ;
#441 = CYLINDRICAL_SURFACE ( 'NONE', #468, 2.000000000000000000 ) ;
#442 = VERTEX_POINT ( 'NONE', #467 ) ;
#443 = PLANE ( 'NONE',  #293 ) ;
#444 = DIRECTION ( 'NONE',  ( 1.365923996832132349E-16, 0.000000000000000000, 1.000000000000000000 ) ) ;
#445 = CARTESIAN_POINT ( 'NONE',  ( -6.849999999999998757, -2.500000000000000000, 2.500000000000000000 ) ) ;
#446 = ADVANCED_FACE ( 'NONE', ( #261 ), #101, .T. ) ;
#447 = ORIENTED_EDGE ( 'NONE', *, *, #163, .T. ) ;
#448 = CARTESIAN_POINT ( 'NONE',  ( 22.30000000000000071, 0.000000000000000000, -16.05000000000000071 ) ) ;
#449 = VECTOR ( 'NONE', #4, 1000.000000000000000 ) ;
#450 = AXIS2_PLACEMENT_3D ( 'NONE', #59, #505, #394 ) ;
#451 = ORIENTED_EDGE ( 'NONE', *, *, #124, .F. ) ;
#452 = ORIENTED_EDGE ( 'NONE', *, *, #74, .T. ) ;
#453 = EDGE_CURVE ( 'NONE', #435, #480, #212, .T. ) ;
#454 = EDGE_LOOP ( 'NONE', ( #506, #87, #452, #26 ) ) ;
#455 = VECTOR ( 'NONE', #388, 1000.000000000000000 ) ;
#456 = VERTEX_POINT ( 'NONE', #419 ) ;
#457 = EDGE_CURVE ( 'NONE', #68, #514, #6, .T. ) ;
#458 = CARTESIAN_POINT ( 'NONE',  ( 6.350000000000000533, -18.00000000000000355, -1.734723475976807094E-15 ) ) ;
#459 = LINE ( 'NONE', #92, #382 ) ;
#460 = CARTESIAN_POINT ( 'NONE',  ( -4.349999999999997868, -20.00000000000000000, -5.620000000000000107 ) ) ;
#461 = LINE ( 'NONE', #303, #230 ) ;
#462 = CARTESIAN_POINT ( 'NONE',  ( -6.349999999999998757, -18.00000000000000355, 2.000000000000000000 ) ) ;
#463 = FACE_OUTER_BOUND ( 'NONE', #210, .T. ) ;
#464 = ORIENTED_EDGE ( 'NONE', *, *, #434, .T. ) ;
#465 = CARTESIAN_POINT ( 'NONE',  ( 5.521572875253808910, -20.00000000000000355, -4.791572875253812036 ) ) ;
#466 = ADVANCED_FACE ( 'NONE', ( #141 ), #12, .T. ) ;
#467 = CARTESIAN_POINT ( 'NONE',  ( -22.30000000000000071, 0.000000000000000000, -16.05000000000000071 ) ) ;
#468 = AXIS2_PLACEMENT_3D ( 'NONE', #430, #325, #33 ) ;
#469 = ORIENTED_EDGE ( 'NONE', *, *, #314, .T. ) ;
#470 = EDGE_CURVE ( 'NONE', #68, #431, #22, .T. ) ;
#471 = DIRECTION ( 'NONE',  ( -0.000000000000000000, -0.000000000000000000, 1.000000000000000000 ) ) ;
#472 = ORIENTED_EDGE ( 'NONE', *, *, #74, .F. ) ;
#473 = CARTESIAN_POINT ( 'NONE',  ( -22.29999999999999716, -2.500000000000000000, 2.750000000000000000 ) ) ;
#474 = ORIENTED_EDGE ( 'NONE', *, *, #236, .F. ) ;
#475 = DIRECTION ( 'NONE',  ( -1.000000000000000000, 0.000000000000000000, 1.365923996832131609E-16 ) ) ;
#476 = MECHANICAL_DESIGN_GEOMETRIC_PRESENTATION_REPRESENTATION (  '', ( #280 ), #257 ) ;
#477 = ORIENTED_EDGE ( 'NONE', *, *, #43, .T. ) ;
#478 = DIRECTION ( 'NONE',  ( -1.365923996832131609E-16, 0.000000000000000000, -1.000000000000000000 ) ) ;
#479 = LINE ( 'NONE', #34, #281 ) ;
#480 = VERTEX_POINT ( 'NONE', #383 ) ;
#481 = FACE_OUTER_BOUND ( 'NONE', #40, .T. ) ;
#482 = DIRECTION ( 'NONE',  ( 0.000000000000000000, 1.000000000000000000, 0.000000000000000000 ) ) ;
#483 = ORIENTED_EDGE ( 'NONE', *, *, #216, .T. ) ;
#484 = VECTOR ( 'NONE', #39, 1000.000000000000000 ) ;
#485 = ORIENTED_EDGE ( 'NONE', *, *, #365, .T. ) ;
#486 = ADVANCED_FACE ( 'NONE', ( #131 ), #391, .F. ) ;
#487 = CARTESIAN_POINT ( 'NONE',  ( -6.349999999999998757, -20.00000000000000000, 0.000000000000000000 ) ) ;
#488 = ORIENTED_EDGE ( 'NONE', *, *, #158, .T. ) ;
#489 = EDGE_LOOP ( 'NONE', ( #143, #225, #472, #112 ) ) ;
#490 = DIRECTION ( 'NONE',  ( -1.000000000000000000, -0.000000000000000000, -0.000000000000000000 ) ) ;
#491 = DIRECTION ( 'NONE',  ( 0.000000000000000000, 1.000000000000000000, 0.000000000000000000 ) ) ;
#492 = CARTESIAN_POINT ( 'NONE',  ( -6.349999999999997868, -2.999999999999999112, -5.620000000000000107 ) ) ;
#493 = CARTESIAN_POINT ( 'NONE',  ( -22.30000000000000071, 0.000000000000000000, -16.05000000000000071 ) ) ;
#494 = COLOUR_RGB ( '',0.7921568627450980005, 0.8196078431372548767, 0.9333333333333333481 ) ;
#495 = VERTEX_POINT ( 'NONE', #93 ) ;
#496 = AXIS2_PLACEMENT_3D ( 'NONE', #214, #259, #126 ) ;
#497 =( BOUNDED_CURVE ( )  B_SPLINE_CURVE ( 3, ( #381, #138, #504, #492 ),
 .UNSPECIFIED., .F., .F. ) 
 B_SPLINE_CURVE_WITH_KNOTS ( ( 4, 4 ),
 ( 1.570796326794896558, 3.141592653589791340 ),
 .UNSPECIFIED. ) 
 CURVE ( )  GEOMETRIC_REPRESENTATION_ITEM ( )  RATIONAL_B_SPLINE_CURVE ( ( 1.000000000000000000, 0.8047378541243654926, 0.8047378541243654926, 1.000000000000000000 ) ) 
 REPRESENTATION_ITEM ( '' )  );
#498 = FILL_AREA_STYLE ('',( #315 ) ) ;
#499 = ADVANCED_FACE ( 'NONE', ( #262 ), #422, .T. ) ;
#500 = DIRECTION ( 'NONE',  ( -1.000000000000000000, 0.000000000000000000, -1.138269997360109674E-16 ) ) ;
#501 = CARTESIAN_POINT ( 'NONE',  ( 6.350000000000000533, -2.999999999999999112, -5.620000000000001883 ) ) ;
#502 = DIRECTION ( 'NONE',  ( 1.365923996832131609E-16, -0.000000000000000000, 1.000000000000000000 ) ) ;
#503 = LINE ( 'NONE', #346, #48 ) ;
#504 = CARTESIAN_POINT ( 'NONE',  ( -6.349999999999998757, -2.707106781186547018, -5.620000000000001883 ) ) ;
#505 = DIRECTION ( 'NONE',  ( 1.000000000000000000, -0.000000000000000000, 0.000000000000000000 ) ) ;
#506 = ORIENTED_EDGE ( 'NONE', *, *, #67, .T. ) ;
#507 = VECTOR ( 'NONE', #42, 1000.000000000000000 ) ;
#508 = AXIS2_PLACEMENT_3D ( 'NONE', #118, #432, #111 ) ;
#509 = CYLINDRICAL_SURFACE ( 'NONE', #392, 2.000000000000000000 ) ;
#510 = EDGE_CURVE ( 'NONE', #117, #523, #427, .T. ) ;
#511 = ORIENTED_EDGE ( 'NONE', *, *, #260, .T. ) ;
#512 = CARTESIAN_POINT ( 'NONE',  ( 6.350000000000000533, -2.999999999999999112, 1.999999999999998224 ) ) ;
#513 = CARTESIAN_POINT ( 'NONE',  ( 0.000000000000000000, 0.000000000000000000, 0.000000000000000000 ) ) ;
#514 = VERTEX_POINT ( 'NONE', #516 ) ;
#515 = CARTESIAN_POINT ( 'NONE',  ( 0.000000000000000000, 0.000000000000000000, 0.000000000000000000 ) ) ;
#516 = CARTESIAN_POINT ( 'NONE',  ( -4.349999999999997868, -20.00000000000000000, -3.620000000000000551 ) ) ;
#517 = ORIENTED_EDGE ( 'NONE', *, *, #189, .F. ) ;
#518 = DIRECTION ( 'NONE',  ( -1.138269997360109674E-16, 0.000000000000000000, 1.000000000000000000 ) ) ;
#519 = VECTOR ( 'NONE', #198, 1000.000000000000000 ) ;
#520 = ORIENTED_EDGE ( 'NONE', *, *, #413, .F. ) ;
#521 = DIRECTION ( 'NONE',  ( -1.000000000000000000, -0.000000000000000000, -0.000000000000000000 ) ) ;
#522 = CARTESIAN_POINT ( 'NONE',  ( -5.521572875253807133, -20.00000000000000000, -4.791572875253809372 ) ) ;
#523 = VERTEX_POINT ( 'NONE', #196 ) ;
#524 = APPLICATION_CONTEXT ( 'automotive_design' ) ;
#525 = ADVANCED_FACE ( 'NONE', ( #70 ), #284, .F. ) ;
#526 = EDGE_LOOP ( 'NONE', ( #98, #82, #447, #328 ) ) ;
#527 = ADVANCED_FACE ( 'NONE', ( #204 ), #441, .T. ) ;
#528 = PRESENTATION_LAYER_ASSIGNMENT (  '', '', ( #280 ) ) ;
#529 = CARTESIAN_POINT ( 'NONE',  ( -6.849999999999997868, -2.500000000000000000, -6.120000000000000107 ) ) ;
ENDSEC;
END-ISO-10303-21;
