ISO-10303-21;
HEADER;
FILE_DESCRIPTION (( 'STEP AP214' ),
    '1' );
FILE_NAME ('MonitorMountBase_ELP.STEP',
    '2026-09-07T18:01:13',
    ( '' ),
    ( '' ),
    'SwSTEP 2.0',
    'SolidWorks 2026',
    '' );
FILE_SCHEMA (( 'AUTOMOTIVE_DESIGN' ));
ENDSEC;

DATA;
#1 = CARTESIAN_POINT ( 'NONE',  ( 21.00000000000000000, 8.649999999999998579, -31.19000000000000483 ) ) ;
#2 = CARTESIAN_POINT ( 'NONE',  ( -12.00000000000000178, 0.000000000000000000, -11.00000000000000000 ) ) ;
#3 = ORIENTED_EDGE ( 'NONE', *, *, #292, .T. ) ;
#4 = PLANE ( 'NONE',  #284 ) ;
#5 = FACE_OUTER_BOUND ( 'NONE', #364, .T. ) ;
#6 = EDGE_CURVE ( 'NONE', #566, #490, #523, .T. ) ;
#7 = DIRECTION ( 'NONE',  ( -1.000000000000000000, -0.000000000000000000, -0.000000000000000000 ) ) ;
#8 = LINE ( 'NONE', #488, #233 ) ;
#9 = AXIS2_PLACEMENT_3D ( 'NONE', #100, #395, #304 ) ;
#10 = VECTOR ( 'NONE', #169, 1000.000000000000000 ) ;
#11 = PLANE ( 'NONE',  #346 ) ;
#12 = VERTEX_POINT ( 'NONE', #55 ) ;
#13 = PLANE ( 'NONE',  #67 ) ;
#14 = DIRECTION ( 'NONE',  ( 1.089358883838278164E-16, 0.000000000000000000, 1.000000000000000000 ) ) ;
#15 = EDGE_LOOP ( 'NONE', ( #398, #514, #547, #33, #368, #323, #299, #265 ) ) ;
#16 = FACE_OUTER_BOUND ( 'NONE', #497, .T. ) ;
#17 = AXIS2_PLACEMENT_3D ( 'NONE', #396, #260, #271 ) ;
#18 = EDGE_CURVE ( 'NONE', #117, #597, #151, .T. ) ;
#19 = AXIS2_PLACEMENT_3D ( 'NONE', #37, #228, #114 ) ;
#20 = DIRECTION ( 'NONE',  ( -2.312964634635742957E-16, 0.000000000000000000, -1.000000000000000000 ) ) ;
#21 = ORIENTED_EDGE ( 'NONE', *, *, #108, .T. ) ;
#22 = LINE ( 'NONE', #119, #234 ) ;
#23 = PRODUCT_DEFINITION ( 'UNKNOWN', '', #336, #584 ) ;
#24 = DIRECTION ( 'NONE',  ( -1.000000000000000000, 0.000000000000000000, 0.000000000000000000 ) ) ;
#25 = ORIENTED_EDGE ( 'NONE', *, *, #399, .T. ) ;
#26 = DIRECTION ( 'NONE',  ( -1.000000000000000000, -0.000000000000000000, -0.000000000000000000 ) ) ;
#27 = ADVANCED_FACE ( 'NONE', ( #576 ), #387, .F. ) ;
#28 = PLANE ( 'NONE',  #579 ) ;
#29 = ORIENTED_EDGE ( 'NONE', *, *, #450, .F. ) ;
#30 = CARTESIAN_POINT ( 'NONE',  ( 11.99999999999999645, -35.55999999999999517, -26.00000000000000000 ) ) ;
#31 = STYLED_ITEM ( 'NONE', ( #332 ), #298 ) ;
#32 = DIRECTION ( 'NONE',  ( 1.156482317317871478E-16, 0.000000000000000000, 1.000000000000000000 ) ) ;
#33 = ORIENTED_EDGE ( 'NONE', *, *, #378, .T. ) ;
#34 = CARTESIAN_POINT ( 'NONE',  ( -21.00000000000000000, -6.349999999999999645, -7.776507174585692163E-16 ) ) ;
#35 = EDGE_CURVE ( 'NONE', #586, #333, #436, .T. ) ;
#36 = ORIENTED_EDGE ( 'NONE', *, *, #562, .F. ) ;
#37 = CARTESIAN_POINT ( 'NONE',  ( 12.99999999999999822, 7.649999999999996803, -26.00000000000000000 ) ) ;
#38 = FACE_OUTER_BOUND ( 'NONE', #152, .T. ) ;
#39 = ORIENTED_EDGE ( 'NONE', *, *, #61, .T. ) ;
#40 = VECTOR ( 'NONE', #57, 1000.000000000000000 ) ;
#41 = ORIENTED_EDGE ( 'NONE', *, *, #555, .T. ) ;
#42 = CARTESIAN_POINT ( 'NONE',  ( -12.00000000000000178, 7.649999999999996803, -11.00000000000000000 ) ) ;
#43 = ORIENTED_EDGE ( 'NONE', *, *, #399, .F. ) ;
#44 = EDGE_CURVE ( 'NONE', #330, #84, #477, .T. ) ;
#45 = ORIENTED_EDGE ( 'NONE', *, *, #513, .T. ) ;
#46 = DIRECTION ( 'NONE',  ( -1.000000000000000000, 0.000000000000000000, 1.156482317317871478E-16 ) ) ;
#47 = DIRECTION ( 'NONE',  ( 2.312964634635742957E-16, -0.000000000000000000, 1.000000000000000000 ) ) ;
#48 = VERTEX_POINT ( 'NONE', #148 ) ;
#49 = CARTESIAN_POINT ( 'NONE',  ( -12.00000000000000355, -35.55999999999999517, -26.00000000000000000 ) ) ;
#50 = LINE ( 'NONE', #441, #422 ) ;
#51 = ADVANCED_FACE ( 'NONE', ( #99 ), #11, .F. ) ;
#52 = CARTESIAN_POINT ( 'NONE',  ( -12.00000000000000178, 7.649999999999996803, -11.00000000000000000 ) ) ;
#53 = ADVANCED_FACE ( 'NONE', ( #353 ), #143, .T. ) ;
#54 = DIRECTION ( 'NONE',  ( -0.000000000000000000, 1.000000000000000000, -0.000000000000000000 ) ) ;
#55 = CARTESIAN_POINT ( 'NONE',  ( -21.00000000000000000, -6.349999999999999645, -7.776507174585692163E-16 ) ) ;
#56 = ORIENTED_EDGE ( 'NONE', *, *, #581, .F. ) ;
#57 = DIRECTION ( 'NONE',  ( 1.156482317317871478E-16, 0.000000000000000000, 1.000000000000000000 ) ) ;
#58 = ORIENTED_EDGE ( 'NONE', *, *, #356, .T. ) ;
#59 = DIRECTION ( 'NONE',  ( 1.000000000000000000, 0.000000000000000000, -2.312964634635742957E-16 ) ) ;
#60 = ORIENTED_EDGE ( 'NONE', *, *, #349, .F. ) ;
#61 = EDGE_CURVE ( 'NONE', #73, #566, #306, .T. ) ;
#62 = CARTESIAN_POINT ( 'NONE',  ( 21.00000000000000000, -35.55999999999999517, -31.19000000000000483 ) ) ;
#63 = DIRECTION ( 'NONE',  ( -1.000000000000000000, -0.000000000000000000, -0.000000000000000000 ) ) ;
#64 = VERTEX_POINT ( 'NONE', #439 ) ;
#65 = AXIS2_PLACEMENT_3D ( 'NONE', #291, #92, #243 ) ;
#66 = CARTESIAN_POINT ( 'NONE',  ( 21.00000000000000000, -6.350000000000001421, 3.809999999999998721 ) ) ;
#67 = AXIS2_PLACEMENT_3D ( 'NONE', #167, #499, #545 ) ;
#68 = DIRECTION ( 'NONE',  ( 0.000000000000000000, 0.000000000000000000, 1.000000000000000000 ) ) ;
#69 = ORIENTED_EDGE ( 'NONE', *, *, #471, .F. ) ;
#70 = EDGE_CURVE ( 'NONE', #117, #64, #201, .T. ) ;
#71 = FACE_OUTER_BOUND ( 'NONE', #268, .T. ) ;
#72 = PLANE ( 'NONE',  #139 ) ;
#73 = VERTEX_POINT ( 'NONE', #2 ) ;
#74 = CARTESIAN_POINT ( 'NONE',  ( -12.41421356237309936, 8.649999999999998579, -26.41421356237309936 ) ) ;
#75 = VERTEX_POINT ( 'NONE', #247 ) ;
#76 =( GEOMETRIC_REPRESENTATION_CONTEXT ( 3 ) GLOBAL_UNCERTAINTY_ASSIGNED_CONTEXT ( ( #224 ) ) GLOBAL_UNIT_ASSIGNED_CONTEXT ( ( #266, #331, #241 ) ) REPRESENTATION_CONTEXT ( 'NONE', 'WORKASPACE' ) );
#77 = CARTESIAN_POINT ( 'NONE',  ( 12.99999999999999822, 8.649999999999998579, -27.00000000000000000 ) ) ;
#78 = ORIENTED_EDGE ( 'NONE', *, *, #108, .F. ) ;
#79 = CARTESIAN_POINT ( 'NONE',  ( -21.00000000000000000, -35.55999999999999517, -25.40000000000000213 ) ) ;
#80 = ORIENTED_EDGE ( 'NONE', *, *, #349, .T. ) ;
#81 = EDGE_CURVE ( 'NONE', #494, #563, #391, .T. ) ;
#82 = PRODUCT_CONTEXT ( 'NONE', #218, 'mechanical' ) ;
#83 = CARTESIAN_POINT ( 'NONE',  ( 11.99999999999999645, -35.55999999999999517, -26.00000000000000000 ) ) ;
#84 = VERTEX_POINT ( 'NONE', #582 ) ;
#85 = LINE ( 'NONE', #42, #478 ) ;
#86 = VECTOR ( 'NONE', #7, 1000.000000000000000 ) ;
#87 = VERTEX_POINT ( 'NONE', #146 ) ;
#88 = EDGE_CURVE ( 'NONE', #511, #445, #250, .T. ) ;
#89 =( NAMED_UNIT ( * ) SI_UNIT ( $, .STERADIAN. ) SOLID_ANGLE_UNIT ( ) );
#90 = ORIENTED_EDGE ( 'NONE', *, *, #252, .T. ) ;
#91 = LINE ( 'NONE', #476, #105 ) ;
#92 = DIRECTION ( 'NONE',  ( 1.000000000000000000, 0.000000000000000000, 0.000000000000000000 ) ) ;
#93 = LINE ( 'NONE', #479, #519 ) ;
#94 = EDGE_CURVE ( 'NONE', #158, #12, #8, .T. ) ;
#95 = AXIS2_PLACEMENT_3D ( 'NONE', #342, #301, #102 ) ;
#96 = PLANE ( 'NONE',  #412 ) ;
#97 = VECTOR ( 'NONE', #453, 1000.000000000000000 ) ;
#98 = CARTESIAN_POINT ( 'NONE',  ( -12.41421356237309936, 8.649999999999998579, -10.58578643762690241 ) ) ;
#99 = FACE_OUTER_BOUND ( 'NONE', #15, .T. ) ;
#100 = CARTESIAN_POINT ( 'NONE',  ( -21.00000000000000000, -35.55999999999999517, 54.22130303030317577 ) ) ;
#101 = ORIENTED_EDGE ( 'NONE', *, *, #562, .T. ) ;
#102 = DIRECTION ( 'NONE',  ( 0.000000000000000000, 0.000000000000000000, 1.000000000000000000 ) ) ;
#103 =( GEOMETRIC_REPRESENTATION_CONTEXT ( 3 ) GLOBAL_UNCERTAINTY_ASSIGNED_CONTEXT ( ( #460 ) ) GLOBAL_UNIT_ASSIGNED_CONTEXT ( ( #185, #605, #89 ) ) REPRESENTATION_CONTEXT ( 'NONE', 'WORKASPACE' ) );
#104 = ORIENTED_EDGE ( 'NONE', *, *, #378, .F. ) ;
#105 = VECTOR ( 'NONE', #123, 1000.000000000000000 ) ;
#106 = AXIS2_PLACEMENT_3D ( 'NONE', #388, #145, #351 ) ;
#107 = ADVANCED_FACE ( 'NONE', ( #525 ), #96, .F. ) ;
#108 = EDGE_CURVE ( 'NONE', #75, #593, #294, .T. ) ;
#109 = DIRECTION ( 'NONE',  ( 1.000000000000000000, -0.000000000000000000, -1.156482317317871478E-16 ) ) ;
#110 = ORIENTED_EDGE ( 'NONE', *, *, #541, .T. ) ;
#111 = DIRECTION ( 'NONE',  ( -1.000000000000000000, -0.000000000000000000, -0.000000000000000000 ) ) ;
#112 = DIRECTION ( 'NONE',  ( 1.000000000000000000, 0.000000000000000000, 0.000000000000000000 ) ) ;
#113 = ORIENTED_EDGE ( 'NONE', *, *, #88, .T. ) ;
#114 = DIRECTION ( 'NONE',  ( -1.000000000000000000, 0.000000000000000000, 0.000000000000000000 ) ) ;
#115 = LINE ( 'NONE', #489, #97 ) ;
#116 = EDGE_CURVE ( 'NONE', #602, #319, #50, .T. ) ;
#117 = VERTEX_POINT ( 'NONE', #484 ) ;
#118 = VECTOR ( 'NONE', #54, 1000.000000000000000 ) ;
#119 = CARTESIAN_POINT ( 'NONE',  ( -21.00000000000000000, 8.649999999999998579, -31.19000000000000483 ) ) ;
#120 = VECTOR ( 'NONE', #589, 1000.000000000000000 ) ;
#121 = DIRECTION ( 'NONE',  ( 0.000000000000000000, 0.000000000000000000, -1.000000000000000000 ) ) ;
#122 = ORIENTED_EDGE ( 'NONE', *, *, #427, .F. ) ;
#123 = DIRECTION ( 'NONE',  ( -0.000000000000000000, 1.000000000000000000, -0.000000000000000000 ) ) ;
#124 = CARTESIAN_POINT ( 'NONE',  ( -21.00000000000000000, -35.55999999999999517, 54.22130303030317577 ) ) ;
#125 = ORIENTED_EDGE ( 'NONE', *, *, #61, .F. ) ;
#126 = CARTESIAN_POINT ( 'NONE',  ( 13.00000000000000178, 8.649999999999998579, -9.999999999999998224 ) ) ;
#127 = DIRECTION ( 'NONE',  ( 1.000000000000000000, 0.000000000000000000, 0.000000000000000000 ) ) ;
#128 = EDGE_LOOP ( 'NONE', ( #428, #468, #43, #413, #212, #517 ) ) ;
#129 = CLOSED_SHELL ( 'NONE', ( #27, #177, #136, #51, #463, #340, #270, #313, #107, #53, #197, #434, #163, #280, #507, #223, #302, #614, #328 ) ) ;
#130 = VECTOR ( 'NONE', #438, 1000.000000000000000 ) ;
#131 = CARTESIAN_POINT ( 'NONE',  ( 21.00000000000000000, 8.649999999999998579, 3.809999999999998721 ) ) ;
#132 = ORIENTED_EDGE ( 'NONE', *, *, #526, .F. ) ;
#133 = APPLICATION_PROTOCOL_DEFINITION ( 'draft international standard', 'automotive_design', 1998, #218 ) ;
#134 = EDGE_LOOP ( 'NONE', ( #449, #165, #561, #56 ) ) ;
#135 = PLANE ( 'NONE',  #394 ) ;
#136 = ADVANCED_FACE ( 'NONE', ( #5 ), #204, .F. ) ;
#137 = EDGE_LOOP ( 'NONE', ( #25, #80, #36, #125 ) ) ;
#138 = FILL_AREA_STYLE_COLOUR ( '', #315 ) ;
#139 = AXIS2_PLACEMENT_3D ( 'NONE', #314, #59, #20 ) ;
#140 = VECTOR ( 'NONE', #570, 1000.000000000000000 ) ;
#141 = ORIENTED_EDGE ( 'NONE', *, *, #555, .F. ) ;
#142 = LINE ( 'NONE', #573, #130 ) ;
#143 = PLANE ( 'NONE',  #65 ) ;
#144 = APPLICATION_PROTOCOL_DEFINITION ( 'draft international standard', 'automotive_design', 1998, #254 ) ;
#145 = DIRECTION ( 'NONE',  ( -1.000000000000000000, -0.000000000000000000, 2.312964634635742957E-16 ) ) ;
#146 = CARTESIAN_POINT ( 'NONE',  ( -21.00000000000000000, 8.649999999999998579, 3.809999999999998721 ) ) ;
#147 = CARTESIAN_POINT ( 'NONE',  ( -12.00000000000000355, -35.55999999999999517, -26.00000000000000000 ) ) ;
#148 = CARTESIAN_POINT ( 'NONE',  ( -21.00000000000000000, 0.000000000000000000, 0.000000000000000000 ) ) ;
#149 = VECTOR ( 'NONE', #341, 1000.000000000000000 ) ;
#150 = CARTESIAN_POINT ( 'NONE',  ( -12.00000000000000355, 7.649999999999996803, -26.00000000000000000 ) ) ;
#151 = LINE ( 'NONE', #443, #118 ) ;
#152 = EDGE_LOOP ( 'NONE', ( #58, #612, #590, #508 ) ) ;
#153 = CARTESIAN_POINT ( 'NONE',  ( 13.00000000000000533, 8.649999999999998579, 3.810000000000000497 ) ) ;
#154 = EDGE_CURVE ( 'NONE', #511, #602, #397, .T. ) ;
#155 = ORIENTED_EDGE ( 'NONE', *, *, #187, .T. ) ;
#156 = CARTESIAN_POINT ( 'NONE',  ( 21.00000000000000000, 8.649999999999998579, 3.809999999999998721 ) ) ;
#157 = VECTOR ( 'NONE', #355, 1000.000000000000000 ) ;
#158 = VERTEX_POINT ( 'NONE', #595 ) ;
#159 = CIRCLE ( 'NONE', #106, 79.62130303030316725 ) ;
#160 = CARTESIAN_POINT ( 'NONE',  ( -12.00000000000000178, 6.938893903907228378E-15, -17.01800000000001845 ) ) ;
#161 = ORIENTED_EDGE ( 'NONE', *, *, #383, .F. ) ;
#162 = DIRECTION ( 'NONE',  ( 1.156482317317871478E-16, 0.000000000000000000, 1.000000000000000000 ) ) ;
#163 = ADVANCED_FACE ( 'NONE', ( #318 ), #72, .F. ) ;
#164 = LINE ( 'NONE', #267, #157 ) ;
#165 = ORIENTED_EDGE ( 'NONE', *, *, #442, .F. ) ;
#166 = CARTESIAN_POINT ( 'NONE',  ( 21.00000000000000000, -35.55999999999999517, -25.40000000000000213 ) ) ;
#167 = CARTESIAN_POINT ( 'NONE',  ( 21.00000000000000000, 0.000000000000000000, 0.000000000000000000 ) ) ;
#168 = ORIENTED_EDGE ( 'NONE', *, *, #486, .F. ) ;
#169 = DIRECTION ( 'NONE',  ( -1.000000000000000000, -0.000000000000000000, -0.000000000000000000 ) ) ;
#170 = VECTOR ( 'NONE', #550, 1000.000000000000000 ) ;
#171 = AXIS2_PLACEMENT_3D ( 'NONE', #530, #287, #300 ) ;
#172 = LINE ( 'NONE', #502, #120 ) ;
#173 = VERTEX_POINT ( 'NONE', #160 ) ;
#174 = DIRECTION ( 'NONE',  ( 1.000000000000000000, 0.000000000000000000, 0.000000000000000000 ) ) ;
#175 = ORIENTED_EDGE ( 'NONE', *, *, #231, .F. ) ;
#176 = CARTESIAN_POINT ( 'NONE',  ( -21.00000000000000000, 0.000000000000000000, 0.000000000000000000 ) ) ;
#177 = ADVANCED_FACE ( 'NONE', ( #311 ), #13, .F. ) ;
#178 = LINE ( 'NONE', #373, #470 ) ;
#179 = EDGE_LOOP ( 'NONE', ( #29, #189, #326, #69 ) ) ;
#180 = VECTOR ( 'NONE', #574, 1000.000000000000000 ) ;
#181 = AXIS2_PLACEMENT_3D ( 'NONE', #124, #112, #322 ) ;
#182 = AXIS2_PLACEMENT_3D ( 'NONE', #520, #174, #334 ) ;
#183 = ORIENTED_EDGE ( 'NONE', *, *, #603, .F. ) ;
#184 = EDGE_CURVE ( 'NONE', #597, #379, #567, .T. ) ;
#185 =( LENGTH_UNIT ( ) NAMED_UNIT ( * ) SI_UNIT ( .MILLI., .METRE. ) );
#186 = ORIENTED_EDGE ( 'NONE', *, *, #535, .F. ) ;
#187 = EDGE_CURVE ( 'NONE', #173, #73, #115, .T. ) ;
#188 = SURFACE_SIDE_STYLE ('',( #377 ) ) ;
#189 = ORIENTED_EDGE ( 'NONE', *, *, #292, .F. ) ;
#190 = VECTOR ( 'NONE', #282, 1000.000000000000000 ) ;
#191 = CARTESIAN_POINT ( 'NONE',  ( 11.99999999999999645, 7.649999999999996803, -26.00000000000000000 ) ) ;
#192 = VECTOR ( 'NONE', #372, 1000.000000000000000 ) ;
#193 = DIRECTION ( 'NONE',  ( -2.312964634635742957E-16, 0.000000000000000000, -1.000000000000000000 ) ) ;
#194 = DIRECTION ( 'NONE',  ( -1.156482317317871478E-16, -0.000000000000000000, -1.000000000000000000 ) ) ;
#195 = DIRECTION ( 'NONE',  ( 0.000000000000000000, 1.000000000000000000, 0.000000000000000000 ) ) ;
#196 = ORIENTED_EDGE ( 'NONE', *, *, #356, .F. ) ;
#197 = ADVANCED_FACE ( 'NONE', ( #205 ), #444, .F. ) ;
#198 = CARTESIAN_POINT ( 'NONE',  ( -12.00000000000000355, 8.235786437626902767, -11.00000000000000178 ) ) ;
#199 = DIRECTION ( 'NONE',  ( -2.312964634635742957E-16, -0.000000000000000000, -1.000000000000000000 ) ) ;
#200 = CARTESIAN_POINT ( 'NONE',  ( 21.00000000000000000, 8.649999999999998579, -31.19000000000000483 ) ) ;
#201 = LINE ( 'NONE', #433, #40 ) ;
#202 = VECTOR ( 'NONE', #220, 1000.000000000000000 ) ;
#203 = EDGE_CURVE ( 'NONE', #421, #569, #257, .T. ) ;
#204 = CYLINDRICAL_SURFACE ( 'NONE', #17, 79.62130303030315304 ) ;
#205 = FACE_OUTER_BOUND ( 'NONE', #500, .T. ) ;
#206 = PLANE ( 'NONE',  #518 ) ;
#207 = ORIENTED_EDGE ( 'NONE', *, *, #603, .T. ) ;
#208 = VECTOR ( 'NONE', #464, 1000.000000000000000 ) ;
#209 = EDGE_CURVE ( 'NONE', #586, #158, #172, .T. ) ;
#210 = PLANE ( 'NONE',  #607 ) ;
#211 = CARTESIAN_POINT ( 'NONE',  ( -13.00000000000000533, 8.649999999999998579, -27.00000000000000000 ) ) ;
#212 = ORIENTED_EDGE ( 'NONE', *, *, #245, .F. ) ;
#213 = DIRECTION ( 'NONE',  ( 1.156482317317871478E-16, 0.000000000000000000, 1.000000000000000000 ) ) ;
#214 = LINE ( 'NONE', #309, #170 ) ;
#215 = ORIENTED_EDGE ( 'NONE', *, *, #81, .F. ) ;
#216 = DIRECTION ( 'NONE',  ( -0.000000000000000000, 1.000000000000000000, -0.000000000000000000 ) ) ;
#217 = CARTESIAN_POINT ( 'NONE',  ( -12.00000000000000178, -35.55999999999999517, -11.00000000000000000 ) ) ;
#218 = APPLICATION_CONTEXT ( 'automotive_design' ) ;
#219 = ORIENTED_EDGE ( 'NONE', *, *, #515, .F. ) ;
#220 = DIRECTION ( 'NONE',  ( -0.000000000000000000, -0.000000000000000000, 1.000000000000000000 ) ) ;
#221 = EDGE_CURVE ( 'NONE', #563, #490, #164, .T. ) ;
#222 = ORIENTED_EDGE ( 'NONE', *, *, #588, .F. ) ;
#223 = ADVANCED_FACE ( 'NONE', ( #539 ), #360, .T. ) ;
#224 = UNCERTAINTY_MEASURE_WITH_UNIT (LENGTH_MEASURE( 1.000000000000000082E-05 ), #266, 'distance_accuracy_value', 'NONE');
#225 = LINE ( 'NONE', #30, #401 ) ;
#226 = DIRECTION ( 'NONE',  ( -0.000000000000000000, 4.553079989440439683E-16, -1.000000000000000000 ) ) ;
#227 = VERTEX_POINT ( 'NONE', #367 ) ;
#228 = DIRECTION ( 'NONE',  ( -2.312964634635742957E-16, 0.000000000000000000, -1.000000000000000000 ) ) ;
#229 = DIRECTION ( 'NONE',  ( 1.000000000000000000, 0.000000000000000000, 0.000000000000000000 ) ) ;
#230 = ORIENTED_EDGE ( 'NONE', *, *, #231, .T. ) ;
#231 = EDGE_CURVE ( 'NONE', #421, #452, #264, .T. ) ;
#232 = VECTOR ( 'NONE', #536, 1000.000000000000000 ) ;
#233 = VECTOR ( 'NONE', #344, 1000.000000000000000 ) ;
#234 = VECTOR ( 'NONE', #594, 1000.000000000000000 ) ;
#235 = CYLINDRICAL_SURFACE ( 'NONE', #182, 1.000000000000000888 ) ;
#236 = ORIENTED_EDGE ( 'NONE', *, *, #303, .F. ) ;
#237 = FILL_AREA_STYLE ('',( #138 ) ) ;
#238 = ORIENTED_EDGE ( 'NONE', *, *, #450, .T. ) ;
#239 = CARTESIAN_POINT ( 'NONE',  ( -13.00000000000000178, 8.649999999999998579, 3.810000000000002718 ) ) ;
#240 = ORIENTED_EDGE ( 'NONE', *, *, #409, .T. ) ;
#241 =( NAMED_UNIT ( * ) SI_UNIT ( $, .STERADIAN. ) SOLID_ANGLE_UNIT ( ) );
#242 = CARTESIAN_POINT ( 'NONE',  ( 21.00000000000000000, -35.55999999999999517, -31.19000000000000483 ) ) ;
#243 = DIRECTION ( 'NONE',  ( 0.000000000000000000, 0.000000000000000000, -1.000000000000000000 ) ) ;
#244 = SHAPE_DEFINITION_REPRESENTATION ( #537, #591 ) ;
#245 = EDGE_CURVE ( 'NONE', #64, #173, #447, .T. ) ;
#246 = DIRECTION ( 'NONE',  ( -0.000000000000000000, -1.000000000000000000, -0.000000000000000000 ) ) ;
#247 = CARTESIAN_POINT ( 'NONE',  ( -21.00000000000000000, 0.000000000000000000, -17.01800000000000423 ) ) ;
#248 = VERTEX_POINT ( 'NONE', #451 ) ;
#249 = PLANE ( 'NONE',  #296 ) ;
#250 = LINE ( 'NONE', #352, #548 ) ;
#251 = ORIENTED_EDGE ( 'NONE', *, *, #221, .F. ) ;
#252 = EDGE_CURVE ( 'NONE', #158, #494, #214, .T. ) ;
#253 = DIRECTION ( 'NONE',  ( 0.000000000000000000, -1.224646799147353454E-16, 1.000000000000000000 ) ) ;
#254 = APPLICATION_CONTEXT ( 'automotive_design' ) ;
#255 = CARTESIAN_POINT ( 'NONE',  ( 21.00000000000000000, 0.000000000000000000, 0.000000000000000000 ) ) ;
#256 = ORIENTED_EDGE ( 'NONE', *, *, #320, .T. ) ;
#257 = LINE ( 'NONE', #156, #528 ) ;
#258 = ORIENTED_EDGE ( 'NONE', *, *, #303, .T. ) ;
#259 = DIRECTION ( 'NONE',  ( -0.000000000000000000, 0.000000000000000000, 1.000000000000000000 ) ) ;
#260 = DIRECTION ( 'NONE',  ( -1.000000000000000000, -0.000000000000000000, -0.000000000000000000 ) ) ;
#261 = AXIS2_PLACEMENT_3D ( 'NONE', #496, #24, #68 ) ;
#262 = ORIENTED_EDGE ( 'NONE', *, *, #572, .T. ) ;
#263 = CARTESIAN_POINT ( 'NONE',  ( -21.00000000000000000, 0.000000000000000000, 0.000000000000000000 ) ) ;
#264 = LINE ( 'NONE', #363, #273 ) ;
#265 = ORIENTED_EDGE ( 'NONE', *, *, #116, .T. ) ;
#266 =( LENGTH_UNIT ( ) NAMED_UNIT ( * ) SI_UNIT ( .MILLI., .METRE. ) );
#267 = CARTESIAN_POINT ( 'NONE',  ( 21.00000000000000000, 0.000000000000000000, -17.01800000000000423 ) ) ;
#268 = EDGE_LOOP ( 'NONE', ( #238, #293, #222, #578 ) ) ;
#269 = LINE ( 'NONE', #495, #457 ) ;
#270 = ADVANCED_FACE ( 'NONE', ( #407 ), #206, .F. ) ;
#271 = DIRECTION ( 'NONE',  ( 0.000000000000000000, 0.000000000000000000, 1.000000000000000000 ) ) ;
#272 = ORIENTED_EDGE ( 'NONE', *, *, #154, .F. ) ;
#273 = VECTOR ( 'NONE', #400, 1000.000000000000000 ) ;
#274 = DIRECTION ( 'NONE',  ( -0.000000000000000000, 1.000000000000000000, -0.000000000000000000 ) ) ;
#275 = CIRCLE ( 'NONE', #171, 79.62130303030316725 ) ;
#276 = FACE_OUTER_BOUND ( 'NONE', #462, .T. ) ;
#277 = ORIENTED_EDGE ( 'NONE', *, *, #420, .T. ) ;
#278 = CARTESIAN_POINT ( 'NONE',  ( 21.00000000000000000, -6.350000000000001421, 3.809999999999998721 ) ) ;
#279 = FACE_OUTER_BOUND ( 'NONE', #134, .T. ) ;
#280 = ADVANCED_FACE ( 'NONE', ( #492 ), #28, .F. ) ;
#281 = ORIENTED_EDGE ( 'NONE', *, *, #564, .F. ) ;
#282 = DIRECTION ( 'NONE',  ( -2.312964634635742957E-16, 0.000000000000000000, -1.000000000000000000 ) ) ;
#283 = ORIENTED_EDGE ( 'NONE', *, *, #35, .F. ) ;
#284 = AXIS2_PLACEMENT_3D ( 'NONE', #49, #46, #162 ) ;
#285 = DIRECTION ( 'NONE',  ( 0.000000000000000000, -0.000000000000000000, -1.000000000000000000 ) ) ;
#286 = EDGE_LOOP ( 'NONE', ( #240, #381, #466, #60 ) ) ;
#287 = DIRECTION ( 'NONE',  ( -1.000000000000000000, -0.000000000000000000, -0.000000000000000000 ) ) ;
#288 = ORIENTED_EDGE ( 'NONE', *, *, #6, .F. ) ;
#289 = DIRECTION ( 'NONE',  ( 0.000000000000000000, 0.000000000000000000, 1.000000000000000000 ) ) ;
#290 = DIRECTION ( 'NONE',  ( -1.000000000000000000, 0.000000000000000000, -0.000000000000000000 ) ) ;
#291 = CARTESIAN_POINT ( 'NONE',  ( 21.00000000000000000, -35.55999999999999517, 54.22130303030317577 ) ) ;
#292 = EDGE_CURVE ( 'NONE', #379, #330, #599, .T. ) ;
#293 = ORIENTED_EDGE ( 'NONE', *, *, #320, .F. ) ;
#294 = CIRCLE ( 'NONE', #9, 79.62130303030316725 ) ;
#295 = LINE ( 'NONE', #524, #414 ) ;
#296 = AXIS2_PLACEMENT_3D ( 'NONE', #200, #259, #393 ) ;
#297 = DIRECTION ( 'NONE',  ( 0.000000000000000000, -1.000000000000000000, -1.224646799147353454E-16 ) ) ;
#298 = MANIFOLD_SOLID_BREP ( 'Fillet1', #129 ) ;
#299 = ORIENTED_EDGE ( 'NONE', *, *, #154, .T. ) ;
#300 = DIRECTION ( 'NONE',  ( 0.000000000000000000, 0.000000000000000000, -1.000000000000000000 ) ) ;
#301 = DIRECTION ( 'NONE',  ( -1.000000000000000000, -0.000000000000000000, -0.000000000000000000 ) ) ;
#302 = ADVANCED_FACE ( 'NONE', ( #279 ), #557, .T. ) ;
#303 = EDGE_CURVE ( 'NONE', #452, #87, #568, .T. ) ;
#304 = DIRECTION ( 'NONE',  ( 0.000000000000000000, 0.000000000000000000, -1.000000000000000000 ) ) ;
#305 = EDGE_LOOP ( 'NONE', ( #454, #155, #39, #335, #251, #215, #371, #475 ) ) ;
#306 = LINE ( 'NONE', #483, #232 ) ;
#307 = PRESENTATION_LAYER_ASSIGNMENT (  '', '', ( #31 ) ) ;
#308 = VERTEX_POINT ( 'NONE', #380 ) ;
#309 = CARTESIAN_POINT ( 'NONE',  ( 21.00000000000000000, 0.000000000000000000, 0.000000000000000000 ) ) ;
#310 = ORIENTED_EDGE ( 'NONE', *, *, #252, .F. ) ;
#311 = FACE_OUTER_BOUND ( 'NONE', #305, .T. ) ;
#312 = VERTEX_POINT ( 'NONE', #512 ) ;
#313 = ADVANCED_FACE ( 'NONE', ( #38 ), #325, .F. ) ;
#314 = CARTESIAN_POINT ( 'NONE',  ( 11.99999999999999645, -35.55999999999999517, -26.00000000000000000 ) ) ;
#315 = COLOUR_RGB ( '',0.7921568627450980005, 0.8196078431372548767, 0.9333333333333333481 ) ;
#316 = ORIENTED_EDGE ( 'NONE', *, *, #203, .F. ) ;
#317 = CARTESIAN_POINT ( 'NONE',  ( 12.00000000000000000, 0.000000000000000000, -11.00000000000000000 ) ) ;
#318 = FACE_OUTER_BOUND ( 'NONE', #608, .T. ) ;
#319 = VERTEX_POINT ( 'NONE', #83 ) ;
#320 = EDGE_CURVE ( 'NONE', #248, #227, #337, .T. ) ;
#321 = LINE ( 'NONE', #501, #10 ) ;
#322 = DIRECTION ( 'NONE',  ( 0.000000000000000000, 0.000000000000000000, -1.000000000000000000 ) ) ;
#323 = ORIENTED_EDGE ( 'NONE', *, *, #88, .F. ) ;
#324 = CARTESIAN_POINT ( 'NONE',  ( 12.00000000000000000, 8.235786437626902767, -11.00000000000000178 ) ) ;
#325 = PLANE ( 'NONE',  #549 ) ;
#326 = ORIENTED_EDGE ( 'NONE', *, *, #184, .F. ) ;
#327 = LINE ( 'NONE', #278, #208 ) ;
#328 = ADVANCED_FACE ( 'NONE', ( #465 ), #235, .T. ) ;
#329 = DIRECTION ( 'NONE',  ( -0.000000000000000000, -0.000000000000000000, -1.000000000000000000 ) ) ;
#330 = VERTEX_POINT ( 'NONE', #77 ) ;
#331 =( NAMED_UNIT ( * ) PLANE_ANGLE_UNIT ( ) SI_UNIT ( $, .RADIAN. ) );
#332 = PRESENTATION_STYLE_ASSIGNMENT (( #611 ) ) ;
#333 = VERTEX_POINT ( 'NONE', #370 ) ;
#334 = DIRECTION ( 'NONE',  ( 0.000000000000000000, 0.000000000000000000, -1.000000000000000000 ) ) ;
#335 = ORIENTED_EDGE ( 'NONE', *, *, #6, .T. ) ;
#336 = PRODUCT_DEFINITION_FORMATION_WITH_SPECIFIED_SOURCE ( 'ANY', '', #485, .NOT_KNOWN. ) ;
#337 = LINE ( 'NONE', #467, #190 ) ;
#338 = ORIENTED_EDGE ( 'NONE', *, *, #515, .T. ) ;
#339 =( BOUNDED_CURVE ( )  B_SPLINE_CURVE ( 3, ( #52, #198, #98, #432 ),
 .UNSPECIFIED., .F., .F. ) 
 B_SPLINE_CURVE_WITH_KNOTS ( ( 4, 4 ),
 ( 0.000000000000000000, 1.570796326794896558 ),
 .UNSPECIFIED. ) 
 CURVE ( )  GEOMETRIC_REPRESENTATION_ITEM ( )  RATIONAL_B_SPLINE_CURVE ( ( 1.000000000000000000, 0.8047378541243649375, 0.8047378541243649375, 1.000000000000000000 ) ) 
 REPRESENTATION_ITEM ( '' )  );
#340 = ADVANCED_FACE ( 'NONE', ( #425, #276 ), #135, .F. ) ;
#341 = DIRECTION ( 'NONE',  ( -1.000000000000000000, 0.000000000000000000, 0.000000000000000000 ) ) ;
#342 = CARTESIAN_POINT ( 'NONE',  ( 21.00000000000000000, -35.55999999999999517, 54.22130303030317577 ) ) ;
#343 = CARTESIAN_POINT ( 'NONE',  ( 11.99999999999999467, 8.235786437626902767, -26.00000000000000355 ) ) ;
#344 = DIRECTION ( 'NONE',  ( -1.000000000000000000, -0.000000000000000000, -0.000000000000000000 ) ) ;
#345 = ORIENTED_EDGE ( 'NONE', *, *, #493, .T. ) ;
#346 = AXIS2_PLACEMENT_3D ( 'NONE', #350, #195, #531 ) ;
#347 = LINE ( 'NONE', #242, #86 ) ;
#348 = VECTOR ( 'NONE', #213, 1000.000000000000000 ) ;
#349 = EDGE_CURVE ( 'NONE', #361, #248, #85, .T. ) ;
#350 = CARTESIAN_POINT ( 'NONE',  ( 21.00000000000000000, -35.55999999999999517, -31.19000000000000483 ) ) ;
#351 = DIRECTION ( 'NONE',  ( -2.396589544444211641E-16, -2.701610031918929127E-15, -1.000000000000000000 ) ) ;
#352 = CARTESIAN_POINT ( 'NONE',  ( 21.00000000000000000, -35.55999999999999517, -31.19000000000000483 ) ) ;
#353 = FACE_OUTER_BOUND ( 'NONE', #527, .T. ) ;
#354 = VECTOR ( 'NONE', #382, 1000.000000000000000 ) ;
#355 = DIRECTION ( 'NONE',  ( -1.000000000000000000, -0.000000000000000000, -0.000000000000000000 ) ) ;
#356 = EDGE_CURVE ( 'NONE', #333, #12, #461, .T. ) ;
#357 = CARTESIAN_POINT ( 'NONE',  ( -12.00000000000000355, 7.649999999999996803, -26.00000000000000000 ) ) ;
#358 = ORIENTED_EDGE ( 'NONE', *, *, #564, .T. ) ;
#359 = CARTESIAN_POINT ( 'NONE',  ( -12.00000000000000355, -35.55999999999999517, -26.00000000000000000 ) ) ;
#360 = CYLINDRICAL_SURFACE ( 'NONE', #261, 1.000000000000000888 ) ;
#361 = VERTEX_POINT ( 'NONE', #418 ) ;
#362 = LINE ( 'NONE', #263, #487 ) ;
#363 = CARTESIAN_POINT ( 'NONE',  ( 21.00000000000000000, 8.649999999999998579, -31.19000000000000483 ) ) ;
#364 = EDGE_LOOP ( 'NONE', ( #540, #458, #272, #122 ) ) ;
#365 = AXIS2_PLACEMENT_3D ( 'NONE', #429, #289, #423 ) ;
#366 = DIRECTION ( 'NONE',  ( -0.000000000000000000, 1.000000000000000000, 1.224646799147353207E-16 ) ) ;
#367 = CARTESIAN_POINT ( 'NONE',  ( 11.99999999999999645, 7.649999999999996803, -26.00000000000000000 ) ) ;
#368 = ORIENTED_EDGE ( 'NONE', *, *, #420, .F. ) ;
#369 = CARTESIAN_POINT ( 'NONE',  ( 21.00000000000000000, 8.649999999999998579, 3.809999999999998721 ) ) ;
#370 = CARTESIAN_POINT ( 'NONE',  ( -21.00000000000000000, -6.350000000000001421, 3.809999999999998721 ) ) ;
#371 = ORIENTED_EDGE ( 'NONE', *, *, #486, .T. ) ;
#372 = DIRECTION ( 'NONE',  ( 0.000000000000000000, 0.000000000000000000, -1.000000000000000000 ) ) ;
#373 = CARTESIAN_POINT ( 'NONE',  ( -21.00000000000000000, -35.55999999999999517, -31.19000000000000483 ) ) ;
#374 = EDGE_LOOP ( 'NONE', ( #426, #168, #310, #431 ) ) ;
#375 = VECTOR ( 'NONE', #63, 1000.000000000000000 ) ;
#376 = CARTESIAN_POINT ( 'NONE',  ( 11.99999999999999645, -35.55999999999999517, -25.39999999999999147 ) ) ;
#377 = SURFACE_STYLE_FILL_AREA ( #237 ) ;
#378 = EDGE_CURVE ( 'NONE', #593, #308, #178, .T. ) ;
#379 = VERTEX_POINT ( 'NONE', #435 ) ;
#380 = CARTESIAN_POINT ( 'NONE',  ( -21.00000000000000000, -35.55999999999999517, -31.19000000000000483 ) ) ;
#381 = ORIENTED_EDGE ( 'NONE', *, *, #541, .F. ) ;
#382 = DIRECTION ( 'NONE',  ( 1.000000000000000000, -0.000000000000000000, -0.000000000000000000 ) ) ;
#383 = EDGE_CURVE ( 'NONE', #319, #117, #575, .T. ) ;
#384 = ORIENTED_EDGE ( 'NONE', *, *, #442, .T. ) ;
#385 = VECTOR ( 'NONE', #111, 1000.000000000000000 ) ;
#386 = LINE ( 'NONE', #474, #140 ) ;
#387 = CYLINDRICAL_SURFACE ( 'NONE', #95, 79.62130303030315304 ) ;
#388 = CARTESIAN_POINT ( 'NONE',  ( 12.00000000000001599, -35.55999999999999517, 54.22130303030317577 ) ) ;
#389 = DIRECTION ( 'NONE',  ( 0.000000000000000000, 0.000000000000000000, -1.000000000000000000 ) ) ;
#390 = LINE ( 'NONE', #239, #459 ) ;
#391 = LINE ( 'NONE', #480, #392 ) ;
#392 = VECTOR ( 'NONE', #389, 1000.000000000000000 ) ;
#393 = DIRECTION ( 'NONE',  ( 1.000000000000000000, 0.000000000000000000, 0.000000000000000000 ) ) ;
#394 = AXIS2_PLACEMENT_3D ( 'NONE', #131, #472, #285 ) ;
#395 = DIRECTION ( 'NONE',  ( -1.000000000000000000, -0.000000000000000000, -0.000000000000000000 ) ) ;
#396 = CARTESIAN_POINT ( 'NONE',  ( 21.00000000000000000, -35.55999999999999517, 54.22130303030317577 ) ) ;
#397 = LINE ( 'NONE', #411, #375 ) ;
#398 = ORIENTED_EDGE ( 'NONE', *, *, #383, .T. ) ;
#399 = EDGE_CURVE ( 'NONE', #73, #361, #142, .T. ) ;
#400 = DIRECTION ( 'NONE',  ( -1.000000000000000000, -0.000000000000000000, -0.000000000000000000 ) ) ;
#401 = VECTOR ( 'NONE', #216, 1000.000000000000000 ) ;
#402 = EDGE_LOOP ( 'NONE', ( #132, #408, #262, #21 ) ) ;
#403 = DIRECTION ( 'NONE',  ( 0.000000000000000000, 0.000000000000000000, -1.000000000000000000 ) ) ;
#404 = DIRECTION ( 'NONE',  ( -0.000000000000000000, -0.000000000000000000, 1.000000000000000000 ) ) ;
#405 = ORIENTED_EDGE ( 'NONE', *, *, #203, .T. ) ;
#406 = CYLINDRICAL_SURFACE ( 'NONE', #19, 1.000000000000000888 ) ;
#407 = FACE_OUTER_BOUND ( 'NONE', #558, .T. ) ;
#408 = ORIENTED_EDGE ( 'NONE', *, *, #245, .T. ) ;
#409 = EDGE_CURVE ( 'NONE', #361, #312, #339, .T. ) ;
#410 = CARTESIAN_POINT ( 'NONE',  ( 21.00000000000000000, 0.000000000000000000, -17.01800000000000423 ) ) ;
#411 = CARTESIAN_POINT ( 'NONE',  ( 21.00000000000000000, -35.55999999999999517, -25.40000000000000213 ) ) ;
#412 = AXIS2_PLACEMENT_3D ( 'NONE', #255, #253, #297 ) ;
#413 = ORIENTED_EDGE ( 'NONE', *, *, #187, .F. ) ;
#414 = VECTOR ( 'NONE', #533, 1000.000000000000000 ) ;
#415 = DIRECTION ( 'NONE',  ( -1.000000000000000000, -0.000000000000000000, -0.000000000000000000 ) ) ;
#416 = CARTESIAN_POINT ( 'NONE',  ( 21.00000000000000000, -6.349999999999999645, -7.776507174585692163E-16 ) ) ;
#417 = ORIENTED_EDGE ( 'NONE', *, *, #18, .F. ) ;
#418 = CARTESIAN_POINT ( 'NONE',  ( -12.00000000000000178, 7.649999999999996803, -11.00000000000000000 ) ) ;
#419 = EDGE_LOOP ( 'NONE', ( #600, #110, #384, #3 ) ) ;
#420 = EDGE_CURVE ( 'NONE', #445, #308, #347, .T. ) ;
#421 = VERTEX_POINT ( 'NONE', #1 ) ;
#422 = VECTOR ( 'NONE', #199, 1000.000000000000000 ) ;
#423 = DIRECTION ( 'NONE',  ( 1.000000000000000000, 0.000000000000000000, 0.000000000000000000 ) ) ;
#424 = PRODUCT_RELATED_PRODUCT_CATEGORY ( 'part', '', ( #485 ) ) ;
#425 = FACE_BOUND ( 'NONE', #419, .T. ) ;
#426 = ORIENTED_EDGE ( 'NONE', *, *, #535, .T. ) ;
#427 = EDGE_CURVE ( 'NONE', #563, #511, #275, .T. ) ;
#428 = ORIENTED_EDGE ( 'NONE', *, *, #18, .T. ) ;
#429 = CARTESIAN_POINT ( 'NONE',  ( 0.000000000000000000, 0.000000000000000000, 0.000000000000000000 ) ) ;
#430 = FACE_OUTER_BOUND ( 'NONE', #532, .T. ) ;
#431 = ORIENTED_EDGE ( 'NONE', *, *, #94, .T. ) ;
#432 = CARTESIAN_POINT ( 'NONE',  ( -13.00000000000000355, 8.649999999999998579, -9.999999999999998224 ) ) ;
#433 = CARTESIAN_POINT ( 'NONE',  ( -12.00000000000000355, -35.55999999999999517, -26.00000000000000000 ) ) ;
#434 = ADVANCED_FACE ( 'NONE', ( #587 ), #4, .F. ) ;
#435 = CARTESIAN_POINT ( 'NONE',  ( -13.00000000000000533, 8.649999999999998579, -27.00000000000000000 ) ) ;
#436 = LINE ( 'NONE', #571, #180 ) ;
#437 = ORIENTED_EDGE ( 'NONE', *, *, #427, .T. ) ;
#438 = DIRECTION ( 'NONE',  ( -0.000000000000000000, 1.000000000000000000, -0.000000000000000000 ) ) ;
#439 = CARTESIAN_POINT ( 'NONE',  ( -12.00000000000000178, -35.55999999999999517, -25.39999999999999147 ) ) ;
#440 = VECTOR ( 'NONE', #274, 1000.000000000000000 ) ;
#441 = CARTESIAN_POINT ( 'NONE',  ( 11.99999999999999645, -35.55999999999999517, -26.00000000000000000 ) ) ;
#442 = EDGE_CURVE ( 'NONE', #312, #379, #390, .T. ) ;
#443 = CARTESIAN_POINT ( 'NONE',  ( -12.00000000000000355, -35.55999999999999517, -26.00000000000000000 ) ) ;
#444 = PLANE ( 'NONE',  #181 ) ;
#445 = VERTEX_POINT ( 'NONE', #62 ) ;
#446 = CARTESIAN_POINT ( 'NONE',  ( 21.00000000000000000, 0.000000000000000000, 0.000000000000000000 ) ) ;
#447 = CIRCLE ( 'NONE', #606, 79.62130303030315304 ) ;
#448 = CARTESIAN_POINT ( 'NONE',  ( -12.00000000000000355, 8.235786437626902767, -26.00000000000000355 ) ) ;
#449 = ORIENTED_EDGE ( 'NONE', *, *, #184, .T. ) ;
#450 = EDGE_CURVE ( 'NONE', #330, #227, #546, .T. ) ;
#451 = CARTESIAN_POINT ( 'NONE',  ( 12.00000000000000000, 7.649999999999996803, -11.00000000000000000 ) ) ;
#452 = VERTEX_POINT ( 'NONE', #482 ) ;
#453 = DIRECTION ( 'NONE',  ( 1.156482317317871478E-16, 0.000000000000000000, 1.000000000000000000 ) ) ;
#454 = ORIENTED_EDGE ( 'NONE', *, *, #572, .F. ) ;
#455 = LINE ( 'NONE', #556, #348 ) ;
#456 = CARTESIAN_POINT ( 'NONE',  ( -13.00000000000000533, 7.649999999999996803, -26.00000000000000000 ) ) ;
#457 = VECTOR ( 'NONE', #26, 1000.000000000000000 ) ;
#458 = ORIENTED_EDGE ( 'NONE', *, *, #481, .T. ) ;
#459 = VECTOR ( 'NONE', #194, 1000.000000000000000 ) ;
#460 = UNCERTAINTY_MEASURE_WITH_UNIT (LENGTH_MEASURE( 1.000000000000000082E-05 ), #185, 'distance_accuracy_value', 'NONE');
#461 = LINE ( 'NONE', #34, #538 ) ;
#462 = EDGE_LOOP ( 'NONE', ( #258, #473, #316, #230 ) ) ;
#463 = ADVANCED_FACE ( 'NONE', ( #430 ), #249, .F. ) ;
#464 = DIRECTION ( 'NONE',  ( -0.000000000000000000, -1.000000000000000000, -0.000000000000000000 ) ) ;
#465 = FACE_OUTER_BOUND ( 'NONE', #286, .T. ) ;
#466 = ORIENTED_EDGE ( 'NONE', *, *, #588, .T. ) ;
#467 = CARTESIAN_POINT ( 'NONE',  ( 11.99999999999999645, 7.649999999999996803, -26.00000000000000000 ) ) ;
#468 = ORIENTED_EDGE ( 'NONE', *, *, #581, .T. ) ;
#469 = AXIS2_PLACEMENT_3D ( 'NONE', #456, #32, #560 ) ;
#470 = VECTOR ( 'NONE', #329, 1000.000000000000000 ) ;
#471 = EDGE_CURVE ( 'NONE', #227, #597, #580, .T. ) ;
#472 = DIRECTION ( 'NONE',  ( 0.000000000000000000, -1.000000000000000000, 0.000000000000000000 ) ) ;
#473 = ORIENTED_EDGE ( 'NONE', *, *, #513, .F. ) ;
#474 = CARTESIAN_POINT ( 'NONE',  ( 21.00000000000000000, 8.649999999999998579, 3.809999999999998721 ) ) ;
#475 = ORIENTED_EDGE ( 'NONE', *, *, #596, .T. ) ;
#476 = CARTESIAN_POINT ( 'NONE',  ( 21.00000000000000000, 8.649999999999998579, -31.19000000000000483 ) ) ;
#477 = LINE ( 'NONE', #153, #604 ) ;
#478 = VECTOR ( 'NONE', #127, 1000.000000000000000 ) ;
#479 = CARTESIAN_POINT ( 'NONE',  ( -21.00000000000000000, -6.350000000000001421, 3.809999999999998721 ) ) ;
#480 = CARTESIAN_POINT ( 'NONE',  ( 21.00000000000000000, 0.000000000000000000, 0.000000000000000000 ) ) ;
#481 = EDGE_CURVE ( 'NONE', #490, #602, #159, .T. ) ;
#482 = CARTESIAN_POINT ( 'NONE',  ( -21.00000000000000000, 8.649999999999998579, -31.19000000000000483 ) ) ;
#483 = CARTESIAN_POINT ( 'NONE',  ( 21.00000000000000000, 0.000000000000000000, -11.00000000000000000 ) ) ;
#484 = CARTESIAN_POINT ( 'NONE',  ( -12.00000000000000000, -35.55999999999999517, -26.00000000000000000 ) ) ;
#485 = PRODUCT ( 'MonitorMountBase_ELP', 'MonitorMountBase_ELP', '', ( #82 ) ) ;
#486 = EDGE_CURVE ( 'NONE', #494, #48, #295, .T. ) ;
#487 = VECTOR ( 'NONE', #366, 1000.000000000000000 ) ;
#488 = CARTESIAN_POINT ( 'NONE',  ( 21.00000000000000000, -6.349999999999999645, -7.776507174585692163E-16 ) ) ;
#489 = CARTESIAN_POINT ( 'NONE',  ( -12.00000000000000000, 0.000000000000000000, 3.816391647148975608E-15 ) ) ;
#490 = VERTEX_POINT ( 'NONE', #522 ) ;
#491 = CARTESIAN_POINT ( 'NONE',  ( 12.41421356237309226, 8.649999999999998579, -26.41421356237309936 ) ) ;
#492 = FACE_OUTER_BOUND ( 'NONE', #137, .T. ) ;
#493 = EDGE_CURVE ( 'NONE', #87, #333, #93, .T. ) ;
#494 = VERTEX_POINT ( 'NONE', #446 ) ;
#495 = CARTESIAN_POINT ( 'NONE',  ( 21.00000000000000000, 8.649999999999998579, -9.999999999999998224 ) ) ;
#496 = CARTESIAN_POINT ( 'NONE',  ( -12.00000000000000355, 7.649999999999996803, -27.00000000000000000 ) ) ;
#497 = EDGE_LOOP ( 'NONE', ( #358, #615, #417, #161 ) ) ;
#498 = LINE ( 'NONE', #166, #529 ) ;
#499 = DIRECTION ( 'NONE',  ( -0.000000000000000000, 1.000000000000000000, 0.000000000000000000 ) ) ;
#500 = EDGE_LOOP ( 'NONE', ( #551, #186, #196, #521, #236, #141, #104, #78 ) ) ;
#501 = CARTESIAN_POINT ( 'NONE',  ( 21.00000000000000000, 0.000000000000000000, -17.01800000000000423 ) ) ;
#502 = CARTESIAN_POINT ( 'NONE',  ( 21.00000000000000000, -6.349999999999999645, -7.776507174585692163E-16 ) ) ;
#503 = ORIENTED_EDGE ( 'NONE', *, *, #116, .F. ) ;
#504 = CARTESIAN_POINT ( 'NONE',  ( 12.00000000000000000, 7.649999999999996803, -11.00000000000000000 ) ) ;
#505 = CARTESIAN_POINT ( 'NONE',  ( -21.00000000000000000, 8.649999999999998579, 3.809999999999998721 ) ) ;
#506 = MECHANICAL_DESIGN_GEOMETRIC_PRESENTATION_REPRESENTATION (  '', ( #31 ), #103 ) ;
#507 = ADVANCED_FACE ( 'NONE', ( #16 ), #210, .F. ) ;
#508 = ORIENTED_EDGE ( 'NONE', *, *, #35, .T. ) ;
#509 = CARTESIAN_POINT ( 'NONE',  ( 12.41421356237309581, 8.649999999999998579, -10.58578643762690241 ) ) ;
#510 = CARTESIAN_POINT ( 'NONE',  ( 21.00000000000000000, 8.649999999999998579, -27.00000000000000000 ) ) ;
#511 = VERTEX_POINT ( 'NONE', #544 ) ;
#512 = CARTESIAN_POINT ( 'NONE',  ( -13.00000000000000355, 8.649999999999998579, -9.999999999999998224 ) ) ;
#513 = EDGE_CURVE ( 'NONE', #569, #87, #386, .T. ) ;
#514 = ORIENTED_EDGE ( 'NONE', *, *, #70, .T. ) ;
#515 = EDGE_CURVE ( 'NONE', #445, #421, #91, .T. ) ;
#516 = DIRECTION ( 'NONE',  ( 0.000000000000000000, -4.553079989440439683E-16, 1.000000000000000000 ) ) ;
#517 = ORIENTED_EDGE ( 'NONE', *, *, #70, .F. ) ;
#518 = AXIS2_PLACEMENT_3D ( 'NONE', #585, #121, #542 ) ;
#519 = VECTOR ( 'NONE', #246, 1000.000000000000000 ) ;
#520 = CARTESIAN_POINT ( 'NONE',  ( -12.00000000000000178, 7.649999999999996803, -9.999999999999998224 ) ) ;
#521 = ORIENTED_EDGE ( 'NONE', *, *, #493, .F. ) ;
#522 = CARTESIAN_POINT ( 'NONE',  ( 12.00000000000000000, 6.938893903907228378E-15, -17.01800000000001845 ) ) ;
#523 = LINE ( 'NONE', #583, #577 ) ;
#524 = CARTESIAN_POINT ( 'NONE',  ( 21.00000000000000000, 0.000000000000000000, 0.000000000000000000 ) ) ;
#525 = FACE_OUTER_BOUND ( 'NONE', #374, .T. ) ;
#526 = EDGE_CURVE ( 'NONE', #64, #593, #498, .T. ) ;
#527 = EDGE_LOOP ( 'NONE', ( #554, #437, #113, #338, #405, #207, #610, #90 ) ) ;
#528 = VECTOR ( 'NONE', #404, 1000.000000000000000 ) ;
#529 = VECTOR ( 'NONE', #415, 1000.000000000000000 ) ;
#530 = CARTESIAN_POINT ( 'NONE',  ( 21.00000000000000000, -35.55999999999999517, 54.22130303030317577 ) ) ;
#531 = DIRECTION ( 'NONE',  ( 0.000000000000000000, -0.000000000000000000, 1.000000000000000000 ) ) ;
#532 = EDGE_LOOP ( 'NONE', ( #41, #175, #219, #277 ) ) ;
#533 = DIRECTION ( 'NONE',  ( -1.000000000000000000, -0.000000000000000000, -0.000000000000000000 ) ) ;
#534 = DIRECTION ( 'NONE',  ( -0.000000000000000000, -0.000000000000000000, -1.000000000000000000 ) ) ;
#535 = EDGE_CURVE ( 'NONE', #12, #48, #362, .T. ) ;
#536 = DIRECTION ( 'NONE',  ( 1.000000000000000000, 0.000000000000000000, 0.000000000000000000 ) ) ;
#537 = PRODUCT_DEFINITION_SHAPE ( 'NONE', 'NONE',  #23 ) ;
#538 = VECTOR ( 'NONE', #226, 1000.000000000000000 ) ;
#539 = FACE_OUTER_BOUND ( 'NONE', #179, .T. ) ;
#540 = ORIENTED_EDGE ( 'NONE', *, *, #221, .T. ) ;
#541 = EDGE_CURVE ( 'NONE', #84, #312, #269, .T. ) ;
#542 = DIRECTION ( 'NONE',  ( -1.000000000000000000, 0.000000000000000000, -0.000000000000000000 ) ) ;
#543 = ORIENTED_EDGE ( 'NONE', *, *, #481, .F. ) ;
#544 = CARTESIAN_POINT ( 'NONE',  ( 21.00000000000000000, -35.55999999999999517, -25.40000000000000213 ) ) ;
#545 = DIRECTION ( 'NONE',  ( 0.000000000000000000, -0.000000000000000000, 1.000000000000000000 ) ) ;
#546 =( BOUNDED_CURVE ( )  B_SPLINE_CURVE ( 3, ( #613, #491, #343, #191 ),
 .UNSPECIFIED., .F., .T. ) 
 B_SPLINE_CURVE_WITH_KNOTS ( ( 4, 4 ),
 ( 1.570796326794896558, 3.141592653589793116 ),
 .UNSPECIFIED. ) 
 CURVE ( )  GEOMETRIC_REPRESENTATION_ITEM ( )  RATIONAL_B_SPLINE_CURVE ( ( 1.000000000000000000, 0.8047378541243649375, 0.8047378541243649375, 1.000000000000000000 ) ) 
 REPRESENTATION_ITEM ( '' )  );
#547 = ORIENTED_EDGE ( 'NONE', *, *, #526, .T. ) ;
#548 = VECTOR ( 'NONE', #534, 1000.000000000000000 ) ;
#549 = AXIS2_PLACEMENT_3D ( 'NONE', #416, #565, #516 ) ;
#550 = DIRECTION ( 'NONE',  ( -0.000000000000000000, 1.000000000000000000, 1.224646799147353207E-16 ) ) ;
#551 = ORIENTED_EDGE ( 'NONE', *, *, #596, .F. ) ;
#552 = LINE ( 'NONE', #598, #440 ) ;
#553 = DIRECTION ( 'NONE',  ( -0.000000000000000000, 0.000000000000000000, 1.000000000000000000 ) ) ;
#554 = ORIENTED_EDGE ( 'NONE', *, *, #81, .T. ) ;
#555 = EDGE_CURVE ( 'NONE', #308, #452, #22, .T. ) ;
#556 = CARTESIAN_POINT ( 'NONE',  ( -12.00000000000000355, 7.649999999999996803, -26.00000000000000000 ) ) ;
#557 = CYLINDRICAL_SURFACE ( 'NONE', #469, 1.000000000000000888 ) ;
#558 = EDGE_LOOP ( 'NONE', ( #345, #283, #183, #45 ) ) ;
#559 = CARTESIAN_POINT ( 'NONE',  ( -12.00000000000000355, 7.649999999999996803, -26.00000000000000000 ) ) ;
#560 = DIRECTION ( 'NONE',  ( 1.000000000000000000, 0.000000000000000000, 0.000000000000000000 ) ) ;
#561 = ORIENTED_EDGE ( 'NONE', *, *, #409, .F. ) ;
#562 = EDGE_CURVE ( 'NONE', #566, #248, #552, .T. ) ;
#563 = VERTEX_POINT ( 'NONE', #410 ) ;
#564 = EDGE_CURVE ( 'NONE', #319, #227, #225, .T. ) ;
#565 = DIRECTION ( 'NONE',  ( -0.000000000000000000, 1.000000000000000000, 4.553079989440439683E-16 ) ) ;
#566 = VERTEX_POINT ( 'NONE', #317 ) ;
#567 =( BOUNDED_CURVE ( )  B_SPLINE_CURVE ( 3, ( #357, #448, #74, #211 ),
 .UNSPECIFIED., .F., .F. ) 
 B_SPLINE_CURVE_WITH_KNOTS ( ( 4, 4 ),
 ( 3.141592653589793116, 4.712388980384689674 ),
 .UNSPECIFIED. ) 
 CURVE ( )  GEOMETRIC_REPRESENTATION_ITEM ( )  RATIONAL_B_SPLINE_CURVE ( ( 1.000000000000000000, 0.8047378541243649375, 0.8047378541243649375, 1.000000000000000000 ) ) 
 REPRESENTATION_ITEM ( '' )  );
#568 = LINE ( 'NONE', #505, #202 ) ;
#569 = VERTEX_POINT ( 'NONE', #369 ) ;
#570 = DIRECTION ( 'NONE',  ( -1.000000000000000000, -0.000000000000000000, -0.000000000000000000 ) ) ;
#571 = CARTESIAN_POINT ( 'NONE',  ( 21.00000000000000000, -6.350000000000001421, 3.809999999999998721 ) ) ;
#572 = EDGE_CURVE ( 'NONE', #173, #75, #321, .T. ) ;
#573 = CARTESIAN_POINT ( 'NONE',  ( -12.00000000000000178, -35.55999999999999517, -11.00000000000000000 ) ) ;
#574 = DIRECTION ( 'NONE',  ( -1.000000000000000000, -0.000000000000000000, -0.000000000000000000 ) ) ;
#575 = LINE ( 'NONE', #147, #385 ) ;
#576 = FACE_OUTER_BOUND ( 'NONE', #402, .T. ) ;
#577 = VECTOR ( 'NONE', #193, 1000.000000000000000 ) ;
#578 = ORIENTED_EDGE ( 'NONE', *, *, #44, .F. ) ;
#579 = AXIS2_PLACEMENT_3D ( 'NONE', #217, #553, #229 ) ;
#580 = LINE ( 'NONE', #150, #149 ) ;
#581 = EDGE_CURVE ( 'NONE', #597, #361, #455, .T. ) ;
#582 = CARTESIAN_POINT ( 'NONE',  ( 13.00000000000000178, 8.649999999999998579, -9.999999999999998224 ) ) ;
#583 = CARTESIAN_POINT ( 'NONE',  ( 12.00000000000000178, 0.000000000000000000, 2.081668171172168513E-15 ) ) ;
#584 = PRODUCT_DEFINITION_CONTEXT ( 'detailed design', #254, 'design' ) ;
#585 = CARTESIAN_POINT ( 'NONE',  ( 21.00000000000000000, -6.350000000000001421, 3.809999999999998721 ) ) ;
#586 = VERTEX_POINT ( 'NONE', #66 ) ;
#587 = FACE_OUTER_BOUND ( 'NONE', #128, .T. ) ;
#588 = EDGE_CURVE ( 'NONE', #84, #248, #609, .T. ) ;
#589 = DIRECTION ( 'NONE',  ( -0.000000000000000000, 4.553079989440439683E-16, -1.000000000000000000 ) ) ;
#590 = ORIENTED_EDGE ( 'NONE', *, *, #209, .F. ) ;
#591 = ADVANCED_BREP_SHAPE_REPRESENTATION ( 'MonitorMountBase_ELP', ( #298, #365 ), #76 ) ;
#592 = CARTESIAN_POINT ( 'NONE',  ( -11.99999999999999289, -35.55999999999999517, 54.22130303030317577 ) ) ;
#593 = VERTEX_POINT ( 'NONE', #79 ) ;
#594 = DIRECTION ( 'NONE',  ( -0.000000000000000000, 1.000000000000000000, -0.000000000000000000 ) ) ;
#595 = CARTESIAN_POINT ( 'NONE',  ( 21.00000000000000000, -6.349999999999999645, -7.776507174585692163E-16 ) ) ;
#596 = EDGE_CURVE ( 'NONE', #48, #75, #601, .T. ) ;
#597 = VERTEX_POINT ( 'NONE', #559 ) ;
#598 = CARTESIAN_POINT ( 'NONE',  ( 12.00000000000000000, -35.55999999999999517, -11.00000000000000000 ) ) ;
#599 = LINE ( 'NONE', #510, #354 ) ;
#600 = ORIENTED_EDGE ( 'NONE', *, *, #44, .T. ) ;
#601 = LINE ( 'NONE', #176, #192 ) ;
#602 = VERTEX_POINT ( 'NONE', #376 ) ;
#603 = EDGE_CURVE ( 'NONE', #569, #586, #327, .T. ) ;
#604 = VECTOR ( 'NONE', #47, 1000.000000000000000 ) ;
#605 =( NAMED_UNIT ( * ) PLANE_ANGLE_UNIT ( ) SI_UNIT ( $, .RADIAN. ) );
#606 = AXIS2_PLACEMENT_3D ( 'NONE', #592, #109, #14 ) ;
#607 = AXIS2_PLACEMENT_3D ( 'NONE', #359, #403, #290 ) ;
#608 = EDGE_LOOP ( 'NONE', ( #101, #256, #281, #503, #543, #288 ) ) ;
#609 =( BOUNDED_CURVE ( )  B_SPLINE_CURVE ( 3, ( #126, #509, #324, #504 ),
 .UNSPECIFIED., .F., .F. ) 
 B_SPLINE_CURVE_WITH_KNOTS ( ( 4, 4 ),
 ( 1.570796326794896558, 3.141592653589793116 ),
 .UNSPECIFIED. ) 
 CURVE ( )  GEOMETRIC_REPRESENTATION_ITEM ( )  RATIONAL_B_SPLINE_CURVE ( ( 1.000000000000000000, 0.8047378541243649375, 0.8047378541243649375, 1.000000000000000000 ) ) 
 REPRESENTATION_ITEM ( '' )  );
#610 = ORIENTED_EDGE ( 'NONE', *, *, #209, .T. ) ;
#611 = SURFACE_STYLE_USAGE ( .BOTH. , #188 ) ;
#612 = ORIENTED_EDGE ( 'NONE', *, *, #94, .F. ) ;
#613 = CARTESIAN_POINT ( 'NONE',  ( 12.99999999999999822, 8.649999999999998579, -27.00000000000000000 ) ) ;
#614 = ADVANCED_FACE ( 'NONE', ( #71 ), #406, .T. ) ;
#615 = ORIENTED_EDGE ( 'NONE', *, *, #471, .T. ) ;
ENDSEC;
END-ISO-10303-21;
