ISO-10303-21;
HEADER;
FILE_DESCRIPTION (( 'STEP AP214' ),
    '1' );
FILE_NAME ('MonitorMountBase.STEP',
    '2026-08-10T01:19:40',
    ( '' ),
    ( '' ),
    'SwSTEP 2.0',
    'SolidWorks 2026',
    '' );
FILE_SCHEMA (( 'AUTOMOTIVE_DESIGN' ));
ENDSEC;

DATA;
#1 = ORIENTED_EDGE ( 'NONE', *, *, #252, .T. ) ;
#2 = CARTESIAN_POINT ( 'NONE',  ( 1.000000000000000000, -1.399999999999999911, -1.000000000000000222 ) ) ;
#3 = EDGE_LOOP ( 'NONE', ( #436, #395, #56, #132 ) ) ;
#4 = CARTESIAN_POINT ( 'NONE',  ( 0.4050000000000000266, -1.399999999999999911, 2.134696969696975533 ) ) ;
#5 = LINE ( 'NONE', #382, #486 ) ;
#6 = ORIENTED_EDGE ( 'NONE', *, *, #162, .F. ) ;
#7 = EDGE_CURVE ( 'NONE', #452, #116, #586, .T. ) ;
#8 = FACE_OUTER_BOUND ( 'NONE', #512, .T. ) ;
#9 =( BOUNDED_CURVE ( )  B_SPLINE_CURVE ( 3, ( #233, #299, #287, #338 ),
 .UNSPECIFIED., .F., .T. ) 
 B_SPLINE_CURVE_WITH_KNOTS ( ( 4, 4 ),
 ( 0.000000000000000000, 1.570796326794896558 ),
 .UNSPECIFIED. ) 
 CURVE ( )  GEOMETRIC_REPRESENTATION_ITEM ( )  RATIONAL_B_SPLINE_CURVE ( ( 1.000000000000000000, 0.8047378541243649375, 0.8047378541243649375, 1.000000000000000000 ) ) 
 REPRESENTATION_ITEM ( '' )  );
#10 = ORIENTED_EDGE ( 'NONE', *, *, #70, .F. ) ;
#11 = DIRECTION ( 'NONE',  ( 0.000000000000000000, 0.000000000000000000, -1.000000000000000000 ) ) ;
#12 = AXIS2_PLACEMENT_3D ( 'NONE', #401, #690, #77 ) ;
#13 = VECTOR ( 'NONE', #255, 39.37007874015748143 ) ;
#14 = LINE ( 'NONE', #221, #47 ) ;
#15 = ORIENTED_EDGE ( 'NONE', *, *, #704, .T. ) ;
#16 = PRODUCT_CONTEXT ( 'NONE', #247, 'mechanical' ) ;
#17 = CARTESIAN_POINT ( 'NONE',  ( -1.000000000000000000, -0.2500000000000000555, 0.1499999999999999667 ) ) ;
#18 = VERTEX_POINT ( 'NONE', #313 ) ;
#19 = FACE_OUTER_BOUND ( 'NONE', #561, .T. ) ;
#20 = CARTESIAN_POINT ( 'NONE',  ( -0.4050000000000000266, 0.1500000000000000500, -0.8742353287563953135 ) ) ;
#21 = EDGE_LOOP ( 'NONE', ( #288, #101, #15 ) ) ;
#22 = EDGE_CURVE ( 'NONE', #662, #85, #254, .T. ) ;
#23 = AXIS2_PLACEMENT_3D ( 'NONE', #329, #64, #385 ) ;
#24 = CARTESIAN_POINT ( 'NONE',  ( 1.000000000000000000, -0.2500000000000000555, 0.1499999999999999667 ) ) ;
#25 = ORIENTED_EDGE ( 'NONE', *, *, #7, .T. ) ;
#26 = PLANE ( 'NONE',  #487 ) ;
#27 = FACE_OUTER_BOUND ( 'NONE', #583, .T. ) ;
#28 = VERTEX_POINT ( 'NONE', #639 ) ;
#29 = PRODUCT ( 'MonitorMountBase', 'MonitorMountBase', '', ( #16 ) ) ;
#30 = DIRECTION ( 'NONE',  ( 0.000000000000000000, -6.668018366885506520E-17, 1.000000000000000000 ) ) ;
#31 = DIRECTION ( 'NONE',  ( -0.000000000000000000, 6.668018366885506520E-17, -1.000000000000000000 ) ) ;
#32 = UNCERTAINTY_MEASURE_WITH_UNIT (LENGTH_MEASURE( 1.000000000000000082E-05 ), #266, 'distance_accuracy_value', 'NONE');
#33 = ORIENTED_EDGE ( 'NONE', *, *, #171, .F. ) ;
#34 = DIRECTION ( 'NONE',  ( 0.000000000000000000, 0.000000000000000000, -1.000000000000000000 ) ) ;
#35 = LINE ( 'NONE', #308, #466 ) ;
#36 = ORIENTED_EDGE ( 'NONE', *, *, #453, .F. ) ;
#37 = CARTESIAN_POINT ( 'NONE',  ( 0.2549999999999999489, 0.1334314575050761231, -1.129999999999999449 ) ) ;
#38 = FILL_AREA_STYLE_COLOUR ( '', #420 ) ;
#39 = ORIENTED_EDGE ( 'NONE', *, *, #449, .T. ) ;
#40 = DIRECTION ( 'NONE',  ( 1.000000000000000000, 0.000000000000000000, 0.000000000000000000 ) ) ;
#41 =( CONVERSION_BASED_UNIT ( 'INCH', #422 ) LENGTH_UNIT ( ) NAMED_UNIT ( #358 ) );
#42 = ORIENTED_EDGE ( 'NONE', *, *, #650, .F. ) ;
#43 = EDGE_CURVE ( 'NONE', #677, #631, #702, .T. ) ;
#44 = CARTESIAN_POINT ( 'NONE',  ( -1.000000000000000000, 0.1500000000000000500, -0.8742353287563953135 ) ) ;
#45 = SURFACE_STYLE_USAGE ( .BOTH. , #253 ) ;
#46 = VERTEX_POINT ( 'NONE', #206 ) ;
#47 = VECTOR ( 'NONE', #558, 39.37007874015748143 ) ;
#48 = AXIS2_PLACEMENT_3D ( 'NONE', #629, #34, #396 ) ;
#49 = CARTESIAN_POINT ( 'NONE',  ( 1.000000000000000000, 0.1500000000000000500, -0.8742353287563953135 ) ) ;
#50 = ORIENTED_EDGE ( 'NONE', *, *, #681, .T. ) ;
#51 = LINE ( 'NONE', #57, #167 ) ;
#52 = DIRECTION ( 'NONE',  ( -1.000000000000000000, -0.000000000000000000, -0.000000000000000000 ) ) ;
#53 = EDGE_CURVE ( 'NONE', #597, #459, #507, .T. ) ;
#54 = CARTESIAN_POINT ( 'NONE',  ( 1.000000000000000000, 0.000000000000000000, 0.000000000000000000 ) ) ;
#55 = DIRECTION ( 'NONE',  ( 0.000000000000000000, 0.000000000000000000, -1.000000000000000000 ) ) ;
#56 = ORIENTED_EDGE ( 'NONE', *, *, #548, .F. ) ;
#57 = CARTESIAN_POINT ( 'NONE',  ( 1.000000000000000000, -0.2500000000000000000, -3.061616997868383018E-17 ) ) ;
#58 = VECTOR ( 'NONE', #182, 39.37007874015748143 ) ;
#59 = AXIS2_PLACEMENT_3D ( 'NONE', #651, #312, #584 ) ;
#60 = CARTESIAN_POINT ( 'NONE',  ( -0.2550000000000001155, 0.1099999999999999173, -1.129999999999999449 ) ) ;
#61 = EDGE_LOOP ( 'NONE', ( #203, #99, #549, #282 ) ) ;
#62 = LINE ( 'NONE', #318, #534 ) ;
#63 = ORIENTED_EDGE ( 'NONE', *, *, #681, .F. ) ;
#64 = DIRECTION ( 'NONE',  ( 1.000000000000000000, 0.000000000000000000, 0.000000000000000000 ) ) ;
#65 = ORIENTED_EDGE ( 'NONE', *, *, #578, .T. ) ;
#66 = CYLINDRICAL_SURFACE ( 'NONE', #229, 3.134696969696974644 ) ;
#67 = EDGE_CURVE ( 'NONE', #455, #363, #223, .T. ) ;
#68 = AXIS2_PLACEMENT_3D ( 'NONE', #524, #458, #574 ) ;
#69 = AXIS2_PLACEMENT_3D ( 'NONE', #485, #210, #437 ) ;
#70 = EDGE_CURVE ( 'NONE', #114, #508, #214, .T. ) ;
#71 = CARTESIAN_POINT ( 'NONE',  ( 0.2949999999999999289, 0.1500000000000000500, -0.7799999999999995826 ) ) ;
#72 = ORIENTED_EDGE ( 'NONE', *, *, #604, .T. ) ;
#73 = CARTESIAN_POINT ( 'NONE',  ( -0.4050000000000000266, 0.1500000000000000500, -1.249999999999999556 ) ) ;
#74 = CARTESIAN_POINT ( 'NONE',  ( 0.2549999999999998934, -1.399999999999999911, 2.134696969696975533 ) ) ;
#75 = EDGE_CURVE ( 'NONE', #46, #85, #698, .T. ) ;
#76 = ORIENTED_EDGE ( 'NONE', *, *, #650, .T. ) ;
#77 = DIRECTION ( 'NONE',  ( 0.000000000000000000, 0.000000000000000000, 1.000000000000000000 ) ) ;
#78 = ORIENTED_EDGE ( 'NONE', *, *, #604, .F. ) ;
#79 = CARTESIAN_POINT ( 'NONE',  ( -0.2950000000000001510, 0.1099999999999999173, -1.129999999999999449 ) ) ;
#80 = CARTESIAN_POINT ( 'NONE',  ( 0.2549999999999998934, 0.1099999999999999173, -0.8199999999999996181 ) ) ;
#81 = EDGE_LOOP ( 'NONE', ( #370, #446, #383, #128 ) ) ;
#82 = EDGE_CURVE ( 'NONE', #674, #399, #560, .T. ) ;
#83 = CARTESIAN_POINT ( 'NONE',  ( -0.2550000000000001155, -0.3530563964133920374, -0.8199999999999996181 ) ) ;
#84 = LINE ( 'NONE', #468, #419 ) ;
#85 = VERTEX_POINT ( 'NONE', #115 ) ;
#86 = ADVANCED_BREP_SHAPE_REPRESENTATION ( 'MonitorMountBase', ( #408, #323 ), #311 ) ;
#87 = DIRECTION ( 'NONE',  ( 0.000000000000000000, 0.000000000000000000, -1.000000000000000000 ) ) ;
#88 = CARTESIAN_POINT ( 'NONE',  ( 0.4050000000000000266, 0.1500000000000000500, -1.249999999999999556 ) ) ;
#89 = ORIENTED_EDGE ( 'NONE', *, *, #632, .F. ) ;
#90 = CARTESIAN_POINT ( 'NONE',  ( 0.2949999999999999289, 0.1500000000000000500, -1.169999999999999485 ) ) ;
#91 = CARTESIAN_POINT ( 'NONE',  ( -1.000000000000000000, -1.399999999999999911, -1.249999999999999556 ) ) ;
#92 = VECTOR ( 'NONE', #705, 39.37007874015748143 ) ;
#93 = ORIENTED_EDGE ( 'NONE', *, *, #82, .F. ) ;
#94 = VECTOR ( 'NONE', #40, 39.37007874015748143 ) ;
#95 = CARTESIAN_POINT ( 'NONE',  ( -0.2550000000000001155, 0.1099999999999999173, -1.129999999999999449 ) ) ;
#96 = EDGE_LOOP ( 'NONE', ( #39, #431, #424, #617 ) ) ;
#97 = LINE ( 'NONE', #304, #509 ) ;
#98 = DIRECTION ( 'NONE',  ( -0.000000000000000000, 1.000000000000000000, -0.000000000000000000 ) ) ;
#99 = ORIENTED_EDGE ( 'NONE', *, *, #151, .F. ) ;
#100 = CYLINDRICAL_SURFACE ( 'NONE', #673, 3.384696969696975533 ) ;
#101 = ORIENTED_EDGE ( 'NONE', *, *, #374, .T. ) ;
#102 = AXIS2_PLACEMENT_3D ( 'NONE', #230, #518, #236 ) ;
#103 = DIRECTION ( 'NONE',  ( 1.000000000000000000, 0.000000000000000000, 0.000000000000000000 ) ) ;
#104 = LINE ( 'NONE', #535, #435 ) ;
#105 = DIRECTION ( 'NONE',  ( 1.000000000000000000, -0.000000000000000000, -0.000000000000000000 ) ) ;
#106 = CARTESIAN_POINT ( 'NONE',  ( 1.000000000000000000, -1.399999999999999911, 2.134696969696975533 ) ) ;
#107 = ORIENTED_EDGE ( 'NONE', *, *, #384, .F. ) ;
#108 = LINE ( 'NONE', #418, #111 ) ;
#109 = CARTESIAN_POINT ( 'NONE',  ( -0.2550000000000001710, -1.399999999999999911, -1.129999999999999449 ) ) ;
#110 = VECTOR ( 'NONE', #503, 39.37007874015748143 ) ;
#111 = VECTOR ( 'NONE', #317, 39.37007874015748143 ) ;
#112 = LINE ( 'NONE', #611, #227 ) ;
#113 = EDGE_CURVE ( 'NONE', #597, #465, #168, .T. ) ;
#114 = VERTEX_POINT ( 'NONE', #607 ) ;
#115 = CARTESIAN_POINT ( 'NONE',  ( 0.2549999999999998934, -1.399999999999999911, -0.9999999999999996669 ) ) ;
#116 = VERTEX_POINT ( 'NONE', #655 ) ;
#117 = LINE ( 'NONE', #606, #178 ) ;
#118 = CARTESIAN_POINT ( 'NONE',  ( 1.000000000000000000, 0.000000000000000000, -0.6700000000000002620 ) ) ;
#119 = VERTEX_POINT ( 'NONE', #326 ) ;
#120 = LENGTH_MEASURE_WITH_UNIT ( LENGTH_MEASURE( 0.02539999999999999897 ), #659 );
#121 = STYLED_ITEM ( 'NONE', ( #581 ), #408 ) ;
#122 = ADVANCED_FACE ( 'NONE', ( #8 ), #163, .T. ) ;
#123 = CARTESIAN_POINT ( 'NONE',  ( -1.000000000000000000, -0.2500000000000000000, -3.061616997868383018E-17 ) ) ;
#124 = DIRECTION ( 'NONE',  ( -0.000000000000000000, -1.000000000000000000, -0.000000000000000000 ) ) ;
#125 = ORIENTED_EDGE ( 'NONE', *, *, #82, .T. ) ;
#126 = CARTESIAN_POINT ( 'NONE',  ( 0.4050000000000000266, 0.000000000000000000, 0.000000000000000000 ) ) ;
#127 = DIRECTION ( 'NONE',  ( -1.000000000000000000, -0.000000000000000000, -0.000000000000000000 ) ) ;
#128 = ORIENTED_EDGE ( 'NONE', *, *, #43, .T. ) ;
#129 = VECTOR ( 'NONE', #170, 39.37007874015748143 ) ;
#130 = AXIS2_PLACEMENT_3D ( 'NONE', #400, #249, #181 ) ;
#131 = FACE_OUTER_BOUND ( 'NONE', #186, .T. ) ;
#132 = ORIENTED_EDGE ( 'NONE', *, *, #393, .T. ) ;
#133 = CARTESIAN_POINT ( 'NONE',  ( 0.2549999999999998934, 0.1099999999999999173, -1.129999999999999449 ) ) ;
#134 = CARTESIAN_POINT ( 'NONE',  ( 0.2549999999999998934, -1.399999999999999911, -1.129999999999999449 ) ) ;
#135 = ORIENTED_EDGE ( 'NONE', *, *, #145, .F. ) ;
#136 = PLANE ( 'NONE',  #660 ) ;
#137 = EDGE_CURVE ( 'NONE', #316, #541, #267, .T. ) ;
#138 = CARTESIAN_POINT ( 'NONE',  ( -1.000000000000000000, -1.399999999999999911, -1.000000000000000222 ) ) ;
#139 = ORIENTED_EDGE ( 'NONE', *, *, #164, .T. ) ;
#140 = LINE ( 'NONE', #689, #156 ) ;
#141 = DIRECTION ( 'NONE',  ( 0.000000000000000000, 6.668018366885506520E-17, -1.000000000000000000 ) ) ;
#142 = EDGE_LOOP ( 'NONE', ( #646, #33, #183, #488 ) ) ;
#143 = AXIS2_PLACEMENT_3D ( 'NONE', #251, #490, #667 ) ;
#144 = DIRECTION ( 'NONE',  ( -1.000000000000000000, -0.000000000000000000, -0.000000000000000000 ) ) ;
#145 = EDGE_CURVE ( 'NONE', #339, #18, #271, .T. ) ;
#146 = FACE_OUTER_BOUND ( 'NONE', #590, .T. ) ;
#147 = ORIENTED_EDGE ( 'NONE', *, *, #212, .F. ) ;
#148 = CARTESIAN_POINT ( 'NONE',  ( -1.000000000000000000, 0.000000000000000000, 0.000000000000000000 ) ) ;
#149 =( BOUNDED_CURVE ( )  B_SPLINE_CURVE ( 3, ( #80, #515, #634, #566 ),
 .UNSPECIFIED., .F., .T. ) 
 B_SPLINE_CURVE_WITH_KNOTS ( ( 4, 4 ),
 ( 0.000000000000000000, 1.570796326794896558 ),
 .UNSPECIFIED. ) 
 CURVE ( )  GEOMETRIC_REPRESENTATION_ITEM ( )  RATIONAL_B_SPLINE_CURVE ( ( 1.000000000000000000, 0.8047378541243649375, 0.8047378541243649375, 1.000000000000000000 ) ) 
 REPRESENTATION_ITEM ( '' )  );
#150 = ORIENTED_EDGE ( 'NONE', *, *, #489, .T. ) ;
#151 = EDGE_CURVE ( 'NONE', #292, #316, #14, .T. ) ;
#152 = DIRECTION ( 'NONE',  ( -0.000000000000000000, 1.000000000000000000, 1.224646799147353207E-16 ) ) ;
#153 = CARTESIAN_POINT ( 'NONE',  ( 1.000000000000000000, -0.3530563964133920374, -0.8199999999999993960 ) ) ;
#154 = CARTESIAN_POINT ( 'NONE',  ( -0.2550000000000001710, -1.399999999999999911, 2.134696969696975533 ) ) ;
#155 = CLOSED_SHELL ( 'NONE', ( #514, #637, #696, #582, #614, #410, #220, #213, #355, #525, #618, #415, #484, #587, #315, #248, #398, #472, #504, #122, #680, #345 ) ) ;
#156 = VECTOR ( 'NONE', #352, 39.37007874015748143 ) ;
#157 = DIRECTION ( 'NONE',  ( -1.000000000000000000, -0.000000000000000000, -0.000000000000000000 ) ) ;
#158 = VERTEX_POINT ( 'NONE', #71 ) ;
#159 = DIRECTION ( 'NONE',  ( 0.000000000000000000, 0.000000000000000000, 1.000000000000000000 ) ) ;
#160 = FACE_OUTER_BOUND ( 'NONE', #386, .T. ) ;
#161 =( NAMED_UNIT ( * ) SI_UNIT ( $, .STERADIAN. ) SOLID_ANGLE_UNIT ( ) );
#162 = EDGE_CURVE ( 'NONE', #250, #116, #112, .T. ) ;
#163 = CYLINDRICAL_SURFACE ( 'NONE', #23, 0.03999999999999998002 ) ;
#164 = EDGE_CURVE ( 'NONE', #677, #455, #5, .T. ) ;
#165 = ORIENTED_EDGE ( 'NONE', *, *, #432, .T. ) ;
#166 = DIRECTION ( 'NONE',  ( 1.000000000000000000, 0.000000000000000000, 0.000000000000000000 ) ) ;
#167 = VECTOR ( 'NONE', #640, 39.37007874015748143 ) ;
#168 = LINE ( 'NONE', #451, #592 ) ;
#169 = CARTESIAN_POINT ( 'NONE',  ( 1.000000000000000000, -1.399999999999999911, 2.134696969696975533 ) ) ;
#170 = DIRECTION ( 'NONE',  ( -0.000000000000000000, -6.668018366885506520E-17, 1.000000000000000000 ) ) ;
#171 = EDGE_CURVE ( 'NONE', #116, #28, #448, .T. ) ;
#172 = DIRECTION ( 'NONE',  ( 0.000000000000000000, 0.000000000000000000, -1.000000000000000000 ) ) ;
#173 = CARTESIAN_POINT ( 'NONE',  ( 1.000000000000000000, -0.2500000000000000000, -3.061616997868383018E-17 ) ) ;
#174 = ORIENTED_EDGE ( 'NONE', *, *, #554, .F. ) ;
#175 = APPLICATION_PROTOCOL_DEFINITION ( 'draft international standard', 'automotive_design', 1998, #537 ) ;
#176 = VECTOR ( 'NONE', #407, 39.37007874015748143 ) ;
#177 = CIRCLE ( 'NONE', #219, 3.384696969696975088 ) ;
#178 = VECTOR ( 'NONE', #274, 39.37007874015748143 ) ;
#179 = PLANE ( 'NONE',  #12 ) ;
#180 = ORIENTED_EDGE ( 'NONE', *, *, #402, .T. ) ;
#181 = DIRECTION ( 'NONE',  ( 0.000000000000000000, 0.000000000000000000, -1.000000000000000000 ) ) ;
#182 = DIRECTION ( 'NONE',  ( 0.000000000000000000, 1.000000000000000000, 0.000000000000000000 ) ) ;
#183 = ORIENTED_EDGE ( 'NONE', *, *, #519, .F. ) ;
#184 = FACE_OUTER_BOUND ( 'NONE', #21, .T. ) ;
#185 = DIRECTION ( 'NONE',  ( 0.000000000000000000, 1.000000000000000000, 0.000000000000000000 ) ) ;
#186 = EDGE_LOOP ( 'NONE', ( #694, #215, #505, #556 ) ) ;
#187 = FACE_OUTER_BOUND ( 'NONE', #666, .T. ) ;
#188 = VECTOR ( 'NONE', #124, 39.37007874015748143 ) ;
#189 = CARTESIAN_POINT ( 'NONE',  ( 1.000000000000000000, 0.1500000000000000500, -0.7799999999999995826 ) ) ;
#190 = EDGE_LOOP ( 'NONE', ( #380, #428, #174, #475 ) ) ;
#191 = CARTESIAN_POINT ( 'NONE',  ( -0.2715685424949239035, 0.1499999999999998834, -1.146568542494923459 ) ) ;
#192 = CARTESIAN_POINT ( 'NONE',  ( -0.2550000000000001155, -1.399999999999999911, -0.8199999999999996181 ) ) ;
#193 = ORIENTED_EDGE ( 'NONE', *, *, #113, .F. ) ;
#194 = DIRECTION ( 'NONE',  ( 1.000000000000000000, 0.000000000000000000, -0.000000000000000000 ) ) ;
#195 = ORIENTED_EDGE ( 'NONE', *, *, #554, .T. ) ;
#196 = CARTESIAN_POINT ( 'NONE',  ( -0.2550000000000001710, -1.399999999999999911, -0.9999999999999996669 ) ) ;
#197 = CARTESIAN_POINT ( 'NONE',  ( -0.4050000000000000266, -1.399999999999999911, -1.249999999999999556 ) ) ;
#198 = AXIS2_PLACEMENT_3D ( 'NONE', #173, #375, #599 ) ;
#199 = ORIENTED_EDGE ( 'NONE', *, *, #423, .T. ) ;
#200 = AXIS2_PLACEMENT_3D ( 'NONE', #79, #30, #513 ) ;
#201 = LINE ( 'NONE', #644, #342 ) ;
#202 = DIRECTION ( 'NONE',  ( -0.000000000000000000, 0.000000000000000000, 1.000000000000000000 ) ) ;
#203 = ORIENTED_EDGE ( 'NONE', *, *, #246, .T. ) ;
#204 = FACE_OUTER_BOUND ( 'NONE', #263, .T. ) ;
#205 = LINE ( 'NONE', #153, #379 ) ;
#206 = CARTESIAN_POINT ( 'NONE',  ( 0.2549999999999998934, -0.3530563964133920374, -0.8199999999999996181 ) ) ;
#207 = CARTESIAN_POINT ( 'NONE',  ( 1.000000000000000000, 0.000000000000000000, 0.000000000000000000 ) ) ;
#208 = ORIENTED_EDGE ( 'NONE', *, *, #497, .F. ) ;
#209 = PRESENTATION_LAYER_ASSIGNMENT (  '', '', ( #121 ) ) ;
#210 = DIRECTION ( 'NONE',  ( -0.000000000000000000, 1.000000000000000000, 0.000000000000000000 ) ) ;
#211 = CARTESIAN_POINT ( 'NONE',  ( 0.2549999999999998934, 0.1099999999999999173, -1.129999999999999449 ) ) ;
#212 = EDGE_CURVE ( 'NONE', #327, #339, #551, .T. ) ;
#213 = ADVANCED_FACE ( 'NONE', ( #160 ), #333, .F. ) ;
#214 = LINE ( 'NONE', #499, #273 ) ;
#215 = ORIENTED_EDGE ( 'NONE', *, *, #573, .F. ) ;
#216 = APPLICATION_PROTOCOL_DEFINITION ( 'draft international standard', 'automotive_design', 1998, #247 ) ;
#217 = FACE_OUTER_BOUND ( 'NONE', #61, .T. ) ;
#218 = DIRECTION ( 'NONE',  ( 0.000000000000000000, 0.000000000000000000, 1.000000000000000000 ) ) ;
#219 = AXIS2_PLACEMENT_3D ( 'NONE', #591, #103, #55 ) ;
#220 = ADVANCED_FACE ( 'NONE', ( #217 ), #389, .F. ) ;
#221 = CARTESIAN_POINT ( 'NONE',  ( 1.000000000000000000, -0.2500000000000000555, 0.1499999999999999667 ) ) ;
#222 = ORIENTED_EDGE ( 'NONE', *, *, #593, .T. ) ;
#223 = LINE ( 'NONE', #118, #110 ) ;
#224 = ORIENTED_EDGE ( 'NONE', *, *, #151, .T. ) ;
#225 = VERTEX_POINT ( 'NONE', #109 ) ;
#226 = EDGE_CURVE ( 'NONE', #119, #114, #62, .T. ) ;
#227 = VECTOR ( 'NONE', #494, 39.37007874015748143 ) ;
#228 = CIRCLE ( 'NONE', #628, 3.384696969696975088 ) ;
#229 = AXIS2_PLACEMENT_3D ( 'NONE', #562, #391, #218 ) ;
#230 = CARTESIAN_POINT ( 'NONE',  ( 1.000000000000000000, 0.000000000000000000, 0.000000000000000000 ) ) ;
#231 = ORIENTED_EDGE ( 'NONE', *, *, #53, .F. ) ;
#232 = DIRECTION ( 'NONE',  ( -1.000000000000000000, -0.000000000000000000, -0.000000000000000000 ) ) ;
#233 = CARTESIAN_POINT ( 'NONE',  ( -0.2550000000000001155, 0.1099999999999999173, -0.8199999999999996181 ) ) ;
#234 = ORIENTED_EDGE ( 'NONE', *, *, #257, .F. ) ;
#235 = CARTESIAN_POINT ( 'NONE',  ( -0.4049999999999999156, -1.399999999999999911, -1.249999999999999556 ) ) ;
#236 = DIRECTION ( 'NONE',  ( 0.000000000000000000, -1.000000000000000000, -1.224646799147353207E-16 ) ) ;
#237 = ORIENTED_EDGE ( 'NONE', *, *, #609, .T. ) ;
#238 = PLANE ( 'NONE',  #48 ) ;
#239 = VECTOR ( 'NONE', #463, 39.37007874015748143 ) ;
#240 = VECTOR ( 'NONE', #159, 39.37007874015748143 ) ;
#241 = DIRECTION ( 'NONE',  ( -0.000000000000000000, 1.000000000000000000, -0.000000000000000000 ) ) ;
#242 = ORIENTED_EDGE ( 'NONE', *, *, #364, .T. ) ;
#243 = CARTESIAN_POINT ( 'NONE',  ( -0.2950000000000001510, 0.1500000000000000500, -1.169999999999999485 ) ) ;
#244 = DIRECTION ( 'NONE',  ( 1.000000000000000000, 0.000000000000000000, 0.000000000000000000 ) ) ;
#245 = ORIENTED_EDGE ( 'NONE', *, *, #67, .T. ) ;
#246 = EDGE_CURVE ( 'NONE', #18, #316, #501, .T. ) ;
#247 = APPLICATION_CONTEXT ( 'automotive_design' ) ;
#248 = ADVANCED_FACE ( 'NONE', ( #27 ), #630, .F. ) ;
#249 = DIRECTION ( 'NONE',  ( -1.000000000000000000, -0.000000000000000000, -0.000000000000000000 ) ) ;
#250 = VERTEX_POINT ( 'NONE', #134 ) ;
#251 = CARTESIAN_POINT ( 'NONE',  ( -1.000000000000000000, -1.399999999999999911, 2.134696969696975533 ) ) ;
#252 = EDGE_CURVE ( 'NONE', #502, #481, #9, .T. ) ;
#253 = SURFACE_SIDE_STYLE ('',( #354 ) ) ;
#254 = LINE ( 'NONE', #543, #456 ) ;
#255 = DIRECTION ( 'NONE',  ( -1.000000000000000000, -0.000000000000000000, -0.000000000000000000 ) ) ;
#256 = DIRECTION ( 'NONE',  ( -0.000000000000000000, -0.000000000000000000, -1.000000000000000000 ) ) ;
#257 = EDGE_CURVE ( 'NONE', #452, #158, #149, .T. ) ;
#258 = DIRECTION ( 'NONE',  ( -0.000000000000000000, 6.668018366885506520E-17, -1.000000000000000000 ) ) ;
#259 = PLANE ( 'NONE',  #616 ) ;
#260 = FACE_OUTER_BOUND ( 'NONE', #300, .T. ) ;
#261 = ORIENTED_EDGE ( 'NONE', *, *, #53, .T. ) ;
#262 = LINE ( 'NONE', #482, #240 ) ;
#263 = EDGE_LOOP ( 'NONE', ( #310, #65, #529, #532, #89, #10, #691, #635, #483, #623 ) ) ;
#264 = MECHANICAL_DESIGN_GEOMETRIC_PRESENTATION_REPRESENTATION (  '', ( #121 ), #332 ) ;
#265 = CIRCLE ( 'NONE', #143, 3.384696969696975088 ) ;
#266 =( CONVERSION_BASED_UNIT ( 'INCH', #120 ) LENGTH_UNIT ( ) NAMED_UNIT ( #576 ) );
#267 = LINE ( 'NONE', #123, #685 ) ;
#268 = DIRECTION ( 'NONE',  ( 1.000000000000000000, 0.000000000000000000, 0.000000000000000000 ) ) ;
#269 = DIRECTION ( 'NONE',  ( -1.000000000000000000, 0.000000000000000000, -0.000000000000000000 ) ) ;
#270 = VERTEX_POINT ( 'NONE', #91 ) ;
#271 = LINE ( 'NONE', #555, #545 ) ;
#272 = ORIENTED_EDGE ( 'NONE', *, *, #393, .F. ) ;
#273 = VECTOR ( 'NONE', #657, 39.37007874015748143 ) ;
#274 = DIRECTION ( 'NONE',  ( -0.000000000000000000, -0.000000000000000000, 1.000000000000000000 ) ) ;
#275 = VECTOR ( 'NONE', #411, 39.37007874015748143 ) ;
#276 = DIRECTION ( 'NONE',  ( -1.000000000000000000, -0.000000000000000000, -0.000000000000000000 ) ) ;
#277 = ORIENTED_EDGE ( 'NONE', *, *, #692, .F. ) ;
#278 = LINE ( 'NONE', #387, #286 ) ;
#279 = DIRECTION ( 'NONE',  ( -1.000000000000000000, -0.000000000000000000, 0.000000000000000000 ) ) ;
#280 = ORIENTED_EDGE ( 'NONE', *, *, #365, .T. ) ;
#281 = DIRECTION ( 'NONE',  ( 0.000000000000000000, 0.000000000000000000, -1.000000000000000000 ) ) ;
#282 = ORIENTED_EDGE ( 'NONE', *, *, #145, .T. ) ;
#283 = EDGE_CURVE ( 'NONE', #459, #502, #511, .T. ) ;
#284 = CARTESIAN_POINT ( 'NONE',  ( -0.2950000000000001510, 0.1500000000000000500, -1.169999999999999485 ) ) ;
#285 = AXIS2_PLACEMENT_3D ( 'NONE', #706, #588, #598 ) ;
#286 = VECTOR ( 'NONE', #335, 39.37007874015748143 ) ;
#287 = CARTESIAN_POINT ( 'NONE',  ( -0.2715685424949239035, 0.1499999999999998834, -0.8034314575050757190 ) ) ;
#288 = ORIENTED_EDGE ( 'NONE', *, *, #656, .F. ) ;
#289 = CARTESIAN_POINT ( 'NONE',  ( -0.2550000000000001155, 0.1099999999999999173, -0.8199999999999996181 ) ) ;
#290 = CARTESIAN_POINT ( 'NONE',  ( 1.000000000000000000, 0.1499999999999999667, 0.1499999999999999667 ) ) ;
#291 = UNCERTAINTY_MEASURE_WITH_UNIT (LENGTH_MEASURE( 1.000000000000000082E-05 ), #41, 'distance_accuracy_value', 'NONE');
#292 = VERTEX_POINT ( 'NONE', #24 ) ;
#293 = CARTESIAN_POINT ( 'NONE',  ( -1.000000000000000000, -0.2500000000000000000, -3.061616997868383018E-17 ) ) ;
#294 = LINE ( 'NONE', #679, #601 ) ;
#295 = ORIENTED_EDGE ( 'NONE', *, *, #22, .F. ) ;
#296 = CARTESIAN_POINT ( 'NONE',  ( -1.000000000000000000, -1.399999999999999911, -1.000000000000000222 ) ) ;
#297 = AXIS2_PLACEMENT_3D ( 'NONE', #154, #105, #547 ) ;
#298 = CIRCLE ( 'NONE', #321, 3.134696969696975088 ) ;
#299 = CARTESIAN_POINT ( 'NONE',  ( -0.2550000000000001710, 0.1334314575050761231, -0.8199999999999996181 ) ) ;
#300 = EDGE_LOOP ( 'NONE', ( #643, #441, #356, #580 ) ) ;
#301 = CARTESIAN_POINT ( 'NONE',  ( 0.2715685424949236260, 0.1499999999999998834, -1.146568542494923459 ) ) ;
#302 = LINE ( 'NONE', #197, #521 ) ;
#303 = ORIENTED_EDGE ( 'NONE', *, *, #374, .F. ) ;
#304 = CARTESIAN_POINT ( 'NONE',  ( -1.000000000000000000, 0.1499999999999999667, 0.1499999999999999667 ) ) ;
#305 = CARTESIAN_POINT ( 'NONE',  ( -0.2550000000000001155, -1.399999999999999911, -0.8199999999999996181 ) ) ;
#306 = ORIENTED_EDGE ( 'NONE', *, *, #137, .F. ) ;
#307 = FACE_OUTER_BOUND ( 'NONE', #567, .T. ) ;
#308 = CARTESIAN_POINT ( 'NONE',  ( 1.000000000000000000, -0.2500000000000000000, -3.061616997868383018E-17 ) ) ;
#309 = VECTOR ( 'NONE', #157, 39.37007874015748143 ) ;
#310 = ORIENTED_EDGE ( 'NONE', *, *, #686, .T. ) ;
#311 =( GEOMETRIC_REPRESENTATION_CONTEXT ( 3 ) GLOBAL_UNCERTAINTY_ASSIGNED_CONTEXT ( ( #32 ) ) GLOBAL_UNIT_ASSIGNED_CONTEXT ( ( #266, #439, #161 ) ) REPRESENTATION_CONTEXT ( 'NONE', 'WORKASPACE' ) );
#312 = DIRECTION ( 'NONE',  ( 1.000000000000000000, 0.000000000000000000, 0.000000000000000000 ) ) ;
#313 = CARTESIAN_POINT ( 'NONE',  ( -1.000000000000000000, 0.1499999999999999667, 0.1499999999999999667 ) ) ;
#314 = PLANE ( 'NONE',  #69 ) ;
#315 = ADVANCED_FACE ( 'NONE', ( #347 ), #179, .F. ) ;
#316 = VERTEX_POINT ( 'NONE', #397 ) ;
#317 = DIRECTION ( 'NONE',  ( -0.000000000000000000, -6.668018366885506520E-17, 1.000000000000000000 ) ) ;
#318 = CARTESIAN_POINT ( 'NONE',  ( 1.000000000000000000, -1.399999999999999911, -1.249999999999999556 ) ) ;
#319 = VECTOR ( 'NONE', #281, 39.37007874015748143 ) ;
#320 = ORIENTED_EDGE ( 'NONE', *, *, #548, .T. ) ;
#321 = AXIS2_PLACEMENT_3D ( 'NONE', #544, #700, #542 ) ;
#322 = DIRECTION ( 'NONE',  ( -1.000000000000000000, 0.000000000000000000, 0.000000000000000000 ) ) ;
#323 = AXIS2_PLACEMENT_3D ( 'NONE', #328, #496, #268 ) ;
#324 = CARTESIAN_POINT ( 'NONE',  ( 1.000000000000000000, -0.2500000000000000555, 0.1499999999999999667 ) ) ;
#325 = VERTEX_POINT ( 'NONE', #454 ) ;
#326 = CARTESIAN_POINT ( 'NONE',  ( 1.000000000000000000, -1.399999999999999911, -1.249999999999999556 ) ) ;
#327 = VERTEX_POINT ( 'NONE', #579 ) ;
#328 = CARTESIAN_POINT ( 'NONE',  ( 0.000000000000000000, 0.000000000000000000, 0.000000000000000000 ) ) ;
#329 = CARTESIAN_POINT ( 'NONE',  ( -0.2550000000000001155, 0.1099999999999999173, -0.7799999999999995826 ) ) ;
#330 = ORIENTED_EDGE ( 'NONE', *, *, #340, .T. ) ;
#331 = AXIS2_PLACEMENT_3D ( 'NONE', #305, #202, #244 ) ;
#332 =( GEOMETRIC_REPRESENTATION_CONTEXT ( 3 ) GLOBAL_UNCERTAINTY_ASSIGNED_CONTEXT ( ( #291 ) ) GLOBAL_UNIT_ASSIGNED_CONTEXT ( ( #41, #648, #474 ) ) REPRESENTATION_CONTEXT ( 'NONE', 'WORKASPACE' ) );
#333 = PLANE ( 'NONE',  #198 ) ;
#334 = ORIENTED_EDGE ( 'NONE', *, *, #593, .F. ) ;
#335 = DIRECTION ( 'NONE',  ( 0.000000000000000000, -6.668018366885506520E-17, 1.000000000000000000 ) ) ;
#336 = DIRECTION ( 'NONE',  ( -0.000000000000000000, 6.668018366885506520E-17, -1.000000000000000000 ) ) ;
#337 = VERTEX_POINT ( 'NONE', #88 ) ;
#338 = CARTESIAN_POINT ( 'NONE',  ( -0.2950000000000001510, 0.1500000000000000500, -0.7799999999999995826 ) ) ;
#339 = VERTEX_POINT ( 'NONE', #290 ) ;
#340 = EDGE_CURVE ( 'NONE', #399, #652, #294, .T. ) ;
#341 = CARTESIAN_POINT ( 'NONE',  ( 1.000000000000000000, 0.000000000000000000, -0.6700000000000002620 ) ) ;
#342 = VECTOR ( 'NONE', #476, 39.37007874015748143 ) ;
#343 = CARTESIAN_POINT ( 'NONE',  ( -1.000000000000000000, 0.000000000000000000, -0.6700000000000002620 ) ) ;
#344 = EDGE_LOOP ( 'NONE', ( #195, #372, #669, #231, #450 ) ) ;
#345 = ADVANCED_FACE ( 'NONE', ( #131 ), #624, .T. ) ;
#346 = CYLINDRICAL_SURFACE ( 'NONE', #627, 3.384696969696975533 ) ;
#347 = FACE_OUTER_BOUND ( 'NONE', #344, .T. ) ;
#348 = EDGE_LOOP ( 'NONE', ( #570, #575, #413, #595 ) ) ;
#349 = CARTESIAN_POINT ( 'NONE',  ( -0.2550000000000001710, 0.1334314575050761231, -1.129999999999999449 ) ) ;
#350 = LINE ( 'NONE', #506, #58 ) ;
#351 = ORIENTED_EDGE ( 'NONE', *, *, #377, .F. ) ;
#352 = DIRECTION ( 'NONE',  ( -1.000000000000000000, -0.000000000000000000, -0.000000000000000000 ) ) ;
#353 = AXIS2_PLACEMENT_3D ( 'NONE', #324, #444, #269 ) ;
#354 = SURFACE_STYLE_FILL_AREA ( #645 ) ;
#355 = ADVANCED_FACE ( 'NONE', ( #394 ), #676, .F. ) ;
#356 = ORIENTED_EDGE ( 'NONE', *, *, #423, .F. ) ;
#357 = PLANE ( 'NONE',  #59 ) ;
#358 = DIMENSIONAL_EXPONENTS ( 1.000000000000000000, 0.000000000000000000, 0.000000000000000000, 0.000000000000000000, 0.000000000000000000, 0.000000000000000000, 0.000000000000000000 ) ;
#359 = PLANE ( 'NONE',  #369 ) ;
#360 = ORIENTED_EDGE ( 'NONE', *, *, #402, .F. ) ;
#361 = DIRECTION ( 'NONE',  ( 0.000000000000000000, 0.000000000000000000, -1.000000000000000000 ) ) ;
#362 = PLANE ( 'NONE',  #457 ) ;
#363 = VERTEX_POINT ( 'NONE', #343 ) ;
#364 = EDGE_CURVE ( 'NONE', #339, #292, #622, .T. ) ;
#365 = EDGE_CURVE ( 'NONE', #662, #119, #569, .T. ) ;
#366 = DIRECTION ( 'NONE',  ( 0.000000000000000000, -0.000000000000000000, 1.000000000000000000 ) ) ;
#367 = FACE_BOUND ( 'NONE', #96, .T. ) ;
#368 = AXIS2_PLACEMENT_3D ( 'NONE', #74, #279, #491 ) ;
#369 = AXIS2_PLACEMENT_3D ( 'NONE', #594, #589, #194 ) ;
#370 = ORIENTED_EDGE ( 'NONE', *, *, #571, .T. ) ;
#371 = DIRECTION ( 'NONE',  ( -0.000000000000000000, 1.000000000000000000, 0.000000000000000000 ) ) ;
#372 = ORIENTED_EDGE ( 'NONE', *, *, #692, .T. ) ;
#373 = LINE ( 'NONE', #533, #699 ) ;
#374 = EDGE_CURVE ( 'NONE', #114, #337, #350, .T. ) ;
#375 = DIRECTION ( 'NONE',  ( -0.000000000000000000, 1.000000000000000000, 4.553079989440439683E-16 ) ) ;
#376 = DIRECTION ( 'NONE',  ( 1.000000000000000000, 0.000000000000000000, 0.000000000000000000 ) ) ;
#377 = EDGE_CURVE ( 'NONE', #481, #536, #84, .T. ) ;
#378 = DIRECTION ( 'NONE',  ( -1.000000000000000000, -0.000000000000000000, -0.000000000000000000 ) ) ;
#379 = VECTOR ( 'NONE', #540, 39.37007874015748143 ) ;
#380 = ORIENTED_EDGE ( 'NONE', *, *, #162, .T. ) ;
#381 = FACE_OUTER_BOUND ( 'NONE', #142, .T. ) ;
#382 = CARTESIAN_POINT ( 'NONE',  ( 1.000000000000000000, 0.000000000000000000, 0.000000000000000000 ) ) ;
#383 = ORIENTED_EDGE ( 'NONE', *, *, #164, .F. ) ;
#384 = EDGE_CURVE ( 'NONE', #465, #270, #412, .T. ) ;
#385 = DIRECTION ( 'NONE',  ( 0.000000000000000000, 0.000000000000000000, -1.000000000000000000 ) ) ;
#386 = EDGE_LOOP ( 'NONE', ( #649, #272, #78, #224 ) ) ;
#387 = CARTESIAN_POINT ( 'NONE',  ( -0.2550000000000001155, 0.1099999999999999173, -1.129999999999999449 ) ) ;
#388 = EDGE_CURVE ( 'NONE', #158, #481, #684, .T. ) ;
#389 = PLANE ( 'NONE',  #353 ) ;
#390 = ORIENTED_EDGE ( 'NONE', *, *, #388, .F. ) ;
#391 = DIRECTION ( 'NONE',  ( -1.000000000000000000, -0.000000000000000000, -0.000000000000000000 ) ) ;
#392 = VECTOR ( 'NONE', #550, 39.37007874015748143 ) ;
#393 = EDGE_CURVE ( 'NONE', #325, #541, #35, .T. ) ;
#394 = FACE_OUTER_BOUND ( 'NONE', #3, .T. ) ;
#395 = ORIENTED_EDGE ( 'NONE', *, *, #43, .F. ) ;
#396 = DIRECTION ( 'NONE',  ( -1.000000000000000000, 0.000000000000000000, -0.000000000000000000 ) ) ;
#397 = CARTESIAN_POINT ( 'NONE',  ( -1.000000000000000000, -0.2500000000000000555, 0.1499999999999999667 ) ) ;
#398 = ADVANCED_FACE ( 'NONE', ( #260 ), #426, .F. ) ;
#399 = VERTEX_POINT ( 'NONE', #531 ) ;
#400 = CARTESIAN_POINT ( 'NONE',  ( -1.000000000000000000, -1.399999999999999911, 2.134696969696975533 ) ) ;
#401 = CARTESIAN_POINT ( 'NONE',  ( -0.2550000000000001155, -1.399999999999999911, -1.129999999999999449 ) ) ;
#402 = EDGE_CURVE ( 'NONE', #508, #674, #302, .T. ) ;
#403 = ORIENTED_EDGE ( 'NONE', *, *, #460, .T. ) ;
#404 = AXIS2_PLACEMENT_3D ( 'NONE', #672, #336, #185 ) ;
#405 = DIRECTION ( 'NONE',  ( 0.000000000000000000, 0.000000000000000000, 1.000000000000000000 ) ) ;
#406 = AXIS2_PLACEMENT_3D ( 'NONE', #4, #376, #11 ) ;
#407 = DIRECTION ( 'NONE',  ( -1.000000000000000000, -0.000000000000000000, -0.000000000000000000 ) ) ;
#408 = MANIFOLD_SOLID_BREP ( 'Fillet2', #155 ) ;
#409 = VERTEX_POINT ( 'NONE', #480 ) ;
#410 = ADVANCED_FACE ( 'NONE', ( #367, #416 ), #362, .F. ) ;
#411 = DIRECTION ( 'NONE',  ( 1.000000000000000000, -0.000000000000000000, -0.000000000000000000 ) ) ;
#412 = LINE ( 'NONE', #138, #239 ) ;
#413 = ORIENTED_EDGE ( 'NONE', *, *, #654, .T. ) ;
#414 = DIRECTION ( 'NONE',  ( 0.000000000000000000, 0.000000000000000000, -1.000000000000000000 ) ) ;
#415 = ADVANCED_FACE ( 'NONE', ( #146 ), #359, .F. ) ;
#416 = FACE_OUTER_BOUND ( 'NONE', #500, .T. ) ;
#417 = ORIENTED_EDGE ( 'NONE', *, *, #75, .F. ) ;
#418 = CARTESIAN_POINT ( 'NONE',  ( 0.2949999999999999845, 0.1499999999999999667, 0.1499999999999999667 ) ) ;
#419 = VECTOR ( 'NONE', #31, 39.37007874015748143 ) ;
#420 = COLOUR_RGB ( '',0.7921568627450980005, 0.8196078431372548767, 0.9333333333333333481 ) ;
#421 = EDGE_CURVE ( 'NONE', #85, #250, #104, .T. ) ;
#422 = LENGTH_MEASURE_WITH_UNIT ( LENGTH_MEASURE( 0.02539999999999999897 ), #528 );
#423 = EDGE_CURVE ( 'NONE', #46, #452, #430, .T. ) ;
#424 = ORIENTED_EDGE ( 'NONE', *, *, #388, .T. ) ;
#425 = DIRECTION ( 'NONE',  ( -0.000000000000000000, 1.000000000000000000, -0.000000000000000000 ) ) ;
#426 = PLANE ( 'NONE',  #331 ) ;
#427 = PRODUCT_DEFINITION ( 'UNKNOWN', '', #477, #464 ) ;
#428 = ORIENTED_EDGE ( 'NONE', *, *, #171, .T. ) ;
#429 = CARTESIAN_POINT ( 'NONE',  ( -1.000000000000000000, 0.000000000000000000, 0.000000000000000000 ) ) ;
#430 = LINE ( 'NONE', #585, #445 ) ;
#431 = ORIENTED_EDGE ( 'NONE', *, *, #573, .T. ) ;
#432 = EDGE_CURVE ( 'NONE', #459, #46, #205, .T. ) ;
#433 = FACE_OUTER_BOUND ( 'NONE', #658, .T. ) ;
#434 = VECTOR ( 'NONE', #615, 39.37007874015748143 ) ;
#435 = VECTOR ( 'NONE', #256, 39.37007874015748143 ) ;
#436 = ORIENTED_EDGE ( 'NONE', *, *, #564, .T. ) ;
#437 = DIRECTION ( 'NONE',  ( 0.000000000000000000, -0.000000000000000000, 1.000000000000000000 ) ) ;
#438 = DIRECTION ( 'NONE',  ( -1.000000000000000000, -0.000000000000000000, -0.000000000000000000 ) ) ;
#439 =( NAMED_UNIT ( * ) PLANE_ANGLE_UNIT ( ) SI_UNIT ( $, .RADIAN. ) );
#440 = DIRECTION ( 'NONE',  ( -0.000000000000000000, -0.000000000000000000, 1.000000000000000000 ) ) ;
#441 = ORIENTED_EDGE ( 'NONE', *, *, #453, .T. ) ;
#442 = SHAPE_DEFINITION_REPRESENTATION ( #665, #86 ) ;
#443 = VECTOR ( 'NONE', #603, 39.37007874015748143 ) ;
#444 = DIRECTION ( 'NONE',  ( 0.000000000000000000, 0.000000000000000000, -1.000000000000000000 ) ) ;
#445 = VECTOR ( 'NONE', #98, 39.37007874015748143 ) ;
#446 = ORIENTED_EDGE ( 'NONE', *, *, #67, .F. ) ;
#447 = PRODUCT_RELATED_PRODUCT_CATEGORY ( 'part', '', ( #29 ) ) ;
#448 = LINE ( 'NONE', #60, #443 ) ;
#449 = EDGE_CURVE ( 'NONE', #536, #409, #693, .T. ) ;
#450 = ORIENTED_EDGE ( 'NONE', *, *, #578, .F. ) ;
#451 = CARTESIAN_POINT ( 'NONE',  ( 1.000000000000000000, -1.399999999999999911, -1.000000000000000222 ) ) ;
#452 = VERTEX_POINT ( 'NONE', #568 ) ;
#453 = EDGE_CURVE ( 'NONE', #502, #452, #683, .T. ) ;
#454 = CARTESIAN_POINT ( 'NONE',  ( 1.000000000000000000, -0.2500000000000000000, -3.061616997868383018E-17 ) ) ;
#455 = VERTEX_POINT ( 'NONE', #341 ) ;
#456 = VECTOR ( 'NONE', #478, 39.37007874015748143 ) ;
#457 = AXIS2_PLACEMENT_3D ( 'NONE', #638, #642, #141 ) ;
#458 = DIRECTION ( 'NONE',  ( 1.000000000000000000, 0.000000000000000000, -0.000000000000000000 ) ) ;
#459 = VERTEX_POINT ( 'NONE', #83 ) ;
#460 = EDGE_CURVE ( 'NONE', #363, #465, #688, .T. ) ;
#461 = VERTEX_POINT ( 'NONE', #636 ) ;
#462 = CYLINDRICAL_SURFACE ( 'NONE', #200, 0.04000000000000000083 ) ;
#463 = DIRECTION ( 'NONE',  ( 0.000000000000000000, 0.000000000000000000, -1.000000000000000000 ) ) ;
#464 = PRODUCT_DEFINITION_CONTEXT ( 'detailed design', #537, 'design' ) ;
#465 = VERTEX_POINT ( 'NONE', #296 ) ;
#466 = VECTOR ( 'NONE', #52, 39.37007874015748143 ) ;
#467 = DIRECTION ( 'NONE',  ( 1.000000000000000000, 0.000000000000000000, 0.000000000000000000 ) ) ;
#468 = CARTESIAN_POINT ( 'NONE',  ( -0.2950000000000002620, 0.1499999999999999667, 0.1499999999999999667 ) ) ;
#469 = ORIENTED_EDGE ( 'NONE', *, *, #70, .T. ) ;
#470 =( BOUNDED_CURVE ( )  B_SPLINE_CURVE ( 3, ( #90, #301, #37, #133 ),
 .UNSPECIFIED., .F., .T. ) 
 B_SPLINE_CURVE_WITH_KNOTS ( ( 4, 4 ),
 ( 1.570796326794896558, 3.141592653589793116 ),
 .UNSPECIFIED. ) 
 CURVE ( )  GEOMETRIC_REPRESENTATION_ITEM ( )  RATIONAL_B_SPLINE_CURVE ( ( 1.000000000000000000, 0.8047378541243649375, 0.8047378541243649375, 1.000000000000000000 ) ) 
 REPRESENTATION_ITEM ( '' )  );
#471 = ORIENTED_EDGE ( 'NONE', *, *, #553, .T. ) ;
#472 = ADVANCED_FACE ( 'NONE', ( #675 ), #238, .F. ) ;
#473 = FACE_OUTER_BOUND ( 'NONE', #520, .T. ) ;
#474 =( NAMED_UNIT ( * ) SI_UNIT ( $, .STERADIAN. ) SOLID_ANGLE_UNIT ( ) );
#475 = ORIENTED_EDGE ( 'NONE', *, *, #686, .F. ) ;
#476 = DIRECTION ( 'NONE',  ( -0.000000000000000000, 1.000000000000000000, 1.224646799147353207E-16 ) ) ;
#477 = PRODUCT_DEFINITION_FORMATION_WITH_SPECIFIED_SOURCE ( 'ANY', '', #29, .NOT_KNOWN. ) ;
#478 = DIRECTION ( 'NONE',  ( -1.000000000000000000, -0.000000000000000000, -0.000000000000000000 ) ) ;
#479 = PLANE ( 'NONE',  #285 ) ;
#480 = CARTESIAN_POINT ( 'NONE',  ( 0.2949999999999999289, 0.1500000000000000500, -1.169999999999999485 ) ) ;
#481 = VERTEX_POINT ( 'NONE', #621 ) ;
#482 = CARTESIAN_POINT ( 'NONE',  ( -0.2550000000000001155, -1.399999999999999911, -1.129999999999999449 ) ) ;
#483 = ORIENTED_EDGE ( 'NONE', *, *, #22, .T. ) ;
#484 = ADVANCED_FACE ( 'NONE', ( #184 ), #26, .T. ) ;
#485 = CARTESIAN_POINT ( 'NONE',  ( 1.000000000000000000, 0.000000000000000000, 0.000000000000000000 ) ) ;
#486 = VECTOR ( 'NONE', #661, 39.37007874015748143 ) ;
#487 = AXIS2_PLACEMENT_3D ( 'NONE', #126, #467, #414 ) ;
#488 = ORIENTED_EDGE ( 'NONE', *, *, #449, .F. ) ;
#489 = EDGE_CURVE ( 'NONE', #337, #674, #140, .T. ) ;
#490 = DIRECTION ( 'NONE',  ( 1.000000000000000000, 0.000000000000000000, 0.000000000000000000 ) ) ;
#491 = DIRECTION ( 'NONE',  ( 0.000000000000000000, -4.444584246060173992E-15, -1.000000000000000000 ) ) ;
#492 = ORIENTED_EDGE ( 'NONE', *, *, #252, .F. ) ;
#493 = CARTESIAN_POINT ( 'NONE',  ( 1.000000000000000000, -1.399999999999999911, -1.000000000000000222 ) ) ;
#494 = DIRECTION ( 'NONE',  ( -0.000000000000000000, 1.000000000000000000, -0.000000000000000000 ) ) ;
#495 = ORIENTED_EDGE ( 'NONE', *, *, #489, .F. ) ;
#496 = DIRECTION ( 'NONE',  ( 0.000000000000000000, 0.000000000000000000, 1.000000000000000000 ) ) ;
#497 = EDGE_CURVE ( 'NONE', #536, #28, #538, .T. ) ;
#498 = VECTOR ( 'NONE', #258, 39.37007874015748143 ) ;
#499 = CARTESIAN_POINT ( 'NONE',  ( 0.4050000000000000266, -1.399999999999999911, -1.249999999999999556 ) ) ;
#500 = EDGE_LOOP ( 'NONE', ( #76, #135, #147, #471, #516, #150, #125, #330 ) ) ;
#501 = LINE ( 'NONE', #17, #434 ) ;
#502 = VERTEX_POINT ( 'NONE', #633 ) ;
#503 = DIRECTION ( 'NONE',  ( -1.000000000000000000, -0.000000000000000000, -0.000000000000000000 ) ) ;
#504 = ADVANCED_FACE ( 'NONE', ( #187 ), #462, .T. ) ;
#505 = ORIENTED_EDGE ( 'NONE', *, *, #519, .T. ) ;
#506 = CARTESIAN_POINT ( 'NONE',  ( 0.4050000000000000266, -1.399999999999999911, -1.249999999999999556 ) ) ;
#507 = CIRCLE ( 'NONE', #297, 3.134696969696974644 ) ;
#508 = VERTEX_POINT ( 'NONE', #235 ) ;
#509 = VECTOR ( 'NONE', #530, 39.37007874015748143 ) ;
#510 = CARTESIAN_POINT ( 'NONE',  ( 1.000000000000000000, -1.399999999999999911, 2.134696969696975533 ) ) ;
#511 = LINE ( 'NONE', #192, #625 ) ;
#512 = EDGE_LOOP ( 'NONE', ( #1, #390, #234, #36 ) ) ;
#513 = DIRECTION ( 'NONE',  ( 0.000000000000000000, -1.000000000000000000, 0.000000000000000000 ) ) ;
#514 = ADVANCED_FACE ( 'NONE', ( #522 ), #346, .T. ) ;
#515 = CARTESIAN_POINT ( 'NONE',  ( 0.2549999999999999489, 0.1334314575050761231, -0.8199999999999996181 ) ) ;
#516 = ORIENTED_EDGE ( 'NONE', *, *, #704, .F. ) ;
#517 = LINE ( 'NONE', #207, #523 ) ;
#518 = DIRECTION ( 'NONE',  ( 0.000000000000000000, -1.224646799147353207E-16, 1.000000000000000000 ) ) ;
#519 = EDGE_CURVE ( 'NONE', #409, #116, #470, .T. ) ;
#520 = EDGE_LOOP ( 'NONE', ( #608, #526, #620, #63 ) ) ;
#521 = VECTOR ( 'NONE', #701, 39.37007874015748143 ) ;
#522 = FACE_OUTER_BOUND ( 'NONE', #348, .T. ) ;
#523 = VECTOR ( 'NONE', #152, 39.37007874015748143 ) ;
#524 = CARTESIAN_POINT ( 'NONE',  ( 0.2549999999999998934, -1.399999999999999911, -1.129999999999999449 ) ) ;
#525 = ADVANCED_FACE ( 'NONE', ( #577 ), #136, .T. ) ;
#526 = ORIENTED_EDGE ( 'NONE', *, *, #656, .T. ) ;
#527 = DIRECTION ( 'NONE',  ( 1.000000000000000000, 0.000000000000000000, 0.000000000000000000 ) ) ;
#528 =( LENGTH_UNIT ( ) NAMED_UNIT ( * ) SI_UNIT ( $, .METRE. ) );
#529 = ORIENTED_EDGE ( 'NONE', *, *, #113, .T. ) ;
#530 = DIRECTION ( 'NONE',  ( -0.000000000000000000, -6.668018366885506520E-17, 1.000000000000000000 ) ) ;
#531 = CARTESIAN_POINT ( 'NONE',  ( -0.4050000000000000266, 0.1500000000000000500, -0.8742353287563953135 ) ) ;
#532 = ORIENTED_EDGE ( 'NONE', *, *, #384, .T. ) ;
#533 = CARTESIAN_POINT ( 'NONE',  ( -0.2550000000000001155, -1.399999999999999911, -1.129999999999999449 ) ) ;
#534 = VECTOR ( 'NONE', #276, 39.37007874015748143 ) ;
#535 = CARTESIAN_POINT ( 'NONE',  ( 0.2549999999999998934, -1.399999999999999911, -1.129999999999999449 ) ) ;
#536 = VERTEX_POINT ( 'NONE', #243 ) ;
#537 = APPLICATION_CONTEXT ( 'automotive_design' ) ;
#538 =( BOUNDED_CURVE ( )  B_SPLINE_CURVE ( 3, ( #284, #191, #349, #95 ),
 .UNSPECIFIED., .F., .T. ) 
 B_SPLINE_CURVE_WITH_KNOTS ( ( 4, 4 ),
 ( 4.712388980384689674, 6.283185307179586232 ),
 .UNSPECIFIED. ) 
 CURVE ( )  GEOMETRIC_REPRESENTATION_ITEM ( )  RATIONAL_B_SPLINE_CURVE ( ( 1.000000000000000000, 0.8047378541243649375, 0.8047378541243649375, 1.000000000000000000 ) ) 
 REPRESENTATION_ITEM ( '' )  );
#539 = CARTESIAN_POINT ( 'NONE',  ( 1.000000000000000000, -1.399999999999999911, -1.249999999999999556 ) ) ;
#540 = DIRECTION ( 'NONE',  ( 1.000000000000000000, 0.000000000000000000, 0.000000000000000000 ) ) ;
#541 = VERTEX_POINT ( 'NONE', #293 ) ;
#542 = DIRECTION ( 'NONE',  ( 0.000000000000000000, 0.000000000000000000, -1.000000000000000000 ) ) ;
#543 = CARTESIAN_POINT ( 'NONE',  ( 1.000000000000000000, -1.399999999999999911, -1.000000000000000222 ) ) ;
#544 = CARTESIAN_POINT ( 'NONE',  ( 1.000000000000000000, -1.399999999999999911, 2.134696969696975533 ) ) ;
#545 = VECTOR ( 'NONE', #378, 39.37007874015748143 ) ;
#546 = CIRCLE ( 'NONE', #406, 3.384696969696975088 ) ;
#547 = DIRECTION ( 'NONE',  ( 0.000000000000000000, 0.000000000000000000, 1.000000000000000000 ) ) ;
#548 = EDGE_CURVE ( 'NONE', #325, #677, #517, .T. ) ;
#549 = ORIENTED_EDGE ( 'NONE', *, *, #364, .F. ) ;
#550 = DIRECTION ( 'NONE',  ( -1.000000000000000000, -0.000000000000000000, -0.000000000000000000 ) ) ;
#551 = LINE ( 'NONE', #664, #129 ) ;
#552 = ORIENTED_EDGE ( 'NONE', *, *, #421, .F. ) ;
#553 = EDGE_CURVE ( 'NONE', #327, #461, #703, .T. ) ;
#554 = EDGE_CURVE ( 'NONE', #225, #28, #373, .T. ) ;
#555 = CARTESIAN_POINT ( 'NONE',  ( 1.000000000000000000, 0.1499999999999999667, 0.1499999999999999667 ) ) ;
#556 = ORIENTED_EDGE ( 'NONE', *, *, #7, .F. ) ;
#557 = DIRECTION ( 'NONE',  ( 0.000000000000000000, 0.000000000000000000, 1.000000000000000000 ) ) ;
#558 = DIRECTION ( 'NONE',  ( -1.000000000000000000, -0.000000000000000000, -0.000000000000000000 ) ) ;
#559 = ORIENTED_EDGE ( 'NONE', *, *, #564, .F. ) ;
#560 = LINE ( 'NONE', #20, #671 ) ;
#561 = EDGE_LOOP ( 'NONE', ( #193, #261, #165, #605, #295, #334, #245, #403 ) ) ;
#562 = CARTESIAN_POINT ( 'NONE',  ( 1.000000000000000000, -1.399999999999999911, 2.134696969696975533 ) ) ;
#563 = CARTESIAN_POINT ( 'NONE',  ( 1.000000000000000000, -1.399999999999999911, -1.000000000000000222 ) ) ;
#564 = EDGE_CURVE ( 'NONE', #541, #631, #201, .T. ) ;
#565 = EDGE_LOOP ( 'NONE', ( #139, #222, #280, #50, #682, #242, #72, #320 ) ) ;
#566 = CARTESIAN_POINT ( 'NONE',  ( 0.2949999999999999289, 0.1500000000000000500, -0.7799999999999995826 ) ) ;
#567 = EDGE_LOOP ( 'NONE', ( #697, #559, #306, #626, #42, #612, #107, #687 ) ) ;
#568 = CARTESIAN_POINT ( 'NONE',  ( 0.2549999999999998934, 0.1099999999999999173, -0.8199999999999996181 ) ) ;
#569 = LINE ( 'NONE', #563, #319 ) ;
#570 = ORIENTED_EDGE ( 'NONE', *, *, #609, .F. ) ;
#571 = EDGE_CURVE ( 'NONE', #631, #363, #695, .T. ) ;
#572 = CARTESIAN_POINT ( 'NONE',  ( 1.000000000000000000, -1.399999999999999911, 2.134696969696975533 ) ) ;
#573 = EDGE_CURVE ( 'NONE', #409, #158, #108, .T. ) ;
#574 = DIRECTION ( 'NONE',  ( -0.000000000000000000, 0.000000000000000000, -1.000000000000000000 ) ) ;
#575 = ORIENTED_EDGE ( 'NONE', *, *, #632, .T. ) ;
#576 = DIMENSIONAL_EXPONENTS ( 1.000000000000000000, 0.000000000000000000, 0.000000000000000000, 0.000000000000000000, 0.000000000000000000, 0.000000000000000000, 0.000000000000000000 ) ;
#577 = FACE_OUTER_BOUND ( 'NONE', #565, .T. ) ;
#578 = EDGE_CURVE ( 'NONE', #225, #597, #262, .T. ) ;
#579 = CARTESIAN_POINT ( 'NONE',  ( 1.000000000000000000, 0.1500000000000000500, -0.8742353287563953135 ) ) ;
#580 = ORIENTED_EDGE ( 'NONE', *, *, #432, .F. ) ;
#581 = PRESENTATION_STYLE_ASSIGNMENT (( #45 ) ) ;
#582 = ADVANCED_FACE ( 'NONE', ( #204 ), #259, .F. ) ;
#583 = EDGE_LOOP ( 'NONE', ( #199, #25, #6, #552, #417 ) ) ;
#584 = DIRECTION ( 'NONE',  ( 0.000000000000000000, 0.000000000000000000, -1.000000000000000000 ) ) ;
#585 = CARTESIAN_POINT ( 'NONE',  ( 0.2549999999999998934, -1.399999999999999911, -0.8199999999999996181 ) ) ;
#586 = LINE ( 'NONE', #211, #498 ) ;
#587 = ADVANCED_FACE ( 'NONE', ( #433 ), #479, .F. ) ;
#588 = DIRECTION ( 'NONE',  ( 1.000000000000000000, 0.000000000000000000, 0.000000000000000000 ) ) ;
#589 = DIRECTION ( 'NONE',  ( 0.000000000000000000, 0.000000000000000000, 1.000000000000000000 ) ) ;
#590 = EDGE_LOOP ( 'NONE', ( #180, #495, #303, #469 ) ) ;
#591 = CARTESIAN_POINT ( 'NONE',  ( -0.4049999999999999156, -1.399999999999999911, 2.134696969696975533 ) ) ;
#592 = VECTOR ( 'NONE', #438, 39.37007874015748143 ) ;
#593 = EDGE_CURVE ( 'NONE', #455, #662, #298, .T. ) ;
#594 = CARTESIAN_POINT ( 'NONE',  ( 0.4050000000000000266, -1.399999999999999911, -1.249999999999999556 ) ) ;
#595 = ORIENTED_EDGE ( 'NONE', *, *, #340, .F. ) ;
#596 = FACE_OUTER_BOUND ( 'NONE', #81, .T. ) ;
#597 = VERTEX_POINT ( 'NONE', #196 ) ;
#598 = DIRECTION ( 'NONE',  ( 0.000000000000000000, 0.000000000000000000, -1.000000000000000000 ) ) ;
#599 = DIRECTION ( 'NONE',  ( 0.000000000000000000, -4.553079989440439683E-16, 1.000000000000000000 ) ) ;
#600 = LINE ( 'NONE', #610, #392 ) ;
#601 = VECTOR ( 'NONE', #127, 39.37007874015748143 ) ;
#602 = VECTOR ( 'NONE', #361, 39.37007874015748143 ) ;
#603 = DIRECTION ( 'NONE',  ( -1.000000000000000000, 0.000000000000000000, 0.000000000000000000 ) ) ;
#604 = EDGE_CURVE ( 'NONE', #292, #325, #51, .T. ) ;
#605 = ORIENTED_EDGE ( 'NONE', *, *, #75, .T. ) ;
#606 = CARTESIAN_POINT ( 'NONE',  ( 0.4050000000000000266, 0.1500000000000000500, -0.8742353287563953135 ) ) ;
#607 = CARTESIAN_POINT ( 'NONE',  ( 0.4050000000000000266, -1.399999999999999911, -1.249999999999999556 ) ) ;
#608 = ORIENTED_EDGE ( 'NONE', *, *, #226, .T. ) ;
#609 = EDGE_CURVE ( 'NONE', #508, #399, #177, .T. ) ;
#610 = CARTESIAN_POINT ( 'NONE',  ( -0.2550000000000001155, -1.399999999999999911, -1.129999999999999449 ) ) ;
#611 = CARTESIAN_POINT ( 'NONE',  ( 0.2549999999999998934, -1.399999999999999911, -1.129999999999999449 ) ) ;
#612 = ORIENTED_EDGE ( 'NONE', *, *, #654, .F. ) ;
#613 = CARTESIAN_POINT ( 'NONE',  ( 1.000000000000000000, 0.000000000000000000, 0.000000000000000000 ) ) ;
#614 = ADVANCED_FACE ( 'NONE', ( #473 ), #100, .T. ) ;
#615 = DIRECTION ( 'NONE',  ( -0.000000000000000000, -1.000000000000000000, -0.000000000000000000 ) ) ;
#616 = AXIS2_PLACEMENT_3D ( 'NONE', #2, #371, #366 ) ;
#617 = ORIENTED_EDGE ( 'NONE', *, *, #377, .T. ) ;
#618 = ADVANCED_FACE ( 'NONE', ( #307 ), #357, .F. ) ;
#619 = CARTESIAN_POINT ( 'NONE',  ( 1.000000000000000000, -0.2500000000000000555, 0.1499999999999999667 ) ) ;
#620 = ORIENTED_EDGE ( 'NONE', *, *, #553, .F. ) ;
#621 = CARTESIAN_POINT ( 'NONE',  ( -0.2950000000000001510, 0.1500000000000000500, -0.7799999999999995826 ) ) ;
#622 = LINE ( 'NONE', #619, #188 ) ;
#623 = ORIENTED_EDGE ( 'NONE', *, *, #421, .T. ) ;
#624 = CYLINDRICAL_SURFACE ( 'NONE', #404, 0.04000000000000000083 ) ;
#625 = VECTOR ( 'NONE', #241, 39.37007874015748143 ) ;
#626 = ORIENTED_EDGE ( 'NONE', *, *, #246, .F. ) ;
#627 = AXIS2_PLACEMENT_3D ( 'NONE', #510, #232, #405 ) ;
#628 = AXIS2_PLACEMENT_3D ( 'NONE', #169, #166, #172 ) ;
#629 = CARTESIAN_POINT ( 'NONE',  ( -0.2550000000000001155, -1.399999999999999911, -1.129999999999999449 ) ) ;
#630 = PLANE ( 'NONE',  #68 ) ;
#631 = VERTEX_POINT ( 'NONE', #429 ) ;
#632 = EDGE_CURVE ( 'NONE', #508, #270, #653, .T. ) ;
#633 = CARTESIAN_POINT ( 'NONE',  ( -0.2550000000000001155, 0.1099999999999999173, -0.8199999999999996181 ) ) ;
#634 = CARTESIAN_POINT ( 'NONE',  ( 0.2715685424949236260, 0.1499999999999998834, -0.8034314575050757190 ) ) ;
#635 = ORIENTED_EDGE ( 'NONE', *, *, #365, .F. ) ;
#636 = CARTESIAN_POINT ( 'NONE',  ( 0.4050000000000000266, 0.1500000000000000500, -0.8742353287563953135 ) ) ;
#637 = ADVANCED_FACE ( 'NONE', ( #596 ), #314, .F. ) ;
#638 = CARTESIAN_POINT ( 'NONE',  ( 1.000000000000000000, 0.1499999999999999667, 0.1499999999999999667 ) ) ;
#639 = CARTESIAN_POINT ( 'NONE',  ( -0.2550000000000001155, 0.1099999999999999173, -1.129999999999999449 ) ) ;
#640 = DIRECTION ( 'NONE',  ( -0.000000000000000000, 4.553079989440439683E-16, -1.000000000000000000 ) ) ;
#641 = AXIS2_PLACEMENT_3D ( 'NONE', #670, #322, #557 ) ;
#642 = DIRECTION ( 'NONE',  ( 0.000000000000000000, -1.000000000000000000, -6.668018366885506520E-17 ) ) ;
#643 = ORIENTED_EDGE ( 'NONE', *, *, #283, .T. ) ;
#644 = CARTESIAN_POINT ( 'NONE',  ( -1.000000000000000000, 0.000000000000000000, 0.000000000000000000 ) ) ;
#645 = FILL_AREA_STYLE ('',( #38 ) ) ;
#646 = ORIENTED_EDGE ( 'NONE', *, *, #497, .T. ) ;
#647 = DIRECTION ( 'NONE',  ( 0.000000000000000000, 0.000000000000000000, 1.000000000000000000 ) ) ;
#648 =( NAMED_UNIT ( * ) PLANE_ANGLE_UNIT ( ) SI_UNIT ( $, .RADIAN. ) );
#649 = ORIENTED_EDGE ( 'NONE', *, *, #137, .T. ) ;
#650 = EDGE_CURVE ( 'NONE', #652, #18, #97, .T. ) ;
#651 = CARTESIAN_POINT ( 'NONE',  ( -1.000000000000000000, -1.399999999999999911, 2.134696969696975533 ) ) ;
#652 = VERTEX_POINT ( 'NONE', #44 ) ;
#653 = LINE ( 'NONE', #539, #13 ) ;
#654 = EDGE_CURVE ( 'NONE', #270, #652, #265, .T. ) ;
#655 = CARTESIAN_POINT ( 'NONE',  ( 0.2549999999999998934, 0.1099999999999999173, -1.129999999999999449 ) ) ;
#656 = EDGE_CURVE ( 'NONE', #114, #461, #546, .T. ) ;
#657 = DIRECTION ( 'NONE',  ( -1.000000000000000000, -0.000000000000000000, -0.000000000000000000 ) ) ;
#658 = EDGE_LOOP ( 'NONE', ( #360, #237, #93 ) ) ;
#659 =( LENGTH_UNIT ( ) NAMED_UNIT ( * ) SI_UNIT ( $, .METRE. ) );
#660 = AXIS2_PLACEMENT_3D ( 'NONE', #572, #527, #87 ) ;
#661 = DIRECTION ( 'NONE',  ( 0.000000000000000000, 0.000000000000000000, -1.000000000000000000 ) ) ;
#662 = VERTEX_POINT ( 'NONE', #493 ) ;
#663 = CYLINDRICAL_SURFACE ( 'NONE', #641, 0.03999999999999998002 ) ;
#664 = CARTESIAN_POINT ( 'NONE',  ( 1.000000000000000000, 0.1499999999999999667, 0.1499999999999999667 ) ) ;
#665 = PRODUCT_DEFINITION_SHAPE ( 'NONE', 'NONE',  #427 ) ;
#666 = EDGE_LOOP ( 'NONE', ( #208, #351, #492, #277 ) ) ;
#667 = DIRECTION ( 'NONE',  ( 0.000000000000000000, 0.000000000000000000, -1.000000000000000000 ) ) ;
#668 = DIRECTION ( 'NONE',  ( -0.000000000000000000, 4.553079989440439683E-16, -1.000000000000000000 ) ) ;
#669 = ORIENTED_EDGE ( 'NONE', *, *, #283, .F. ) ;
#670 = CARTESIAN_POINT ( 'NONE',  ( -0.2550000000000001155, 0.1099999999999999173, -1.169999999999999485 ) ) ;
#671 = VECTOR ( 'NONE', #440, 39.37007874015748143 ) ;
#672 = CARTESIAN_POINT ( 'NONE',  ( 0.2949999999999999289, 0.1099999999999999173, -1.129999999999999449 ) ) ;
#673 = AXIS2_PLACEMENT_3D ( 'NONE', #106, #144, #647 ) ;
#674 = VERTEX_POINT ( 'NONE', #73 ) ;
#675 = FACE_OUTER_BOUND ( 'NONE', #190, .T. ) ;
#676 = PLANE ( 'NONE',  #102 ) ;
#677 = VERTEX_POINT ( 'NONE', #613 ) ;
#678 = CARTESIAN_POINT ( 'NONE',  ( 1.000000000000000000, 0.1500000000000000500, -1.169999999999999707 ) ) ;
#679 = CARTESIAN_POINT ( 'NONE',  ( 1.000000000000000000, 0.1500000000000000500, -0.8742353287563953135 ) ) ;
#680 = ADVANCED_FACE ( 'NONE', ( #381 ), #663, .T. ) ;
#681 = EDGE_CURVE ( 'NONE', #119, #327, #228, .T. ) ;
#682 = ORIENTED_EDGE ( 'NONE', *, *, #212, .T. ) ;
#683 = LINE ( 'NONE', #289, #94 ) ;
#684 = LINE ( 'NONE', #189, #176 ) ;
#685 = VECTOR ( 'NONE', #668, 39.37007874015748143 ) ;
#686 = EDGE_CURVE ( 'NONE', #250, #225, #600, .T. ) ;
#687 = ORIENTED_EDGE ( 'NONE', *, *, #460, .F. ) ;
#688 = CIRCLE ( 'NONE', #130, 3.134696969696975088 ) ;
#689 = CARTESIAN_POINT ( 'NONE',  ( 0.4050000000000000266, 0.1500000000000000500, -1.249999999999999556 ) ) ;
#690 = DIRECTION ( 'NONE',  ( -1.000000000000000000, 0.000000000000000000, 0.000000000000000000 ) ) ;
#691 = ORIENTED_EDGE ( 'NONE', *, *, #226, .F. ) ;
#692 = EDGE_CURVE ( 'NONE', #28, #502, #278, .T. ) ;
#693 = LINE ( 'NONE', #678, #275 ) ;
#694 = ORIENTED_EDGE ( 'NONE', *, *, #257, .T. ) ;
#695 = LINE ( 'NONE', #148, #602 ) ;
#696 = ADVANCED_FACE ( 'NONE', ( #19 ), #66, .F. ) ;
#697 = ORIENTED_EDGE ( 'NONE', *, *, #571, .F. ) ;
#698 = CIRCLE ( 'NONE', #368, 3.134696969696975088 ) ;
#699 = VECTOR ( 'NONE', #425, 39.37007874015748143 ) ;
#700 = DIRECTION ( 'NONE',  ( -1.000000000000000000, -0.000000000000000000, -0.000000000000000000 ) ) ;
#701 = DIRECTION ( 'NONE',  ( 0.000000000000000000, 1.000000000000000000, 0.000000000000000000 ) ) ;
#702 = LINE ( 'NONE', #54, #92 ) ;
#703 = LINE ( 'NONE', #49, #309 ) ;
#704 = EDGE_CURVE ( 'NONE', #337, #461, #117, .T. ) ;
#705 = DIRECTION ( 'NONE',  ( -1.000000000000000000, -0.000000000000000000, -0.000000000000000000 ) ) ;
#706 = CARTESIAN_POINT ( 'NONE',  ( -0.4050000000000000266, 0.000000000000000000, 0.000000000000000000 ) ) ;
ENDSEC;
END-ISO-10303-21;
